<svg width="192" height="60" viewBox="0 0 192 60" fill="none" xmlns="http://www.w3.org/2000/svg">
<path d="M94.8029 4.58444C98.7476 6.61655 109.595 6.82574 114.526 6.67632C117.863 6.32767 125.733 5.4212 130.514 4.58444C136.491 3.53849 138.284 4.58444 157.111 0.848944C175.938 -2.88655 184.604 6.67632 187.593 10.7107C190.581 14.745 192.822 20.2735 189.386 34.7673C185.949 49.261 166.226 51.3529 162.938 51.3529C159.651 51.3529 149.042 54.1918 144.709 54.0424C141.243 53.9229 135.495 52.7972 133.054 52.2494C128.273 61.0651 103.469 60.4675 99.5843 59.4215C95.6994 58.3756 91.0674 57.9273 87.3319 56.732C84.3435 55.7757 80.608 53.3451 79.1138 52.2494C70.3478 53.2953 51.1424 55.6561 44.4484 56.732C36.0809 58.0768 15.7598 51.9505 13.3691 48.3645C10.9784 44.7784 5.44984 41.6406 0.967246 30.7329C-3.51535 19.8253 8.8865 8.31994 11.5761 7.72226C14.2656 7.12459 27.7134 2.19372 34.1384 0.848944C40.5635 -0.49583 54.0113 1.2972 59.6892 0.848944C65.3672 0.400684 89.872 2.0443 94.8029 4.58444Z" fill="#EFE3D8"/>
<path d="M112.434 21.6184C112.554 17.3151 110.392 13.9481 109.296 12.8026C106.756 12.3543 99.6141 11.1889 91.3661 10.113C81.0561 8.76826 63.1258 8.61883 54.1606 6.52695C45.1954 4.43507 30.5522 6.52695 21.4376 10.113C12.323 13.6991 8.58751 17.8829 6.79447 26.3998C5.00143 34.9167 12.7713 40.7441 20.3917 45.0773C28.0121 49.4104 28.3109 47.1692 37.7244 48.9622C45.2551 50.3966 51.8197 48.3645 54.1606 47.1692C39.6668 51.5023 16.5068 42.836 21.4376 32.0778C26.3685 21.3195 45.046 29.3882 54.1606 30.733C63.2752 32.0778 73.1369 39.5487 76.8724 42.836C80.6079 46.1232 83.7457 46.2726 93.3086 51.5023C102.871 56.732 114.526 53.5942 122.894 51.5023C131.261 49.4105 143.215 39.5487 146.054 36.5604C148.893 33.572 158.605 30.5836 162.789 30.733C166.973 30.8824 173.696 28.0434 176.237 30.5836C178.777 33.1237 179.225 35.8132 176.237 39.5487C173.846 42.5372 166.873 44.4796 163.685 45.0773C189.983 42.5371 186.845 25.5033 184.604 19.2277C182.363 12.952 182.213 14.1474 176.237 8.61883C170.26 3.09029 159.053 5.48101 155.318 6.52695C151.582 7.57289 151.433 6.82579 145.456 8.61883C139.479 10.4119 136.939 11.4578 130.215 12.8026C124.836 13.8784 118.81 13.2508 116.469 12.8026V24.1585C116.469 29.8364 114.526 30.2847 114.526 35.8132C114.526 40.2361 111.04 43.8321 109.296 45.0773C109.894 43.2344 111.09 38.8016 111.09 35.8132C111.09 32.0777 112.285 26.9975 112.434 21.6184Z" fill="#7D574D"/>
</svg>
