<svg width="270" height="56" viewBox="0 0 270 56" fill="none" xmlns="http://www.w3.org/2000/svg">
<path d="M1.38828 13.938C0.829801 12.2579 0.690181 5.07109 0.690181 1.68767C3.48255 -0.0623648 6.62401 3.43771 24.4255 1.68767C42.2269 -0.0623811 43.2741 10.4379 42.2269 13.938C41.1798 17.4381 41.1798 19.1881 40.1326 21.9882C39.2949 24.2283 34.4315 25.955 32.1045 26.5383C43.2741 28.2884 43.9722 33.1885 43.9722 35.9886C43.9722 38.7887 45.0193 42.9888 40.1326 49.989C35.246 56.9891 19.1897 55.2391 15.0012 54.8891C11.6503 54.6091 4.06432 55.0058 0.690181 55.2391C1.03923 50.9223 1.5279 41.7287 0.690181 39.4887C-0.356963 36.6886 -0.00791483 32.8385 0.690181 29.6884C1.38828 26.5383 2.08637 16.0381 1.38828 13.938Z" fill="#EFE3D8"/>
<path d="M49.5569 16.0381C48.7192 14.078 49.2079 5.65444 49.5569 1.68767C52.3493 2.38768 66.3112 -1.11241 78.877 2.03768C91.4427 5.18776 92.8389 14.988 92.1408 18.8381C91.4427 22.6882 91.4427 24.7883 90.3956 28.2884C89.5578 31.0885 85.3925 33.8885 83.4146 34.9386C84.8108 36.3386 87.9522 44.7388 89.6975 46.8389C91.0937 48.5189 93.3043 52.9057 94.2351 54.8891C93.4206 54.8891 91.3031 54.8191 89.3484 54.5391C87.3937 54.2591 81.3203 54.6558 78.5279 54.8891C77.4808 53.8391 74.3393 46.4889 72.9432 44.0388C71.8262 42.0787 69.9181 38.7887 69.1036 37.3886C68.2659 37.3886 65.4968 37.1553 64.2169 37.0386C63.9843 40.6554 63.5887 48.1689 63.8679 49.2889C64.1471 50.409 63.9843 53.4891 63.8679 54.8891C62.1227 55.0058 58.2831 55.1691 56.8869 54.8891C55.4907 54.6091 51.4185 54.7724 49.5569 54.8891C50.6041 50.689 48.8588 30.3884 49.5569 26.5383C50.255 22.6882 50.6041 18.4881 49.5569 16.0381Z" fill="#EFE3D8"/>
<path d="M101.914 11.4879C103.59 7.84772 111.687 3.67101 115.527 2.03768C119.134 0.987627 127.325 -0.552444 131.234 1.68767C136.121 4.4878 145.196 6.93775 149.036 18.8381C152.875 30.7385 149.385 44.0388 144.149 46.8389C138.913 49.639 134.725 54.5391 126.348 55.2391C117.97 55.9391 113.433 54.5391 106.103 49.2889C98.7727 44.0388 97.3765 33.8885 98.4237 29.6884C99.4708 25.4884 99.8199 16.0381 101.914 11.4879Z" fill="#EFE3D8"/>
<path d="M157.413 8.68782C154.9 6.44778 153.341 3.0877 152.875 1.68767H168.582C169.629 3.32103 171.933 7.00777 172.771 8.68782C173.609 10.3679 176.61 15.2213 178.007 17.4381C179.286 15.4547 182.056 11.0679 182.893 9.38783C183.731 7.70781 186.5 3.08767 187.78 0.98761C188.897 0.427565 198.251 1.22096 202.789 1.68767C201.044 3.55437 197.344 8.1278 196.506 11.4879C195.459 15.688 192.318 20.5881 190.572 21.6382C188.827 22.6882 186.384 28.2883 187.082 28.9884C187.78 29.6884 195.459 40.1887 196.506 43.3387C197.344 45.8588 201.509 52.089 203.487 54.8891H194.063C191.55 54.8891 188.362 55.1224 187.082 55.2391C186.035 53.6057 183.731 49.6389 182.893 46.8389C182.056 44.0388 179.286 40.5387 178.007 39.1386C176.843 40.772 174.167 44.5988 172.771 46.8389C171.375 49.079 169.397 53.1391 168.582 54.8891C168.35 55.0058 167.256 55.1691 164.743 54.8891C162.23 54.6091 155.319 54.7724 152.177 54.8891C153.922 51.2723 158.251 43.0587 161.601 39.1386C164.952 35.2185 167.652 30.2717 168.582 28.2883C167.652 26.7716 165.581 23.3182 164.743 21.6382C163.696 19.5381 160.554 11.4879 157.413 8.68782Z" fill="#EFE3D8"/>
<path d="M209.77 17.4381C209.77 16.318 209.305 6.4711 209.072 1.68767H223.383C224.43 3.43775 223.383 16.738 223.383 19.8881C223.383 23.0382 222.336 36.3386 223.383 39.1386C224.43 41.9387 223.383 44.3888 223.383 46.8389V54.8891C222.266 54.8891 213.377 55.1224 209.072 55.2391C209.305 51.6223 209.77 43.7588 209.77 41.2387C209.77 38.0886 209.072 28.9884 209.072 26.1883C209.072 23.3882 209.77 18.8381 209.77 17.4381Z" fill="#EFE3D8"/>
<path d="M231.411 10.0879C231.69 7.84779 230.829 3.55437 230.364 1.68767C232.109 0.637675 240.835 1.68767 248.165 1.68767C254.029 1.68767 264.338 1.22096 268.759 0.98761C268.992 1.68763 269.318 3.50768 268.759 5.18772C268.201 6.86777 268.526 11.2546 268.759 13.2379C264.338 13.5879 255.007 14.078 253.052 13.2379C251.097 12.3979 247.118 12.8879 245.373 13.2379V17.4381V22.3382C247.118 22.3382 256.193 23.0382 258.288 22.3382C259.963 21.7782 264.571 22.1048 266.665 22.3382C266.898 23.0382 267.223 24.7882 266.665 26.1883C266.106 27.5883 266.432 31.9051 266.665 33.8885C263.989 33.8885 258.148 34.0285 256.193 34.5885C253.75 35.2885 247.816 33.8885 246.42 33.8885C245.024 33.8885 245.373 34.5885 245.373 37.0386V43.3387C250.143 43.1054 260.242 42.7787 262.476 43.3387C264.71 43.8988 267.596 43.5721 268.759 43.3387V48.9389V54.8891C262.127 55.0058 248.165 55.1691 245.373 54.8891C242.581 54.6091 234.203 54.7724 230.364 54.8891C230.597 51.1556 231.132 43.1987 231.411 41.2387C231.76 38.7886 230.364 33.8885 230.364 28.9884C230.364 24.0882 231.062 12.8879 231.411 10.0879Z" fill="#EFE3D8"/>
</svg>
