<svg width="240" height="240" viewBox="0 0 240 240" fill="none" xmlns="http://www.w3.org/2000/svg">
<g clip-path="url(#clip0_324_224)">
<path d="M120 233.37C182.613 233.37 233.37 182.613 233.37 120C233.37 57.3874 182.613 6.62988 120 6.62988C57.3874 6.62988 6.62988 57.3874 6.62988 120C6.62988 182.613 57.3874 233.37 120 233.37Z" fill="#181816"/>
<path d="M120 236.685C184.443 236.685 236.685 184.443 236.685 120C236.685 55.5561 184.443 3.31445 120 3.31445C55.5566 3.31445 3.31494 55.5561 3.31494 120C3.31494 184.443 55.5566 236.685 120 236.685Z" stroke="#EFE3D8" stroke-opacity="0.5" stroke-width="10"/>
<path d="M92.4458 66.2988L41.105 118.205H124.562V200.884L175.691 149.719V66.2988H92.4458Z" fill="#EFE3D8"/>
</g>
<defs>
<clipPath id="clip0_324_224">
<rect width="240" height="240" fill="white"/>
</clipPath>
</defs>
</svg>
