<svg
   width="1500"
   height="600"
   viewBox="0 0 1500 600"
   fill="none"
   version="1.1"
   xmlns="http://www.w3.org/2000/svg">
  <path
     d="m 423.25819,504.02267 c -27.171,6.793 -33.717,-32.855 -33.594,-53.528 l -6.645,-4.799 c -0.493,18.089 4.946,56.851 30.64,67.187 25.694,10.337 52.79,-40.485 63.127,-67.187 l -11.444,-4.43 c 0,27.687 -8.122,54.267 -42.084,62.757 z"
     fill="#312c2d"
     id="path1082" />
  <path
     d="m 771.37719,508.08367 c -54.045,27.17 -151.971,-23.872 -194.179,-52.79 l 18.458,-4.799 c 5.138,8.491 32.56,31.083 101.151,53.528 68.59,22.445 119.147,-26.333 135.851,-53.528 l 16.982,-4.799 c -3.569,9.475 -24.217,35.218 -78.263,62.388 z"
     fill="#312c2d"
     id="path1084" />
  <path
     d="m 423.25819,504.02267 c -27.171,6.793 -33.717,-32.855 -33.594,-53.528 l -6.645,-4.799 c -0.493,18.089 4.946,56.851 30.64,67.187 25.694,10.337 52.79,-40.485 63.127,-67.187 l -11.444,-4.43 c 0,27.687 -8.122,54.267 -42.084,62.757 z"
     stroke="#0a0909"
     stroke-width="4"
     id="path1086" />
  <path
     d="m 771.37719,508.08367 c -54.045,27.17 -151.971,-23.872 -194.179,-52.79 l 18.458,-4.799 c 5.138,8.491 32.56,31.083 101.151,53.528 68.59,22.445 119.147,-26.333 135.851,-53.528 l 16.982,-4.799 c -3.569,9.475 -24.217,35.218 -78.263,62.388 z"
     stroke="#0a0909"
     stroke-width="4"
     id="path1088" />
  <path
     d="m 778.02219,522.84967 c 26.284,0.295 36.301,-51.067 38.024,-76.786 l -22.888,-61.65 c 9.844,43.069 21.485,129.871 -10.706,132.529 -32.191,2.658 -51.806,-39.254 -57.589,-60.542 h -9.598 c 9.967,22.026 36.473,66.154 62.757,66.449 z"
     fill="#362d32"
     id="path1090" />
  <path
     d="m 468.29619,422.06867 c -38.393,102.184 -111.241,73.586 -142.866,46.514 l -5.469,-30.243 c -0.368,-1.591 -0.634,-3.086 -0.807,-4.458 l 0.807,4.458 c 4.086,17.676 20.792,47.245 63.058,52.393 46.072,5.611 72.11,-43.438 79.37,-68.664 z"
     fill="#362d32"
     id="path1092" />
  <path
     d="m 816.04619,446.06367 c -1.723,25.719 -11.74,77.081 -38.024,76.786 -26.284,-0.295 -52.79,-44.423 -62.757,-66.449 h 9.598 c 5.783,21.288 25.398,63.2 57.589,60.542 32.191,-2.658 20.55,-89.46 10.706,-132.529 z m -490.616,22.519 c 31.625,27.072 104.473,55.67 142.866,-46.514 h -5.907 c -7.26,25.226 -33.298,74.275 -79.37,68.664 -46.071,-5.611 -61.773,-40.239 -63.865,-56.851 z"
     stroke="#0a0909"
     stroke-width="4"
     id="path1094" />
  <path
     d="m 1114.8272,422.06867 c -38.39,102.184 -111.24,73.586 -142.86001,46.514 l -5.47,-30.243 c -0.37,-1.591 -0.64,-3.086 -0.81,-4.458 l 0.81,4.458 c 4.08,17.676 20.79001,47.245 63.05001,52.393 46.08,5.611 72.11,-43.438 79.37,-68.664 z"
     fill="#362d32"
     id="path1096" />
  <path
     d="m 971.96719,468.58267 c 31.62001,27.072 104.47001,55.67 142.86001,-46.514 h -5.91 c -7.26,25.226 -33.29,74.275 -79.37,68.664 -46.07,-5.612 -61.77001,-40.239 -63.86001,-56.851 z"
     stroke="#0a0909"
     stroke-width="4"
     id="path1098" />
  <path
     d="m 984.6872,441.06367 c 1.72,25.719 41.74,75.081 68.02,74.786 26.29,-0.295 52.79,-37.423 62.76,-59.449 h -9.6 c -5.78,21.288 -25.4,56.2 -57.59,53.542 -26.93,-2.223 -58.17,-58.434 -61.9,-101.964 l 1.2,-23.565 c -1.61,7.04 -1.93,15.06 -1.2,23.565 z"
     fill="#362d32"
     id="path1100" />
  <path
     d="m 984.6872,441.06367 c 1.72,25.719 41.74,75.081 68.02,74.786 26.29,-0.295 52.79,-37.423 62.76,-59.449 h -9.6 c -5.78,21.288 -25.4,56.2 -57.59,53.542 -32.19,-2.658 -70.55,-82.46 -60.7,-125.529 z"
     stroke="#0a0909"
     stroke-width="4"
     id="path1102" />
  <path
     d="m 1071.6872,205.63767 c 1.6,-8 3,-26 3.5,-34 0.61,-8.5 251,0 269,0 0.21,0 0.41,0.008 0.61,0.025 10.2,0.634 17.89,12.306 17.89,28.975 0,17 10,251 0,261.5 -10,10.499 -100,4 -144.5,4 -29.28,0 -84.93,-3.609 -122.03,-6.373 -11.21,-0.225 -19.04,-0.721 -20.97,-1.627 -8.5,-4 -3.5,-131 -3.5,-144 0,-13 -2,-98.5 0,-108.5 z"
     fill="#181816"
     id="path1104" />
  <path
     d="m 157.46119,452.70867 c -1.723,-43.069 -5.168,-133.046 -5.168,-148.403 0,-19.196 -6.276,-135.113 5.168,-136.59 11.444,-1.476 151.357,-4.799 182.366,0 28.324,4.384 77.283,-3.552 88.083,11.075 24.218,8.696 1.993,283.886 -5.021,289.054 -7.014,5.168 -154.31,7.383 -206.731,3.322 -34.309,-2.657 -50.367,-10.109 -56.219,-15.359 -1.576,-0.94 -2.433,-1.97 -2.478,-3.099 z"
     fill="#181816"
     id="path1106" />
  <path
     d="m 457.22119,193.18867 c 0,-20.083 12.797,-25.349 19.196,-25.473 79.739,1.354 241.801,4.578 252.138,6.645 1.031,0.207 1.994,2.083 2.887,5.366 4.981,10.01 11.51,26.911 11.51,42.256 0,23.257 4.799,215.222 0,236.633 -4.799,21.411 -147.296,9.229 -190.118,9.229 -42.823,0 -89.56,4.799 -91.922,-15.136 -6.645,-18.458 -3.691,-234.417 -3.691,-259.52 z"
     fill="#181816"
     id="path1108" />
  <path
     d="m 764.73219,189.49667 c 0,-20.968 23.873,-23.257 35.809,-21.781 H 979.2172 c 15.13,-0.861 46.22,-0.738 49.47,6.645 4.06,9.23 16.24,45.038 16.24,68.665 0,23.626 3.69,214.482 -8.12,219.651 -11.82,5.168 -265.53401,2.584 -267.64501,-9.968 -5.537,0 0,-18.089 0,-49.467 0,-31.379 -4.43,-187.534 -4.43,-213.745 z"
     fill="#181816"
     id="path1110" />
  <g
     filter="url(#filter0_f_1_2)"
     id="g1114"
     transform="translate(-78.312805,-60.573334)">
    <path
       d="m 435.86,313.944 c -3.181,4.135 -10.441,12.629 -14.034,13.531 0,4.51 -0.786,15.673 -3.93,24.242 -3.929,10.712 -11.227,40.028 -33.682,50.176 -22.455,10.148 -51.646,22.551 -84.205,-1.127 7.485,-0.376 23.465,-1.804 27.507,-4.51 4.627,-3.098 10.196,-6.197 12.825,-7.995 -2.17,1.256 -7.114,1.807 -13.948,-3.845 -9.543,-7.893 -12.35,-9.02 -12.912,-14.658 2.994,0.752 9.768,1.579 12.912,-1.127 -5.052,-1.88 -15.606,-6.54 -17.402,-10.148 -2.246,-4.511 -6.176,-11.276 -6.176,-18.605 2.433,1.316 8.533,3.834 13.473,3.383 -3.555,-1.692 -10.778,-6.991 -11.227,-14.658 -0.561,-9.585 -3.93,-12.967 2.245,-23.115 4.117,6.577 16.056,20.634 30.876,24.242 18.525,4.51 16.279,6.765 27.507,5.638 -0.936,-5.826 -1.011,-19.056 6.175,-25.37 8.982,-7.893 20.209,-16.349 42.103,0 4.678,-1.127 14.82,-4.284 17.963,-7.892 -0.187,3.382 -2.919,11.388 -12.35,16.349 2.246,-0.188 7.298,-0.789 9.544,-1.691 2.806,-1.128 4.491,-2.82 6.736,-2.82 z"
       fill="#ec57e2"
       id="path1112" />
  </g>
  <g
     filter="url(#filter1_f_1_2)"
     id="g1118"
     transform="translate(-78.312805,-60.573334)">
    <path
       d="m 435.86,313.944 c -3.181,4.135 -10.441,12.629 -14.034,13.531 0,4.51 -0.786,15.673 -3.93,24.242 -3.929,10.712 -11.227,40.028 -33.682,50.176 -22.455,10.148 -51.646,22.551 -84.205,-1.127 7.485,-0.376 23.465,-1.804 27.507,-4.51 4.627,-3.098 10.196,-6.197 12.825,-7.995 -2.17,1.256 -7.114,1.807 -13.948,-3.845 -9.543,-7.893 -12.35,-9.02 -12.912,-14.658 2.994,0.752 9.768,1.579 12.912,-1.127 -5.052,-1.88 -15.606,-6.54 -17.402,-10.148 -2.246,-4.511 -6.176,-11.276 -6.176,-18.605 2.433,1.316 8.533,3.834 13.473,3.383 -3.555,-1.692 -10.778,-6.991 -11.227,-14.658 -0.561,-9.585 -3.93,-12.967 2.245,-23.115 4.117,6.577 16.056,20.634 30.876,24.242 18.525,4.51 16.279,6.765 27.507,5.638 -0.936,-5.826 -1.011,-19.056 6.175,-25.37 8.982,-7.893 20.209,-16.349 42.103,0 4.678,-1.127 14.82,-4.284 17.963,-7.892 -0.187,3.382 -2.919,11.388 -12.35,16.349 2.246,-0.188 7.298,-0.789 9.544,-1.691 2.806,-1.128 4.491,-2.82 6.736,-2.82 z"
       fill="#ec57e2"
       id="path1116" />
  </g>
  <g
     opacity="0.6"
     filter="url(#filter2_f_1_2)"
     id="g1122"
     transform="translate(-78.312805,-60.573334)">
    <path
       d="m 438.075,316.898 c -3.181,4.134 -10.441,12.628 -14.034,13.53 0,4.511 -0.786,15.673 -3.93,24.243 -3.929,10.711 -11.227,40.028 -33.682,50.176 -22.455,10.148 -51.646,22.551 -84.205,-1.128 7.485,-0.376 23.465,-1.804 27.507,-4.51 4.627,-3.098 10.196,-6.196 12.825,-7.995 -2.17,1.256 -7.114,1.807 -13.948,-3.844 -9.543,-7.893 -12.35,-9.021 -12.912,-14.659 2.994,0.752 9.768,1.579 12.912,-1.127 -5.052,-1.879 -15.606,-6.54 -17.403,-10.148 -2.245,-4.51 -6.175,-11.276 -6.175,-18.605 2.433,1.316 8.533,3.834 13.473,3.383 -3.555,-1.691 -10.778,-6.991 -11.227,-14.658 -0.561,-9.584 -3.93,-12.967 2.245,-23.115 4.117,6.578 16.056,20.634 30.876,24.242 18.525,4.511 16.279,6.766 27.507,5.638 -0.936,-5.825 -1.011,-19.055 6.175,-25.37 8.982,-7.892 20.209,-16.349 42.103,0 4.678,-1.127 14.82,-4.284 17.963,-7.892 -0.187,3.383 -2.919,11.388 -12.35,16.349 2.246,-0.188 7.298,-0.789 9.544,-1.691 2.806,-1.128 4.491,-2.819 6.736,-2.819 z"
       fill="#0f0e0d"
       fill-opacity="0.3"
       id="path1120" />
  </g>
  <path
     d="m 357.53819,253.37067 c -3.181,4.135 -10.441,12.629 -14.034,13.531 0,4.51 -0.786,15.673 -3.929,24.242 -3.93,10.712 -11.228,40.028 -33.683,50.176 -22.454,10.148 -51.646,22.551 -84.205,-1.127 7.485,-0.376 23.465,-1.804 27.507,-4.51 4.627,-3.098 10.196,-6.197 12.826,-7.995 -2.17,1.256 -7.115,1.807 -13.949,-3.845 -9.543,-7.893 -12.35,-9.02 -12.911,-14.658 2.994,0.752 9.768,1.579 12.911,-1.127 -5.052,-1.88 -15.606,-6.54 -17.402,-10.148 -2.246,-4.511 -6.175,-11.276 -6.175,-18.605 2.432,1.316 8.533,3.834 13.473,3.383 -3.556,-1.692 -10.779,-6.991 -11.228,-14.658 -0.561,-9.585 -3.929,-12.967 2.246,-23.115 4.117,6.577 16.055,20.634 30.875,24.242 18.525,4.51 16.28,6.765 27.507,5.638 -0.935,-5.826 -1.01,-19.056 6.175,-25.37 8.982,-7.893 20.21,-16.349 42.103,0 4.678,-1.127 14.82,-4.284 17.964,-7.892 -0.187,3.382 -2.919,11.388 -12.35,16.349 2.245,-0.188 7.298,-0.789 9.543,-1.691 2.807,-1.128 4.491,-2.82 6.736,-2.82 z"
     fill="#fdf8fd"
     id="path1124" />
  <path
     d="m 247.21419,412.88667 v -2.031 h 14.182 v 2.031 h -5.946 v 16.878 h -2.29 v -16.878 z m 19.269,16.878 -4.321,-14.182 h 2.29 l 3.065,10.858 h 0.148 l 3.028,-10.858 h 2.327 l 2.991,10.821 h 0.148 l 3.065,-10.821 h 2.29 l -4.321,14.182 h -2.142 l -3.102,-10.895 h -0.222 l -3.102,10.895 z m 18.172,0 v -14.182 h 2.179 v 14.182 z m 1.108,-16.546 c -0.425,0 -0.791,-0.144 -1.099,-0.434 -0.302,-0.289 -0.452,-0.637 -0.452,-1.043 0,-0.406 0.15,-0.754 0.452,-1.043 0.308,-0.289 0.674,-0.434 1.099,-0.434 0.424,0 0.788,0.145 1.089,0.434 0.308,0.289 0.462,0.637 0.462,1.043 0,0.406 -0.154,0.754 -0.462,1.043 -0.301,0.29 -0.665,0.434 -1.089,0.434 z m 11.489,2.364 v 1.847 h -7.349 v -1.847 z m -5.207,-3.398 h 2.179 v 13.517 c 0,0.616 0.089,1.078 0.268,1.385 0.184,0.302 0.418,0.505 0.701,0.61 0.29,0.098 0.594,0.147 0.914,0.147 0.24,0 0.437,-0.012 0.591,-0.036 0.154,-0.031 0.277,-0.056 0.37,-0.074 l 0.443,1.957 c -0.148,0.055 -0.354,0.111 -0.619,0.166 -0.265,0.062 -0.6,0.093 -1.006,0.093 -0.616,0 -1.219,-0.133 -1.81,-0.397 -0.585,-0.265 -1.071,-0.668 -1.459,-1.21 -0.381,-0.542 -0.572,-1.225 -0.572,-2.05 z m 14.913,3.398 v 1.847 h -7.35 v -1.847 z m -5.208,-3.398 h 2.179 v 13.517 c 0,0.616 0.089,1.078 0.268,1.385 0.185,0.302 0.418,0.505 0.702,0.61 0.289,0.098 0.594,0.147 0.914,0.147 0.24,0 0.437,-0.012 0.591,-0.036 0.153,-0.031 0.277,-0.056 0.369,-0.074 l 0.443,1.957 c -0.148,0.055 -0.354,0.111 -0.619,0.166 -0.264,0.062 -0.6,0.093 -1.006,0.093 -0.615,0 -1.219,-0.133 -1.81,-0.397 -0.584,-0.265 -1.071,-0.668 -1.458,-1.21 -0.382,-0.542 -0.573,-1.225 -0.573,-2.05 z m 14.539,17.875 c -1.367,0 -2.545,-0.301 -3.536,-0.904 -0.985,-0.61 -1.745,-1.459 -2.281,-2.549 -0.529,-1.095 -0.794,-2.37 -0.794,-3.822 0,-1.453 0.265,-2.733 0.794,-3.841 0.536,-1.114 1.28,-1.982 2.235,-2.604 0.96,-0.628 2.08,-0.942 3.36,-0.942 0.739,0 1.468,0.124 2.189,0.37 0.72,0.246 1.375,0.646 1.966,1.2 0.591,0.548 1.062,1.274 1.413,2.179 0.351,0.905 0.526,2.019 0.526,3.342 v 0.924 h -10.932 v -1.884 h 8.716 c 0,-0.8 -0.16,-1.514 -0.48,-2.142 -0.314,-0.628 -0.763,-1.123 -1.348,-1.486 -0.579,-0.364 -1.262,-0.545 -2.05,-0.545 -0.868,0 -1.618,0.215 -2.252,0.646 -0.628,0.425 -1.112,0.979 -1.45,1.662 -0.339,0.683 -0.508,1.416 -0.508,2.197 v 1.256 c 0,1.071 0.185,1.979 0.554,2.724 0.376,0.739 0.896,1.302 1.56,1.69 0.665,0.381 1.438,0.572 2.318,0.572 0.572,0 1.089,-0.08 1.551,-0.24 0.468,-0.166 0.871,-0.413 1.21,-0.739 0.338,-0.332 0.6,-0.745 0.784,-1.237 l 2.106,0.591 c -0.222,0.714 -0.594,1.342 -1.118,1.883 -0.523,0.536 -1.169,0.955 -1.939,1.256 -0.769,0.296 -1.634,0.443 -2.594,0.443 z m 9.447,-0.295 v -14.182 h 2.105 v 2.142 h 0.148 c 0.258,-0.702 0.726,-1.271 1.403,-1.708 0.677,-0.437 1.44,-0.656 2.29,-0.656 0.16,0 0.36,0.004 0.6,0.01 0.24,0.006 0.422,0.015 0.545,0.027 v 2.216 c -0.074,-0.018 -0.243,-0.046 -0.508,-0.083 -0.259,-0.043 -0.533,-0.064 -0.822,-0.064 -0.689,0 -1.305,0.144 -1.846,0.434 -0.536,0.283 -0.961,0.677 -1.275,1.181 -0.307,0.499 -0.461,1.068 -0.461,1.708 v 8.975 z"
     fill="#efe3d8"
     id="path1126" />
  <g
     filter="url(#filter3_f_1_2)"
     id="g1130"
     transform="translate(-78.312805,-60.573334)">
    <path
       fill-rule="evenodd"
       clip-rule="evenodd"
       d="m 691.878,305.068 c 0.376,-2.064 2.702,-5.742 9.007,-3.94 3.252,0.929 6.791,2.337 10.144,3.671 4.772,1.899 9.165,3.647 11.81,3.647 4.503,0 11.821,5.629 16.888,22.517 1.675,5.585 3.412,11.17 5.048,16.43 3.31,10.643 6.205,19.952 7.336,25.226 0.024,0.114 0.049,0.23 0.074,0.346 1.694,7.893 4.29,19.993 -5.141,24.985 -2.329,1.234 -4.893,2.801 -7.616,4.466 -8.465,5.174 -18.478,11.296 -27.847,11.296 -12.385,0 -11.259,-11.821 -7.881,-11.821 3.377,0 13.51,0 16.324,-3.941 1.239,-1.734 2.915,-3.251 4.403,-4.597 1.891,-1.712 3.478,-3.149 3.478,-4.409 0,-2.252 -1.126,-5.067 -7.881,0 -6.755,5.066 -15.761,10.132 -30.397,10.695 -3.336,0.128 -6.73,0.374 -10.083,0.616 -11.358,0.821 -22.239,1.607 -28.759,-2.305 -8.444,-5.066 -28.146,-14.073 -27.02,-10.132 1.126,3.94 10.132,12.384 18.576,14.073 8.444,1.689 11.822,2.814 8.444,5.066 -0.824,0.549 -1.581,1.4 -2.41,2.332 -2.569,2.887 -5.828,6.551 -13.915,4.423 -10.695,-2.815 -26.457,-10.132 -31.523,-17.45 -5.066,-7.318 -4.503,-11.822 -2.252,-19.14 0.78,-2.533 1.492,-7.631 2.347,-13.752 1.614,-11.556 3.738,-26.757 7.786,-35.222 6.192,-12.947 18.013,-20.828 33.775,-25.331 12.609,-3.603 14.636,0 14.073,2.251 -8.444,1.877 -25.557,6.418 -26.457,9.57 -0.416,1.454 -1.291,2.372 -2.032,3.149 -1.268,1.328 -2.143,2.246 0.343,4.732 2.061,2.061 4.121,0.273 6.906,-2.143 2.541,-2.205 5.685,-4.932 9.982,-5.738 1.386,-0.26 2.733,-0.533 4.074,-0.805 7.372,-1.497 14.59,-2.962 27.449,-2.009 8.955,0.663 17.91,3.867 25.598,6.617 5.361,1.918 10.106,3.616 13.806,4.078 9.007,1.126 2.252,-7.318 -2.251,-9.007 -3.603,-1.351 -17.638,-6.192 -24.206,-8.444 z m -27.021,54.041 c -0.75,-3.002 -4.053,-9.006 -11.258,-9.006 -9.007,0 -11.259,7.881 -10.696,14.073 0.563,6.192 1.126,11.258 7.318,12.384 6.192,1.126 19.14,0 14.636,-17.451 z m 19.732,6.393 c 0.556,-6.71 1.276,-15.399 11.229,-15.399 10.132,0 12.947,4.503 12.947,12.384 0,7.881 -5.066,17.45 -12.947,15.762 -7.881,-1.689 -11.569,-9.007 -11.259,-12.385 z"
       fill="#ec57e2"
       id="path1128" />
  </g>
  <g
     filter="url(#filter4_f_1_2)"
     id="g1134"
     transform="translate(-78.312805,-60.573334)">
    <path
       fill-rule="evenodd"
       clip-rule="evenodd"
       d="m 691.878,305.068 c 0.376,-2.064 2.702,-5.742 9.007,-3.94 3.252,0.929 6.791,2.337 10.144,3.671 4.772,1.899 9.165,3.647 11.81,3.647 4.503,0 11.821,5.629 16.888,22.517 1.675,5.585 3.412,11.17 5.048,16.43 3.31,10.643 6.205,19.952 7.336,25.226 0.024,0.114 0.049,0.23 0.074,0.346 1.694,7.893 4.29,19.993 -5.141,24.985 -2.329,1.234 -4.893,2.801 -7.616,4.466 -8.465,5.174 -18.478,11.296 -27.847,11.296 -12.385,0 -11.259,-11.821 -7.881,-11.821 3.377,0 13.51,0 16.324,-3.941 1.239,-1.734 2.915,-3.251 4.403,-4.597 1.891,-1.712 3.478,-3.149 3.478,-4.409 0,-2.252 -1.126,-5.067 -7.881,0 -6.755,5.066 -15.761,10.132 -30.397,10.695 -3.336,0.128 -6.73,0.374 -10.083,0.616 -11.358,0.821 -22.239,1.607 -28.759,-2.305 -8.444,-5.066 -28.146,-14.073 -27.02,-10.132 1.126,3.94 10.132,12.384 18.576,14.073 8.444,1.689 11.822,2.814 8.444,5.066 -0.824,0.549 -1.581,1.4 -2.41,2.332 -2.569,2.887 -5.828,6.551 -13.915,4.423 -10.695,-2.815 -26.457,-10.132 -31.523,-17.45 -5.066,-7.318 -4.503,-11.822 -2.252,-19.14 0.78,-2.533 1.492,-7.631 2.347,-13.752 1.614,-11.556 3.738,-26.757 7.786,-35.222 6.192,-12.947 18.013,-20.828 33.775,-25.331 12.609,-3.603 14.636,0 14.073,2.251 -8.444,1.877 -25.557,6.418 -26.457,9.57 -0.416,1.454 -1.291,2.372 -2.032,3.149 -1.268,1.328 -2.143,2.246 0.343,4.732 2.061,2.061 4.121,0.273 6.906,-2.143 2.541,-2.205 5.685,-4.932 9.982,-5.738 1.386,-0.26 2.733,-0.533 4.074,-0.805 7.372,-1.497 14.59,-2.962 27.449,-2.009 8.955,0.663 17.91,3.867 25.598,6.617 5.361,1.918 10.106,3.616 13.806,4.078 9.007,1.126 2.252,-7.318 -2.251,-9.007 -3.603,-1.351 -17.638,-6.192 -24.206,-8.444 z m -27.021,54.041 c -0.75,-3.002 -4.053,-9.006 -11.258,-9.006 -9.007,0 -11.259,7.881 -10.696,14.073 0.563,6.192 1.126,11.258 7.318,12.384 6.192,1.126 19.14,0 14.636,-17.451 z m 19.732,6.393 c 0.556,-6.71 1.276,-15.399 11.229,-15.399 10.132,0 12.947,4.503 12.947,12.384 0,7.881 -5.066,17.45 -12.947,15.762 -7.881,-1.689 -11.569,-9.007 -11.259,-12.385 z"
       fill="#ec57e2"
       id="path1132" />
  </g>
  <g
     opacity="0.6"
     filter="url(#filter5_f_1_2)"
     id="g1138"
     transform="translate(-78.312805,-60.573334)">
    <path
       fill-rule="evenodd"
       clip-rule="evenodd"
       d="m 694.093,308.021 c 0.376,-2.064 2.702,-5.742 9.007,-3.94 3.252,0.929 6.791,2.337 10.143,3.671 4.773,1.899 9.166,3.647 11.811,3.647 4.503,0 11.821,5.629 16.887,22.517 1.676,5.585 3.413,11.17 5.049,16.43 3.31,10.643 6.205,19.952 7.336,25.226 0.024,0.115 0.049,0.23 0.074,0.347 1.694,7.892 4.29,19.992 -5.141,24.984 -2.329,1.234 -4.893,2.801 -7.616,4.466 -8.465,5.174 -18.478,11.296 -27.848,11.296 -12.384,0 -11.258,-11.821 -7.88,-11.821 3.377,0 13.51,0 16.324,-3.941 1.239,-1.734 2.915,-3.251 4.402,-4.597 1.892,-1.712 3.479,-3.149 3.479,-4.409 0,-2.252 -1.126,-5.067 -7.881,0 -6.755,5.066 -15.761,10.132 -30.397,10.695 -3.336,0.128 -6.73,0.374 -10.083,0.616 -11.358,0.821 -22.239,1.607 -28.759,-2.305 -8.444,-5.066 -28.146,-14.073 -27.02,-10.132 1.126,3.94 10.132,12.384 18.576,14.073 8.444,1.689 11.822,2.814 8.444,5.066 -0.824,0.549 -1.581,1.4 -2.41,2.332 -2.569,2.887 -5.828,6.551 -13.915,4.423 -10.695,-2.814 -26.457,-10.132 -31.523,-17.45 -5.066,-7.318 -4.503,-11.822 -2.252,-19.14 0.78,-2.533 1.492,-7.631 2.347,-13.751 1.614,-11.557 3.738,-26.758 7.786,-35.223 6.192,-12.947 18.013,-20.828 33.775,-25.331 12.609,-3.603 14.636,0 14.073,2.251 -8.444,1.877 -25.557,6.418 -26.457,9.57 -0.416,1.454 -1.291,2.372 -2.032,3.149 -1.268,1.328 -2.143,2.246 0.343,4.732 2.061,2.061 4.121,0.273 6.906,-2.143 2.541,-2.204 5.685,-4.932 9.982,-5.738 1.386,-0.26 2.733,-0.533 4.074,-0.805 7.372,-1.497 14.59,-2.962 27.449,-2.009 8.955,0.663 17.91,3.867 25.598,6.617 5.361,1.918 10.106,3.616 13.806,4.078 9.007,1.126 2.252,-7.318 -2.251,-9.006 -3.603,-1.351 -17.638,-6.193 -24.206,-8.445 z m -27.021,54.042 c -0.75,-3.003 -4.053,-9.007 -11.258,-9.007 -9.007,0 -11.259,7.881 -10.696,14.073 0.563,6.192 1.126,11.258 7.318,12.384 6.192,1.126 19.14,0 14.636,-17.45 z m 19.732,6.393 c 0.556,-6.711 1.276,-15.4 11.229,-15.4 10.132,0 12.947,4.503 12.947,12.384 0,7.881 -5.066,17.451 -12.947,15.762 -7.881,-1.689 -11.569,-9.007 -11.259,-12.384 z"
       fill="#0f0e0d"
       fill-opacity="0.3"
       id="path1136" />
  </g>
  <path
     fill-rule="evenodd"
     clip-rule="evenodd"
     d="m 613.56519,244.49467 c 0.376,-2.064 2.702,-5.742 9.007,-3.94 3.252,0.929 6.791,2.337 10.144,3.671 4.772,1.899 9.165,3.647 11.81,3.647 4.503,0 11.821,5.629 16.888,22.517 1.675,5.585 3.412,11.17 5.048,16.43 3.31,10.643 6.205,19.952 7.336,25.226 0.024,0.114 0.049,0.23 0.074,0.346 1.694,7.893 4.29,19.993 -5.141,24.985 -2.329,1.234 -4.893,2.801 -7.616,4.466 -8.465,5.174 -18.478,11.296 -27.847,11.296 -12.385,0 -11.259,-11.821 -7.881,-11.821 3.377,0 13.51,0 16.324,-3.941 1.239,-1.734 2.915,-3.251 4.403,-4.597 1.891,-1.712 3.478,-3.149 3.478,-4.409 0,-2.252 -1.126,-5.067 -7.881,0 -6.755,5.066 -15.761,10.132 -30.397,10.695 -3.336,0.128 -6.73,0.374 -10.083,0.616 -11.358,0.821 -22.239,1.607 -28.759,-2.305 -8.444,-5.066 -28.146,-14.073 -27.02,-10.132 1.126,3.94 10.132,12.384 18.576,14.073 8.444,1.689 11.822,2.814 8.444,5.066 -0.824,0.549 -1.581,1.4 -2.41,2.332 -2.569,2.887 -5.828,6.551 -13.915,4.423 -10.695,-2.815 -26.457,-10.132 -31.523,-17.45 -5.066,-7.318 -4.503,-11.822 -2.252,-19.14 0.78,-2.533 1.492,-7.631 2.347,-13.752 1.614,-11.556 3.738,-26.757 7.786,-35.222 6.192,-12.947 18.013,-20.828 33.775,-25.331 12.609,-3.603 14.636,0 14.073,2.251 -8.444,1.877 -25.557,6.418 -26.457,9.57 -0.416,1.454 -1.291,2.372 -2.032,3.149 -1.268,1.328 -2.143,2.246 0.343,4.732 2.061,2.061 4.121,0.273 6.906,-2.143 2.541,-2.205 5.685,-4.932 9.982,-5.738 1.386,-0.26 2.733,-0.533 4.074,-0.805 7.372,-1.497 14.59,-2.962 27.449,-2.009 8.955,0.663 17.91,3.867 25.598,6.617 5.361,1.918 10.106,3.616 13.806,4.078 9.007,1.126 2.252,-7.318 -2.251,-9.007 -3.603,-1.351 -17.638,-6.192 -24.206,-8.444 z m -27.021,54.041 c -0.75,-3.002 -4.053,-9.006 -11.258,-9.006 -9.007,0 -11.259,7.881 -10.696,14.073 0.563,6.192 1.126,11.258 7.318,12.384 6.192,1.126 19.14,0 14.636,-17.451 z m 19.732,6.393 c 0.556,-6.71 1.276,-15.399 11.229,-15.399 10.132,0 12.947,4.503 12.947,12.384 0,7.881 -5.066,17.45 -12.947,15.762 -7.881,-1.689 -11.569,-9.007 -11.259,-12.385 z"
     fill="#fdf8fd"
     id="path1140" />
  <path
     d="m 558.21119,429.76467 h -5.835 v -18.909 h 6.094 c 1.834,0 3.404,0.378 4.709,1.135 1.305,0.751 2.305,1.832 3,3.241 0.696,1.404 1.044,3.084 1.044,5.041 0,1.97 -0.351,3.666 -1.053,5.088 -0.701,1.415 -1.723,2.505 -3.065,3.268 -1.342,0.757 -2.973,1.136 -4.894,1.136 z m -3.545,-2.031 h 3.398 c 1.563,0 2.859,-0.302 3.887,-0.905 1.028,-0.603 1.794,-1.462 2.299,-2.576 0.505,-1.114 0.757,-2.441 0.757,-3.98 0,-1.526 -0.249,-2.84 -0.748,-3.942 -0.499,-1.108 -1.243,-1.957 -2.234,-2.548 -0.991,-0.597 -2.225,-0.896 -3.703,-0.896 h -3.656 z m 16.362,2.031 v -14.182 h 2.179 v 14.182 z m 1.108,-16.546 c -0.424,0 -0.791,-0.144 -1.099,-0.434 -0.301,-0.289 -0.452,-0.637 -0.452,-1.043 0,-0.406 0.151,-0.754 0.452,-1.043 0.308,-0.289 0.675,-0.434 1.099,-0.434 0.425,0 0.788,0.145 1.09,0.434 0.307,0.289 0.461,0.637 0.461,1.043 0,0.406 -0.154,0.754 -0.461,1.043 -0.302,0.29 -0.665,0.434 -1.09,0.434 z m 15.368,5.54 -1.958,0.554 c -0.123,-0.326 -0.304,-0.643 -0.544,-0.951 -0.234,-0.314 -0.554,-0.572 -0.961,-0.775 -0.406,-0.204 -0.926,-0.305 -1.56,-0.305 -0.868,0 -1.591,0.2 -2.17,0.6 -0.572,0.394 -0.858,0.896 -0.858,1.505 0,0.542 0.196,0.97 0.59,1.283 0.394,0.314 1.01,0.576 1.847,0.785 l 2.105,0.517 c 1.268,0.308 2.213,0.779 2.835,1.413 0.621,0.628 0.932,1.437 0.932,2.428 0,0.813 -0.234,1.539 -0.702,2.179 -0.461,0.64 -1.107,1.145 -1.938,1.514 -0.831,0.37 -1.798,0.554 -2.9,0.554 -1.446,0 -2.643,-0.314 -3.591,-0.941 -0.948,-0.628 -1.548,-1.545 -1.801,-2.752 l 2.069,-0.517 c 0.196,0.763 0.569,1.336 1.117,1.717 0.554,0.382 1.277,0.573 2.169,0.573 1.016,0 1.822,-0.216 2.419,-0.646 0.604,-0.437 0.905,-0.961 0.905,-1.57 0,-0.492 -0.172,-0.905 -0.517,-1.237 -0.344,-0.339 -0.874,-0.591 -1.588,-0.757 l -2.363,-0.554 c -1.299,-0.308 -2.253,-0.785 -2.863,-1.431 -0.603,-0.653 -0.904,-1.468 -0.904,-2.447 0,-0.8 0.224,-1.508 0.674,-2.124 0.455,-0.615 1.074,-1.098 1.855,-1.449 0.788,-0.351 1.681,-0.527 2.678,-0.527 1.403,0 2.505,0.308 3.305,0.924 0.807,0.615 1.379,1.428 1.718,2.437 z m 9.56,11.301 c -1.33,0 -2.475,-0.314 -3.435,-0.941 -0.96,-0.628 -1.699,-1.493 -2.216,-2.595 -0.517,-1.102 -0.776,-2.36 -0.776,-3.776 0,-1.44 0.265,-2.712 0.794,-3.813 0.536,-1.108 1.281,-1.973 2.235,-2.595 0.96,-0.628 2.08,-0.942 3.361,-0.942 0.997,0 1.895,0.185 2.696,0.554 0.8,0.37 1.455,0.887 1.966,1.552 0.511,0.664 0.828,1.44 0.951,2.326 h -2.179 c -0.166,-0.646 -0.535,-1.219 -1.108,-1.717 -0.566,-0.505 -1.329,-0.757 -2.289,-0.757 -0.85,0 -1.595,0.221 -2.235,0.665 -0.634,0.437 -1.129,1.055 -1.486,1.855 -0.351,0.794 -0.527,1.727 -0.527,2.798 0,1.096 0.173,2.05 0.517,2.862 0.351,0.813 0.844,1.444 1.478,1.893 0.64,0.449 1.391,0.674 2.253,0.674 0.566,0 1.08,-0.099 1.541,-0.295 0.462,-0.197 0.853,-0.481 1.173,-0.85 0.32,-0.369 0.548,-0.812 0.683,-1.329 h 2.179 c -0.123,0.837 -0.428,1.591 -0.914,2.262 -0.48,0.664 -1.117,1.194 -1.911,1.588 -0.788,0.387 -1.705,0.581 -2.751,0.581 z m 14.783,0 c -1.28,0 -2.404,-0.304 -3.37,-0.914 -0.96,-0.609 -1.711,-1.462 -2.253,-2.557 -0.535,-1.096 -0.803,-2.376 -0.803,-3.841 0,-1.477 0.268,-2.767 0.803,-3.869 0.542,-1.102 1.293,-1.957 2.253,-2.567 0.966,-0.609 2.09,-0.914 3.37,-0.914 1.28,0 2.401,0.305 3.361,0.914 0.966,0.61 1.717,1.465 2.253,2.567 0.541,1.102 0.812,2.392 0.812,3.869 0,1.465 -0.271,2.745 -0.812,3.841 -0.536,1.095 -1.287,1.948 -2.253,2.557 -0.96,0.61 -2.081,0.914 -3.361,0.914 z m 0,-1.957 c 0.973,0 1.773,-0.249 2.401,-0.748 0.627,-0.498 1.092,-1.154 1.394,-1.967 0.301,-0.812 0.452,-1.692 0.452,-2.64 0,-0.948 -0.151,-1.831 -0.452,-2.65 -0.302,-0.819 -0.767,-1.48 -1.394,-1.985 -0.628,-0.505 -1.428,-0.757 -2.401,-0.757 -0.973,0 -1.773,0.252 -2.401,0.757 -0.627,0.505 -1.092,1.166 -1.394,1.985 -0.301,0.819 -0.452,1.702 -0.452,2.65 0,0.948 0.151,1.828 0.452,2.64 0.302,0.813 0.767,1.469 1.394,1.967 0.628,0.499 1.428,0.748 2.401,0.748 z m 10.012,1.662 v -14.182 h 2.105 v 2.142 h 0.148 c 0.259,-0.702 0.726,-1.271 1.404,-1.708 0.677,-0.437 1.44,-0.656 2.289,-0.656 0.16,0 0.36,0.004 0.6,0.01 0.241,0.006 0.422,0.015 0.545,0.027 v 2.216 c -0.074,-0.018 -0.243,-0.046 -0.508,-0.083 -0.258,-0.043 -0.532,-0.064 -0.821,-0.064 -0.69,0 -1.305,0.144 -1.847,0.434 -0.535,0.283 -0.96,0.677 -1.274,1.181 -0.308,0.499 -0.462,1.068 -0.462,1.708 v 8.975 z m 14.858,0.295 c -1.182,0 -2.226,-0.298 -3.13,-0.895 -0.905,-0.603 -1.613,-1.453 -2.124,-2.549 -0.511,-1.101 -0.766,-2.403 -0.766,-3.905 0,-1.49 0.255,-2.782 0.766,-3.878 0.511,-1.096 1.222,-1.942 2.133,-2.539 0.911,-0.597 1.963,-0.896 3.158,-0.896 0.923,0 1.652,0.154 2.188,0.462 0.541,0.302 0.954,0.646 1.237,1.034 0.289,0.382 0.514,0.696 0.674,0.942 h 0.185 v -6.98 h 2.179 v 18.909 h -2.106 v -2.179 h -0.258 c -0.16,0.258 -0.388,0.585 -0.683,0.979 -0.296,0.387 -0.717,0.735 -1.265,1.043 -0.548,0.302 -1.277,0.452 -2.188,0.452 z m 0.295,-1.957 c 0.874,0 1.613,-0.228 2.216,-0.683 0.603,-0.462 1.062,-1.099 1.376,-1.912 0.314,-0.818 0.471,-1.763 0.471,-2.834 0,-1.059 -0.154,-1.985 -0.462,-2.779 -0.308,-0.8 -0.763,-1.422 -1.367,-1.865 -0.603,-0.45 -1.348,-0.674 -2.234,-0.674 -0.923,0 -1.693,0.237 -2.308,0.711 -0.61,0.468 -1.068,1.105 -1.376,1.911 -0.302,0.8 -0.452,1.699 -0.452,2.696 0,1.009 0.154,1.927 0.461,2.751 0.314,0.819 0.776,1.472 1.385,1.958 0.616,0.48 1.379,0.72 2.29,0.72 z"
     fill="#efe3d8"
     id="path1142" />
  <g
     filter="url(#filter6_f_1_2)"
     id="g1146"
     transform="translate(-78.312805,-60.573334)">
    <path
       fill-rule="evenodd"
       clip-rule="evenodd"
       d="m 1021.19,302.433 c 2.9,-1.349 9.27,-3.238 11.59,0 1.87,2.606 0.61,9.047 -0.52,14.848 -0.63,3.209 -1.22,6.222 -1.22,8.282 0,3.16 -1.9,10.984 -3.73,18.469 -1.51,6.209 -2.96,12.184 -3.22,15.068 -0.58,6.36 -7.54,50.884 -11.6,52.041 -0.87,0.248 -1.71,0.735 -2.61,1.256 -3.31,1.91 -7.41,4.277 -16.515,-2.991 -9.274,-7.401 -16.229,-12.721 -18.548,-14.456 -2.898,2.12 -9.274,7.17 -11.593,10.408 -2.898,4.048 -11.592,8.096 -13.331,1.157 -0.476,-1.898 -1.039,-4.359 -1.64,-6.992 -1.598,-6.991 -3.473,-15.194 -4.736,-17.294 -1.391,-2.313 -3.285,-8.288 -4.058,-10.986 -6.762,-1.928 -20.751,-6.129 -22.606,-7.517 -0.417,-0.312 -1.227,-0.699 -2.216,-1.171 -4.508,-2.151 -12.717,-6.067 -4.16,-12.707 6.404,-4.968 21.977,-10.808 34.527,-15.513 7.898,-2.962 14.598,-5.474 17.061,-7.038 3.387,-2.15 15.774,-7.075 28.814,-12.26 11.501,-4.575 23.521,-9.351 30.311,-12.604 z m -76.515,66.497 c 6.956,-4.433 21.563,-13.993 24.345,-16.769 2.037,-2.032 10.837,-8.628 18.127,-14.092 5.155,-3.864 9.555,-7.162 10.275,-7.88 1.391,-1.388 10.238,-7.132 14.488,-9.83 -9.27,9.83 -29.095,31.109 -34.195,37.585 -5.446,6.913 -11.736,12.983 -14.54,15.688 -0.479,0.463 -0.857,0.827 -1.111,1.08 -1.423,1.421 -5.568,15.247 -7.341,21.163 -0.392,1.309 -0.669,2.231 -0.774,2.545 -1.352,-3.855 -4.289,-12.374 -5.216,-15.612 -0.928,-3.238 -3.092,-10.601 -4.058,-13.878 z"
       fill="#ec57e2"
       id="path1144" />
  </g>
  <g
     filter="url(#filter7_f_1_2)"
     id="g1150"
     transform="translate(-78.312805,-60.573334)">
    <path
       fill-rule="evenodd"
       clip-rule="evenodd"
       d="m 1021.19,302.433 c 2.9,-1.349 9.27,-3.238 11.59,0 1.87,2.606 0.61,9.047 -0.52,14.848 -0.63,3.209 -1.22,6.222 -1.22,8.282 0,3.16 -1.9,10.984 -3.73,18.469 -1.51,6.209 -2.96,12.184 -3.22,15.068 -0.58,6.36 -7.54,50.884 -11.6,52.041 -0.87,0.248 -1.71,0.735 -2.61,1.256 -3.31,1.91 -7.41,4.277 -16.515,-2.991 -9.274,-7.401 -16.229,-12.721 -18.548,-14.456 -2.898,2.12 -9.274,7.17 -11.593,10.408 -2.898,4.048 -11.592,8.096 -13.331,1.157 -0.476,-1.898 -1.039,-4.359 -1.64,-6.992 -1.598,-6.991 -3.473,-15.194 -4.736,-17.294 -1.391,-2.313 -3.285,-8.288 -4.058,-10.986 -6.762,-1.928 -20.751,-6.129 -22.606,-7.517 -0.417,-0.312 -1.227,-0.699 -2.216,-1.171 -4.508,-2.151 -12.717,-6.067 -4.16,-12.707 6.404,-4.968 21.977,-10.808 34.527,-15.513 7.898,-2.962 14.598,-5.474 17.061,-7.038 3.387,-2.15 15.774,-7.075 28.814,-12.26 11.501,-4.575 23.521,-9.351 30.311,-12.604 z m -76.515,66.497 c 6.956,-4.433 21.563,-13.993 24.345,-16.769 2.037,-2.032 10.837,-8.628 18.127,-14.092 5.155,-3.864 9.555,-7.162 10.275,-7.88 1.391,-1.388 10.238,-7.132 14.488,-9.83 -9.27,9.83 -29.095,31.109 -34.195,37.585 -5.446,6.913 -11.736,12.983 -14.54,15.688 -0.479,0.463 -0.857,0.827 -1.111,1.08 -1.423,1.421 -5.568,15.247 -7.341,21.163 -0.392,1.309 -0.669,2.231 -0.774,2.545 -1.352,-3.855 -4.289,-12.374 -5.216,-15.612 -0.928,-3.238 -3.092,-10.601 -4.058,-13.878 z"
       fill="#ec57e2"
       id="path1148" />
  </g>
  <g
     opacity="0.6"
     filter="url(#filter8_f_1_2)"
     id="g1154"
     transform="translate(-78.312805,-60.573334)">
    <path
       fill-rule="evenodd"
       clip-rule="evenodd"
       d="m 1023.4,305.387 c 2.9,-1.35 9.28,-3.239 11.6,0 1.86,2.605 0.6,9.046 -0.53,14.847 -0.62,3.209 -1.21,6.222 -1.21,8.282 0,3.16 -1.91,10.985 -3.73,18.469 -1.51,6.209 -2.97,12.184 -3.23,15.068 -0.58,6.361 -7.53,50.884 -11.59,52.041 -0.87,0.248 -1.71,0.735 -2.62,1.256 -3.3,1.91 -7.4,4.278 -16.51,-2.991 -9.274,-7.401 -16.229,-12.721 -18.548,-14.456 -2.898,2.121 -9.274,7.17 -11.593,10.409 -2.898,4.047 -11.592,8.095 -13.331,1.156 -0.476,-1.898 -1.038,-4.359 -1.64,-6.992 -1.598,-6.991 -3.473,-15.194 -4.736,-17.294 -1.391,-2.313 -3.285,-8.288 -4.058,-10.986 -6.762,-1.928 -20.751,-6.129 -22.606,-7.517 -0.416,-0.312 -1.227,-0.699 -2.215,-1.17 -4.509,-2.151 -12.718,-6.068 -4.161,-12.708 6.404,-4.968 21.977,-10.808 34.527,-15.513 7.898,-2.962 14.598,-5.474 17.061,-7.038 3.388,-2.15 15.774,-7.075 28.814,-12.26 11.506,-4.575 23.516,-9.351 30.306,-12.603 z m -76.51,66.496 c 6.956,-4.433 21.563,-13.993 24.345,-16.768 2.037,-2.033 10.837,-8.629 18.127,-14.093 5.155,-3.864 9.555,-7.162 10.275,-7.88 1.393,-1.388 10.243,-7.132 14.493,-9.83 -9.28,9.83 -29.1,31.109 -34.2,37.585 -5.445,6.913 -11.736,12.983 -14.54,15.689 -0.479,0.462 -0.857,0.826 -1.111,1.08 -1.423,1.42 -5.568,15.246 -7.341,21.162 -0.392,1.309 -0.668,2.231 -0.773,2.545 -1.353,-3.855 -4.29,-12.374 -5.217,-15.612 -0.928,-3.238 -3.092,-10.601 -4.058,-13.878 z"
       fill="#0f0e0d"
       fill-opacity="0.3"
       id="path1152" />
  </g>
  <path
     fill-rule="evenodd"
     clip-rule="evenodd"
     d="m 943.13719,241.85967 c 2.89,-1.349 9.27,-3.238 11.59,0 1.86,2.606 0.61,9.047 -0.53,14.848 -0.62,3.209 -1.21,6.222 -1.21,8.282 0,3.16 -1.91,10.984 -3.73,18.469 -1.51,6.209 -2.96,12.184 -3.23,15.068 -0.58,6.36 -7.53,50.884 -11.59,52.041 -0.87,0.248 -1.71,0.735 -2.61,1.256 -3.31,1.91 -7.41,4.277 -16.517,-2.991 -9.274,-7.401 -16.229,-12.721 -18.548,-14.456 -2.898,2.12 -9.274,7.17 -11.593,10.408 -2.898,4.048 -11.592,8.096 -13.331,1.157 -0.476,-1.898 -1.038,-4.359 -1.64,-6.992 -1.598,-6.991 -3.473,-15.194 -4.736,-17.294 -1.391,-2.313 -3.285,-8.288 -4.058,-10.986 -6.762,-1.928 -20.751,-6.129 -22.606,-7.517 -0.416,-0.312 -1.227,-0.699 -2.215,-1.171 -4.509,-2.151 -12.718,-6.067 -4.161,-12.707 6.404,-4.968 21.977,-10.808 34.527,-15.513 7.898,-2.962 14.598,-5.474 17.061,-7.038 3.387,-2.15 15.774,-7.075 28.814,-12.26 11.503,-4.575 23.513,-9.351 30.313,-12.604 z m -76.517,66.497 c 6.956,-4.433 21.563,-13.993 24.345,-16.769 2.037,-2.032 10.837,-8.628 18.127,-14.092 5.155,-3.864 9.555,-7.162 10.275,-7.88 1.391,-1.388 10.24,-7.132 14.49,-9.83 -9.27,9.83 -29.097,31.109 -34.197,37.585 -5.446,6.913 -11.736,12.983 -14.54,15.688 -0.479,0.463 -0.857,0.827 -1.111,1.08 -1.423,1.421 -5.568,15.247 -7.341,21.163 -0.392,1.309 -0.668,2.231 -0.773,2.545 -1.353,-3.855 -4.29,-12.374 -5.217,-15.612 -0.928,-3.238 -3.092,-10.601 -4.058,-13.878 z"
     fill="#fdf8fd"
     id="path1156" />
  <path
     d="m 835.12019,412.88667 v -2.031 h 14.181 v 2.031 h -5.946 v 16.878 h -2.289 v -16.878 z m 21.569,17.173 c -1.366,0 -2.545,-0.301 -3.536,-0.904 -0.985,-0.61 -1.745,-1.459 -2.281,-2.549 -0.529,-1.095 -0.794,-2.37 -0.794,-3.822 0,-1.453 0.265,-2.733 0.794,-3.841 0.536,-1.114 1.281,-1.982 2.235,-2.604 0.96,-0.628 2.08,-0.942 3.361,-0.942 0.738,0 1.468,0.124 2.188,0.37 0.72,0.246 1.376,0.646 1.966,1.2 0.591,0.548 1.062,1.274 1.413,2.179 0.351,0.905 0.526,2.019 0.526,3.342 v 0.924 h -10.931 v -1.884 h 8.716 c 0,-0.8 -0.161,-1.514 -0.481,-2.142 -0.314,-0.628 -0.763,-1.123 -1.348,-1.486 -0.578,-0.364 -1.261,-0.545 -2.049,-0.545 -0.868,0 -1.619,0.215 -2.253,0.646 -0.628,0.425 -1.111,0.979 -1.45,1.662 -0.338,0.683 -0.508,1.416 -0.508,2.197 v 1.256 c 0,1.071 0.185,1.979 0.554,2.724 0.376,0.739 0.896,1.302 1.561,1.69 0.665,0.381 1.437,0.572 2.317,0.572 0.573,0 1.09,-0.08 1.551,-0.24 0.468,-0.166 0.871,-0.413 1.21,-0.739 0.338,-0.332 0.6,-0.745 0.785,-1.237 l 2.105,0.591 c -0.222,0.714 -0.594,1.342 -1.117,1.883 -0.524,0.536 -1.17,0.955 -1.939,1.256 -0.77,0.296 -1.635,0.443 -2.595,0.443 z m 11.626,-19.204 v 18.909 h -2.179 v -18.909 z m 10.197,19.204 c -1.366,0 -2.545,-0.301 -3.536,-0.904 -0.985,-0.61 -1.745,-1.459 -2.281,-2.549 -0.529,-1.095 -0.794,-2.37 -0.794,-3.822 0,-1.453 0.265,-2.733 0.794,-3.841 0.536,-1.114 1.281,-1.982 2.235,-2.604 0.96,-0.628 2.08,-0.942 3.36,-0.942 0.739,0 1.468,0.124 2.189,0.37 0.72,0.246 1.375,0.646 1.966,1.2 0.591,0.548 1.062,1.274 1.413,2.179 0.351,0.905 0.526,2.019 0.526,3.342 v 0.924 h -10.932 v -1.884 h 8.716 c 0,-0.8 -0.16,-1.514 -0.48,-2.142 -0.314,-0.628 -0.763,-1.123 -1.348,-1.486 -0.578,-0.364 -1.262,-0.545 -2.05,-0.545 -0.868,0 -1.618,0.215 -2.252,0.646 -0.628,0.425 -1.111,0.979 -1.45,1.662 -0.339,0.683 -0.508,1.416 -0.508,2.197 v 1.256 c 0,1.071 0.185,1.979 0.554,2.724 0.376,0.739 0.896,1.302 1.561,1.69 0.664,0.381 1.437,0.572 2.317,0.572 0.572,0 1.089,-0.08 1.551,-0.24 0.468,-0.166 0.871,-0.413 1.21,-0.739 0.338,-0.332 0.6,-0.745 0.784,-1.237 l 2.106,0.591 c -0.222,0.714 -0.594,1.342 -1.118,1.883 -0.523,0.536 -1.169,0.955 -1.939,1.256 -0.769,0.296 -1.634,0.443 -2.594,0.443 z m 15.171,5.319 c -1.052,0 -1.957,-0.136 -2.714,-0.407 -0.757,-0.264 -1.388,-0.615 -1.893,-1.052 -0.499,-0.431 -0.896,-0.893 -1.191,-1.385 l 1.736,-1.219 c 0.197,0.259 0.446,0.554 0.748,0.886 0.301,0.339 0.714,0.631 1.237,0.878 0.529,0.252 1.222,0.378 2.077,0.378 1.145,0 2.09,-0.277 2.835,-0.831 0.745,-0.554 1.117,-1.422 1.117,-2.604 v -2.88 h -0.185 c -0.16,0.258 -0.388,0.578 -0.683,0.96 -0.289,0.375 -0.708,0.711 -1.256,1.006 -0.541,0.29 -1.274,0.434 -2.197,0.434 -1.145,0 -2.173,-0.271 -3.084,-0.812 -0.905,-0.542 -1.622,-1.33 -2.151,-2.364 -0.523,-1.034 -0.785,-2.29 -0.785,-3.767 0,-1.453 0.255,-2.717 0.766,-3.795 0.511,-1.083 1.222,-1.92 2.133,-2.511 0.911,-0.597 1.964,-0.896 3.158,-0.896 0.923,0 1.656,0.154 2.197,0.462 0.548,0.302 0.967,0.646 1.256,1.034 0.295,0.382 0.523,0.696 0.683,0.942 h 0.222 v -2.253 h 2.105 v 14.588 c 0,1.219 -0.277,2.21 -0.831,2.973 -0.548,0.77 -1.287,1.333 -2.216,1.69 -0.923,0.363 -1.951,0.545 -3.084,0.545 z m -0.074,-7.793 c 0.874,0 1.613,-0.2 2.216,-0.6 0.603,-0.4 1.062,-0.976 1.376,-1.727 0.314,-0.751 0.471,-1.649 0.471,-2.696 0,-1.022 -0.154,-1.923 -0.462,-2.705 -0.308,-0.782 -0.763,-1.394 -1.366,-1.837 -0.603,-0.444 -1.348,-0.665 -2.235,-0.665 -0.923,0 -1.692,0.234 -2.308,0.702 -0.609,0.467 -1.068,1.095 -1.376,1.883 -0.301,0.788 -0.452,1.662 -0.452,2.622 0,0.985 0.154,1.856 0.462,2.613 0.314,0.751 0.775,1.342 1.385,1.773 0.615,0.425 1.378,0.637 2.289,0.637 z m 10.454,2.179 v -14.182 h 2.105 v 2.142 h 0.147 c 0.259,-0.702 0.727,-1.271 1.404,-1.708 0.677,-0.437 1.44,-0.656 2.29,-0.656 0.16,0 0.36,0.004 0.6,0.01 0.24,0.006 0.421,0.015 0.544,0.027 v 2.216 c -0.073,-0.018 -0.243,-0.046 -0.507,-0.083 -0.259,-0.043 -0.533,-0.064 -0.822,-0.064 -0.69,0 -1.305,0.144 -1.847,0.434 -0.535,0.283 -0.96,0.677 -1.274,1.181 -0.308,0.499 -0.461,1.068 -0.461,1.708 v 8.975 z m 14.107,0.332 c -0.899,0 -1.715,-0.169 -2.447,-0.508 -0.733,-0.344 -1.314,-0.84 -1.745,-1.486 -0.431,-0.653 -0.646,-1.44 -0.646,-2.364 0,-0.812 0.16,-1.471 0.48,-1.976 0.32,-0.51 0.748,-0.911 1.283,-1.2 0.536,-0.289 1.126,-0.505 1.773,-0.646 0.652,-0.148 1.308,-0.265 1.966,-0.351 0.862,-0.111 1.561,-0.194 2.096,-0.249 0.542,-0.062 0.937,-0.163 1.187,-0.305 0.25,-0.142 0.37,-0.388 0.37,-0.739 v -0.073 c 0,-0.911 -0.25,-1.619 -0.74,-2.124 -0.497,-0.505 -1.244,-0.757 -2.248,-0.757 -1.04,0 -1.856,0.228 -2.447,0.683 -0.59,0.456 -1.006,0.942 -1.246,1.459 l -2.068,-0.739 c 0.369,-0.861 0.862,-1.532 1.477,-2.013 0.622,-0.486 1.299,-0.824 2.031,-1.015 0.739,-0.197 1.465,-0.296 2.179,-0.296 0.456,0 0.979,0.056 1.57,0.167 0.597,0.104 1.172,0.323 1.722,0.655 0.56,0.333 1.03,0.834 1.4,1.505 0.37,0.671 0.55,1.57 0.55,2.696 v 9.344 h -2.18 v -1.921 h -0.11 c -0.14,0.308 -0.39,0.638 -0.736,0.988 -0.344,0.351 -0.803,0.65 -1.375,0.896 -0.573,0.246 -1.272,0.369 -2.096,0.369 z m 0.332,-1.957 c 0.862,0 1.588,-0.169 2.179,-0.508 0.597,-0.338 1.046,-0.775 1.346,-1.311 0.31,-0.536 0.46,-1.099 0.46,-1.69 v -1.994 c -0.09,0.111 -0.29,0.212 -0.61,0.305 -0.303,0.086 -0.66,0.163 -1.067,0.231 -0.4,0.061 -0.791,0.117 -1.172,0.166 -0.376,0.043 -0.68,0.08 -0.914,0.111 -0.567,0.073 -1.096,0.193 -1.588,0.36 -0.487,0.16 -0.881,0.403 -1.182,0.729 -0.296,0.32 -0.443,0.757 -0.443,1.311 0,0.757 0.28,1.33 0.84,1.717 0.566,0.382 1.283,0.573 2.151,0.573 z m 10.405,1.625 v -14.182 h 2.1 v 2.216 h 0.19 c 0.29,-0.757 0.77,-1.345 1.43,-1.764 0.66,-0.424 1.45,-0.637 2.37,-0.637 0.94,0 1.72,0.213 2.34,0.637 0.63,0.419 1.12,1.007 1.47,1.764 h 0.15 c 0.36,-0.732 0.9,-1.314 1.63,-1.745 0.73,-0.437 1.6,-0.656 2.61,-0.656 1.27,0 2.31,0.397 3.11,1.191 0.81,0.788 1.21,2.016 1.21,3.684 v 9.492 h -2.18 v -9.492 c 0,-1.046 -0.28,-1.794 -0.85,-2.243 -0.58,-0.45 -1.25,-0.674 -2.03,-0.674 -0.99,0 -1.77,0.301 -2.31,0.905 -0.55,0.597 -0.83,1.354 -0.83,2.271 v 9.233 h -2.21 v -9.713 c 0,-0.807 -0.26,-1.456 -0.79,-1.948 -0.52,-0.499 -1.19,-0.748 -2.02,-0.748 -0.56,0 -1.09,0.151 -1.59,0.452 -0.48,0.302 -0.88,0.72 -1.18,1.256 -0.29,0.529 -0.44,1.142 -0.44,1.837 v 8.864 z"
     fill="#efe3d8"
     id="path1158" />
  <g
     filter="url(#filter9_f_1_2)"
     id="g1164"
     transform="translate(-78.312805,-60.573334)">
    <path
       d="m 1310,345.711 c -4.83,-3 -16.6,-7.5 -25,-1.5 -10.5,7.5 -10.5,24 0,31 10.5,7 21.5,6.5 28.5,-7 5.6,-10.8 0,-19.5 -3.5,-22.5 z"
       fill="#ec57e2"
       id="path1160" />
    <path
       fill-rule="evenodd"
       clip-rule="evenodd"
       d="m 1270.5,301.711 c 2,-1.6 22.17,-0.667 32,0 6.83,0 23.5,0.8 35.5,4 15,4 18,27.5 18.5,48 0.5,20.5 -0.5,37 -5,49 -4.5,12 -21,17.5 -40,17.5 -3.69,0 -7.24,0.076 -10.71,0.15 -14.37,0.306 -27.47,0.586 -44.79,-4.65 -19.68,-5.949 -19.25,-38.287 -19.04,-54.459 0.02,-1.497 0.04,-2.855 0.04,-4.041 0,-11.281 1.95,-23.212 3.49,-32.653 0.37,-2.275 0.72,-4.405 1.01,-6.347 1.11,-7.372 14.98,-11.755 23.2,-14.351 2.93,-0.926 5.14,-1.624 5.8,-2.149 z m 63.5,29 c -4.8,0.4 -6.33,-4.167 -6.5,-6.5 -0.83,-0.667 -1.3,-2.4 3.5,-4 6,-2 9,10 3,10.5 z m -62.5,48 c -7.5,-8 -4,-23 1.5,-37 1.66,-4.213 5.44,-6.813 10,-8.337 13.5,-3.838 31,-6.163 40.5,12.337 9.5,18.5 0,33 -14.5,42.5 -14.5,9.5 -30,-1.5 -37.5,-9.5 z"
       fill="#ec57e2"
       id="path1162" />
  </g>
  <g
     filter="url(#filter10_f_1_2)"
     id="g1170"
     transform="translate(-78.312805,-60.573334)">
    <path
       d="m 1310,345.711 c -4.83,-3 -16.6,-7.5 -25,-1.5 -10.5,7.5 -10.5,24 0,31 10.5,7 21.5,6.5 28.5,-7 5.6,-10.8 0,-19.5 -3.5,-22.5 z"
       fill="#ec57e2"
       id="path1166" />
    <path
       fill-rule="evenodd"
       clip-rule="evenodd"
       d="m 1270.5,301.711 c 2,-1.6 22.17,-0.667 32,0 6.83,0 23.5,0.8 35.5,4 15,4 18,27.5 18.5,48 0.5,20.5 -0.5,37 -5,49 -4.5,12 -21,17.5 -40,17.5 -3.69,0 -7.24,0.076 -10.71,0.15 -14.37,0.306 -27.47,0.586 -44.79,-4.65 -19.68,-5.949 -19.25,-38.287 -19.04,-54.459 0.02,-1.497 0.04,-2.855 0.04,-4.041 0,-11.281 1.95,-23.212 3.49,-32.653 0.37,-2.275 0.72,-4.405 1.01,-6.347 1.11,-7.372 14.98,-11.755 23.2,-14.351 2.93,-0.926 5.14,-1.624 5.8,-2.149 z m 63.5,29 c -4.8,0.4 -6.33,-4.167 -6.5,-6.5 -0.83,-0.667 -1.3,-2.4 3.5,-4 6,-2 9,10 3,10.5 z m -62.5,48 c -7.5,-8 -4,-23 1.5,-37 1.66,-4.213 5.44,-6.813 10,-8.337 13.5,-3.838 31,-6.163 40.5,12.337 9.5,18.5 0,33 -14.5,42.5 -14.5,9.5 -30,-1.5 -37.5,-9.5 z"
       fill="#ec57e2"
       id="path1168" />
  </g>
  <g
     filter="url(#filter11_f_1_2)"
     id="g1176"
     transform="translate(-78.312805,-60.573334)">
    <path
       d="m 1310,345.711 c -4.83,-3 -16.6,-7.5 -25,-1.5 -10.5,7.5 -10.5,24 0,31 10.5,7 21.5,6.5 28.5,-7 5.6,-10.8 0,-19.5 -3.5,-22.5 z"
       fill="#000000"
       id="path1172" />
    <path
       fill-rule="evenodd"
       clip-rule="evenodd"
       d="m 1270.5,301.711 c 2,-1.6 22.17,-0.667 32,0 6.83,0 23.5,0.8 35.5,4 15,4 18,27.5 18.5,48 0.5,20.5 -0.5,37 -5,49 -4.5,12 -21,17.5 -40,17.5 -3.69,0 -7.24,0.076 -10.71,0.15 -14.37,0.306 -27.47,0.586 -44.79,-4.65 -19.68,-5.949 -19.25,-38.287 -19.04,-54.459 0.02,-1.497 0.04,-2.855 0.04,-4.041 0,-11.281 1.95,-23.212 3.49,-32.653 0.37,-2.275 0.72,-4.405 1.01,-6.347 1.11,-7.372 14.98,-11.755 23.2,-14.351 2.93,-0.926 5.14,-1.624 5.8,-2.149 z m 63.5,29 c -4.8,0.4 -6.33,-4.167 -6.5,-6.5 -0.83,-0.667 -1.3,-2.4 3.5,-4 6,-2 9,10 3,10.5 z m -62.5,48 c -7.5,-8 -4,-23 1.5,-37 1.66,-4.213 5.44,-6.813 10,-8.337 13.5,-3.838 31,-6.163 40.5,12.337 9.5,18.5 0,33 -14.5,42.5 -14.5,9.5 -30,-1.5 -37.5,-9.5 z"
       fill="#000000"
       id="path1174" />
  </g>
  <path
     d="m 1231.6872,285.13767 c -4.83,-3 -16.6,-7.5 -25,-1.5 -10.5,7.5 -10.5,24 0,31 10.5,7 21.5,6.5 28.5,-7 5.6,-10.8 0,-19.5 -3.5,-22.5 z"
     fill="#d9d9d9"
     id="path1178" />
  <path
     fill-rule="evenodd"
     clip-rule="evenodd"
     d="m 1192.1872,241.13767 c 2,-1.6 22.17,-0.667 32,0 6.83,0 23.5,0.8 35.5,4 15,4 18,27.5 18.5,48 0.5,20.5 -0.5,37 -5,49 -4.5,12 -21,17.5 -40,17.5 -3.69,0 -7.24,0.076 -10.71,0.15 -14.37,0.306 -27.47,0.586 -44.79,-4.65 -19.68,-5.949 -19.25,-38.287 -19.04,-54.459 0.02,-1.497 0.04,-2.855 0.04,-4.041 0,-11.281 1.95,-23.212 3.49,-32.653 0.37,-2.275 0.72,-4.405 1.01,-6.347 1.11,-7.372 14.98,-11.755 23.2,-14.351 2.93,-0.926 5.14,-1.624 5.8,-2.149 z m 63.5,29 c -4.8,0.4 -6.33,-4.167 -6.5,-6.5 -0.83,-0.667 -1.3,-2.4 3.5,-4 6,-2 9,10 3,10.5 z m -62.5,48 c -7.5,-8 -4,-23 1.5,-37 1.66,-4.213 5.44,-6.813 10,-8.337 13.5,-3.838 31,-6.163 40.5,12.337 9.5,18.5 0,33 -14.5,42.5 -14.5,9.5 -30,-1.5 -37.5,-9.5 z"
     fill="#d9d9d9"
     id="path1180" />
  <path
     d="m 1162.4572,410.85567 v 18.909 h -2.29 v -18.909 z m 6.74,10.378 v 8.531 h -2.18 v -14.182 h 2.1 v 2.216 h 0.19 c 0.33,-0.72 0.83,-1.299 1.51,-1.736 0.68,-0.443 1.55,-0.665 2.62,-0.665 0.96,0 1.8,0.197 2.52,0.591 0.72,0.388 1.28,0.979 1.68,1.773 0.4,0.788 0.6,1.785 0.6,2.992 v 9.011 h -2.17 v -8.864 c 0,-1.114 -0.29,-1.982 -0.87,-2.603 -0.58,-0.628 -1.37,-0.942 -2.38,-0.942 -0.7,0 -1.32,0.151 -1.87,0.452 -0.54,0.302 -0.97,0.742 -1.28,1.321 -0.32,0.578 -0.47,1.28 -0.47,2.105 z m 23.33,-2.475 -1.96,0.554 c -0.12,-0.326 -0.3,-0.643 -0.54,-0.951 -0.23,-0.314 -0.55,-0.572 -0.96,-0.775 -0.41,-0.204 -0.93,-0.305 -1.56,-0.305 -0.87,0 -1.59,0.2 -2.17,0.6 -0.57,0.394 -0.86,0.896 -0.86,1.505 0,0.542 0.2,0.97 0.59,1.283 0.4,0.314 1.01,0.576 1.85,0.785 l 2.1,0.517 c 1.27,0.308 2.22,0.779 2.84,1.413 0.62,0.628 0.93,1.437 0.93,2.428 0,0.813 -0.23,1.539 -0.7,2.179 -0.46,0.64 -1.11,1.145 -1.94,1.514 -0.83,0.37 -1.8,0.554 -2.9,0.554 -1.45,0 -2.64,-0.314 -3.59,-0.941 -0.95,-0.628 -1.55,-1.545 -1.8,-2.752 l 2.07,-0.517 c 0.19,0.763 0.57,1.336 1.11,1.717 0.56,0.382 1.28,0.573 2.17,0.573 1.02,0 1.83,-0.216 2.42,-0.646 0.61,-0.437 0.91,-0.961 0.91,-1.57 0,-0.492 -0.17,-0.905 -0.52,-1.237 -0.34,-0.339 -0.87,-0.591 -1.59,-0.757 l -2.36,-0.554 c -1.3,-0.308 -2.25,-0.785 -2.86,-1.431 -0.61,-0.653 -0.91,-1.468 -0.91,-2.447 0,-0.8 0.23,-1.508 0.68,-2.124 0.45,-0.615 1.07,-1.098 1.85,-1.449 0.79,-0.351 1.68,-0.527 2.68,-0.527 1.4,0 2.5,0.308 3.3,0.924 0.81,0.615 1.38,1.428 1.72,2.437 z m 9.97,-3.176 v 1.847 h -7.35 v -1.847 z m -5.21,-3.398 h 2.18 v 13.517 c 0,0.616 0.09,1.078 0.27,1.385 0.18,0.302 0.42,0.505 0.7,0.61 0.29,0.098 0.59,0.147 0.91,0.147 0.24,0 0.44,-0.012 0.59,-0.036 0.16,-0.031 0.28,-0.056 0.37,-0.074 l 0.45,1.957 c -0.15,0.055 -0.36,0.111 -0.62,0.166 -0.27,0.062 -0.6,0.093 -1.01,0.093 -0.61,0 -1.22,-0.133 -1.81,-0.397 -0.58,-0.265 -1.07,-0.668 -1.46,-1.21 -0.38,-0.542 -0.57,-1.225 -0.57,-2.05 z m 12.92,17.912 c -0.9,0 -1.72,-0.169 -2.45,-0.508 -0.73,-0.344 -1.31,-0.84 -1.74,-1.486 -0.43,-0.653 -0.65,-1.44 -0.65,-2.364 0,-0.812 0.16,-1.471 0.48,-1.976 0.32,-0.51 0.75,-0.911 1.28,-1.2 0.54,-0.289 1.13,-0.505 1.78,-0.646 0.65,-0.148 1.31,-0.265 1.96,-0.351 0.87,-0.111 1.56,-0.194 2.1,-0.249 0.54,-0.062 0.94,-0.163 1.18,-0.305 0.25,-0.142 0.38,-0.388 0.38,-0.739 v -0.073 c 0,-0.911 -0.25,-1.619 -0.75,-2.124 -0.49,-0.505 -1.24,-0.757 -2.24,-0.757 -1.04,0 -1.86,0.228 -2.45,0.683 -0.59,0.456 -1,0.942 -1.24,1.459 l -2.07,-0.739 c 0.37,-0.861 0.86,-1.532 1.47,-2.013 0.63,-0.486 1.3,-0.824 2.04,-1.015 0.73,-0.197 1.46,-0.296 2.17,-0.296 0.46,0 0.98,0.056 1.57,0.167 0.6,0.104 1.18,0.323 1.73,0.655 0.56,0.333 1.03,0.834 1.4,1.505 0.36,0.671 0.55,1.57 0.55,2.696 v 9.344 h -2.18 v -1.921 h -0.11 c -0.15,0.308 -0.39,0.638 -0.74,0.988 -0.34,0.351 -0.8,0.65 -1.37,0.896 -0.58,0.246 -1.28,0.369 -2.1,0.369 z m 0.33,-1.957 c 0.86,0 1.59,-0.169 2.18,-0.508 0.6,-0.338 1.05,-0.775 1.35,-1.311 0.31,-0.536 0.46,-1.099 0.46,-1.69 v -1.994 c -0.09,0.111 -0.3,0.212 -0.61,0.305 -0.31,0.086 -0.66,0.163 -1.07,0.231 -0.4,0.061 -0.79,0.117 -1.17,0.166 -0.38,0.043 -0.68,0.08 -0.92,0.111 -0.56,0.073 -1.09,0.193 -1.58,0.36 -0.49,0.16 -0.89,0.403 -1.19,0.729 -0.29,0.32 -0.44,0.757 -0.44,1.311 0,0.757 0.28,1.33 0.84,1.717 0.57,0.382 1.28,0.573 2.15,0.573 z m 16.13,7.239 c -1.05,0 -1.96,-0.136 -2.71,-0.407 -0.76,-0.264 -1.39,-0.615 -1.9,-1.052 -0.5,-0.431 -0.89,-0.893 -1.19,-1.385 l 1.74,-1.219 c 0.2,0.259 0.44,0.554 0.75,0.886 0.3,0.339 0.71,0.631 1.23,0.878 0.53,0.252 1.23,0.378 2.08,0.378 1.15,0 2.09,-0.277 2.84,-0.831 0.74,-0.554 1.11,-1.422 1.11,-2.604 v -2.88 h -0.18 c -0.16,0.258 -0.39,0.578 -0.69,0.96 -0.28,0.375 -0.7,0.711 -1.25,1.006 -0.54,0.29 -1.28,0.434 -2.2,0.434 -1.14,0 -2.17,-0.271 -3.08,-0.812 -0.91,-0.542 -1.62,-1.33 -2.15,-2.364 -0.53,-1.034 -0.79,-2.29 -0.79,-3.767 0,-1.453 0.26,-2.717 0.77,-3.795 0.51,-1.083 1.22,-1.92 2.13,-2.511 0.91,-0.597 1.96,-0.896 3.16,-0.896 0.92,0 1.65,0.154 2.2,0.462 0.54,0.302 0.96,0.646 1.25,1.034 0.3,0.382 0.52,0.696 0.68,0.942 h 0.23 v -2.253 h 2.1 v 14.588 c 0,1.219 -0.28,2.21 -0.83,2.973 -0.55,0.77 -1.29,1.333 -2.22,1.69 -0.92,0.363 -1.95,0.545 -3.08,0.545 z m -0.07,-7.793 c 0.87,0 1.61,-0.2 2.21,-0.6 0.61,-0.4 1.06,-0.976 1.38,-1.727 0.31,-0.751 0.47,-1.649 0.47,-2.696 0,-1.022 -0.15,-1.923 -0.46,-2.705 -0.31,-0.782 -0.77,-1.394 -1.37,-1.837 -0.6,-0.444 -1.35,-0.665 -2.23,-0.665 -0.93,0 -1.7,0.234 -2.31,0.702 -0.61,0.467 -1.07,1.095 -1.38,1.883 -0.3,0.788 -0.45,1.662 -0.45,2.622 0,0.985 0.15,1.856 0.46,2.613 0.32,0.751 0.78,1.342 1.39,1.773 0.61,0.425 1.38,0.637 2.29,0.637 z m 10.45,2.179 v -14.182 h 2.11 v 2.142 h 0.14 c 0.26,-0.702 0.73,-1.271 1.41,-1.708 0.67,-0.437 1.44,-0.656 2.29,-0.656 0.16,0 0.36,0.004 0.6,0.01 0.24,0.006 0.42,0.015 0.54,0.027 v 2.216 c -0.07,-0.018 -0.24,-0.046 -0.51,-0.083 -0.26,-0.043 -0.53,-0.064 -0.82,-0.064 -0.69,0 -1.3,0.144 -1.85,0.434 -0.53,0.283 -0.96,0.677 -1.27,1.181 -0.31,0.499 -0.46,1.068 -0.46,1.708 v 8.975 z m 14.11,0.332 c -0.9,0 -1.72,-0.169 -2.45,-0.508 -0.73,-0.344 -1.31,-0.84 -1.74,-1.486 -0.44,-0.653 -0.65,-1.44 -0.65,-2.364 0,-0.812 0.16,-1.471 0.48,-1.976 0.32,-0.51 0.75,-0.911 1.28,-1.2 0.54,-0.289 1.13,-0.505 1.78,-0.646 0.65,-0.148 1.3,-0.265 1.96,-0.351 0.86,-0.111 1.56,-0.194 2.1,-0.249 0.54,-0.062 0.93,-0.163 1.18,-0.305 0.25,-0.142 0.38,-0.388 0.38,-0.739 v -0.073 c 0,-0.911 -0.25,-1.619 -0.75,-2.124 -0.49,-0.505 -1.24,-0.757 -2.24,-0.757 -1.04,0 -1.86,0.228 -2.45,0.683 -0.59,0.456 -1.01,0.942 -1.25,1.459 l -2.06,-0.739 c 0.36,-0.861 0.86,-1.532 1.47,-2.013 0.62,-0.486 1.3,-0.824 2.03,-1.015 0.74,-0.197 1.47,-0.296 2.18,-0.296 0.46,0 0.98,0.056 1.57,0.167 0.6,0.104 1.18,0.323 1.73,0.655 0.56,0.333 1.02,0.834 1.39,1.505 0.37,0.671 0.56,1.57 0.56,2.696 v 9.344 h -2.18 v -1.921 h -0.11 c -0.15,0.308 -0.4,0.638 -0.74,0.988 -0.35,0.351 -0.8,0.65 -1.38,0.896 -0.57,0.246 -1.27,0.369 -2.09,0.369 z m 0.33,-1.957 c 0.86,0 1.59,-0.169 2.18,-0.508 0.6,-0.338 1.04,-0.775 1.35,-1.311 0.3,-0.536 0.46,-1.099 0.46,-1.69 v -1.994 c -0.09,0.111 -0.3,0.212 -0.61,0.305 -0.31,0.086 -0.67,0.163 -1.07,0.231 -0.4,0.061 -0.79,0.117 -1.17,0.166 -0.38,0.043 -0.68,0.08 -0.92,0.111 -0.57,0.073 -1.09,0.193 -1.59,0.36 -0.48,0.16 -0.88,0.403 -1.18,0.729 -0.29,0.32 -0.44,0.757 -0.44,1.311 0,0.757 0.28,1.33 0.84,1.717 0.56,0.382 1.28,0.573 2.15,0.573 z m 10.4,1.625 v -14.182 h 2.11 v 2.216 h 0.18 c 0.3,-0.757 0.78,-1.345 1.44,-1.764 0.65,-0.424 1.44,-0.637 2.37,-0.637 0.93,0 1.71,0.213 2.33,0.637 0.63,0.419 1.12,1.007 1.47,1.764 h 0.15 c 0.36,-0.732 0.91,-1.314 1.63,-1.745 0.73,-0.437 1.6,-0.656 2.62,-0.656 1.26,0 2.3,0.397 3.11,1.191 0.8,0.788 1.21,2.016 1.21,3.684 v 9.492 h -2.18 v -9.492 c 0,-1.046 -0.29,-1.794 -0.86,-2.243 -0.57,-0.45 -1.25,-0.674 -2.02,-0.674 -1,0 -1.77,0.301 -2.32,0.905 -0.55,0.597 -0.82,1.354 -0.82,2.271 v 9.233 h -2.22 v -9.713 c 0,-0.807 -0.26,-1.456 -0.78,-1.948 -0.52,-0.499 -1.2,-0.748 -2.02,-0.748 -0.57,0 -1.1,0.151 -1.59,0.452 -0.49,0.302 -0.88,0.72 -1.18,1.256 -0.3,0.529 -0.45,1.142 -0.45,1.837 v 8.864 z"
     fill="#efe3d8"
     id="path1182" />
  <path
     fill-rule="evenodd"
     clip-rule="evenodd"
     d="m 1312.1872,168.89467 c 16.83,0.437 28.59,0.742 32,0.742 0.25,0 0.51,0.01 0.75,0.03 5.89,0.373 10.88,3.931 14.32,9.404 3.44,5.469 5.43,12.945 5.43,21.566 0,3.185 0.35,13.986 0.86,29.516 0.84,25.87 2.11,64.861 2.89,103.631 0.62,30.976 0.94,61.773 0.47,85.494 -0.24,11.855 -0.67,21.98 -1.36,29.489 -0.34,3.749 -0.76,6.894 -1.25,9.296 -0.25,1.2 -0.53,2.259 -0.85,3.134 -0.31,0.833 -0.71,1.69 -1.31,2.319 -1.69,1.776 -4.72,2.922 -8.25,3.754 -3.64,0.86 -8.26,1.478 -13.58,1.915 -10.63,0.875 -24.28,1.046 -38.95,0.889 -14.08,-0.15 -29.15,-0.602 -43.46,-1.031 l -1.82,-0.055 c -14.86,-0.446 -28.8,-0.851 -39.89,-0.851 -29.36,0 -85.04,-3.612 -122.13,-6.375 -5.59,-0.112 -10.37,-0.293 -14.02,-0.561 -1.82,-0.134 -3.38,-0.293 -4.64,-0.481 -1.18,-0.178 -2.29,-0.409 -3.06,-0.773 -0.72,-0.339 -1.22,-0.908 -1.57,-1.425 -0.36,-0.532 -0.65,-1.158 -0.89,-1.819 -0.5,-1.321 -0.9,-3.035 -1.25,-5.025 -0.7,-3.995 -1.2,-9.426 -1.57,-15.785 -0.73,-12.737 -0.9,-29.444 -0.81,-46.392 0.1,-16.956 0.46,-34.189 0.79,-47.99 0.12,-4.71 0.23,-9.011 0.33,-12.765 0.18,-7.273 0.32,-12.486 0.32,-14.609 0,-3.048 -0.11,-10.077 -0.25,-19.192 -0.16,-10.302 -0.37,-23.269 -0.5,-36.162 -0.12,-12.129 -0.19,-24.176 -0.09,-33.821 0.04,-4.822 0.13,-9.056 0.27,-12.407 0.13,-3.295 0.32,-5.881 0.61,-7.31 1.57,-7.842 2.96,-25.701 3.46,-33.732 v -0.009 l 0.01,-0.009 c 0.05,-0.784 0.46,-1.346 0.81,-1.685 0.35,-0.332 0.75,-0.563 1.1,-0.728 0.7,-0.331 1.6,-0.587 2.58,-0.8 2,-0.433 4.84,-0.786 8.33,-1.078 7.01,-0.587 16.96,-0.953 28.89,-1.152 23.88,-0.399 55.82,-0.133 88.29,0.398 40.35,0.661 81.46,1.729 108.99,2.445 z m -215.94,288.87 c -7.67,-0.571 -14.54,-1.106 -20.22,-1.566 -0.11,-0.19 -0.25,-0.48 -0.41,-0.894 -0.36,-0.985 -0.72,-2.422 -1.05,-4.314 -0.66,-3.766 -1.15,-9.015 -1.52,-15.327 -0.72,-12.607 -0.89,-29.213 -0.8,-46.14 0.1,-16.919 0.46,-34.123 0.79,-47.916 0.11,-4.64 0.22,-8.902 0.32,-12.639 0.19,-7.342 0.33,-12.656 0.33,-14.832 0,-3.06 -0.11,-10.145 -0.25,-19.309 -0.17,-10.317 -0.37,-23.27 -0.5,-36.086 -0.13,-12.121 -0.19,-24.137 -0.09,-33.741 0.04,-4.804 0.13,-8.991 0.26,-12.281 0.14,-3.345 0.33,-5.619 0.54,-6.69 1.58,-7.893 2.95,-25.132 3.48,-33.46 0.32,-0.113 0.78,-0.242 1.41,-0.378 1.74,-0.377 4.36,-0.713 7.81,-1.002 6.87,-0.575 16.72,-0.94 28.63,-1.139 23.81,-0.398 55.7,-0.132 88.15,0.399 40.2,0.658 81.31,1.725 108.9,2.441 16.88,0.439 28.69,0.745 32.14,0.746 0.16,0.004 0.33,0.01 0.49,0.02 1.47,0.126 2.76,0.87 3.94,2.367 1.22,1.547 2.25,3.829 3.08,6.786 1.67,5.908 2.36,13.933 2.52,22.53 0.16,8.564 -0.21,17.547 -0.63,25.314 -0.12,2.147 -0.24,4.211 -0.35,6.15 -0.29,5.016 -0.53,9.198 -0.53,11.833 0,2.825 0.15,11.821 0.37,24.554 0.33,19.966 0.83,49.123 1.13,78.093 0.25,23.746 0.37,47.386 0.19,65.802 -0.1,9.21 -0.27,17.097 -0.54,23.03 -0.14,2.969 -0.3,5.428 -0.48,7.31 -0.19,1.954 -0.4,3.092 -0.56,3.554 -0.03,0.099 -0.22,0.441 -1,0.925 -0.76,0.468 -1.87,0.944 -3.37,1.4 -3,0.91 -7.19,1.642 -12.31,2.212 -10.22,1.136 -23.74,1.589 -37.88,1.683 -14.13,0.094 -28.81,-0.171 -41.31,-0.46 -3.63,-0.084 -7.09,-0.171 -10.29,-0.251 -7.8,-0.194 -14.12,-0.352 -17.95,-0.352 -5.41,0 -17.12,0.249 -31.77,0.56 -30.82,0.654 -74.71,1.586 -100.67,1.068 z m 56.38,3.788 c 24.87,1.467 49.3,2.584 65.56,2.584 11.16,0 25.16,0.407 40.01,0.852 l 1.8,0.055 c 14.32,0.43 29.36,0.881 43.4,1.03 14.64,0.157 28.14,-0.016 38.59,-0.876 5.22,-0.43 9.62,-1.027 12.99,-1.821 3.48,-0.822 5.45,-1.77 6.26,-2.619 0,10e-4 0.01,-0.014 0.04,-0.055 0.03,-0.036 0.06,-0.091 0.1,-0.17 0.09,-0.165 0.2,-0.396 0.31,-0.708 0.23,-0.626 0.46,-1.479 0.69,-2.574 0.45,-2.188 0.85,-5.163 1.19,-8.851 0.68,-7.364 1.11,-17.376 1.34,-29.201 0.47,-23.638 0.16,-54.372 -0.47,-85.334 -0.78,-38.581 -2.05,-77.574 -2.89,-103.511 -0.51,-15.629 -0.86,-26.518 -0.86,-29.717 0,-8.047 -1.86,-14.742 -4.81,-19.435 -0.3,-0.473 -0.61,-0.924 -0.93,-1.354 0.21,0.61 0.4,1.237 0.59,1.878 1.8,6.417 2.5,14.861 2.66,23.54 0.16,8.712 -0.22,17.813 -0.64,25.603 -0.12,2.235 -0.24,4.352 -0.35,6.319 -0.29,4.945 -0.52,8.937 -0.52,11.449 0,2.818 0.15,11.765 0.37,24.446 0.33,19.934 0.82,49.092 1.13,78.158 0.25,23.754 0.38,47.427 0.19,65.886 -0.1,9.227 -0.27,17.168 -0.54,23.172 -0.14,3 -0.31,5.538 -0.5,7.519 -0.19,1.909 -0.42,3.502 -0.76,4.477 -0.47,1.339 -1.53,2.305 -2.68,3.011 -1.16,0.722 -2.64,1.319 -4.31,1.826 -3.35,1.017 -7.83,1.782 -13.03,2.36 -10.43,1.161 -24.12,1.614 -38.29,1.708 -14.19,0.094 -28.92,-0.172 -41.43,-0.461 -3.68,-0.085 -7.16,-0.172 -10.38,-0.252 -7.76,-0.194 -13.99,-0.35 -17.77,-0.35 -5.26,0 -16.81,0.245 -31.33,0.553 -13.27,0.281 -29.02,0.615 -44.73,0.863 z"
     fill="#0f0e0d"
     id="path1184" />
  <path
     fill-rule="evenodd"
     clip-rule="evenodd"
     d="m 157.83819,169.90067 c -0.063,0.049 -0.216,0.193 -0.441,0.553 -0.419,0.672 -0.87,1.769 -1.308,3.357 -0.87,3.153 -1.55,7.718 -2.057,13.369 -1.011,11.266 -1.301,26.408 -1.232,42.176 0.07,15.752 0.496,32.065 0.905,45.65 0.104,3.432 0.206,6.695 0.302,9.733 0.281,8.953 0.501,15.95 0.501,19.567 0,15.242 3.417,104.546 5.147,147.835 0.267,0.457 0.761,1.094 1.601,1.87 2.796,1.587 8.348,3.026 16.357,4.22 8.067,1.202 18.28,2.112 29.915,2.785 23.262,1.345 52.043,1.734 80.356,1.652 28.305,-0.081 56.108,-0.633 77.404,-1.164 11.441,-0.285 21.034,-0.566 27.809,-0.764 5.802,-0.17 9.537,-0.279 10.595,-0.279 1.648,0 2.814,-0.595 3.902,-2.038 1.203,-1.594 2.258,-4.177 3.331,-8.058 1.053,-3.809 2.056,-8.598 3.289,-14.478 l 0.029,-0.141 c 1.24,-5.918 2.701,-12.872 4.648,-20.848 1.884,-7.716 3.607,-24.656 5.064,-46.282 1.451,-21.545 2.627,-47.532 3.457,-73.196 0.83,-25.663 1.314,-50.986 1.383,-71.201 0.07,-20.319 -0.284,-35.241 -1.08,-40.284 -0.232,-1.471 -0.774,-2.728 -1.587,-3.829 -2.194,-2.972 -6.582,-5.077 -13.011,-6.433 -6.341,-1.337 -14.189,-1.851 -22.727,-2.047 -4.902,-0.112 -10.042,-0.117 -15.219,-0.122 -12.639,-0.012 -25.503,-0.024 -35.682,-1.599 -15.281,-2.365 -57.791,-2.744 -98.159,-2.328 -20.129,0.208 -39.646,0.611 -54.842,1.055 -15.104,0.441 -25.782,0.919 -28.65,1.269 z m 0.78,287.695 c 6.523,5.732 23.203,13.133 57.369,15.779 26.321,2.039 76.339,2.498 120.599,1.806 22.142,-0.346 42.882,-0.981 58.537,-1.855 7.823,-0.436 14.406,-0.933 19.27,-1.488 2.428,-0.276 4.467,-0.572 6.034,-0.889 0.782,-0.159 1.484,-0.33 2.076,-0.519 0.545,-0.175 1.182,-0.421 1.7,-0.802 0.495,-0.365 0.795,-0.845 0.962,-1.147 0.193,-0.347 0.358,-0.737 0.503,-1.132 0.292,-0.794 0.575,-1.812 0.855,-2.999 0.562,-2.386 1.159,-5.679 1.778,-9.718 1.24,-8.09 2.593,-19.34 3.941,-32.687 2.695,-26.703 5.377,-61.897 7.082,-97.198 1.704,-35.291 2.434,-70.745 1.218,-97.949 -0.608,-13.589 -1.705,-25.207 -3.436,-33.743 -0.863,-4.259 -1.905,-7.857 -3.178,-10.58 -1.113,-2.381 -2.581,-4.481 -4.615,-5.49 -3.27,-4.032 -8.864,-6.293 -15.282,-7.646 -6.761,-1.426 -14.949,-1.945 -23.54,-2.142 -5.162,-0.118 -10.461,-0.122 -15.727,-0.127 -12.479,-0.011 -24.771,-0.022 -34.598,-1.543 -15.729,-2.434 -58.68,-2.794 -98.882,-2.379 -20.156,0.207 -39.701,0.611 -54.926,1.056 -15.148,0.442 -26.181,0.928 -29.18,1.315 -1.693,0.219 -2.822,1.439 -3.541,2.592 -0.746,1.197 -1.333,2.761 -1.819,4.522 -0.977,3.543 -1.685,8.426 -2.198,14.15 -1.031,11.484 -1.319,26.797 -1.249,42.593 0.069,15.811 0.496,32.169 0.906,45.763 0.105,3.481 0.209,6.775 0.305,9.831 0.28,8.913 0.496,15.795 0.496,19.336 0,15.415 3.449,105.458 5.17,148.49 m 277.649,-258.193 c 0.268,7.507 0.369,17.73 0.328,29.631 -0.069,20.266 -0.554,45.633 -1.385,71.33 -0.831,25.695 -2.009,51.737 -3.465,73.35 -1.45,21.531 -3.188,38.877 -5.18,47.035 -1.929,7.898 -3.376,14.788 -4.616,20.706 l -0.055,0.264 c -1.211,5.777 -2.239,10.681 -3.329,14.626 -1.096,3.964 -2.326,7.242 -4.064,9.546 -1.854,2.457 -4.287,3.8 -7.439,3.8 -1.013,0 -4.615,0.106 -10.256,0.271 -6.744,0.198 -16.403,0.481 -28.038,0.771 -21.312,0.531 -49.151,1.084 -77.502,1.165 -28.342,0.082 -57.228,-0.306 -80.624,-1.659 -10.03,-0.58 -19.081,-1.339 -26.662,-2.32 8.592,2.464 20.232,4.64 35.719,5.839 26.1,2.022 75.941,2.486 120.187,1.794 22.111,-0.346 42.787,-0.98 58.36,-1.849 7.792,-0.434 14.276,-0.926 19.015,-1.466 2.374,-0.271 4.27,-0.549 5.656,-0.83 0.695,-0.141 1.225,-0.275 1.605,-0.396 0.096,-0.031 0.174,-0.058 0.236,-0.082 0.035,-0.08 0.076,-0.182 0.122,-0.308 0.202,-0.551 0.439,-1.372 0.701,-2.487 0.522,-2.217 1.099,-5.375 1.711,-9.373 1.224,-7.982 2.568,-19.147 3.912,-32.461 2.688,-26.621 5.364,-61.738 7.065,-96.967 1.702,-35.239 2.425,-70.536 1.217,-97.537 -0.588,-13.151 -1.632,-24.252 -3.219,-32.393 z m -277.649,258.194 c 0.088,2.211 1.684,3.754 3.37,4.799 z m 868.30901,-279.74 c 0.04,0.055 0.09,0.11 0.13,0.165 1.06,1.353 1.6,2.785 1.94,4.141 0.2,0.806 0.36,1.746 0.51,2.591 0.07,0.435 0.14,0.845 0.21,1.199 0.44,2.249 1.15,4.417 3.77,6.658 0.72,0.614 1.26,1.457 1.69,2.309 0.43,0.881 0.83,1.934 1.19,3.113 0.72,2.359 1.37,5.417 1.96,9.033 1.18,7.242 2.16,16.964 2.97,28.328 1.61,22.741 2.55,52.252 2.98,82.078 0.44,29.832 0.39,60.01 0.01,84.097 -0.37,23.993 -1.06,42.152 -1.92,47.783 -0.56,3.646 -3.15,6.388 -6.55,8.436 -3.42,2.055 -7.98,3.618 -13.18,4.826 -10.44,2.421 -24.07,3.545 -37.86,3.984 -20.31001,0.648 -41.54001,-0.192 -53.70001,-0.673 -4.28,-0.17 -7.435,-0.295 -9.034,-0.295 -6.522,0 -42.592,-1.48 -77.617,-2.955 -7.365,-0.31 -14.682,-0.62 -21.674,-0.916 -12.691,-0.537 -24.307,-1.029 -33.18,-1.394 6.503,0.924 14.711,1.763 24.184,2.515 24.208,1.922 56.443,3.259 89.012,4.043 32.559,0.784 65.429,1.014 90.87901,0.726 12.72,-0.144 23.58,-0.417 31.61,-0.815 4.02,-0.199 7.31,-0.427 9.76,-0.683 1.22,-0.128 2.22,-0.261 2.97,-0.394 0.67,-0.119 1.05,-0.221 1.22,-0.28 0.03,-0.036 0.1,-0.11 0.18,-0.24 0.21,-0.319 0.47,-0.83 0.75,-1.586 0.55,-1.508 1.09,-3.687 1.6,-6.518 1.01,-5.64 1.82,-13.517 2.48,-22.988 1.31,-18.923 1.96,-43.95 2.23,-69.597 0.42,-38.374 0.01,-77.982 -0.23,-100.49 -0.08,-7.59 -0.14,-13.235 -0.14,-16.233 0,-11.511 -2.98,-26.14 -6.52,-39.15 -3.53,-12.988 -7.56,-24.137 -9.53,-28.622 -0.15,-0.334 -0.56,-0.842 -1.54,-1.429 -0.45,-0.263 -0.97,-0.519 -1.56,-0.767 z m -255.83801,281.622 c 0.346,0.429 0.754,0.759 1.108,1.002 0.769,0.529 1.744,0.968 2.813,1.35 2.155,0.771 5.14,1.465 8.76,2.103 7.268,1.28 17.482,2.397 29.635,3.362 24.327,1.931 56.655,3.271 89.256,4.056 32.606,0.785 65.526,1.016 91.03601,0.727 12.75,-0.144 23.67,-0.419 31.78,-0.82 4.05,-0.201 7.43,-0.434 10,-0.702 1.28,-0.134 2.38,-0.279 3.28,-0.438 0.85,-0.15 1.68,-0.34 2.31,-0.614 0.92,-0.404 1.57,-1.143 2.02,-1.825 0.47,-0.708 0.86,-1.565 1.2,-2.497 0.69,-1.867 1.28,-4.341 1.81,-7.27 1.05,-5.878 1.88,-13.945 2.54,-23.462 1.32,-19.056 1.97,-44.188 2.24,-69.855 0.42,-38.437 0,-78.224 -0.23,-100.705 -0.08,-7.532 -0.14,-13.121 -0.14,-16.066 0,-12.115 -3.11,-27.204 -6.67,-40.313 -3.57,-13.13 -7.67,-24.499 -9.76,-29.243 -0.66,-1.512 -1.93,-2.623 -3.33,-3.452 -1.41,-0.842 -3.15,-1.512 -5.05,-2.059 -3.81,-1.095 -8.64,-1.791 -13.73,-2.219 -10.18,-0.855 -21.81,-0.67 -29.44,-0.238 H 800.67619 c -6.194,-0.747 -15.477,-0.538 -23.344,2.634 -3.989,1.609 -7.71,4.02 -10.436,7.551 -2.748,3.558 -4.379,8.118 -4.379,13.811 0,12.544 1.011,54.702 2.066,98.707 l 0.15,6.28 c 1.108,46.258 2.214,93.102 2.214,108.757 0,12.918 -0.944,23.544 -1.664,31.646 -0.148,1.666 -0.286,3.224 -0.405,4.674 -0.342,4.177 -0.542,7.646 -0.251,10.092 0.143,1.21 0.435,2.465 1.115,3.464 0.504,0.741 1.179,1.275 1.977,1.562 z m 3.433,-2.796 c 0,0 0.007,0.006 0.017,0.018 -0.012,-0.012 -0.017,-0.018 -0.017,-0.018 z m -0.75,-273.49 c -2.102,2.722 -3.455,6.311 -3.455,11.104 0,12.487 1.01,54.622 2.067,98.701 l 0.148,6.18 c 1.107,46.216 2.215,93.139 2.215,108.863 0,13.132 -0.964,23.977 -1.684,32.079 -0.147,1.649 -0.283,3.185 -0.4,4.603 -0.349,4.267 -0.496,7.282 -0.267,9.208 0.089,0.751 0.219,1.162 0.309,1.364 3.019,0.039 24.592,0.952 50.454,2.047 6.934,0.294 14.177,0.601 21.453,0.907 35.115,1.479 71.032,2.951 77.431,2.951 1.828,0 5.214,0.135 9.734,0.314 12.24,0.485 32.75,1.298 52.86001,0.657 13.71,-0.438 26.99,-1.552 36.99,-3.872 5.02,-1.163 9.06,-2.597 11.91,-4.307 2.85,-1.717 4.17,-3.509 4.45,-5.308 0.8,-5.259 1.49,-23.047 1.87,-47.184 0.38,-24.042 0.43,-54.176 -0.01,-83.963 -0.43,-29.794 -1.37,-59.21 -2.97,-81.83 -0.81,-11.317 -1.77,-20.883 -2.92,-27.929 -0.58,-3.528 -1.19,-6.364 -1.83,-8.447 -0.32,-1.042 -0.63,-1.847 -0.92,-2.437 -0.31,-0.617 -0.53,-0.856 -0.59,-0.912 -3.65,-3.111 -4.7,-6.343 -5.25,-9.181 -0.12,-0.602 -0.2,-1.113 -0.28,-1.583 -0.12,-0.701 -0.22,-1.308 -0.39,-1.981 -0.24,-0.987 -0.57,-1.776 -1.12,-2.476 -1.11,-1.403 -3.55,-2.992 -9.89,-4.17 -6.29,-1.167 -16,-1.86 -31.1,-1.86 H 800.40519 l -0.136,-0.017 c -5.743,-0.71 -14.284,-0.492 -21.28,2.33 -3.471,1.399 -6.464,3.4 -8.587,6.149 z m -293.987,-12.892 h 0.04 c 39.872,0.677 100.328,1.822 152.11,3.055 25.889,0.617 49.617,1.257 67.522,1.871 8.951,0.307 16.455,0.609 22.051,0.898 5.499,0.285 9.361,0.566 10.851,0.864 0.836,0.167 1.469,0.634 1.914,1.091 0.445,0.458 0.805,1.01 1.103,1.57 0.57,1.072 1.067,2.469 1.515,4.083 5.022,10.141 11.646,27.293 11.646,43.05 0,5.083 0.229,18.219 0.537,35.88 0.397,22.719 0.924,52.925 1.262,83.103 0.3,26.792 0.451,53.541 0.225,74.936 -0.112,10.697 -0.319,20.071 -0.649,27.451 -0.326,7.308 -0.779,12.847 -1.429,15.747 -0.866,3.862 -4.636,6.379 -9.153,8.125 -4.688,1.812 -11.023,3.12 -18.437,4.063 -14.859,1.888 -34.583,2.371 -55.391,2.186 -20.829,-0.185 -42.838,-1.04 -62.293,-1.848 -2.058,-0.085 -4.087,-0.17 -6.082,-0.253 -16.9,-0.707 -31.401,-1.314 -40.923,-1.314 -6.962,0 -14.078,0.13 -21.114,0.258 -14.404,0.261 -28.471,0.517 -40.185,-0.356 -8.73,-0.651 -16.437,-1.94 -22.173,-4.448 -5.718,-2.5 -9.82,-6.389 -10.618,-12.298 -0.464,-1.396 -0.839,-3.433 -1.164,-5.897 -0.351,-2.663 -0.664,-5.989 -0.943,-9.872 -0.559,-7.767 -0.99,-17.852 -1.319,-29.482 -0.658,-23.264 -0.912,-52.797 -0.958,-82.52 -0.065,-41.81 0.282,-84.199 0.493,-109.936 0.088,-10.791 0.153,-18.654 0.153,-22.32 0,-10.546 3.379,-17.495 7.879,-21.818 4.441,-4.267 9.791,-5.798 13.49,-5.869 z m 5.287,298.86 c 3.083,0.523 6.485,0.908 10.163,1.182 11.512,0.858 25.212,0.608 39.483,0.348 7.087,-0.13 14.315,-0.262 21.486,-0.262 9.622,0 24.227,0.611 41.091,1.317 2.002,0.084 4.036,0.169 6.097,0.254 19.457,0.808 41.401,1.66 62.149,1.844 20.769,0.185 40.246,-0.302 54.793,-2.151 7.289,-0.926 13.208,-2.18 17.399,-3.8 4.361,-1.686 6.093,-3.472 6.428,-4.962 0.549,-2.454 0.996,-7.597 1.326,-14.976 0.326,-7.307 0.532,-16.624 0.645,-27.299 0.224,-21.347 0.075,-48.057 -0.225,-74.84 -0.337,-30.078 -0.864,-60.274 -1.261,-83.019 -0.309,-17.721 -0.539,-30.919 -0.539,-36.014 0,-7.593 -1.664,-15.63 -3.949,-22.997 1.13,10.368 2.071,23.33 2.829,37.816 1.391,26.614 2.172,58.635 2.312,89.78 0.139,31.143 -0.362,61.442 -1.537,84.61 -0.587,11.577 -1.345,21.413 -2.282,28.696 -0.467,3.636 -0.986,6.689 -1.565,9.024 -0.29,1.167 -0.605,2.202 -0.957,3.062 -0.334,0.817 -0.776,1.67 -1.406,2.301 -1.005,1.005 -2.422,1.769 -3.985,2.386 -1.597,0.629 -3.524,1.172 -5.704,1.646 -4.363,0.948 -9.942,1.664 -16.345,2.204 -12.816,1.08 -29.178,1.473 -46.221,1.519 -17.054,0.046 -34.841,-0.254 -50.521,-0.566 -3.097,-0.061 -6.109,-0.123 -9.017,-0.183 -11.838,-0.243 -21.941,-0.451 -28.882,-0.451 -8.576,0 -19.448,0.777 -31.13,1.667 -1.042,0.079 -2.091,0.159 -3.144,0.24 -10.716,0.82 -21.953,1.68 -32.465,2.06 -9.076,0.328 -17.708,0.303 -25.066,-0.436 z m 245.471,-287.967 c -1.63,-0.19 -4.749,-0.411 -9.264,-0.645 -5.557,-0.287 -13.033,-0.588 -21.974,-0.895 -17.881,-0.613 -41.591,-1.252 -67.476,-1.869 -51.75,-1.233 -112.17,-2.377 -152.037,-3.054 -2.703,0.062 -6.928,1.232 -10.468,4.633 -3.499,3.362 -6.518,9.088 -6.518,18.624 0,3.777 -0.066,11.741 -0.155,22.635 -0.211,25.727 -0.556,67.792 -0.491,109.614 0.046,29.711 0.3,59.198 0.956,82.402 0.329,11.605 0.757,21.616 1.309,29.29 0.276,3.838 0.581,7.068 0.917,9.609 0.342,2.592 0.697,4.31 1.024,5.22 0.588,1.631 1.94,3.093 4.286,4.352 2.36,1.267 5.566,2.237 9.526,2.926 7.918,1.378 18.34,1.548 29.8,1.134 10.418,-0.376 21.565,-1.229 32.298,-2.051 1.049,-0.08 2.094,-0.16 3.134,-0.239 11.645,-0.887 22.692,-1.68 31.467,-1.68 6.992,0 17.159,0.209 29.004,0.453 2.901,0.059 5.902,0.121 8.983,0.182 15.675,0.312 33.42,0.611 50.421,0.565 17.011,-0.046 33.228,-0.438 45.861,-1.503 6.322,-0.533 11.685,-1.23 15.776,-2.119 2.046,-0.445 3.723,-0.927 5.02,-1.439 1.331,-0.524 2.098,-1.017 2.477,-1.397 -0.013,0.014 0.034,-0.031 0.124,-0.186 0.088,-0.15 0.195,-0.364 0.314,-0.658 0.242,-0.59 0.498,-1.402 0.758,-2.452 0.52,-2.097 1.013,-4.959 1.471,-8.523 0.916,-7.116 1.667,-16.821 2.252,-28.356 1.17,-23.057 1.67,-53.268 1.531,-84.365 -0.14,-31.094 -0.919,-63.042 -2.306,-89.569 -1.382,-26.43 -3.357,-47.22 -5.832,-56.516 -0.786,-1.571 -1.527,-2.957 -2.188,-4.123 z"
     fill="#0f0e0d"
     id="path1186" />
  <path
     d="m 428.42619,436.09667 c -4.43,8.86 -6.522,-6.399 -7.014,-15.136 l -8.86,24.734 -2.215,12.552 -4.43,3.322 -26.21,2.215 -9.229,6.276 h 28.425 l 22.519,-2.584 4.061,-3.692 z"
     fill="#0f0e0d"
     id="path1188" />
  <path
     d="m 733.72319,450.49367 c 5.316,-3.544 5.414,-33.963 4.799,-48.729 3.839,1.772 4.553,35.193 4.43,51.683 l -1.846,9.598 c -7.506,2.092 -26.137,6.349 -40.608,6.645 -14.471,0.295 -55.005,-7.261 -73.463,-11.075 11.69,1.107 39.057,3.175 55.005,2.584 19.935,-0.738 45.038,-6.276 51.683,-10.706 z"
     fill="#0f0e0d"
     id="path1190" />
  <path
     d="m 1030.1572,450.49367 7.75,-11.075 v 18.828 l -2.95,4.799 h -19.93 l 5.17,-7.384 z"
     fill="#0f0e0d"
     id="path1192" />
  <path
     d="m 1327.6872,458.63767 11.5,-1.5 c 15.6,0.8 17.83,-8.667 17,-13.5 6,-4.8 9.83,-31 11,-43.5 l -1,40 -2,19 c -2.4,9.6 -40,10 -58.5,9 18.4,0 22.33,-6.333 22,-9.5 z"
     fill="#0f0e0d"
     id="path1194" />
  <g
     opacity="0.5"
     id="g1234"
     transform="translate(-78.312805,-60.573334)">
    <path
       d="m 500.463,461.231 -4.43,31.379 v 15.135 l -9.598,15.136 h -19.196 l -70.879,3.691 -61.65,-1.476 -68.664,-3.692 -20.673,-3.322 5.168,5.537 40.977,9.229 112.963,1.477 58.697,-3.323 41.346,-10.336 9.598,-81.216 2.215,-127.36 V 281.818 L 510.8,250.809 v 4.061 l -1.477,62.388 -2.584,65.711 z"
       fill="#100f0e"
       id="path1196" />
    <path
       d="m 573.927,522.881 -22.888,-2.215 -2.585,4.061 11.814,3.322 165.384,3.692 73.463,-2.215 16.982,-12.183 6.275,-12.182 v -220.02 l -4.799,-21.412 -5.168,-10.705 5.168,80.846 -1.476,124.777 v 52.79 l -22.888,11.444 h -48.361 l -43.192,-4.061 h -53.159 l -40.238,4.061 z"
       fill="#100f0e"
       id="path1198" />
    <path
       d="m 888.821,514.021 h -40.607 c 2.067,3.839 83.061,9.229 123.3,11.444 h 121.826 l 20.3,-6.645 5.54,-11.813 4.06,-121.454 v -74.571 l -1.48,-27.687 -9.6,-32.486 -7.38,-16.982 -6.64,-2.953 6.64,17.72 4.8,4.799 2.58,16.981 4.8,81.585 -3.32,155.048 -6.64,7.014 -52.79,7.014 -61.285,-2.215 z"
       fill="#100f0e"
       id="path1200" />
    <path
       d="m 800.961,529.526 0.738,2.215 c 1.108,2.338 3.323,6.866 3.323,6.275 0,-0.59 3.937,-0.246 5.906,0 l -4.43,-8.49 z"
       fill="#100f0e"
       id="path1202" />
    <path
       d="m 833.447,573.825 -5.537,-5.168 -15.874,2.215 c 6.792,0 11.198,3.199 12.551,4.799 z"
       fill="#100f0e"
       id="path1204" />
    <path
       d="m 840.461,572.718 -6.276,-4.061 3.692,-1.477 4.799,3.692 z"
       fill="#100f0e"
       id="path1206" />
    <path
       d="m 893.251,521.404 h -11.444 v 5.168 c 3.544,-4.134 6.153,5.169 7.014,10.337 z"
       fill="#100f0e"
       id="path1208" />
    <path
       d="m 913.924,523.988 -11.813,-1.107 -2.953,2.584 c 2.953,0 5.907,4.184 7.014,6.276 z"
       fill="#100f0e"
       id="path1210" />
    <path
       d="m 700.18,532.479 -16.243,-0.738 5.168,4.061 c 5.021,-2.658 15.382,-0.124 19.935,1.476 z"
       fill="#100f0e"
       id="path1212" />
    <path
       d="m 469.085,533.587 h -4.799 l 0.738,3.322 c 0.591,-1.772 3.938,0 5.537,1.107 z"
       fill="#100f0e"
       id="path1214" />
    <path
       d="m 420.355,535.063 h -7.014 l 4.43,3.692 c 2.658,-0.591 7.26,0.246 9.229,0.738 z"
       fill="#100f0e"
       id="path1216" />
    <path
       d="m 477.206,554.26 h -4.061 l 2.215,4.43 c -0.295,-2.954 3.077,-1.231 4.8,0 z"
       fill="#100f0e"
       id="path1218" />
    <path
       d="m 475.36,550.937 h -4.799 l -1.476,-1.477 4.799,-0.738 z"
       fill="#100f0e"
       id="path1220" />
    <path
       d="m 546.609,524.727 -4.43,-4.061 -0.739,4.061 3.323,4.43 z"
       fill="#100f0e"
       id="path1222" />
    <path
       d="m 534.426,507.745 -0.738,-5.906 2.953,-2.215 1.108,5.537 z"
       fill="#100f0e"
       id="path1224" />
    <path
       d="m 1191,521.711 h -8.5 c 4.4,2.4 4.17,6 3.5,7.5 z"
       fill="#100f0e"
       id="path1226" />
    <path
       d="m 1082,525.211 h -9 l 4,7 c 3.2,-2.8 10.33,4.833 13.5,9 z"
       fill="#100f0e"
       id="path1228" />
    <path
       d="m 1054,532.211 -3.5,-5 9,-2 4,7 z"
       fill="#100f0e"
       id="path1230" />
    <path
       d="m 1293,518.711 -62,3 c 0,5.2 124.33,6.167 186.5,6 21.2,0 26.17,-8.333 26,-12.5 l 2,-93.5 -3.5,-152.5 c -0.8,-26.8 -10,-34.5 -14.5,-35 7.6,6 7.17,40.833 6,57.5 v 54.5 c 0.83,45.833 2.4,140.1 2,150.5 l -0.01,0.283 c -0.49,12.739 -0.55,14.246 -8.49,18.217 -6.4,3.2 -33.67,3.667 -46.5,3.5 z"
       fill="#100f0e"
       id="path1232" />
  </g>
  <path
     d="m 158.20019,167.71667 c 2.107,-0.087 4.457,-0.183 6.991,-0.284 16.248,-1.048 46.997,-4.738 62.411,-6.73 l 4.43,-2.585 h 80.847 l 8.121,5.169 h 69.033 c 8.86,-1.846 29.386,-5.464 40.608,-5.169 11.223,0.296 15.013,41.962 15.505,62.758 v 39.5 c -1.231,27.195 -4.209,88.747 -6.276,117.394 -2.067,28.646 -8.491,69.033 -11.444,85.645 l 2.584,-16.243 8.86,-136.221 v -86.014 c -1.846,-10.583 -5.537,-33.963 -5.537,-42.823 0,-11.075 -14.767,-14.397 -24.365,-14.397 h -49.468 c -8.859,0 -34.332,-2.585 -39.5,-2.585 h -85.276 c -10.623,0 -47.915,1.394 -70.533,2.301 -2.819,0.181 -5.201,0.284 -6.991,0.284 z"
     fill="#ec57e2"
     id="path1236" />
  <path
     d="m 455.37519,184.69767 c -0.591,2.068 -1.723,51.314 -2.215,75.678 l -2.953,50.575 v -56.481 c 1.62,-21.904 4.922,-67.852 5.168,-76.417 0.308,-10.705 11.813,-13.659 20.304,-13.659 8.491,0 115.178,-1.476 122.192,-1.107 7.014,0.369 77.893,-0.369 101.52,-2.215 23.626,-1.846 39.869,6.645 39.5,13.29 -0.369,6.645 9.229,40.238 9.229,43.192 0,2.362 0.985,25.103 1.477,36.177 l 2.215,39.87 c -1.231,16.366 -3.692,50.87 -3.692,57.958 0,7.088 -1.723,71.125 -2.584,102.258 v -102.258 -122.192 c 0,-17.72 -9.598,-40.608 -9.229,-50.575 0.369,-9.968 -20.673,-11.075 -28.795,-11.075 h -77.893 -98.566 -63.127 c -7.014,0 -11.813,14.397 -12.551,16.981 z"
     fill="#ec57e2"
     id="path1238" />
  <path
     d="m 763.62519,315.01167 v 90.445 l -2.953,42.084 -2.215,-29.533 c 2.953,-17.424 1.23,-103.734 0,-144.711 l -3.692,-7.014 3.692,-28.425 v -63.496 c 0,-13.29 16.243,-15.874 32.117,-15.874 12.699,0 88.722,1.723 125.145,2.584 l 10.338,-6.645 h 29.53 l 5.17,4.061 22.52001,4.799 H 802.01819 c -18.828,0 -26.58,7.383 -35.071,11.075 -6.792,2.953 -5.045,35.193 -3.322,50.944 z"
     fill="#ec57e2"
     id="path1240" />
  <path
     d="m 414.39819,506.60667 c 5.045,0 16.834,-1.329 23.626,-6.645 -4.553,3.938 -15.652,10.78 -23.626,6.645 z"
     fill="#ec57e2"
     id="path1242" />
  <path
     d="m 673.54919,497.74667 c 7.886,2.969 22.303,8.175 30.693,10.558 2.156,0.486 4.147,0.91 5.854,1.255 -1.017,0 -3.114,-0.477 -5.854,-1.255 -11.677,-2.63 -28.2,-7.068 -30.693,-10.558 z"
     fill="#ec57e2"
     id="path1244" />
  <path
     d="m 1042.6872,214.63767 c -1.6,-6.4 -8,-27 -11,-36.5 10,11 18.5,69.5 18.5,74 v 50.5 c 0,4.8 -3.67,59.667 -5.5,86.5 0.67,-34.333 2.1,-104.9 2.5,-112.5 0.5,-9.5 -2.5,-54 -4.5,-62 z"
     fill="#ec57e2"
     id="path1246" />
  <path
     d="m 1071.1872,334.63767 c 0.4,8.8 -2.17,63.667 -3.5,90 v -78 -99 l -3.5,-18 c -2.8,-8 -1.17,-46.333 0,-64.5 l 42,-7 43,7 c 36.83,-1.167 112.3,-2.8 119.5,0 7.2,2.8 55.67,4.833 79,5.5 -12.33,0.333 -49.1,0.3 -97.5,-2.5 -48.4,-2.8 -132.17,-1.166 -168,0 -13,3 -8.5,23 -11,36 -2.5,13 0,30.5 0,39 0,8.5 -0.5,80.5 0,91.5 z"
     fill="#ec57e2"
     id="path1248" />
  <defs
     id="defs1334">
    <filter
       id="filter0_f_1_2"
       x="100.009"
       y="100.646"
       width="535.85101"
       height="513.70203"
       filterUnits="userSpaceOnUse"
       color-interpolation-filters="sRGB">
      <feFlood
         flood-opacity="0"
         result="BackgroundImageFix"
         id="feFlood1250" />
      <feBlend
         mode="normal"
         in="SourceGraphic"
         in2="BackgroundImageFix"
         result="shape"
         id="feBlend1252" />
      <feGaussianBlur
         stdDeviation="100"
         result="effect1_foregroundBlur_1_2"
         id="feGaussianBlur1254" />
    </filter>
    <filter
       id="filter1_f_1_2"
       x="0.0086059598"
       y="0.64550799"
       width="735.85101"
       height="713.70203"
       filterUnits="userSpaceOnUse"
       color-interpolation-filters="sRGB">
      <feFlood
         flood-opacity="0"
         result="BackgroundImageFix"
         id="feFlood1257" />
      <feBlend
         mode="normal"
         in="SourceGraphic"
         in2="BackgroundImageFix"
         result="shape"
         id="feBlend1259" />
      <feGaussianBlur
         stdDeviation="150"
         result="effect1_foregroundBlur_1_2"
         id="feGaussianBlur1261" />
    </filter>
    <filter
       id="filter2_f_1_2"
       x="298.224"
       y="299.599"
       width="143.851"
       height="121.702"
       filterUnits="userSpaceOnUse"
       color-interpolation-filters="sRGB">
      <feFlood
         flood-opacity="0"
         result="BackgroundImageFix"
         id="feFlood1264" />
      <feBlend
         mode="normal"
         in="SourceGraphic"
         in2="BackgroundImageFix"
         result="shape"
         id="feBlend1266" />
      <feGaussianBlur
         stdDeviation="2"
         result="effect1_foregroundBlur_1_2"
         id="feGaussianBlur1268" />
    </filter>
    <filter
       id="filter3_f_1_2"
       x="399.03"
       y="100.646"
       width="554.81403"
       height="513.70203"
       filterUnits="userSpaceOnUse"
       color-interpolation-filters="sRGB">
      <feFlood
         flood-opacity="0"
         result="BackgroundImageFix"
         id="feFlood1271" />
      <feBlend
         mode="normal"
         in="SourceGraphic"
         in2="BackgroundImageFix"
         result="shape"
         id="feBlend1273" />
      <feGaussianBlur
         stdDeviation="100"
         result="effect1_foregroundBlur_1_2"
         id="feGaussianBlur1275" />
    </filter>
    <filter
       id="filter4_f_1_2"
       x="299.03"
       y="0.64550799"
       width="754.81403"
       height="713.70203"
       filterUnits="userSpaceOnUse"
       color-interpolation-filters="sRGB">
      <feFlood
         flood-opacity="0"
         result="BackgroundImageFix"
         id="feFlood1278" />
      <feBlend
         mode="normal"
         in="SourceGraphic"
         in2="BackgroundImageFix"
         result="shape"
         id="feBlend1280" />
      <feGaussianBlur
         stdDeviation="150"
         result="effect1_foregroundBlur_1_2"
         id="feGaussianBlur1282" />
    </filter>
    <filter
       id="filter5_f_1_2"
       x="597.245"
       y="299.599"
       width="162.814"
       height="121.702"
       filterUnits="userSpaceOnUse"
       color-interpolation-filters="sRGB">
      <feFlood
         flood-opacity="0"
         result="BackgroundImageFix"
         id="feFlood1285" />
      <feBlend
         mode="normal"
         in="SourceGraphic"
         in2="BackgroundImageFix"
         result="shape"
         id="feBlend1287" />
      <feGaussianBlur
         stdDeviation="2"
         result="effect1_foregroundBlur_1_2"
         id="feGaussianBlur1289" />
    </filter>
    <filter
       id="filter6_f_1_2"
       x="706.742"
       y="100.646"
       width="526.992"
       height="513.70203"
       filterUnits="userSpaceOnUse"
       color-interpolation-filters="sRGB">
      <feFlood
         flood-opacity="0"
         result="BackgroundImageFix"
         id="feFlood1292" />
      <feBlend
         mode="normal"
         in="SourceGraphic"
         in2="BackgroundImageFix"
         result="shape"
         id="feBlend1294" />
      <feGaussianBlur
         stdDeviation="100"
         result="effect1_foregroundBlur_1_2"
         id="feGaussianBlur1296" />
    </filter>
    <filter
       id="filter7_f_1_2"
       x="606.742"
       y="0.64550799"
       width="726.992"
       height="713.70203"
       filterUnits="userSpaceOnUse"
       color-interpolation-filters="sRGB">
      <feFlood
         flood-opacity="0"
         result="BackgroundImageFix"
         id="feFlood1299" />
      <feBlend
         mode="normal"
         in="SourceGraphic"
         in2="BackgroundImageFix"
         result="shape"
         id="feBlend1301" />
      <feGaussianBlur
         stdDeviation="150"
         result="effect1_foregroundBlur_1_2"
         id="feGaussianBlur1303" />
    </filter>
    <filter
       id="filter8_f_1_2"
       x="904.95697"
       y="299.599"
       width="134.992"
       height="121.702"
       filterUnits="userSpaceOnUse"
       color-interpolation-filters="sRGB">
      <feFlood
         flood-opacity="0"
         result="BackgroundImageFix"
         id="feFlood1306" />
      <feBlend
         mode="normal"
         in="SourceGraphic"
         in2="BackgroundImageFix"
         result="shape"
         id="feBlend1308" />
      <feGaussianBlur
         stdDeviation="2"
         result="effect1_foregroundBlur_1_2"
         id="feGaussianBlur1310" />
    </filter>
    <filter
       id="filter9_f_1_2"
       x="1036.91"
       y="100.827"
       width="519.70599"
       height="519.67401"
       filterUnits="userSpaceOnUse"
       color-interpolation-filters="sRGB">
      <feFlood
         flood-opacity="0"
         result="BackgroundImageFix"
         id="feFlood1313" />
      <feBlend
         mode="normal"
         in="SourceGraphic"
         in2="BackgroundImageFix"
         result="shape"
         id="feBlend1315" />
      <feGaussianBlur
         stdDeviation="100"
         result="effect1_foregroundBlur_1_2"
         id="feGaussianBlur1317" />
    </filter>
    <filter
       id="filter10_f_1_2"
       x="936.91101"
       y="0.82714802"
       width="719.70599"
       height="719.67401"
       filterUnits="userSpaceOnUse"
       color-interpolation-filters="sRGB">
      <feFlood
         flood-opacity="0"
         result="BackgroundImageFix"
         id="feFlood1320" />
      <feBlend
         mode="normal"
         in="SourceGraphic"
         in2="BackgroundImageFix"
         result="shape"
         id="feBlend1322" />
      <feGaussianBlur
         stdDeviation="150"
         result="effect1_foregroundBlur_1_2"
         id="feGaussianBlur1324" />
    </filter>
    <filter
       id="filter11_f_1_2"
       x="1232.91"
       y="296.827"
       width="127.706"
       height="127.674"
       filterUnits="userSpaceOnUse"
       color-interpolation-filters="sRGB">
      <feFlood
         flood-opacity="0"
         result="BackgroundImageFix"
         id="feFlood1327" />
      <feBlend
         mode="normal"
         in="SourceGraphic"
         in2="BackgroundImageFix"
         result="shape"
         id="feBlend1329" />
      <feGaussianBlur
         stdDeviation="2"
         result="effect1_foregroundBlur_1_2"
         id="feGaussianBlur1331" />
    </filter>
  </defs>
</svg>
