<svg width="713" height="463" viewBox="0 0 713 463" fill="none" xmlns="http://www.w3.org/2000/svg">
<path d="M645.865 458.527C701.69 464.066 696.086 304.675 686.306 224.288L645.865 232.942C669.655 295.829 702.96 426.103 645.865 444.104C588.771 462.104 560.755 367.37 553.883 317.753L535.644 310.252C518.199 391.025 576.085 451.604 645.865 458.527Z" fill="#2B2B26"/>
<path fill-rule="evenodd" clip-rule="evenodd" d="M688.315 220.355L688.722 223.701C693.632 264.064 697.516 324.383 693.119 374.06C690.924 398.861 686.635 421.397 679.158 437.472C671.585 453.755 660.679 463.469 645.694 461.983C610.406 458.481 577.936 441.407 556.428 414.685C534.833 387.855 524.247 351.165 533.301 309.241L534.007 305.972L556.002 315.016L556.289 317.087C559.678 341.559 568.286 377.095 582.985 404.177C597.631 431.159 618.03 449.331 645.333 440.723C658.814 436.473 666.794 425.738 671.029 411.052C675.33 396.136 675.826 376.902 673.77 355.828C669.663 313.719 655.532 265.84 643.705 234.575L642.07 230.251L688.315 220.355ZM649.64 235.637C661.254 267.262 674.594 313.56 678.625 354.882C680.732 376.488 680.336 397.128 675.567 413.667C670.732 430.435 661.465 442.735 646.399 447.485C616.607 456.877 594.452 436.683 579.098 408.394C564.213 380.97 555.447 345.549 551.775 320.493L537.319 314.548C530.151 352.028 539.81 384.816 559.663 409.482C580.182 434.974 611.546 451.65 646.038 455.072C658.965 456.355 668.293 448.223 675.064 433.666C681.932 418.9 686.097 397.603 688.257 373.2C692.451 325.81 688.965 268.169 684.292 228.222L649.64 235.637Z" fill="#0F0E0D"/>
<g opacity="0.65">
<path d="M690.137 363.992C683.603 360.298 679.519 373.614 678.294 380.734C678.294 369.188 676.388 349.753 675.435 341.478L690.137 307.995C693.73 318.617 691.634 349.753 690.137 363.992Z" fill="#0F0E0D"/>
<path d="M682.786 414.794L675.435 405.557C675.435 416.179 667.813 427.687 664.001 432.113C672.495 432.575 667.54 445.006 664.001 451.163C671.842 447.007 679.791 425.185 682.786 414.794Z" fill="#0F0E0D"/>
</g>
<path d="M690.571 436.271C712.43 439.76 702.757 280.927 695.187 201.075L679.949 211.186C692.114 273.065 711.134 401.835 689.892 421.879C668.65 441.923 653.35 348.421 648.355 299.165L640.945 292.347C637.999 373.576 663.248 431.909 690.571 436.271Z" fill="#2B2B26"/>
<path fill-rule="evenodd" clip-rule="evenodd" d="M698.494 192.503L699.234 200.308C703.03 240.348 707.361 300.261 707.997 349.822C708.314 374.537 707.72 397.034 705.594 413.274C704.539 421.324 703.043 428.39 700.833 433.467C698.566 438.677 695.022 442.791 690.112 442.007C674.548 439.523 660.463 421.946 650.788 395.811C641.041 369.481 635.362 333.535 636.866 292.051L637.229 282.04L652.134 295.755L652.397 298.346C654.875 322.79 659.898 358.023 666.858 384.499C670.372 397.864 674.201 408.287 678.107 414.119C680.031 416.989 681.695 418.327 683.056 418.733C684.278 419.098 685.733 418.862 687.624 417.078C689.317 415.481 690.924 412.488 692.243 407.565C693.553 402.671 694.455 396.32 694.943 388.685C695.919 373.416 695.19 353.969 693.393 332.912C689.805 290.861 682.062 243.499 676.013 212.732L675.089 208.032L698.494 192.503ZM695.187 201.075L679.948 211.186C692.113 273.065 711.133 401.835 689.891 421.879C668.65 441.924 653.349 348.422 648.354 299.165L640.944 292.347C640.862 294.605 640.802 296.846 640.763 299.069C639.404 376.779 664.007 432.031 690.571 436.271C711.894 439.675 703.211 288.611 695.746 207.081C695.559 205.034 695.372 203.031 695.187 201.075Z" fill="#0F0E0D"/>
<g opacity="0.65">
<path d="M661.143 366.301C655.262 358.912 651.614 377.077 650.525 387.084L639.091 342.055L655.425 339.169L661.143 366.301Z" fill="#0F0E0D"/>
<path d="M699.529 261.812L690.136 291.253L694.22 314.345C694.22 300.49 701.026 299.72 704.429 301.067L699.529 261.812Z" fill="#0F0E0D"/>
</g>
<path d="M84.6021 387.227C121.223 373.387 118.713 255.696 108.294 172.536L99.0746 162.571C109.749 227.093 121.985 359.481 85.5274 372.863C49.07 386.244 37.8246 289.67 36.7591 239.71L38.8833 214.641C22.9146 293.692 41.16 403.645 84.6021 387.227Z" fill="#2B2B26"/>
<path fill-rule="evenodd" clip-rule="evenodd" d="M112.037 169.316L112.314 171.53C117.559 213.388 120.846 264.152 118.155 306.395C116.81 327.49 113.953 346.851 108.913 361.995C103.86 377.18 96.3793 388.752 85.6561 392.804C73.4127 397.431 62.7484 393.081 54.2172 382.674C45.8655 372.486 39.6968 356.707 35.5737 338.495C27.3218 302.045 26.76 253.629 34.956 213.056L42.9373 215.328L40.8496 239.966C41.4016 264.613 44.4549 300.301 51.7014 328.04C55.3563 342.03 59.9284 353.407 65.4207 360.454C70.7088 367.24 76.8573 370.081 84.5005 367.275C91.7343 364.62 97.075 355.955 100.673 341.515C104.266 327.096 105.81 308.017 105.891 286.863C106.053 244.639 100.393 195.891 95.0976 163.886L92.5026 148.201L112.037 169.316ZM33.5216 259.655C33.8256 252.991 34.3296 246.342 35.0377 239.784C35.0506 239.664 35.0636 239.545 35.0766 239.426C36.0012 230.957 37.2667 222.641 38.8826 214.641L36.7584 239.711C36.8871 245.747 37.1645 252.464 37.617 259.585C40.9095 311.403 53.4744 384.628 85.5267 372.863C120.401 360.063 110.72 238.368 100.47 171.347C100.004 168.304 99.5376 165.373 99.0739 162.571L108.293 172.536C118.712 255.696 121.223 373.387 84.6014 387.227C49.0196 400.674 30.3414 329.344 33.5216 259.655Z" fill="#0F0E0D"/>
<g opacity="0.65">
<path d="M45.7363 340.323C42.4694 342.171 47.642 361.876 50.6367 371.497C45.4093 364.57 37.5692 333.203 34.3026 318.386L47.7786 325.891L52.2707 342.055C51.4538 340.708 49.0033 338.476 45.7363 340.323Z" fill="#0F0E0D"/>
<path d="M103.725 340.323L100.866 352.446C103.153 347.366 108.897 345.711 111.484 345.519V342.055L103.725 340.323Z" fill="#0F0E0D"/>
</g>
<path d="M16.6102 298.739C5.78849 257.215 2.11683 116.161 1.63372 44.678C1.24585 11.2129 643.207 44.678 666.396 44.678C667.963 44.678 669.371 45.6666 670.635 47.5195C678.496 53.7284 689.75 67.4646 692.967 89.753C697.798 123.218 698.765 333.57 677.991 347.912C434.976 356.335 24.3165 369.221 16.6102 298.739Z" fill="#181816"/>
<g filter="url(#filter0_f_9_24)">
<path d="M143.329 108.128C130.468 99.6014 110.058 96.8662 114.664 139.628M114.664 139.628C115.55 147.851 117.361 157.757 120.329 169.628M114.664 139.628H143.329M153.829 108.128C152.662 126.295 151.729 164.029 157.329 169.628M165.829 139.628C175.953 130.091 192.976 121.845 189.806 154.128M189.806 154.128C178.814 148.961 158.629 143.228 165.829 161.628C173.029 180.028 184.154 169.295 188.817 161.628M189.806 154.128C189.582 156.419 189.255 158.914 188.817 161.628M188.817 161.628C188.416 164.109 187.923 166.772 187.329 169.628M207.829 108.128C205.82 114.294 203.641 122.117 201.986 130.105M201.986 130.105C197.734 150.619 196.934 172.22 211.329 169.628M201.986 130.105L194.329 127.628M201.986 130.105L211.329 133.128M239.986 164.825C221.548 177.139 216.484 163.28 216.329 154.128C216.329 109.128 271.829 139.628 244.329 161.628C242.805 162.847 241.358 163.908 239.986 164.825ZM239.986 164.825L234.829 154.128M239.986 164.825L248.329 182.128M258.829 133.128C259.329 153.961 264.129 188.828 279.329 161.628M279.329 133.128C277.495 144.128 276.229 166.829 285.829 169.628M298.329 112.628L295.173 151.128M295.173 151.128C304.391 146.461 321.329 142.028 315.329 161.628C307.829 186.128 293.697 169.128 294.599 158.128M295.173 151.128L294.599 158.128M294.599 158.128L293.329 173.628M324.329 161.628C324.904 161.708 325.501 161.779 326.115 161.84M326.115 161.84C338.317 163.052 357.349 160.193 347.829 139.628C339.883 122.466 325.069 145.707 326.115 161.84ZM326.115 161.84C326.714 171.088 332.525 178 347.829 173.628M405.329 173.628C402.903 171.802 400.203 169.664 397.44 167.338M397.44 167.338C390.873 161.812 383.95 155.229 379.505 149.278M397.44 167.338C394.331 173.328 389.021 176.987 380.329 173.628C369.758 169.544 374.309 158.766 379.505 149.278M397.44 167.338C400.624 161.201 401.497 152.617 401.329 146.628M379.505 149.278C373.869 141.733 372.217 135.203 380.329 133.128C391.499 130.27 385.124 139.02 379.505 149.278ZM498.329 151.128C492.829 146.295 481.129 139.528 478.329 151.128C474.829 165.628 480.829 192.128 498.329 166.628M515.829 112.628C513.795 120.171 511.566 130.79 510.56 141.067M510.56 141.067C509.011 156.905 510.368 171.93 519.829 173.628M510.56 141.067L502.329 136.128M510.56 141.067L519.829 146.628M529.329 143.128C525.829 156.128 524.229 189.028 545.829 166.628M545.829 143.128C544.495 152.962 544.029 172.029 552.829 169.628M577.829 146.628C573.162 141.628 563.129 134.628 560.329 146.628C556.829 161.628 584.682 156.553 582.329 169.628C578.729 189.628 566.162 171.795 560.329 166.628M137.329 200.628L138.422 218.128M138.422 218.128C160.497 204.128 142.891 194.961 131.329 192.128M138.422 218.128C145.391 213.961 160.629 209.728 165.829 226.128C172.329 246.628 150.954 254.628 139.891 241.628M138.422 218.128L139.891 241.628M139.891 241.628L140.329 248.628M172.329 214.128L173.017 223.628M173.017 223.628L174.829 248.628M173.017 223.628C174.28 219.961 179.207 213.728 188.817 218.128M195.329 216.628C194.829 226.628 195.829 246.128 203.829 244.128M194.329 196.628L195.329 208.628M227.329 229.128C226.162 222.795 221.329 211.728 211.329 218.128C198.829 226.128 214.829 259.628 227.329 238.128M227.329 190.128C226.662 208.795 227.229 246.628 234.829 248.628M265.316 228.384C261.758 249.6 238.237 248.13 240.829 229.128C243.229 211.528 258.162 219.795 265.329 226.128C265.329 226.866 265.324 227.619 265.316 228.384ZM265.316 228.384C265.877 225.036 265.942 221.125 265.329 216.628M265.316 228.384C265.052 251.956 260.601 286.722 244.329 252.628M274.329 232.628C282.829 235.128 299.529 236.828 298.329 223.628C296.829 207.128 260.329 226.628 279.329 244.128C294.529 258.128 301.995 242.295 303.829 232.628M324.329 196.628V241.628M324.329 241.628V252.628M324.329 241.628C333.662 227.295 349.829 208.628 339.829 248.628M352.329 218.128C349.995 232.295 348.829 257.828 362.829 246.628M354.829 210.628L358.329 196.628M389.329 229.128C383.162 221.295 370.029 210.328 366.829 229.128C362.829 252.628 390.329 245.628 392.329 234.628M389.329 216.628C394.829 238.295 398.829 275.828 370.829 252.628M402.829 197.628V234.628M402.829 234.628V250.628M402.829 234.628C410.995 224.961 426.629 209.728 423.829 226.128C421.029 242.528 420.995 250.628 421.329 252.628M434.329 228.628C440.662 231.628 453.929 235.828 456.329 228.628C459.329 219.628 424.829 206.128 432.829 239.128C439.229 265.528 453.162 251.461 458.329 241.628M468.329 252.628L466.579 234.628M466.579 234.628L464.829 216.628M466.579 234.628C468.662 226.128 475.329 212.028 485.329 223.628M505.829 246.628L533.329 208.628M567.829 218.128C566.162 215.295 560.829 211.028 552.829 216.628C542.829 223.628 570.829 227.628 567.829 238.128C564.829 248.628 548.829 247.128 547.829 238.128M446.329 173.628C460.329 168.461 482.529 153.128 459.329 133.128C430.329 108.128 419.329 195.628 446.329 173.628ZM509.829 223.628C512.829 222.628 518.229 218.228 515.829 208.628C512.829 196.628 492.118 230.628 509.829 223.628ZM523.829 238.128C525.495 232.128 530.229 221.928 535.829 229.128C542.829 238.128 538.829 250.128 530.329 246.628C523.529 243.828 523.162 239.795 523.829 238.128Z" stroke="#6D62E6" stroke-width="5" stroke-linecap="round"/>
</g>
<g filter="url(#filter1_f_9_24)">
<path d="M143.329 108.128C130.468 99.6014 110.058 96.8662 114.664 139.628M114.664 139.628C115.55 147.851 117.361 157.757 120.329 169.628M114.664 139.628H143.329M153.829 108.128C152.662 126.295 151.729 164.029 157.329 169.628M165.829 139.628C175.953 130.091 192.976 121.845 189.806 154.128M189.806 154.128C178.814 148.961 158.629 143.228 165.829 161.628C173.029 180.028 184.154 169.295 188.817 161.628M189.806 154.128C189.582 156.419 189.255 158.914 188.817 161.628M188.817 161.628C188.416 164.109 187.923 166.772 187.329 169.628M207.829 108.128C205.82 114.294 203.641 122.117 201.986 130.105M201.986 130.105C197.734 150.619 196.934 172.22 211.329 169.628M201.986 130.105L194.329 127.628M201.986 130.105L211.329 133.128M239.986 164.825C221.548 177.139 216.484 163.28 216.329 154.128C216.329 109.128 271.829 139.628 244.329 161.628C242.805 162.847 241.358 163.908 239.986 164.825ZM239.986 164.825L234.829 154.128M239.986 164.825L248.329 182.128M258.829 133.128C259.329 153.961 264.129 188.828 279.329 161.628M279.329 133.128C277.495 144.128 276.229 166.829 285.829 169.628M298.329 112.628L295.173 151.128M295.173 151.128C304.391 146.461 321.329 142.028 315.329 161.628C307.829 186.128 293.697 169.128 294.599 158.128M295.173 151.128L294.599 158.128M294.599 158.128L293.329 173.628M324.329 161.628C324.904 161.708 325.501 161.779 326.115 161.84M326.115 161.84C338.317 163.052 357.349 160.193 347.829 139.628C339.883 122.466 325.069 145.707 326.115 161.84ZM326.115 161.84C326.714 171.088 332.525 178 347.829 173.628M405.329 173.628C402.903 171.802 400.203 169.664 397.44 167.338M397.44 167.338C390.873 161.812 383.95 155.229 379.505 149.278M397.44 167.338C394.331 173.328 389.021 176.987 380.329 173.628C369.758 169.544 374.309 158.766 379.505 149.278M397.44 167.338C400.624 161.201 401.497 152.617 401.329 146.628M379.505 149.278C373.869 141.733 372.217 135.203 380.329 133.128C391.499 130.27 385.124 139.02 379.505 149.278ZM498.329 151.128C492.829 146.295 481.129 139.528 478.329 151.128C474.829 165.628 480.829 192.128 498.329 166.628M515.829 112.628C513.795 120.171 511.566 130.79 510.56 141.067M510.56 141.067C509.011 156.905 510.368 171.93 519.829 173.628M510.56 141.067L502.329 136.128M510.56 141.067L519.829 146.628M529.329 143.128C525.829 156.128 524.229 189.028 545.829 166.628M545.829 143.128C544.495 152.962 544.029 172.029 552.829 169.628M577.829 146.628C573.162 141.628 563.129 134.628 560.329 146.628C556.829 161.628 584.682 156.553 582.329 169.628C578.729 189.628 566.162 171.795 560.329 166.628M137.329 200.628L138.422 218.128M138.422 218.128C160.497 204.128 142.891 194.961 131.329 192.128M138.422 218.128C145.391 213.961 160.629 209.728 165.829 226.128C172.329 246.628 150.954 254.628 139.891 241.628M138.422 218.128L139.891 241.628M139.891 241.628L140.329 248.628M172.329 214.128L173.017 223.628M173.017 223.628L174.829 248.628M173.017 223.628C174.28 219.961 179.207 213.728 188.817 218.128M195.329 216.628C194.829 226.628 195.829 246.128 203.829 244.128M194.329 196.628L195.329 208.628M227.329 229.128C226.162 222.795 221.329 211.728 211.329 218.128C198.829 226.128 214.829 259.628 227.329 238.128M227.329 190.128C226.662 208.795 227.229 246.628 234.829 248.628M265.316 228.384C261.758 249.6 238.237 248.13 240.829 229.128C243.229 211.528 258.162 219.795 265.329 226.128C265.329 226.866 265.324 227.619 265.316 228.384ZM265.316 228.384C265.877 225.036 265.942 221.125 265.329 216.628M265.316 228.384C265.052 251.956 260.601 286.722 244.329 252.628M274.329 232.628C282.829 235.128 299.529 236.828 298.329 223.628C296.829 207.128 260.329 226.628 279.329 244.128C294.529 258.128 301.995 242.295 303.829 232.628M324.329 196.628V241.628M324.329 241.628V252.628M324.329 241.628C333.662 227.295 349.829 208.628 339.829 248.628M352.329 218.128C349.995 232.295 348.829 257.828 362.829 246.628M354.829 210.628L358.329 196.628M389.329 229.128C383.162 221.295 370.029 210.328 366.829 229.128C362.829 252.628 390.329 245.628 392.329 234.628M389.329 216.628C394.829 238.295 398.829 275.828 370.829 252.628M402.829 197.628V234.628M402.829 234.628V250.628M402.829 234.628C410.995 224.961 426.629 209.728 423.829 226.128C421.029 242.528 420.995 250.628 421.329 252.628M434.329 228.628C440.662 231.628 453.929 235.828 456.329 228.628C459.329 219.628 424.829 206.128 432.829 239.128C439.229 265.528 453.162 251.461 458.329 241.628M468.329 252.628L466.579 234.628M466.579 234.628L464.829 216.628M466.579 234.628C468.662 226.128 475.329 212.028 485.329 223.628M505.829 246.628L533.329 208.628M567.829 218.128C566.162 215.295 560.829 211.028 552.829 216.628C542.829 223.628 570.829 227.628 567.829 238.128C564.829 248.628 548.829 247.128 547.829 238.128M446.329 173.628C460.329 168.461 482.529 153.128 459.329 133.128C430.329 108.128 419.329 195.628 446.329 173.628ZM509.829 223.628C512.829 222.628 518.229 218.228 515.829 208.628C512.829 196.628 492.118 230.628 509.829 223.628ZM523.829 238.128C525.495 232.128 530.229 221.928 535.829 229.128C542.829 238.128 538.829 250.128 530.329 246.628C523.529 243.828 523.162 239.795 523.829 238.128Z" stroke="#6D62E6" stroke-width="5" stroke-linecap="round"/>
</g>
<g opacity="0.8" filter="url(#filter2_f_9_24)">
<path d="M145.329 110.128C132.468 101.601 112.058 98.8662 116.664 141.628M116.664 141.628C117.55 149.851 119.361 159.757 122.329 171.628M116.664 141.628H145.329M155.829 110.128C154.662 128.295 153.729 166.029 159.329 171.628M167.829 141.628C177.953 132.091 194.976 123.845 191.806 156.128M191.806 156.128C180.814 150.961 160.629 145.228 167.829 163.628C175.029 182.028 186.154 171.295 190.817 163.628M191.806 156.128C191.582 158.419 191.255 160.914 190.817 163.628M190.817 163.628C190.416 166.109 189.923 168.772 189.329 171.628M209.829 110.128C207.82 116.294 205.641 124.117 203.986 132.105M203.986 132.105C199.734 152.619 198.934 174.22 213.329 171.628M203.986 132.105L196.329 129.628M203.986 132.105L213.329 135.128M241.986 166.825C223.548 179.139 218.484 165.28 218.329 156.128C218.329 111.128 273.829 141.628 246.329 163.628C244.805 164.847 243.358 165.908 241.986 166.825ZM241.986 166.825L236.829 156.128M241.986 166.825L250.329 184.128M260.829 135.128C261.329 155.961 266.129 190.828 281.329 163.628M281.329 135.128C279.495 146.128 278.229 168.829 287.829 171.628M300.329 114.628L297.173 153.128M297.173 153.128C306.391 148.461 323.329 144.028 317.329 163.628C309.829 188.128 295.697 171.128 296.599 160.128M297.173 153.128L296.599 160.128M296.599 160.128L295.329 175.628M326.329 163.628C326.904 163.708 327.501 163.779 328.115 163.84M328.115 163.84C340.317 165.052 359.349 162.193 349.829 141.628C341.883 124.466 327.069 147.707 328.115 163.84ZM328.115 163.84C328.714 173.088 334.525 180 349.829 175.628M407.329 175.628C404.903 173.802 402.203 171.664 399.44 169.338M399.44 169.338C392.873 163.812 385.95 157.229 381.505 151.278M399.44 169.338C396.331 175.328 391.021 178.987 382.329 175.628C371.758 171.544 376.309 160.766 381.505 151.278M399.44 169.338C402.624 163.201 403.497 154.617 403.329 148.628M381.505 151.278C375.869 143.733 374.217 137.203 382.329 135.128C393.499 132.27 387.124 141.02 381.505 151.278ZM500.329 153.128C494.829 148.295 483.129 141.528 480.329 153.128C476.829 167.628 482.829 194.128 500.329 168.628M517.829 114.628C515.795 122.171 513.566 132.79 512.56 143.067M512.56 143.067C511.011 158.905 512.368 173.93 521.829 175.628M512.56 143.067L504.329 138.128M512.56 143.067L521.829 148.628M531.329 145.128C527.829 158.128 526.229 191.028 547.829 168.628M547.829 145.128C546.495 154.962 546.029 174.029 554.829 171.628M579.829 148.628C575.162 143.628 565.129 136.628 562.329 148.628C558.829 163.628 586.682 158.553 584.329 171.628C580.729 191.628 568.162 173.795 562.329 168.628M139.329 202.628L140.422 220.128M140.422 220.128C162.497 206.128 144.891 196.961 133.329 194.128M140.422 220.128C147.391 215.961 162.629 211.728 167.829 228.128C174.329 248.628 152.954 256.628 141.891 243.628M140.422 220.128L141.891 243.628M141.891 243.628L142.329 250.628M174.329 216.128L175.017 225.628M175.017 225.628L176.829 250.628M175.017 225.628C176.28 221.961 181.207 215.728 190.817 220.128M197.329 218.628C196.829 228.628 197.829 248.128 205.829 246.128M196.329 198.628L197.329 210.628M229.329 231.128C228.162 224.795 223.329 213.728 213.329 220.128C200.829 228.128 216.829 261.628 229.329 240.128M229.329 192.128C228.662 210.795 229.229 248.628 236.829 250.628M267.316 230.384C263.758 251.6 240.237 250.13 242.829 231.128C245.229 213.528 260.162 221.795 267.329 228.128C267.329 228.866 267.324 229.619 267.316 230.384ZM267.316 230.384C267.877 227.036 267.942 223.125 267.329 218.628M267.316 230.384C267.052 253.956 262.601 288.722 246.329 254.628M276.329 234.628C284.829 237.128 301.529 238.828 300.329 225.628C298.829 209.128 262.329 228.628 281.329 246.128C296.529 260.128 303.995 244.295 305.829 234.628M326.329 198.628V243.628M326.329 243.628V254.628M326.329 243.628C335.662 229.295 351.829 210.628 341.829 250.628M354.329 220.128C351.995 234.295 350.829 259.828 364.829 248.628M356.829 212.628L360.329 198.628M391.329 231.128C385.162 223.295 372.029 212.328 368.829 231.128C364.829 254.628 392.329 247.628 394.329 236.628M391.329 218.628C396.829 240.295 400.829 277.828 372.829 254.628M404.829 199.628V236.628M404.829 236.628V252.628M404.829 236.628C412.995 226.961 428.629 211.728 425.829 228.128C423.029 244.528 422.995 252.628 423.329 254.628M436.329 230.628C442.662 233.628 455.929 237.828 458.329 230.628C461.329 221.628 426.829 208.128 434.829 241.128C441.229 267.528 455.162 253.461 460.329 243.628M470.329 254.628L468.579 236.628M468.579 236.628L466.829 218.628M468.579 236.628C470.662 228.128 477.329 214.028 487.329 225.628M507.829 248.628L535.329 210.628M569.829 220.128C568.162 217.295 562.829 213.028 554.829 218.628C544.829 225.628 572.829 229.628 569.829 240.128C566.829 250.628 550.829 249.128 549.829 240.128M448.329 175.628C462.329 170.461 484.529 155.128 461.329 135.128C432.329 110.128 421.329 197.628 448.329 175.628ZM511.829 225.628C514.829 224.628 520.229 220.228 517.829 210.628C514.829 198.628 494.118 232.628 511.829 225.628ZM525.829 240.128C527.495 234.128 532.229 223.928 537.829 231.128C544.829 240.128 540.829 252.128 532.329 248.628C525.529 245.828 525.162 241.795 525.829 240.128Z" stroke="black" stroke-width="5" stroke-linecap="round"/>
</g>
<path d="M143.329 108.128C130.468 99.6014 110.058 96.8662 114.664 139.628M114.664 139.628C115.55 147.851 117.361 157.757 120.329 169.628M114.664 139.628H143.329M153.829 108.128C152.662 126.295 151.729 164.029 157.329 169.628M165.829 139.628C175.953 130.091 192.976 121.845 189.806 154.128M189.806 154.128C178.814 148.961 158.629 143.228 165.829 161.628C173.029 180.028 184.154 169.295 188.817 161.628M189.806 154.128C189.582 156.419 189.255 158.914 188.817 161.628M188.817 161.628C188.416 164.109 187.923 166.772 187.329 169.628M207.829 108.128C205.82 114.294 203.641 122.117 201.986 130.105M201.986 130.105C197.734 150.619 196.934 172.22 211.329 169.628M201.986 130.105L194.329 127.628M201.986 130.105L211.329 133.128M239.986 164.825C221.548 177.139 216.484 163.28 216.329 154.128C216.329 109.128 271.829 139.628 244.329 161.628C242.805 162.847 241.358 163.908 239.986 164.825ZM239.986 164.825L234.829 154.128M239.986 164.825L248.329 182.128M258.829 133.128C259.329 153.961 264.129 188.828 279.329 161.628M279.329 133.128C277.495 144.128 276.229 166.829 285.829 169.628M298.329 112.628L295.173 151.128M295.173 151.128C304.391 146.461 321.329 142.028 315.329 161.628C307.829 186.128 293.697 169.128 294.599 158.128M295.173 151.128L294.599 158.128M294.599 158.128L293.329 173.628M324.329 161.628C324.904 161.708 325.501 161.779 326.115 161.84M326.115 161.84C338.317 163.052 357.349 160.193 347.829 139.628C339.883 122.466 325.069 145.707 326.115 161.84ZM326.115 161.84C326.714 171.088 332.525 178 347.829 173.628M405.329 173.628C402.903 171.802 400.203 169.664 397.44 167.338M397.44 167.338C390.873 161.812 383.95 155.229 379.505 149.278M397.44 167.338C394.331 173.328 389.021 176.987 380.329 173.628C369.758 169.544 374.309 158.766 379.505 149.278M397.44 167.338C400.624 161.201 401.497 152.617 401.329 146.628M379.505 149.278C373.869 141.733 372.217 135.203 380.329 133.128C391.499 130.27 385.124 139.02 379.505 149.278ZM498.329 151.128C492.829 146.295 481.129 139.528 478.329 151.128C474.829 165.628 480.829 192.128 498.329 166.628M515.829 112.628C513.795 120.171 511.566 130.79 510.56 141.067M510.56 141.067C509.011 156.905 510.368 171.93 519.829 173.628M510.56 141.067L502.329 136.128M510.56 141.067L519.829 146.628M529.329 143.128C525.829 156.128 524.229 189.028 545.829 166.628M545.829 143.128C544.495 152.962 544.029 172.029 552.829 169.628M577.829 146.628C573.162 141.628 563.129 134.628 560.329 146.628C556.829 161.628 584.682 156.553 582.329 169.628C578.729 189.628 566.162 171.795 560.329 166.628M137.329 200.628L138.422 218.128M138.422 218.128C160.497 204.128 142.891 194.961 131.329 192.128M138.422 218.128C145.391 213.961 160.629 209.728 165.829 226.128C172.329 246.628 150.954 254.628 139.891 241.628M138.422 218.128L139.891 241.628M139.891 241.628L140.329 248.628M172.329 214.128L173.017 223.628M173.017 223.628L174.829 248.628M173.017 223.628C174.28 219.961 179.207 213.728 188.817 218.128M195.329 216.628C194.829 226.628 195.829 246.128 203.829 244.128M194.329 196.628L195.329 208.628M227.329 229.128C226.162 222.795 221.329 211.728 211.329 218.128C198.829 226.128 214.829 259.628 227.329 238.128M227.329 190.128C226.662 208.795 227.229 246.628 234.829 248.628M265.316 228.384C261.758 249.6 238.237 248.13 240.829 229.128C243.229 211.528 258.162 219.795 265.329 226.128C265.329 226.866 265.324 227.619 265.316 228.384ZM265.316 228.384C265.877 225.036 265.942 221.125 265.329 216.628M265.316 228.384C265.052 251.956 260.601 286.722 244.329 252.628M274.329 232.628C282.829 235.128 299.529 236.828 298.329 223.628C296.829 207.128 260.329 226.628 279.329 244.128C294.529 258.128 301.995 242.295 303.829 232.628M324.329 196.628V241.628M324.329 241.628V252.628M324.329 241.628C333.662 227.295 349.829 208.628 339.829 248.628M352.329 218.128C349.995 232.295 348.829 257.828 362.829 246.628M354.829 210.628L358.329 196.628M389.329 229.128C383.162 221.295 370.029 210.328 366.829 229.128C362.829 252.628 390.329 245.628 392.329 234.628M389.329 216.628C394.829 238.295 398.829 275.828 370.829 252.628M402.829 197.628V234.628M402.829 234.628V250.628M402.829 234.628C410.995 224.961 426.629 209.728 423.829 226.128C421.029 242.528 420.995 250.628 421.329 252.628M434.329 228.628C440.662 231.628 453.929 235.828 456.329 228.628C459.329 219.628 424.829 206.128 432.829 239.128C439.229 265.528 453.162 251.461 458.329 241.628M468.329 252.628L466.579 234.628M466.579 234.628L464.829 216.628M466.579 234.628C468.662 226.128 475.329 212.028 485.329 223.628M505.829 246.628L533.329 208.628M567.829 218.128C566.162 215.295 560.829 211.028 552.829 216.628C542.829 223.628 570.829 227.628 567.829 238.128C564.829 248.628 548.829 247.128 547.829 238.128M446.329 173.628C460.329 168.461 482.529 153.128 459.329 133.128C430.329 108.128 419.329 195.628 446.329 173.628ZM509.829 223.628C512.829 222.628 518.229 218.228 515.829 208.628C512.829 196.628 492.118 230.628 509.829 223.628ZM523.829 238.128C525.495 232.128 530.229 221.928 535.829 229.128C542.829 238.128 538.829 250.128 530.329 246.628C523.529 243.828 523.162 239.795 523.829 238.128Z" stroke="#FDF8FD" stroke-width="5" stroke-linecap="round"/>
<path fill-rule="evenodd" clip-rule="evenodd" d="M619.9 40.5107C646.14 41.6424 662.981 42.3688 666.396 42.3688C668.427 42.3688 670.177 43.6245 671.636 45.6659C679.739 52.15 691.251 66.3171 694.568 89.2913C695.809 97.8886 696.775 117.512 697.219 142.133C697.666 166.832 697.59 196.764 696.713 226.101C695.836 255.423 694.157 284.223 691.383 306.628C689.998 317.821 688.329 327.511 686.322 334.901C685.318 338.597 684.212 341.787 682.983 344.322C681.76 346.844 680.352 348.852 678.708 349.987L678.387 350.208L678.031 350.22C556.53 354.432 393.072 359.761 259.021 355.223C192.004 352.955 132.278 348.219 88.8018 339.628C67.0759 335.335 49.3196 330.064 36.7172 323.604C30.4196 320.377 25.3216 316.809 21.6453 312.833C18.0279 308.92 15.639 304.445 15.0229 299.327C12.274 288.674 10.0156 271.938 8.15303 251.877C6.27321 231.63 4.78183 207.818 3.61509 183.097C1.28164 133.656 0.242174 80.4796 0.000322426 44.7065C-0.0246769 42.2359 1.40875 40.6594 2.66519 39.7013C4.05572 38.6409 6.01076 37.7297 8.39863 36.9179C13.2028 35.2847 20.1853 33.9167 28.9853 32.7704C46.6091 30.4747 71.7935 29.0357 102.048 28.2511C162.571 26.6816 243.529 27.7281 325.203 29.8198C440.466 32.7716 557.101 37.8021 619.9 40.5107ZM22.9664 308.421C23.1801 308.669 23.4014 308.917 23.6304 309.165C26.9349 312.739 31.6872 316.114 37.8307 319.263C50.1105 325.556 67.5999 330.776 89.2541 335.054C132.538 343.607 192.111 348.339 259.099 350.606C392.916 355.136 556.091 349.827 677.565 345.617C678.433 344.904 679.351 343.645 680.288 341.711C681.325 339.573 682.323 336.74 683.272 333.246C685.17 326.257 686.796 316.899 688.165 305.832C690.903 283.717 692.575 255.148 693.449 225.906C694.323 196.68 694.398 166.852 693.954 142.25C693.508 117.57 692.541 98.3499 691.367 90.2148C689.005 73.8538 682.123 62.2515 675.614 55.0075C676.336 57.5825 676.973 60.4749 677.54 63.6104C678.962 71.4716 680.009 81.235 680.766 92.2205C682.281 114.199 682.655 141.333 682.485 168.474C682.314 195.628 681.598 222.849 680.925 245.021C680.738 251.182 680.555 256.944 680.388 262.203C679.952 275.919 679.624 286.211 679.624 291.227C679.624 315.949 671.672 330.007 667.302 334.125L666.894 334.51L666.404 334.513C648.787 334.631 630.273 334.776 611.088 334.926C500.775 335.789 368.259 336.825 256.337 333.949C190.648 332.262 132.016 329.226 89.1167 324.011C67.6751 321.404 50.1084 318.247 37.5383 314.422C31.5611 312.603 26.649 310.614 22.9664 308.421ZM666.089 46.9855C667.107 47.5516 668.304 48.3405 669.619 49.3632C671.421 52.1627 673.033 57.338 674.375 64.7547C675.739 72.2939 676.765 81.797 677.515 92.6685C679.013 114.404 679.388 141.345 679.218 168.433C679.048 195.507 678.334 222.667 677.662 244.823C677.477 250.898 677.296 256.605 677.129 261.835C676.69 275.628 676.357 286.1 676.357 291.227C676.357 313.731 669.388 326.187 665.874 329.898C648.406 330.016 630.063 330.159 611.063 330.308C500.746 331.17 368.276 332.206 256.396 329.332C190.723 327.645 132.182 324.611 89.3966 319.409C67.9957 316.808 50.5918 313.67 38.2257 309.907C32.0354 308.023 27.1788 306.003 23.7356 303.862C22.0147 302.791 20.7001 301.723 19.7614 300.678C18.8161 299.627 18.3403 298.698 18.1429 297.941C15.5056 287.821 13.2645 271.442 11.3922 251.276C9.52484 231.163 8.03904 207.458 6.87476 182.789C4.54858 133.503 3.5104 80.4688 3.26775 44.7598C3.31315 44.6593 3.50693 44.3068 4.2162 43.766C5.23363 42.9901 6.86416 42.1896 9.16251 41.4082C13.7308 39.8551 20.5233 38.5106 29.2851 37.3692C46.7848 35.0897 71.8712 33.6528 102.108 32.8687C162.569 31.3008 243.478 32.3459 325.144 34.4373C440.247 37.3851 556.91 42.4146 619.783 45.1251C645.375 46.2284 662.055 46.9475 666.089 46.9855Z" fill="#0F0E0D"/>
<path d="M690.136 284.238C684.256 303.173 681.969 242.096 681.56 209.19L676.252 310.216C675.572 323.147 668.618 329.844 665.226 331.576H639.091L370.387 334.462C393.663 348.317 592.129 336.194 614.589 336.194C632.557 336.194 625.887 345.046 620.306 349.472C632.693 348.895 660.816 347.625 674.21 347.163C687.604 346.701 690.408 305.021 690.136 284.238Z" fill="#0F0E0D"/>
<path d="M681.56 158.966C690.054 106.317 682.922 68.5234 678.294 56.2078L674.21 53.3214C681.397 71.7947 682.105 131.448 681.56 158.966Z" fill="#0F0E0D"/>
<path opacity="0.6" d="M681.561 161.363L678.294 63.8005V56.873C687.114 61.4914 692.314 85.3528 693.812 96.7062L696.262 171.754C695.581 203.313 693.975 268.97 692.995 279.13C692.015 289.291 686.869 293.37 684.419 294.14L681.561 273.357V161.363Z" fill="#0F0E0D"/>
<path opacity="0.6" d="M351.194 333.973H645.216V348.983L555.376 352.446L382.229 354.756L243.385 352.446C223.784 351.985 150.55 345.711 116.384 342.632L50.2288 327.623C27.6871 322.543 21.7794 308.572 21.6433 302.222C22.6234 328.085 241.752 334.166 351.194 333.973Z" fill="#0F0E0D"/>
<path d="M118.426 22.1478C87.7168 22.1478 32.1248 28.3056 8.16736 31.3845C33.8943 6.56119 268.704 14.0654 295.656 14.0654C301.78 14.0654 296.264 14.9596 322.2 16.2333C324.722 16.3572 363.841 13.9352 366.49 14.0657C392.806 15.3633 394.788 20.7 427.675 22.1482C434.471 22.4475 459.551 21.5579 466.353 21.8397C539.155 24.8556 626.816 22.9827 637.455 26.7661C661.804 35.4255 677.806 49.2805 691.362 49.2805C696.262 49.2805 704.838 93.1547 704.838 127.215C704.838 161.275 702.387 243.828 702.387 253.642C702.387 261.493 695.854 290.396 691.362 297.516L696.262 266.342C699.937 203.417 696.262 137.029 696.262 102.968C696.262 68.9082 683.603 61.4036 675.027 49.2805C666.451 37.1574 614.997 36.5801 592.129 35.4255C573.834 34.5018 467.442 29.2677 416.532 26.7661C329.959 23.6872 149.135 22.1478 118.426 22.1478Z" fill="#6D62E6"/>
<path d="M676.252 419.99C680.199 423.261 689.238 425.993 693.812 410.753C693.267 420.374 688.993 435.692 676.252 419.99Z" fill="#6D62E6"/>
<path d="M64.9299 368.033C66.9718 371.112 74.4857 376.346 88.2067 372.652C82.2174 377.27 69.1769 382.812 64.9299 368.033Z" fill="#6D62E6"/>
<defs>
<filter id="filter0_f_9_24" x="11.5" y="0.500458" width="673.47" height="368.881" filterUnits="userSpaceOnUse" color-interpolation-filters="sRGB">
<feFlood flood-opacity="0" result="BackgroundImageFix"/>
<feBlend mode="normal" in="SourceGraphic" in2="BackgroundImageFix" result="shape"/>
<feGaussianBlur stdDeviation="50" result="effect1_foregroundBlur_9_24"/>
</filter>
<filter id="filter1_f_9_24" x="11.5" y="0.500458" width="673.47" height="368.881" filterUnits="userSpaceOnUse" color-interpolation-filters="sRGB">
<feFlood flood-opacity="0" result="BackgroundImageFix"/>
<feBlend mode="normal" in="SourceGraphic" in2="BackgroundImageFix" result="shape"/>
<feGaussianBlur stdDeviation="50" result="effect1_foregroundBlur_9_24"/>
</filter>
<filter id="filter2_f_9_24" x="103.5" y="92.5005" width="493.47" height="188.881" filterUnits="userSpaceOnUse" color-interpolation-filters="sRGB">
<feFlood flood-opacity="0" result="BackgroundImageFix"/>
<feBlend mode="normal" in="SourceGraphic" in2="BackgroundImageFix" result="shape"/>
<feGaussianBlur stdDeviation="5" result="effect1_foregroundBlur_9_24"/>
</filter>
</defs>
</svg>
