<svg width="713" height="392" viewBox="0 0 713 392" fill="none" xmlns="http://www.w3.org/2000/svg" preserveAspectRatio="none">
	<path d="M19.6296 26.131C20.4484 11.5564 32.5057 0.15744 47.1033 0.15744H666.49C681.087 0.15744 693.145 11.5564 693.964 26.131L712.885 362.94C713.772 378.719 701.216 392 685.412 392H28.1815C12.3776 392 -0.178672 378.719 0.707789 362.94L19.6296 26.131Z" fill="#181816" />
	<path d="M19.6296 26.131C20.4484 11.5564 32.5057 0.15744 47.1033 0.15744H666.49C681.087 0.15744 693.145 11.5564 693.964 26.131L712.885 362.94C713.772 378.719 701.216 392 685.412 392H28.1815C12.3776 392 -0.178672 378.719 0.707789 362.94L19.6296 26.131Z" fill="url(#paint0_linear_2_9)" />
	<defs>
		<linearGradient id="paint0_linear_2_9" x1="356.796" y1="0.15744" x2="356.796" y2="392" gradientUnits="userSpaceOnUse">
			<stop stop-color="#0F0E0D" />
			<stop offset="1" stop-color="#0F0E0D" stop-opacity="0" />
		</linearGradient>
	</defs>
</svg>
