<svg width="988" height="436" viewBox="0 0 988 436" fill="none" xmlns="http://www.w3.org/2000/svg">
<path d="M897.413 432.29C972.646 437.57 965.094 285.62 951.914 208.985L897.413 217.236C929.473 277.187 974.357 401.379 897.413 418.539C820.469 435.7 782.712 345.388 773.452 298.087L748.871 290.937C725.361 367.938 803.372 425.69 897.413 432.29Z" fill="#2B2B26"/>
<path fill-rule="evenodd" clip-rule="evenodd" d="M954.621 205.236L955.169 208.426C961.787 246.905 967.021 304.408 961.096 351.766C958.138 375.409 952.357 396.893 942.281 412.217C932.074 427.74 917.377 437.001 897.183 435.584C849.625 432.246 805.867 415.968 776.881 390.494C747.778 364.917 733.511 329.939 745.714 289.973L746.665 286.856L776.307 295.478L776.693 297.453C781.26 320.782 792.862 354.658 812.672 380.476C832.408 406.199 859.901 423.523 896.695 415.317C914.864 411.264 925.618 401.031 931.325 387.03C937.121 372.811 937.79 354.475 935.019 334.385C929.484 294.242 910.441 248.598 894.502 218.793L892.298 214.67L954.621 205.236ZM902.5 219.805C918.152 249.953 936.13 294.09 941.562 333.483C944.402 354.08 943.868 373.756 937.441 389.523C930.925 405.508 918.436 417.234 898.133 421.762C857.983 430.717 828.125 411.465 807.432 384.496C787.373 358.353 775.559 324.585 770.611 300.699L751.129 295.032C741.468 330.762 754.485 362.019 781.241 385.534C808.893 409.835 851.162 425.733 897.645 428.996C915.067 430.218 927.638 422.466 936.763 408.589C946.019 394.512 951.632 374.209 954.543 350.946C960.195 305.768 955.497 250.818 949.199 212.736L902.5 219.805Z" fill="#0F0E0D"/>
<g opacity="0.65">
<path d="M957.076 342.168C948.27 338.646 942.767 351.34 941.116 358.128C941.116 347.121 938.548 328.593 937.263 320.705L957.076 288.785C961.919 298.911 959.094 328.593 957.076 342.168Z" fill="#0F0E0D"/>
<path d="M947.17 390.598L937.263 381.792C937.263 391.919 926.99 402.889 921.854 407.108C933.301 407.548 926.624 419.399 921.854 425.269C932.42 421.307 943.134 400.504 947.17 390.598Z" fill="#0F0E0D"/>
</g>
<path d="M957.662 411.072C987.121 414.398 974.084 262.981 963.883 186.856L943.346 196.495C959.741 255.486 985.374 378.244 956.747 397.352C928.12 416.461 907.5 327.324 900.768 280.367L890.782 273.867C886.812 351.305 920.839 406.914 957.662 411.072Z" fill="#2B2B26"/>
<path fill-rule="evenodd" clip-rule="evenodd" d="M968.34 178.685L969.337 186.126C974.452 224.296 980.289 281.412 981.146 328.659C981.574 352.22 980.772 373.667 977.907 389.149C976.486 396.823 974.47 403.559 971.492 408.399C968.436 413.366 963.659 417.288 957.043 416.541C936.068 414.172 917.086 397.416 904.047 372.501C890.911 347.4 883.257 313.133 885.285 273.586L885.774 264.042L905.861 277.116L906.215 279.586C909.556 302.889 916.325 336.477 925.704 361.717C930.439 374.459 935.6 384.395 940.864 389.954C943.456 392.691 945.7 393.966 947.534 394.353C949.18 394.701 951.142 394.476 953.69 392.775C955.971 391.253 958.138 388.399 959.914 383.707C961.681 379.041 962.895 372.987 963.553 365.707C964.869 351.152 963.886 332.612 961.465 312.539C956.629 272.451 946.194 227.3 938.043 197.969L936.797 193.489L968.34 178.685ZM963.882 186.857L943.345 196.495C959.74 255.486 985.373 378.244 956.746 397.352C928.119 416.461 907.499 327.324 900.767 280.367L890.781 273.867C890.671 276.02 890.59 278.157 890.537 280.275C888.705 354.357 921.861 407.03 957.661 411.072C986.398 414.317 974.696 270.305 964.636 192.582C964.383 190.631 964.132 188.721 963.882 186.857Z" fill="#0F0E0D"/>
<g opacity="0.65">
<path d="M918.002 344.369C910.077 337.325 905.16 354.642 903.693 364.181L888.283 321.255L910.297 318.503L918.002 344.369Z" fill="#0F0E0D"/>
<path d="M969.734 244.758L957.076 272.825L962.579 294.839C962.579 281.63 971.752 280.897 976.338 282.181L969.734 244.758Z" fill="#0F0E0D"/>
</g>
<path d="M141.016 364.318C190.369 351.124 186.986 238.927 172.944 159.65L160.52 150.15C174.906 211.66 191.395 337.867 142.263 350.624C93.1302 363.381 77.9751 271.316 76.5391 223.688L79.4019 199.789C57.8814 275.15 82.4701 379.969 141.016 364.318Z" fill="#2B2B26"/>
<path fill-rule="evenodd" clip-rule="evenodd" d="M177.989 156.58L178.363 158.69C185.43 198.595 189.861 246.989 186.233 287.259C184.422 307.369 180.57 325.827 173.779 340.264C166.969 354.74 156.888 365.771 142.436 369.635C125.936 374.046 111.564 369.899 100.067 359.977C88.8116 350.265 80.4982 335.223 74.9417 317.861C63.8209 283.113 63.0638 236.957 74.1092 198.278L84.8654 200.444L82.0519 223.932C82.7958 247.428 86.9106 281.45 96.6765 307.894C101.602 321.231 107.764 332.077 115.166 338.795C122.292 345.264 130.578 347.972 140.879 345.298C150.628 342.766 157.825 334.506 162.675 320.74C167.517 306.994 169.598 288.806 169.707 268.64C169.925 228.387 162.296 181.915 155.16 151.404L151.663 136.451L177.989 156.58ZM72.1761 242.701C72.5859 236.349 73.2651 230.01 74.2194 223.758C74.2368 223.644 74.2542 223.531 74.2718 223.417C75.5178 215.343 77.2234 207.415 79.4011 199.79L76.5383 223.688C76.7118 229.443 77.0856 235.846 77.6954 242.635C82.1326 292.033 99.0659 361.84 142.262 350.624C189.261 338.422 176.214 222.408 162.4 158.516C161.773 155.615 161.144 152.822 160.519 150.15L172.944 159.65C186.985 238.927 190.368 351.124 141.015 364.318C93.0624 377.137 67.8903 309.137 72.1761 242.701Z" fill="#0F0E0D"/>
<g opacity="0.65">
<path d="M88.6375 319.604C84.2348 321.365 91.2058 340.15 95.2416 349.322C88.1967 342.718 77.6309 312.816 73.2286 298.691L91.3899 305.845L97.4436 321.255C96.3427 319.971 93.0403 317.843 88.6375 319.604Z" fill="#0F0E0D"/>
<path d="M166.787 319.604L162.934 331.161C166.016 326.318 173.758 324.74 177.243 324.557V321.255L166.787 319.604Z" fill="#0F0E0D"/>
</g>
<path d="M49.3849 279.961C34.8008 240.376 29.8527 105.907 29.2016 37.7609C28.6789 5.85815 893.83 37.7609 925.082 37.7609C927.194 37.7609 929.091 38.7033 930.794 40.4697C941.388 46.3888 956.555 59.4837 960.891 80.7316C967.402 112.634 968.704 313.166 940.708 326.838C613.203 334.868 59.7705 347.152 49.3849 279.961Z" fill="#181816"/>
<path fill-rule="evenodd" clip-rule="evenodd" d="M862.421 33.7882C897.783 34.8671 920.479 35.5595 925.082 35.5595C927.818 35.5595 930.178 36.7566 932.143 38.7027C943.064 44.8841 958.578 58.3898 963.048 80.2914C964.72 88.4874 966.022 107.195 966.622 130.666C967.223 154.212 967.121 182.746 965.939 210.714C964.757 238.667 962.494 266.122 958.756 287.482C956.889 298.153 954.64 307.39 951.935 314.435C950.583 317.959 949.092 320.999 947.436 323.416C945.788 325.82 943.889 327.734 941.674 328.816L941.242 329.027L940.762 329.039C777.019 333.054 556.731 338.134 376.074 333.808C285.757 331.646 205.267 327.131 146.676 318.941C117.396 314.849 93.4666 309.823 76.4827 303.665C67.9956 300.588 61.1252 297.187 56.1707 293.397C51.2956 289.667 48.0761 285.4 47.2459 280.522C43.5413 270.366 40.4977 254.411 37.9876 235.287C35.4542 215.985 33.4443 193.284 31.872 169.718C28.7272 122.585 27.3264 71.8911 27.0004 37.7881C26.9667 35.4328 28.8985 33.9299 30.5918 33.0165C32.4658 32.0057 35.1005 31.137 38.3186 30.3631C44.793 28.8061 54.2031 27.502 66.0626 26.4092C89.8137 24.2207 123.754 22.8489 164.527 22.1009C246.092 20.6047 355.196 21.6023 465.266 23.5963C620.603 26.4104 777.788 31.2061 862.421 33.7882ZM57.9511 289.191C58.2392 289.428 58.5374 289.664 58.846 289.9C63.2994 293.307 69.7039 296.525 77.9833 299.526C94.5325 305.526 118.102 310.502 147.285 314.581C205.617 322.735 285.902 327.245 376.18 329.407C556.521 333.725 776.427 328.664 940.134 324.65C941.304 323.971 942.54 322.771 943.804 320.927C945.201 318.889 946.546 316.188 947.825 312.857C950.383 306.194 952.574 297.273 954.42 286.723C958.109 265.64 960.362 238.405 961.54 210.528C962.718 182.666 962.819 154.232 962.22 130.778C961.619 107.25 960.317 88.9272 958.734 81.1718C955.551 65.5746 946.277 54.514 937.504 47.6082C938.477 50.063 939.335 52.8203 940.1 55.8094C942.017 63.3036 943.427 72.6113 944.448 83.0839C946.49 104.037 946.994 129.903 946.764 155.777C946.535 181.663 945.57 207.614 944.663 228.751C944.411 234.624 944.164 240.117 943.938 245.13C943.35 258.206 942.909 268.018 942.909 272.799C942.909 296.368 932.192 309.769 926.303 313.695L925.753 314.062L925.092 314.065C901.351 314.178 876.4 314.316 850.545 314.459C701.879 315.281 523.291 316.269 372.458 313.528C283.931 311.919 204.915 309.025 147.1 304.053C118.204 301.568 94.5296 298.558 77.5892 294.912C69.534 293.178 62.9141 291.282 57.9511 289.191ZM924.668 39.9607C926.04 40.5003 927.653 41.2524 929.425 42.2274C931.854 44.8962 934.026 49.8298 935.835 56.9003C937.673 64.0875 939.056 73.147 940.066 83.511C942.086 104.231 942.591 129.915 942.362 155.738C942.133 181.549 941.17 207.441 940.264 228.562C940.016 234.353 939.771 239.794 939.547 244.78C938.955 257.929 938.506 267.912 938.506 272.799C938.506 294.253 929.114 306.127 924.378 309.666C900.838 309.778 876.117 309.914 850.511 310.056C701.841 310.878 523.314 311.866 372.538 309.126C284.032 307.517 205.138 304.625 147.477 299.666C118.636 297.186 95.1811 294.195 78.5157 290.607C70.1732 288.812 63.6281 286.886 58.9878 284.845C56.6686 283.824 54.8969 282.805 53.6319 281.81C52.3579 280.807 51.7167 279.922 51.4506 279.2C47.8964 269.553 44.8761 253.939 42.3529 234.714C39.8363 215.54 37.834 192.942 36.2649 169.425C33.13 122.439 31.7309 71.8808 31.4038 37.8389C31.465 37.743 31.7262 37.4071 32.682 36.8914C34.0532 36.1518 36.2506 35.3887 39.348 34.6438C45.5046 33.1632 54.6586 31.8814 66.4666 30.7934C90.0505 28.6202 123.859 27.2504 164.608 26.5029C246.089 25.0082 355.128 26.0045 465.187 27.9983C620.308 30.8085 777.531 35.6031 862.262 38.1871C896.752 39.2389 919.231 39.9244 924.668 39.9607Z" fill="#0F0E0D"/>
<path d="M957.076 266.137C949.151 284.188 946.069 225.962 945.519 194.593L938.364 290.902C937.448 303.23 928.077 309.614 923.505 311.265H888.283L526.159 314.017C557.528 327.225 824.994 315.668 855.263 315.668C879.478 315.668 870.489 324.106 862.968 328.326C879.661 327.775 917.561 326.564 935.613 326.124C953.664 325.684 957.443 285.949 957.076 266.137Z" fill="#0F0E0D"/>
<path d="M945.519 146.713C956.966 96.522 947.353 60.493 941.116 48.7524L935.613 46.0007C945.298 63.6116 946.252 120.48 945.519 146.713Z" fill="#0F0E0D"/>
<path opacity="0.6" d="M945.519 148.998L941.116 55.9907V49.3866C953.003 53.7893 960.011 76.5368 962.029 87.3601L965.331 158.904C964.414 188.99 962.249 251.582 960.928 261.268C959.607 270.954 952.673 274.843 949.371 275.577L945.519 255.764V148.998Z" fill="#0F0E0D"/>
<path opacity="0.6" d="M500.293 313.55H896.538V327.859L775.463 331.161L542.119 333.362L355.003 331.161C328.587 330.721 229.892 324.74 183.847 321.805L94.6918 307.496C64.313 302.653 56.3514 289.335 56.168 283.281C57.4888 307.937 352.802 313.734 500.293 313.55Z" fill="#0F0E0D"/>
<g filter="url(#filter0_f_2_5)">
<path fill-rule="evenodd" clip-rule="evenodd" d="M283.771 119.941H322.185V66.5525H199.782L206.293 119.941H238.847V268.386H283.771V119.941ZM274.966 259.581V111.135H313.379V75.358H209.727L214.09 111.135H247.652V259.581H274.966ZM484.954 66.5525H436.123V268.386H527.925C529.209 260.678 531.587 238.926 533.159 224.546C533.261 223.614 533.359 222.714 533.454 221.85C533.872 218.026 534.214 214.923 534.435 213.045H477.141L484.954 66.5525ZM524.595 221.85H467.853L475.666 75.358H444.928V259.581H520.281C521.534 249.849 523.155 235.018 524.352 224.072C524.435 223.312 524.516 222.57 524.595 221.85ZM817.653 76.3187H766.218L809.189 192.21V260.573H871.041L866.484 197.419L911.408 66.5525H854.113L835.232 127.103L817.653 76.3187ZM860.591 75.358L835.669 155.282L811.383 85.1241H778.875L817.995 190.63V251.768H861.578L857.572 196.26L899.076 75.358H860.591ZM678.013 110.484V251.768H712.489V110.484H741.136V75.358H641.553V110.484H678.013ZM632.748 66.5525H749.941V119.29H721.294V260.573H669.208V119.29H632.748V66.5525ZM73.9765 75.358C69.8591 106.857 67.3816 150.594 72.1183 187.995C74.6884 208.288 79.2988 225.992 86.4014 238.782C93.3975 251.381 102.254 258.362 113.528 259.636C130.228 261.524 142.245 257.621 151.217 249.938C160.467 242.016 167.469 229.228 172.146 211.6C181.114 177.804 180.665 129.657 174.957 75.358H151.574C152.319 102.32 152.414 137.654 150.508 165.563C149.457 180.944 147.753 194.913 144.897 203.963C144.163 206.288 143.268 208.575 142.132 210.595C141.049 212.521 139.389 214.857 136.826 216.5C133.892 218.38 130.299 218.991 126.727 217.884C123.609 216.917 121.284 214.884 119.649 213.056C113.564 206.255 109.962 195.39 107.59 184.105C105.129 172.403 103.675 158.575 102.884 144.424C101.537 120.318 102.079 94.5649 103.151 75.358H73.9765ZM66.3125 66.5525C56.7634 131.009 52.6399 261.615 112.539 268.386C187.413 276.85 195.876 181.793 182.854 66.5525H142.488C142.587 69.3648 142.681 72.3078 142.765 75.358C144.343 132.096 143.017 225.968 126.211 207.185C109.753 188.791 109.64 116.491 111.971 75.358C112.148 72.2301 112.339 69.2825 112.539 66.5525H66.3125ZM344.972 268.386V66.5525H399.663L389.245 268.386H344.972ZM380.883 259.581L390.391 75.358H353.778V259.581H380.883ZM567.608 250.373L558.033 78.617L593.993 76.0175V257.067L567.608 250.373ZM602.798 66.5525L548.759 70.459L559.176 257.318L602.798 268.386V66.5525Z" fill="#EC57E2"/>
</g>
<g filter="url(#filter1_f_2_5)">
<path fill-rule="evenodd" clip-rule="evenodd" d="M283.771 119.941H322.185V66.5525H199.782L206.293 119.941H238.847V268.386H283.771V119.941ZM274.966 259.581V111.135H313.379V75.358H209.727L214.09 111.135H247.652V259.581H274.966ZM484.954 66.5525H436.123V268.386H527.925C529.209 260.678 531.587 238.926 533.159 224.546C533.261 223.614 533.359 222.714 533.454 221.85C533.872 218.026 534.214 214.923 534.435 213.045H477.141L484.954 66.5525ZM524.595 221.85H467.853L475.666 75.358H444.928V259.581H520.281C521.534 249.849 523.155 235.018 524.352 224.072C524.435 223.312 524.516 222.57 524.595 221.85ZM817.653 76.3187H766.218L809.189 192.21V260.573H871.041L866.484 197.419L911.408 66.5525H854.113L835.232 127.103L817.653 76.3187ZM860.591 75.358L835.669 155.282L811.383 85.1241H778.875L817.995 190.63V251.768H861.578L857.572 196.26L899.076 75.358H860.591ZM678.013 110.484V251.768H712.489V110.484H741.136V75.358H641.553V110.484H678.013ZM632.748 66.5525H749.941V119.29H721.294V260.573H669.208V119.29H632.748V66.5525ZM73.9765 75.358C69.8591 106.857 67.3816 150.594 72.1183 187.995C74.6884 208.288 79.2988 225.992 86.4014 238.782C93.3975 251.381 102.254 258.362 113.528 259.636C130.228 261.524 142.245 257.621 151.217 249.938C160.467 242.016 167.469 229.228 172.146 211.6C181.114 177.804 180.665 129.657 174.957 75.358H151.574C152.319 102.32 152.414 137.654 150.508 165.563C149.457 180.944 147.753 194.913 144.897 203.963C144.163 206.288 143.268 208.575 142.132 210.595C141.049 212.521 139.389 214.857 136.826 216.5C133.892 218.38 130.299 218.991 126.727 217.884C123.609 216.917 121.284 214.884 119.649 213.056C113.564 206.255 109.962 195.39 107.59 184.105C105.129 172.403 103.675 158.575 102.884 144.424C101.537 120.318 102.079 94.5649 103.151 75.358H73.9765ZM66.3125 66.5525C56.7634 131.009 52.6399 261.615 112.539 268.386C187.413 276.85 195.876 181.793 182.854 66.5525H142.488C142.587 69.3648 142.681 72.3078 142.765 75.358C144.343 132.096 143.017 225.968 126.211 207.185C109.753 188.791 109.64 116.491 111.971 75.358C112.148 72.2301 112.339 69.2825 112.539 66.5525H66.3125ZM344.972 268.386V66.5525H399.663L389.245 268.386H344.972ZM380.883 259.581L390.391 75.358H353.778V259.581H380.883ZM567.608 250.373L558.033 78.617L593.993 76.0175V257.067L567.608 250.373ZM602.798 66.5525L548.759 70.459L559.176 257.318L602.798 268.386V66.5525Z" fill="#EC57E2"/>
</g>
<g filter="url(#filter2_f_2_5)">
<path fill-rule="evenodd" clip-rule="evenodd" d="M288.174 125.444H326.587V72.0559H204.185L210.696 125.444H243.25V273.889H288.174V125.444ZM279.369 265.084V116.639H317.782V80.8614H214.13L218.493 116.639H252.055V265.084H279.369ZM489.356 72.0559H440.526V273.889H532.327C533.612 266.181 535.99 244.429 537.562 230.049C537.663 229.118 537.762 228.217 537.856 227.353C538.275 223.53 538.617 220.426 538.838 218.548H481.543L489.356 72.0559ZM528.997 227.353H472.256L480.069 80.8614H449.331V265.084H524.684C525.936 255.352 527.558 240.522 528.754 229.576C528.837 228.815 528.919 228.073 528.997 227.353ZM822.056 81.8221H770.621L813.592 197.714V266.076H875.444L870.887 202.922L915.811 72.0559H858.516L839.635 132.606L822.056 81.8221ZM864.994 80.8614L840.071 160.786L815.786 90.6275H783.277L822.397 196.134V257.271H865.98L861.975 201.763L903.478 80.8614H864.994ZM682.416 115.988V257.271H716.891V115.988H745.539V80.8614H645.956V115.988H682.416ZM637.151 72.0559H754.344V124.793H725.697V266.076H673.611V124.793H637.151V72.0559ZM78.3793 80.8614C74.2618 112.36 71.7844 156.098 76.5211 193.498C79.0912 213.792 83.7016 231.496 90.8042 244.286C97.8003 256.884 106.657 263.865 117.931 265.14C134.631 267.027 146.648 263.124 155.619 255.441C164.869 247.52 171.872 234.731 176.549 217.103C185.517 183.307 185.068 135.161 179.36 80.8614H155.977C156.721 107.824 156.817 143.157 154.911 171.066C153.86 186.447 152.156 200.416 149.3 209.466C148.566 211.792 147.671 214.078 146.535 216.099C145.452 218.025 143.791 220.361 141.229 222.003C138.295 223.883 134.701 224.494 131.129 223.387C128.011 222.421 125.687 220.388 124.051 218.56C117.966 211.759 114.365 200.893 111.992 189.608C109.532 177.906 108.078 164.078 107.287 149.928C105.939 125.821 106.481 100.068 107.554 80.8614H78.3793ZM70.7152 72.0559C61.1661 136.512 57.0426 267.118 116.942 273.889C191.815 282.353 200.279 187.296 187.257 72.0559H146.891C146.99 74.8682 147.083 77.8112 147.168 80.8614C148.746 137.599 147.419 231.471 130.614 212.688C114.156 194.294 114.043 121.994 116.374 80.8614C116.551 77.7335 116.742 74.7859 116.942 72.0559H70.7152ZM349.375 273.889V72.0559H404.065L393.648 273.889H349.375ZM385.286 265.084L394.794 80.8614H358.181V265.084H385.286ZM572.011 255.876L562.436 84.1204L598.396 81.5209V262.571L572.011 255.876ZM607.201 72.0559L553.162 75.9624L563.579 262.821L607.201 273.889V72.0559Z" fill="#1E1E1E" fill-opacity="0.3"/>
</g>
<path fill-rule="evenodd" clip-rule="evenodd" d="M283.771 123.941C283.771 121.732 285.562 119.941 287.771 119.941H318.103C320.344 119.941 322.147 118.1 322.102 115.86L321.164 69.4068C321.12 67.2155 319.32 65.4678 317.128 65.4877L204.259 66.5119C201.872 66.5336 200.035 68.6269 200.324 70.996L205.864 116.425C206.109 118.432 207.813 119.941 209.835 119.941H234.847C237.056 119.941 238.847 121.732 238.847 123.941V264.386C238.847 266.595 240.638 268.386 242.847 268.386H279.771C281.98 268.386 283.771 266.595 283.771 264.386V123.941ZM270.936 259.581C273.157 259.581 274.952 257.771 274.936 255.551L273.894 116.161C273.878 113.981 275.61 112.19 277.789 112.132L311.564 111.241C313.78 111.183 315.525 109.335 315.457 107.12L314.599 79.235C314.533 77.0747 312.762 75.358 310.601 75.358H214.244C211.843 75.358 209.983 77.4587 210.274 79.8422L213.647 107.502C213.898 109.558 215.678 111.083 217.749 111.015L243.46 110.172C245.742 110.097 247.624 111.945 247.591 114.229L245.511 255.522C245.478 257.754 247.278 259.581 249.51 259.581H270.936ZM484.729 70.7656C484.851 68.476 483.027 66.5525 480.735 66.5525H440.167C437.941 66.5525 436.143 68.3701 436.167 70.5961L438.281 264.43C438.305 266.622 440.089 268.386 442.281 268.386H524.536C526.491 268.386 528.158 266.976 528.431 265.04C529.768 255.562 531.776 237.2 533.159 224.546C533.261 223.614 533.359 222.714 533.454 221.85C533.627 220.27 533.787 218.812 533.93 217.514C534.194 215.134 532.331 213.045 529.937 213.045H481.36C479.067 213.045 477.243 211.121 477.365 208.832L484.729 70.7656ZM524.352 224.072C524.48 222.894 523.545 221.87 522.359 221.893L471.133 222.867C468.781 222.912 466.898 220.927 467.067 218.581L476.862 82.4927C477.017 80.3343 475.428 78.4437 473.275 78.2259L449.331 75.8034C446.975 75.565 444.928 77.4147 444.928 79.7831V254.539C444.928 256.725 446.683 258.506 448.869 258.538L515.61 259.528C517.644 259.558 519.375 258.059 519.665 256.045C521.037 246.499 523.292 233.763 524.352 224.072ZM818.585 79.0102C818.027 77.3992 816.51 76.3187 814.805 76.3187H771.968C769.181 76.3187 767.248 79.0966 768.217 81.7093L808.94 191.537C809.105 191.982 809.189 192.453 809.189 192.928V256.573C809.189 258.782 810.98 260.573 813.189 260.573H866.667C869.017 260.573 870.861 258.557 870.651 256.216L865.462 198.295C865.41 197.718 865.484 197.136 865.68 196.591L909.571 73.8888C910.482 71.3444 908.659 68.6483 905.959 68.5445L857.174 66.6701C855.368 66.6007 853.74 67.751 853.202 69.4764L838.853 115.492C837.703 119.178 832.517 119.258 831.254 115.61L818.585 79.0102ZM862.765 72.329C860.862 72.1703 859.112 73.3787 858.587 75.2145L839.153 143.11C838.077 146.868 832.806 147.011 831.527 143.318L812.351 87.9204C811.776 86.2588 810.183 85.1677 808.426 85.2315L786.358 86.033C783.708 86.1292 781.883 88.7316 782.696 91.2563L814.534 190.137C814.639 190.465 814.702 190.804 814.721 191.147L817.79 247.983C817.905 250.106 819.659 251.768 821.784 251.768H857.279C859.601 251.768 861.435 249.796 861.268 247.48L857.631 197.074C857.592 196.537 857.662 195.997 857.837 195.488L897.408 80.2159C898.254 77.7507 896.554 75.1477 893.957 74.931L862.765 72.329ZM669.599 109.521C671.813 109.445 673.666 111.182 673.735 113.395L677.894 247.891C677.96 250.051 679.731 251.768 681.892 251.768H708.489C710.698 251.768 712.489 249.977 712.489 247.768V114.484C712.489 112.275 714.279 110.484 716.489 110.484H737.136C739.345 110.484 741.136 108.693 741.136 106.484V79.358C741.136 77.1488 739.345 75.358 737.136 75.358H645.553C643.344 75.358 641.553 77.1488 641.553 79.358V106.345C641.553 108.607 643.429 110.42 645.69 110.342L669.599 109.521ZM632.836 70.6763C632.788 68.4196 634.615 66.5701 636.872 66.5913L745.979 67.616C748.173 67.6366 749.941 69.4213 749.941 71.6158V115.29C749.941 117.499 748.151 119.29 745.941 119.29H725.294C723.085 119.29 721.294 121.081 721.294 123.29V256.657C721.294 258.833 719.554 260.61 717.379 260.656L673.293 261.587C671.051 261.635 669.208 259.831 669.208 257.588V123.167C669.208 121.006 667.492 119.236 665.332 119.169L637.642 118.307C635.516 118.241 633.813 116.521 633.768 114.394L632.836 70.6763ZM77.4876 75.358C75.4789 75.358 73.7816 76.8432 73.5264 78.8356C69.5318 110.024 65.3522 151.952 69.9169 187.995C72.4871 208.288 78.1982 225.992 85.3007 238.782C92.2968 251.381 102.254 261.664 113.528 262.938C130.228 264.826 142.245 257.621 151.217 249.938C160.467 242.017 167.469 229.228 172.146 211.6C180.926 178.514 179.625 132.729 174.211 79.872C174.01 77.9102 172.404 76.3869 170.434 76.2896L155.889 75.5711C153.562 75.4562 151.63 77.3424 151.686 79.672C152.323 106.01 152.314 139.119 150.508 165.563C149.457 180.944 147.753 194.913 144.897 203.963C144.163 206.288 143.268 208.575 142.132 210.595C141.049 212.521 139.389 214.857 136.826 216.5C133.892 218.38 130.299 218.991 126.727 217.884C123.609 216.917 121.284 214.884 119.649 213.056C113.564 206.255 109.962 195.39 107.59 184.105C105.129 172.403 103.675 158.575 102.884 144.424C101.633 122.042 102.011 98.2417 102.93 79.5783C103.043 77.2842 101.219 75.358 98.9218 75.358H77.4876ZM69.7635 66.5525C67.7808 66.5525 66.1018 67.9606 65.8265 69.9241C56.6408 135.45 53.6665 261.731 112.539 268.386C186.618 276.76 196.766 182.721 184.362 69.1143C184.137 67.0505 182.362 65.4941 180.286 65.5492L146.522 66.4454C144.3 66.5044 142.553 68.364 142.623 70.5859C142.673 72.1439 142.72 73.7358 142.765 75.358C144.343 132.096 143.017 225.968 126.211 207.185C109.753 188.791 109.64 116.491 111.971 75.358C112.059 73.8079 112.15 72.3021 112.244 70.8451C112.394 68.5261 110.56 66.5525 108.236 66.5525H69.7635ZM348.972 268.386C346.763 268.386 344.972 266.595 344.972 264.386V70.4712C344.972 68.2941 346.714 66.5168 348.89 66.4721L394.288 65.5396C396.601 65.4921 398.472 67.411 398.366 69.7222L389.421 264.569C389.323 266.705 387.563 268.386 385.425 268.386H348.972ZM376.91 259.397C379.108 259.498 380.975 257.806 381.089 255.609L390.179 80.5414C390.295 78.3011 388.547 76.4032 386.305 76.3358L357.973 75.4841C355.689 75.4154 353.812 77.2701 353.853 79.5544L357.012 254.73C357.05 256.839 358.72 258.556 360.827 258.653L376.91 259.397ZM574.891 245.909C573.775 245.257 573.042 244.105 572.925 242.816L558.401 82.6742C558.199 80.4456 559.864 78.4846 562.096 78.3233L589.704 76.3275C592.021 76.16 593.993 77.9944 593.993 80.3171V250.098C593.993 253.186 590.642 255.11 587.975 253.552L574.891 245.909ZM602.798 70.8521C602.798 68.5294 600.827 66.6951 598.51 66.8625L552.683 70.1753C550.506 70.3327 548.856 72.2075 548.978 74.3875L559.013 254.385C559.11 256.13 560.329 257.61 562.023 258.04L597.815 267.121C600.342 267.763 602.798 265.852 602.798 263.244V70.8521Z" fill="#FDF8FD"/>
<path d="M186.599 16.2821C145.213 16.2821 70.2935 22.1524 38.0068 25.0876C72.6783 1.4232 389.124 8.57709 425.447 8.57709C433.7 8.57709 426.266 9.42956 461.219 10.6438C464.618 10.7619 501.127 -0.123424 504.696 0.00105962C540.162 1.23801 594.658 4.9696 638.979 6.35022C648.137 6.63549 646.324 15.7198 655.489 15.9884C753.603 18.8636 848.517 20.559 862.417 16.2821C891.035 7.47668 945.519 33.893 958.727 42.1481C971.935 50.4033 976.888 83.974 976.888 116.444C976.888 148.914 973.586 227.613 973.586 236.969C973.586 244.453 964.781 272.007 958.727 278.795L965.331 249.076C970.284 189.089 965.331 125.8 965.331 93.3297C965.331 60.8596 948.27 53.7053 936.713 42.1481C925.156 30.591 855.813 30.0406 824.994 28.94C800.339 28.0594 656.957 23.0697 588.348 20.6849C471.675 17.7497 227.984 16.2821 186.599 16.2821Z" fill="#EC57E2"/>
<path d="M938.364 395.551C943.684 398.67 955.865 401.274 962.029 386.745C961.295 395.918 955.535 410.52 938.364 395.551Z" fill="#EC57E2"/>
<path d="M875.075 423.618C886.816 423.251 912.828 420.096 922.955 410.41C917.084 416.647 899.29 428.021 875.075 423.618Z" fill="#EC57E2"/>
<path d="M114.504 346.02C117.256 348.955 127.382 353.945 145.874 350.423C137.802 354.826 120.228 360.109 114.504 346.02Z" fill="#EC57E2"/>
<defs>
<filter id="filter0_f_2_5" x="10.732" y="16.5525" width="950.676" height="302.358" filterUnits="userSpaceOnUse" color-interpolation-filters="sRGB">
<feFlood flood-opacity="0" result="BackgroundImageFix"/>
<feBlend mode="normal" in="SourceGraphic" in2="BackgroundImageFix" result="shape"/>
<feGaussianBlur stdDeviation="25" result="effect1_foregroundBlur_2_5"/>
</filter>
<filter id="filter1_f_2_5" x="0.731995" y="6.55254" width="970.676" height="322.358" filterUnits="userSpaceOnUse" color-interpolation-filters="sRGB">
<feFlood flood-opacity="0" result="BackgroundImageFix"/>
<feBlend mode="normal" in="SourceGraphic" in2="BackgroundImageFix" result="shape"/>
<feGaussianBlur stdDeviation="30" result="effect1_foregroundBlur_2_5"/>
</filter>
<filter id="filter2_f_2_5" x="55.1348" y="62.0559" width="870.676" height="222.358" filterUnits="userSpaceOnUse" color-interpolation-filters="sRGB">
<feFlood flood-opacity="0" result="BackgroundImageFix"/>
<feBlend mode="normal" in="SourceGraphic" in2="BackgroundImageFix" result="shape"/>
<feGaussianBlur stdDeviation="5" result="effect1_foregroundBlur_2_5"/>
</filter>
</defs>
</svg>
