<svg width="750" height="548" viewBox="0 0 750 548" fill="none" xmlns="http://www.w3.org/2000/svg">
<path d="M679.197 543.932C737.902 550.135 732.009 371.638 721.725 281.614L679.197 291.306C704.214 361.731 739.238 507.621 679.197 527.78C619.156 547.938 589.694 441.848 582.468 386.283L563.287 377.884C544.942 468.338 605.815 536.179 679.197 543.932Z" fill="#2B2B26"/>
<path fill-rule="evenodd" clip-rule="evenodd" d="M723.837 277.21L724.265 280.957C729.429 326.159 733.513 393.709 728.889 449.34C726.581 477.114 722.07 502.352 714.208 520.353C706.244 538.588 694.775 549.467 679.017 547.802C641.907 543.881 607.762 524.759 585.144 494.835C562.434 464.789 551.302 423.7 560.824 376.751L561.566 373.09L584.696 383.219L584.997 385.538C588.561 412.943 597.614 452.738 613.072 483.066C628.473 513.283 649.925 533.634 678.637 523.994C692.814 519.234 701.206 507.213 705.659 490.766C710.182 474.063 710.703 452.523 708.542 428.923C704.222 381.766 689.363 328.148 676.925 293.135L675.205 288.293L723.837 277.21ZM683.166 294.325C695.38 329.74 709.408 381.588 713.647 427.863C715.863 452.059 715.446 475.173 710.431 493.694C705.347 512.472 695.601 526.247 679.758 531.566C648.429 542.085 625.13 519.469 608.983 487.789C593.331 457.078 584.112 417.411 580.251 389.352L565.049 382.695C557.511 424.667 567.668 461.385 588.546 489.007C610.124 517.555 643.106 536.231 679.378 540.063C692.973 541.499 702.782 532.392 709.902 516.09C717.124 499.555 721.505 475.705 723.776 448.377C728.187 395.306 724.521 330.756 719.606 286.021L683.166 294.325Z" fill="#0F0E0D"/>
<g opacity="0.65">
<path d="M725.752 438.065C718.881 433.928 714.587 448.84 713.298 456.814C713.298 443.884 711.294 422.119 710.292 412.852L725.752 375.356C729.531 387.251 727.327 422.119 725.752 438.065Z" fill="#0F0E0D"/>
<path d="M718.022 494.957L710.292 484.613C710.292 496.508 702.276 509.395 698.268 514.351C707.2 514.869 701.99 528.79 698.268 535.686C706.513 531.031 714.873 506.593 718.022 494.957Z" fill="#0F0E0D"/>
</g>
<path d="M726.21 519.008C749.197 522.915 739.024 345.044 731.064 255.619L715.039 266.942C727.832 336.239 747.834 480.444 725.495 502.891C703.157 525.338 687.067 420.628 681.815 365.467L674.022 357.832C670.924 448.798 697.476 514.123 726.21 519.008Z" fill="#2B2B26"/>
<path fill-rule="evenodd" clip-rule="evenodd" d="M734.542 246.02L735.32 254.761C739.311 299.6 743.866 366.694 744.535 422.196C744.869 449.874 744.244 475.068 742.008 493.254C740.899 502.269 739.326 510.182 737.002 515.868C734.617 521.703 730.89 526.31 725.728 525.432C709.36 522.65 694.548 502.965 684.374 473.699C674.123 444.212 668.151 403.958 669.733 357.501L670.115 346.29L685.789 361.648L686.065 364.55C688.672 391.924 693.954 431.38 701.273 461.03C704.968 475.998 708.995 487.67 713.103 494.2C715.125 497.415 716.876 498.913 718.307 499.368C719.592 499.776 721.122 499.513 723.111 497.514C724.891 495.726 726.582 492.374 727.968 486.861C729.346 481.381 730.294 474.269 730.807 465.717C731.834 448.619 731.067 426.84 729.178 403.26C725.404 356.168 717.262 303.129 710.901 268.673L709.929 263.41L734.542 246.02ZM731.064 255.619L715.038 266.942C727.832 336.239 747.833 480.445 725.495 502.891C703.157 525.338 687.067 420.628 681.814 365.467L674.022 357.832C673.936 360.361 673.873 362.871 673.832 365.359C672.402 452.384 698.275 514.259 726.209 519.008C748.634 522.82 739.502 353.648 731.652 262.345C731.455 260.053 731.259 257.81 731.064 255.619Z" fill="#0F0E0D"/>
<g opacity="0.65">
<path d="M695.262 440.651C689.079 432.376 685.242 452.719 684.097 463.925L672.073 413.499L689.25 410.266L695.262 440.651Z" fill="#0F0E0D"/>
<path d="M735.63 323.636L725.753 356.608L730.047 382.467C730.047 366.951 737.204 366.089 740.783 367.598L735.63 323.636Z" fill="#0F0E0D"/>
</g>
<path d="M88.968 464.085C127.479 448.586 124.839 316.787 113.883 223.66L104.187 212.5C115.413 284.756 128.28 433.014 89.9411 447.999C51.6023 462.985 39.7765 354.834 38.656 298.886L40.8899 270.812C24.0971 359.338 43.284 482.471 88.968 464.085Z" fill="#2B2B26"/>
<path fill-rule="evenodd" clip-rule="evenodd" d="M117.819 220.053L118.111 222.532C123.626 269.408 127.083 326.258 124.252 373.563C122.839 397.187 119.833 418.87 114.534 435.828C109.22 452.833 101.353 465.793 90.0765 470.331C77.2014 475.513 65.9867 470.641 57.0153 458.986C48.2325 447.577 41.7454 429.907 37.4096 409.511C28.7319 368.693 28.1411 314.473 36.76 269.037L45.1532 271.581L42.9578 299.172C43.5382 326.774 46.7491 366.74 54.3696 397.803C58.2131 413.471 63.0212 426.211 68.7969 434.103C74.3579 441.702 80.8237 444.884 88.8613 441.742C96.4685 438.769 102.085 429.065 105.869 412.894C109.647 396.747 111.271 375.381 111.356 351.691C111.526 304.405 105.574 249.814 100.005 213.973L97.2765 196.408L117.819 220.053ZM35.2515 321.221C35.5713 313.758 36.1013 306.313 36.846 298.968C36.8595 298.835 36.8732 298.701 36.8869 298.567C37.8591 289.083 39.19 279.77 40.8893 270.812L38.6554 298.886C38.7908 305.646 39.0825 313.168 39.5583 321.143C43.0208 379.172 56.2341 461.174 89.9406 447.999C126.614 433.665 116.434 297.383 105.654 222.328C105.165 218.92 104.674 215.638 104.187 212.5L113.882 223.66C124.838 316.788 127.479 448.586 88.9675 464.085C51.5494 479.144 31.9073 399.264 35.2515 321.221Z" fill="#0F0E0D"/>
<g opacity="0.65">
<path d="M48.0968 411.559C44.6613 413.628 50.1008 435.695 53.2501 446.47C47.7528 438.712 39.5082 403.586 36.073 386.993L50.2445 395.397L54.9683 413.499C54.1093 411.99 51.5323 409.49 48.0968 411.559Z" fill="#0F0E0D"/>
<path d="M109.078 411.559L106.072 425.136C108.476 419.446 114.517 417.593 117.237 417.378V413.499L109.078 411.559Z" fill="#0F0E0D"/>
</g>
<path d="M17.4673 364.99C6.08714 318.489 2.226 160.527 1.71796 80.4752C1.31007 42.9987 676.401 80.4752 700.787 80.4752C702.435 80.4752 703.916 81.5823 705.245 83.6573C713.511 90.6105 725.346 105.993 728.729 130.953C733.81 168.43 734.826 403.996 712.98 420.057C457.423 429.491 25.5713 443.921 17.4673 364.99Z" fill="#181816"/>
<g filter="url(#filter0_f_10_46)">
<path fill-rule="evenodd" clip-rule="evenodd" d="M558.2 150.717C559.714 151.123 560.614 152.681 560.209 154.198C557.517 164.274 554.701 177.336 553.235 189.54L556.6 189.86C558.161 190.009 559.305 191.397 559.157 192.96C559.008 194.522 557.622 195.669 556.062 195.52L552.652 195.195C552.267 199.721 552.116 203.998 552.272 207.823C552.462 212.467 553.097 216.264 554.193 218.995C555.282 221.709 556.654 222.989 558.149 223.429C559.738 223.897 562.308 223.676 566.317 221.467C567.691 220.711 569.417 221.213 570.173 222.588C570.928 223.964 570.427 225.692 569.053 226.449C564.458 228.98 560.234 229.97 556.546 228.883C553.604 228.016 551.505 225.983 550.036 223.424C550.23 224.444 549.857 225.534 548.978 226.211C544.37 229.761 539.842 231.361 535.971 229.29C534.142 228.312 532.876 226.692 531.995 224.931C531.114 223.168 530.53 221.093 530.145 218.909C528.626 210.294 529.869 197.945 531.395 189.35C531.669 187.804 533.143 186.774 534.687 187.049C536.23 187.324 537.259 188.799 536.984 190.345C535.483 198.805 534.398 210.334 535.736 217.921C536.065 219.788 536.52 221.283 537.072 222.385C537.623 223.489 538.184 224.028 538.646 224.276C539.357 224.656 541.268 224.978 545.517 221.705C546.68 220.809 548.317 220.956 549.305 221.999C549.172 221.709 549.045 221.414 548.925 221.115C547.482 217.519 546.801 212.985 546.6 208.055C546.431 203.918 546.597 199.373 547 194.656L544.14 194.383C542.579 194.234 541.434 192.846 541.583 191.284C541.732 189.721 543.117 188.575 544.678 188.723L547.582 189C549.084 176.414 551.975 163.018 554.724 152.728C555.129 151.212 556.685 150.311 558.2 150.717ZM539.133 157.471C540.685 157.693 541.763 159.133 541.542 160.687L538.703 180.585C538.481 182.139 537.043 183.219 535.491 182.997C533.939 182.775 532.861 181.335 533.083 179.781L535.921 159.883C536.143 158.329 537.581 157.249 539.133 157.471ZM155.054 159.755C156.601 159.499 158.062 160.547 158.318 162.095C160.296 174.076 163.766 191.605 167.738 205.3C169.737 212.191 171.805 217.9 173.786 221.445C174.769 223.204 175.554 224.1 176.043 224.453C176.631 223.952 177.381 223.028 178.242 221.55C179.144 220 180.068 218.019 180.996 215.669C182.851 210.972 184.638 205.028 186.278 198.622C189.554 185.82 192.177 171.45 193.587 162.133C193.822 160.581 195.269 159.514 196.819 159.749C198.369 159.984 199.435 161.433 199.2 162.985C197.771 172.429 195.114 186.996 191.777 200.033C190.11 206.546 188.255 212.747 186.275 217.76C185.285 220.266 184.242 222.532 183.146 224.414C182.073 226.256 180.84 227.923 179.401 229.044C178.488 229.755 177.379 230.228 176.123 230.235C174.892 230.242 173.818 229.801 172.948 229.22C171.305 228.123 169.96 226.24 168.832 224.222C166.516 220.079 164.304 213.843 162.287 206.886C158.226 192.885 154.713 175.11 152.717 163.023C152.461 161.474 153.507 160.011 155.054 159.755ZM208.883 159.717C210.451 159.717 211.722 160.989 211.722 162.559V175.635C211.722 177.205 210.451 178.477 208.883 178.477C207.316 178.477 206.045 177.205 206.045 175.635V162.559C206.045 160.989 207.316 159.717 208.883 159.717ZM228.347 177.593L230.341 203.275C232.45 204.021 235.032 204.232 237.282 203.177C239.892 201.954 243.028 198.549 244.102 189.512C244.629 185.081 244.065 182.229 243.131 180.421C242.234 178.683 240.862 177.646 239.133 177.064C236.019 176.017 231.87 176.51 228.347 177.593ZM230.808 209.28C233.522 209.82 236.661 209.745 239.689 208.326C244.78 205.939 248.543 200.248 249.74 190.184C250.348 185.063 249.801 180.96 248.174 177.81C246.511 174.588 243.873 172.662 240.942 171.675C235.335 169.789 228.601 171.29 224.304 172.991L222.355 173.763L226.491 227.021C226.613 228.586 227.979 229.756 229.542 229.635C231.105 229.513 232.273 228.145 232.152 226.58L230.808 209.28ZM302.145 179.771C305.569 182.209 307.686 186.139 308.647 188.918C309.16 190.401 308.374 192.02 306.893 192.534C305.411 193.047 303.795 192.261 303.282 190.777C302.539 188.629 300.967 185.908 298.855 184.404C297.851 183.689 296.782 183.286 295.618 183.267C294.453 183.247 292.941 183.608 291.047 184.84C290.218 185.38 289.301 186.456 288.45 188.198C287.614 189.91 286.938 192.073 286.48 194.513C285.56 199.41 285.587 205.05 286.659 209.67C287.777 214.489 289.772 217.23 291.948 217.986C293.979 218.692 297.793 218.181 304.003 212.238C305.137 211.154 306.934 211.195 308.017 212.33C309.1 213.465 309.059 215.264 307.925 216.349C301.362 222.629 295.311 225.173 290.086 223.357C285.006 221.59 282.353 216.23 281.129 210.957C279.86 205.487 279.851 199.046 280.9 193.461C281.427 190.66 282.236 187.982 283.35 185.701C284.449 183.45 285.944 181.382 287.953 180.074C290.601 178.35 293.206 177.54 295.713 177.582C298.221 177.625 300.381 178.515 302.145 179.771ZM333.453 181.429C337.052 184.543 340.169 189.193 341.952 192.466L342.126 192.785L342.214 193.138C343.14 196.847 343.768 202.671 342.592 208.231C341.402 213.857 338.246 219.594 331.338 222.085C329.048 222.91 326.803 222.994 324.72 222.286C322.67 221.588 321.039 220.213 319.773 218.571C317.296 215.357 315.886 210.704 315.218 206.026C314.541 201.276 314.576 196.125 315.277 191.63C315.953 187.293 317.339 182.965 319.853 180.447C321.981 178.316 324.542 177.595 327.127 178.063C329.508 178.493 331.665 179.882 333.453 181.429ZM326.118 183.657C325.381 183.524 324.692 183.641 323.868 184.467C322.692 185.645 321.523 188.423 320.886 192.507C320.274 196.433 320.239 201.017 320.839 205.222C321.449 209.497 322.664 213.016 324.267 215.097C325.042 216.102 325.815 216.654 326.546 216.903C327.244 217.14 328.157 217.189 329.415 216.736C333.861 215.133 336.099 211.489 337.038 207.053C337.956 202.716 337.519 197.99 336.791 194.866C335.15 191.925 332.512 188.128 329.741 185.731C328.293 184.478 327.058 183.827 326.118 183.657ZM594.031 187.12C595.536 187.561 596.398 189.141 595.957 190.647C592.713 201.73 587.008 218.111 580.411 231.208C577.125 237.73 573.525 243.629 569.781 247.644C566.184 251.501 561.557 254.529 556.541 252.797C555.059 252.285 554.272 250.667 554.783 249.183C555.294 247.699 556.91 246.91 558.392 247.422C559.961 247.964 562.294 247.344 565.632 243.764C568.824 240.341 572.136 235.011 575.342 228.647C576.576 226.197 577.781 223.621 578.945 220.981C578.866 220.862 578.795 220.735 578.733 220.601L565.108 191.039C564.451 189.613 565.072 187.925 566.496 187.267C567.919 186.609 569.606 187.231 570.263 188.656L581.907 213.92C585.471 205.01 588.477 195.99 590.509 189.048C590.95 187.542 592.527 186.678 594.031 187.12ZM462.228 187.095C463.746 187.486 464.661 189.035 464.27 190.556C462.601 197.056 461.036 206.518 461.598 213.936C461.882 217.689 462.684 220.495 463.909 222.175C464.487 222.968 465.133 223.477 465.867 223.77C466.607 224.065 467.619 224.213 469.031 223.992C474.12 223.196 477.401 219.008 479.324 212.62C481.224 206.311 481.493 198.694 481.091 192.879L480.836 190.109L486.482 189.518C486.587 190.424 486.678 191.396 486.75 192.42L489.895 226.539C490.039 228.103 488.891 229.487 487.329 229.631C485.768 229.775 484.386 228.625 484.242 227.062L483.406 217.99C480.944 223.674 476.773 228.535 469.907 229.609C467.686 229.957 465.618 229.791 463.763 229.05C461.902 228.307 460.439 227.057 459.324 225.528C457.164 222.565 456.249 218.478 455.937 214.366C455.307 206.056 457.035 195.904 458.772 189.14C459.162 187.619 460.71 186.704 462.228 187.095ZM349.815 187.038C351.365 186.799 352.814 187.864 353.052 189.415L354.473 198.663C356.761 196.615 359.351 194.682 361.923 193.44C364.048 192.414 366.542 191.672 368.994 192.131C370.533 192.42 371.855 193.14 372.931 194.229C375.993 191.955 379.942 189.661 383.796 188.831C386.35 188.281 389.219 188.302 391.745 189.819C394.312 191.363 395.951 194.106 396.737 197.78C399.567 211.004 397.942 222.988 396.7 227.549C396.288 229.063 394.727 229.956 393.215 229.543C391.702 229.13 390.811 227.567 391.223 226.053C392.252 222.275 393.806 211.216 391.186 198.971C390.61 196.277 389.62 195.173 388.823 194.694C387.983 194.189 386.749 194.01 384.99 194.389C381.937 195.046 378.399 197.154 375.62 199.324C376.018 200.827 376.259 202.548 376.358 204.483C376.811 213.326 376.915 217.766 376.843 219.7C376.826 220.152 376.795 220.651 376.709 221.068C376.685 221.185 376.643 221.362 376.571 221.562C376.516 221.713 376.357 222.129 375.991 222.54C375.561 223.021 374.6 223.714 373.278 223.445C372.25 223.235 371.704 222.553 371.561 222.367C371.231 221.938 371.086 221.493 371.049 221.381L371.046 221.37C370.983 221.181 370.937 220.994 370.902 220.843C370.832 220.533 370.77 220.181 370.718 219.842C370.603 219.097 370.789 218.375 371.184 217.8C371.166 215.524 371.033 211.494 370.689 204.774C370.561 202.274 370.17 200.592 369.7 199.504C369.094 198.1 368.44 197.811 367.95 197.719C367.229 197.584 366.055 197.756 364.389 198.561C361.441 199.984 358.137 202.807 355.531 205.551L357.594 218.978C357.833 220.529 356.77 221.981 355.22 222.22C353.671 222.458 352.221 221.394 351.983 219.842L347.441 190.28C347.203 188.728 348.266 187.277 349.815 187.038ZM209.21 187.024C210.768 187.205 211.884 188.616 211.703 190.175C210.807 197.912 210.653 203.694 210.962 207.953C211.274 212.25 212.046 214.798 212.838 216.22C213.582 217.554 214.216 217.71 214.473 217.742C214.882 217.794 215.541 217.648 216.326 217.09C217.606 216.183 219.377 216.486 220.283 217.767C221.19 219.048 220.887 220.822 219.608 221.73C218.122 222.783 216.056 223.67 213.769 223.384C211.329 223.078 209.295 221.527 207.881 218.99C206.516 216.541 205.641 213.056 205.3 208.365C204.956 203.636 205.143 197.474 206.064 189.52C206.244 187.961 207.653 186.843 209.21 187.024ZM406.263 187.011C407.827 186.907 409.18 188.092 409.284 189.659L409.895 198.837C411.909 196.389 414.174 194.067 416.452 192.476C418.567 190.999 421.375 189.674 424.266 190.442C426.196 190.954 427.634 192.24 428.687 193.999C429.779 193.299 430.948 192.633 432.158 192.055C434.544 190.913 437.29 190.012 439.996 190.018C442.819 190.024 445.635 191.035 447.684 193.68C449.631 196.192 450.612 199.832 450.733 204.556C450.963 213.528 450.445 219.334 449.63 222.987C449.225 224.799 448.713 226.238 448.075 227.298C447.55 228.171 446.407 229.643 444.489 229.643C442.921 229.643 441.651 228.371 441.651 226.801C441.651 225.659 442.322 224.675 443.291 224.223C443.493 223.836 443.793 223.074 444.089 221.746C444.759 218.747 445.282 213.467 445.058 204.702C444.952 200.557 444.093 198.318 443.199 197.165C442.409 196.146 441.386 195.706 439.984 195.703C438.465 195.7 436.601 196.23 434.605 197.184C433.232 197.841 431.893 198.653 430.692 199.498C433.796 212.111 431.738 223.331 430.125 227.772C429.589 229.247 427.961 230.009 426.487 229.472C425.014 228.936 424.254 227.305 424.79 225.829C426.124 222.155 428.178 211.248 424.728 199.156C423.923 196.334 422.997 195.987 422.81 195.937C422.433 195.837 421.459 195.911 419.699 197.14C416.523 199.357 412.977 203.807 410.481 207.646L411.555 223.769C411.659 225.335 410.476 226.69 408.911 226.794C407.347 226.899 405.994 225.714 405.89 224.147L403.619 190.037C403.515 188.47 404.699 187.116 406.263 187.011ZM443.105 224.519C443.104 224.516 443.12 224.493 443.153 224.457C443.122 224.504 443.105 224.522 443.105 224.519ZM501.38 193.301L501.256 191.37C501.155 189.803 499.805 188.615 498.24 188.716C496.676 188.818 495.489 190.17 495.59 191.736L497.861 226.984C497.962 228.55 499.312 229.738 500.877 229.637C502.441 229.536 503.628 228.184 503.527 226.618L501.936 201.926C504.03 198.568 507.148 194.937 510.227 193.443C511.777 192.691 513.06 192.597 514.191 193.04C515.384 193.508 516.969 194.791 518.61 197.973C525.235 210.828 520.335 224.604 517.031 229.828C516.192 231.154 516.586 232.91 517.91 233.75C519.234 234.59 520.988 234.196 521.827 232.87C525.714 226.724 531.563 210.709 523.654 195.366C521.661 191.499 519.211 188.902 516.259 187.746C513.245 186.565 510.273 187.103 507.751 188.327C505.406 189.465 503.243 191.288 501.38 193.301ZM298.643 266.474C296.073 268.492 293.591 270.882 291.593 273.065C290.533 274.222 288.738 274.3 287.582 273.24C286.427 272.179 286.348 270.381 287.408 269.223C289.573 266.858 292.28 264.246 295.14 262C297.957 259.787 301.112 257.779 304.157 256.832C307.226 255.878 310.859 255.845 313.535 258.715C315.947 261.302 316.867 265.583 316.75 271.203C316.708 273.225 316.66 275.127 316.605 276.916C316.26 288.249 315.686 295.064 315.166 298.823C315.022 299.861 314.878 300.698 314.737 301.35C314.614 301.918 314.446 302.583 314.18 303.115C313.479 304.519 311.774 305.088 310.372 304.386C309.672 304.036 309.18 303.435 308.95 302.747C299.11 305.097 288.533 299.593 286.71 289.86C286.124 286.731 287.628 284.191 289.57 282.388C291.477 280.618 294.111 279.232 296.818 278.143C301.364 276.313 306.748 275.071 310.998 274.368C311.025 273.312 311.051 272.218 311.074 271.085C311.185 265.79 310.208 263.477 309.386 262.595C308.828 261.997 307.891 261.624 305.841 262.261C303.768 262.906 301.254 264.423 298.643 266.474ZM310.814 280.169C307.056 280.848 302.622 281.934 298.935 283.418C296.487 284.404 294.593 285.477 293.43 286.557C292.302 287.603 292.195 288.304 292.29 288.813C293.508 295.316 301.928 299.819 309.732 296.54C310.111 293.254 310.518 288.028 310.814 280.169ZM345.931 262.181C349.371 264.333 351.684 267.555 352.81 269.922C353.484 271.34 352.883 273.036 351.467 273.711C350.052 274.386 348.358 273.784 347.684 272.366C346.917 270.754 345.256 268.462 342.924 267.003C340.72 265.625 337.881 264.946 334.269 266.393C333.606 266.658 332.733 267.37 331.811 268.799C330.911 270.194 330.106 272.055 329.486 274.22C328.239 278.573 327.866 283.703 328.626 287.826C329.416 292.111 331.162 294.246 333.216 294.722C335.525 295.256 339.951 294.225 347.231 287.776C348.405 286.736 350.199 286.846 351.238 288.022C352.276 289.197 352.166 290.994 350.992 292.034C343.511 298.661 337.15 301.467 331.937 300.261C326.468 298.995 323.956 293.811 323.043 288.858C322.1 283.742 322.579 277.715 324.029 272.652C324.757 270.109 325.762 267.698 327.044 265.712C328.303 263.761 329.985 261.986 332.161 261.114C337.632 258.923 342.364 259.95 345.931 262.181ZM364.322 264.09C365.677 262.522 367.648 260.911 370.117 260.911C374.738 260.911 378.666 262.726 381.625 264.857C384.569 266.978 386.721 269.529 387.853 271.343C388.684 272.675 388.28 274.428 386.95 275.26C385.621 276.092 383.87 275.688 383.039 274.356C382.279 273.139 380.627 271.141 378.309 269.472C376.008 267.814 373.217 266.596 370.117 266.596C370.124 266.596 370.122 266.596 370.114 266.599C370.047 266.617 369.526 266.755 368.614 267.81C367.674 268.898 366.678 270.56 365.777 272.646C363.969 276.828 362.788 282.128 362.948 286.533C363.114 291.131 364.603 293.477 366.727 294.136C367.946 294.515 369.853 294.551 372.739 293.592C375.616 292.635 379.27 290.75 383.823 287.573C385.109 286.675 386.878 286.992 387.775 288.28C388.671 289.568 388.355 291.339 387.069 292.237C382.254 295.598 378.102 297.799 374.528 298.987C370.962 300.173 367.774 300.414 365.045 299.566C359.274 297.774 357.463 291.948 357.274 286.739C357.079 281.338 358.488 275.196 360.566 270.388C361.607 267.98 362.878 265.76 364.322 264.09ZM440.501 263.823C445.335 264.286 450.849 266.693 454.384 268.659C455.754 269.422 456.248 271.152 455.486 272.525C454.725 273.897 452.997 274.391 451.626 273.629C448.348 271.805 443.644 269.835 439.961 269.483C438.104 269.305 436.985 269.587 436.403 269.985C436.002 270.259 435.406 270.89 435.406 272.85C435.406 273.996 435.677 274.716 436.011 275.215C436.361 275.736 436.914 276.215 437.768 276.651C439.603 277.587 442.143 278.016 445.152 278.5C446.565 278.727 448.081 278.971 449.462 279.311C450.824 279.647 452.292 280.13 453.533 280.952C454.848 281.823 455.97 283.124 456.369 284.975C456.745 286.722 456.387 288.565 455.632 290.413C454.172 293.987 452.053 296.593 449.492 298.215C446.928 299.838 444.085 300.368 441.387 300.047C436.098 299.419 431.272 295.508 429.824 290.069C429.42 288.552 430.321 286.994 431.836 286.59C433.35 286.185 434.906 287.087 435.31 288.604C436.132 291.693 438.971 294.035 442.056 294.402C443.545 294.579 445.066 294.291 446.458 293.41C447.854 292.526 449.283 290.94 450.378 288.26C450.9 286.981 450.862 286.372 450.819 286.172C450.798 286.076 450.762 285.933 450.401 285.694C449.966 285.405 449.238 285.111 448.105 284.831C446.992 284.557 445.714 284.348 444.252 284.113L443.965 284.067C441.27 283.635 437.889 283.093 435.19 281.716C433.729 280.97 432.326 279.917 431.298 278.384C430.255 276.829 429.728 274.972 429.728 272.85C429.728 269.58 430.835 266.908 433.202 265.29C435.387 263.795 438.101 263.594 440.501 263.823ZM473.819 264.219C478.493 264.845 483.513 266.94 486.697 268.634C488.082 269.37 488.608 271.091 487.872 272.478C487.137 273.864 485.418 274.391 484.034 273.655C481.162 272.127 476.814 270.356 473.067 269.854C471.184 269.602 469.737 269.711 468.763 270.084C467.942 270.399 467.387 270.91 467.083 271.946C466.947 272.409 467.031 272.567 467.121 272.709C467.299 272.989 467.751 273.433 468.75 273.972C470.507 274.921 472.936 275.66 475.747 276.515C476.217 276.658 476.698 276.804 477.188 276.955C480.293 277.912 483.987 279.118 486.376 281.113C487.658 282.184 488.777 283.649 489.102 285.599C489.424 287.531 488.888 289.462 487.83 291.315C483.779 298.414 476.579 300.858 470.384 299.738C464.258 298.63 458.682 293.869 458.682 286.494C458.682 284.924 459.953 283.651 461.521 283.651C463.089 283.651 464.36 284.924 464.36 286.494C464.36 290.489 467.3 293.403 471.393 294.143C475.417 294.871 480.139 293.335 482.901 288.495C483.546 287.364 483.542 286.771 483.502 286.536C483.466 286.319 483.33 285.972 482.74 285.479C481.386 284.348 478.87 283.422 475.518 282.389C475.089 282.257 474.647 282.123 474.195 281.986C471.446 281.155 468.362 280.222 466.055 278.976C464.685 278.236 463.261 277.223 462.332 275.762C461.316 274.163 461.063 272.295 461.636 270.342C462.467 267.513 464.349 265.688 466.734 264.775C468.965 263.92 471.492 263.908 473.819 264.219ZM423.589 271.451C424.857 273.052 425.632 275.132 425.119 277.446C424.441 280.499 422.441 282.524 420.013 283.74C417.675 284.911 414.872 285.386 412.145 285.51C406.754 285.757 400.749 284.671 396.795 283.599C397.111 284.987 397.598 286.539 398.297 288.272C400.605 293.996 402.852 297.054 404.728 298.522C406.425 299.851 407.826 299.907 409.148 299.436C410.688 298.887 412.378 297.505 414.033 295.44C415.652 293.42 417.044 290.986 418.057 288.736C418.702 287.305 420.383 286.668 421.812 287.314C423.241 287.959 423.877 289.643 423.232 291.074C422.069 293.656 420.443 296.524 418.461 298.998C416.514 301.428 414.019 303.735 411.051 304.792C407.864 305.927 404.432 305.506 401.231 303.001C398.209 300.635 395.493 296.502 393.033 290.401C389.886 282.597 389.91 276.41 392.724 271.952C395.509 267.542 400.466 265.721 405.149 265.327C409.867 264.93 414.903 265.907 418.7 267.752C420.595 268.673 422.359 269.897 423.589 271.451ZM396.428 278.127C396.612 276.821 397.016 275.793 397.523 274.991C398.978 272.686 401.863 271.309 405.625 270.992C409.352 270.679 413.364 271.478 416.221 272.867C417.652 273.562 418.615 274.319 419.14 274.982C419.626 275.596 419.631 275.968 419.577 276.213C419.346 277.252 418.716 278.033 417.473 278.656C416.139 279.324 414.23 279.724 411.886 279.831C407.216 280.045 401.74 279.065 398.121 278.068C397.541 277.909 396.955 277.941 396.428 278.127Z" fill="#FCF827"/>
</g>
<g filter="url(#filter1_f_10_46)">
<path fill-rule="evenodd" clip-rule="evenodd" d="M558.2 150.717C559.714 151.123 560.614 152.681 560.209 154.198C557.517 164.274 554.701 177.336 553.235 189.54L556.6 189.86C558.161 190.009 559.305 191.397 559.157 192.96C559.008 194.522 557.622 195.669 556.062 195.52L552.652 195.195C552.267 199.721 552.116 203.998 552.272 207.823C552.462 212.467 553.097 216.264 554.193 218.995C555.282 221.709 556.654 222.989 558.149 223.429C559.738 223.897 562.308 223.676 566.317 221.467C567.691 220.711 569.417 221.213 570.173 222.588C570.928 223.964 570.427 225.692 569.053 226.449C564.458 228.98 560.234 229.97 556.546 228.883C553.604 228.016 551.505 225.983 550.036 223.424C550.23 224.444 549.857 225.534 548.978 226.211C544.37 229.761 539.842 231.361 535.971 229.29C534.142 228.312 532.876 226.692 531.995 224.931C531.114 223.168 530.53 221.093 530.145 218.909C528.626 210.294 529.869 197.945 531.395 189.35C531.669 187.804 533.143 186.774 534.687 187.049C536.23 187.324 537.259 188.799 536.984 190.345C535.483 198.805 534.398 210.334 535.736 217.921C536.065 219.788 536.52 221.283 537.072 222.385C537.623 223.489 538.184 224.028 538.646 224.276C539.357 224.656 541.268 224.978 545.517 221.705C546.68 220.809 548.317 220.956 549.305 221.999C549.172 221.709 549.045 221.414 548.925 221.115C547.482 217.519 546.801 212.985 546.6 208.055C546.431 203.918 546.597 199.373 547 194.656L544.14 194.383C542.579 194.234 541.434 192.846 541.583 191.284C541.732 189.721 543.117 188.575 544.678 188.723L547.582 189C549.084 176.414 551.975 163.018 554.724 152.728C555.129 151.212 556.685 150.311 558.2 150.717ZM539.133 157.471C540.685 157.693 541.763 159.133 541.542 160.687L538.703 180.585C538.481 182.139 537.043 183.219 535.491 182.997C533.939 182.775 532.861 181.335 533.083 179.781L535.921 159.883C536.143 158.329 537.581 157.249 539.133 157.471ZM155.054 159.755C156.601 159.499 158.062 160.547 158.318 162.095C160.296 174.076 163.766 191.605 167.738 205.3C169.737 212.191 171.805 217.9 173.786 221.445C174.769 223.204 175.554 224.1 176.043 224.453C176.631 223.952 177.381 223.028 178.242 221.55C179.144 220 180.068 218.019 180.996 215.669C182.851 210.972 184.638 205.028 186.278 198.622C189.554 185.82 192.177 171.45 193.587 162.133C193.822 160.581 195.269 159.514 196.819 159.749C198.369 159.984 199.435 161.433 199.2 162.985C197.771 172.429 195.114 186.996 191.777 200.033C190.11 206.546 188.255 212.747 186.275 217.76C185.285 220.266 184.242 222.532 183.146 224.414C182.073 226.256 180.84 227.923 179.401 229.044C178.488 229.755 177.379 230.228 176.123 230.235C174.892 230.242 173.818 229.801 172.948 229.22C171.305 228.123 169.96 226.24 168.832 224.222C166.516 220.079 164.304 213.843 162.287 206.886C158.226 192.885 154.713 175.11 152.717 163.023C152.461 161.474 153.507 160.011 155.054 159.755ZM208.883 159.717C210.451 159.717 211.722 160.989 211.722 162.559V175.635C211.722 177.205 210.451 178.477 208.883 178.477C207.316 178.477 206.045 177.205 206.045 175.635V162.559C206.045 160.989 207.316 159.717 208.883 159.717ZM228.347 177.593L230.341 203.275C232.45 204.021 235.032 204.232 237.282 203.177C239.892 201.954 243.028 198.549 244.102 189.512C244.629 185.081 244.065 182.229 243.131 180.421C242.234 178.683 240.862 177.646 239.133 177.064C236.019 176.017 231.87 176.51 228.347 177.593ZM230.808 209.28C233.522 209.82 236.661 209.745 239.689 208.326C244.78 205.939 248.543 200.248 249.74 190.184C250.348 185.063 249.801 180.96 248.174 177.81C246.511 174.588 243.873 172.662 240.942 171.675C235.335 169.789 228.601 171.29 224.304 172.991L222.355 173.763L226.491 227.021C226.613 228.586 227.979 229.756 229.542 229.635C231.105 229.513 232.273 228.145 232.152 226.58L230.808 209.28ZM302.145 179.771C305.569 182.209 307.686 186.139 308.647 188.918C309.16 190.401 308.374 192.02 306.893 192.534C305.411 193.047 303.795 192.261 303.282 190.777C302.539 188.629 300.967 185.908 298.855 184.404C297.851 183.689 296.782 183.286 295.618 183.267C294.453 183.247 292.941 183.608 291.047 184.84C290.218 185.38 289.301 186.456 288.45 188.198C287.614 189.91 286.938 192.073 286.48 194.513C285.56 199.41 285.587 205.05 286.659 209.67C287.777 214.489 289.772 217.23 291.948 217.986C293.979 218.692 297.793 218.181 304.003 212.238C305.137 211.154 306.934 211.195 308.017 212.33C309.1 213.465 309.059 215.264 307.925 216.349C301.362 222.629 295.311 225.173 290.086 223.357C285.006 221.59 282.353 216.23 281.129 210.957C279.86 205.487 279.851 199.046 280.9 193.461C281.427 190.66 282.236 187.982 283.35 185.701C284.449 183.45 285.944 181.382 287.953 180.074C290.601 178.35 293.206 177.54 295.713 177.582C298.221 177.625 300.381 178.515 302.145 179.771ZM333.453 181.429C337.052 184.543 340.169 189.193 341.952 192.466L342.126 192.785L342.214 193.138C343.14 196.847 343.768 202.671 342.592 208.231C341.402 213.857 338.246 219.594 331.338 222.085C329.048 222.91 326.803 222.994 324.72 222.286C322.67 221.588 321.039 220.213 319.773 218.571C317.296 215.357 315.886 210.704 315.218 206.026C314.541 201.276 314.576 196.125 315.277 191.63C315.953 187.293 317.339 182.965 319.853 180.447C321.981 178.316 324.542 177.595 327.127 178.063C329.508 178.493 331.665 179.882 333.453 181.429ZM326.118 183.657C325.381 183.524 324.692 183.641 323.868 184.467C322.692 185.645 321.523 188.423 320.886 192.507C320.274 196.433 320.239 201.017 320.839 205.222C321.449 209.497 322.664 213.016 324.267 215.097C325.042 216.102 325.815 216.654 326.546 216.903C327.244 217.14 328.157 217.189 329.415 216.736C333.861 215.133 336.099 211.489 337.038 207.053C337.956 202.716 337.519 197.99 336.791 194.866C335.15 191.925 332.512 188.128 329.741 185.731C328.293 184.478 327.058 183.827 326.118 183.657ZM594.031 187.12C595.536 187.561 596.398 189.141 595.957 190.647C592.713 201.73 587.008 218.111 580.411 231.208C577.125 237.73 573.525 243.629 569.781 247.644C566.184 251.501 561.557 254.529 556.541 252.797C555.059 252.285 554.272 250.667 554.783 249.183C555.294 247.699 556.91 246.91 558.392 247.422C559.961 247.964 562.294 247.344 565.632 243.764C568.824 240.341 572.136 235.011 575.342 228.647C576.576 226.197 577.781 223.621 578.945 220.981C578.866 220.862 578.795 220.735 578.733 220.601L565.108 191.039C564.451 189.613 565.072 187.925 566.496 187.267C567.919 186.609 569.606 187.231 570.263 188.656L581.907 213.92C585.471 205.01 588.477 195.99 590.509 189.048C590.95 187.542 592.527 186.678 594.031 187.12ZM462.228 187.095C463.746 187.486 464.661 189.035 464.27 190.556C462.601 197.056 461.036 206.518 461.598 213.936C461.882 217.689 462.684 220.495 463.909 222.175C464.487 222.968 465.133 223.477 465.867 223.77C466.607 224.065 467.619 224.213 469.031 223.992C474.12 223.196 477.401 219.008 479.324 212.62C481.224 206.311 481.493 198.694 481.091 192.879L480.836 190.109L486.482 189.518C486.587 190.424 486.678 191.396 486.75 192.42L489.895 226.539C490.039 228.103 488.891 229.487 487.329 229.631C485.768 229.775 484.386 228.625 484.242 227.062L483.406 217.99C480.944 223.674 476.773 228.535 469.907 229.609C467.686 229.957 465.618 229.791 463.763 229.05C461.902 228.307 460.439 227.057 459.324 225.528C457.164 222.565 456.249 218.478 455.937 214.366C455.307 206.056 457.035 195.904 458.772 189.14C459.162 187.619 460.71 186.704 462.228 187.095ZM349.815 187.038C351.365 186.799 352.814 187.864 353.052 189.415L354.473 198.663C356.761 196.615 359.351 194.682 361.923 193.44C364.048 192.414 366.542 191.672 368.994 192.131C370.533 192.42 371.855 193.14 372.931 194.229C375.993 191.955 379.942 189.661 383.796 188.831C386.35 188.281 389.219 188.302 391.745 189.819C394.312 191.363 395.951 194.106 396.737 197.78C399.567 211.004 397.942 222.988 396.7 227.549C396.288 229.063 394.727 229.956 393.215 229.543C391.702 229.13 390.811 227.567 391.223 226.053C392.252 222.275 393.806 211.216 391.186 198.971C390.61 196.277 389.62 195.173 388.823 194.694C387.983 194.189 386.749 194.01 384.99 194.389C381.937 195.046 378.399 197.154 375.62 199.324C376.018 200.827 376.259 202.548 376.358 204.483C376.811 213.326 376.915 217.766 376.843 219.7C376.826 220.152 376.795 220.651 376.709 221.068C376.685 221.185 376.643 221.362 376.571 221.562C376.516 221.713 376.357 222.129 375.991 222.54C375.561 223.021 374.6 223.714 373.278 223.445C372.25 223.235 371.704 222.553 371.561 222.367C371.231 221.938 371.086 221.493 371.049 221.381L371.046 221.37C370.983 221.181 370.937 220.994 370.902 220.843C370.832 220.533 370.77 220.181 370.718 219.842C370.603 219.097 370.789 218.375 371.184 217.8C371.166 215.524 371.033 211.494 370.689 204.774C370.561 202.274 370.17 200.592 369.7 199.504C369.094 198.1 368.44 197.811 367.95 197.719C367.229 197.584 366.055 197.756 364.389 198.561C361.441 199.984 358.137 202.807 355.531 205.551L357.594 218.978C357.833 220.529 356.77 221.981 355.22 222.22C353.671 222.458 352.221 221.394 351.983 219.842L347.441 190.28C347.203 188.728 348.266 187.277 349.815 187.038ZM209.21 187.024C210.768 187.205 211.884 188.616 211.703 190.175C210.807 197.912 210.653 203.694 210.962 207.953C211.274 212.25 212.046 214.798 212.838 216.22C213.582 217.554 214.216 217.71 214.473 217.742C214.882 217.794 215.541 217.648 216.326 217.09C217.606 216.183 219.377 216.486 220.283 217.767C221.19 219.048 220.887 220.822 219.608 221.73C218.122 222.783 216.056 223.67 213.769 223.384C211.329 223.078 209.295 221.527 207.881 218.99C206.516 216.541 205.641 213.056 205.3 208.365C204.956 203.636 205.143 197.474 206.064 189.52C206.244 187.961 207.653 186.843 209.21 187.024ZM406.263 187.011C407.827 186.907 409.18 188.092 409.284 189.659L409.895 198.837C411.909 196.389 414.174 194.067 416.452 192.476C418.567 190.999 421.375 189.674 424.266 190.442C426.196 190.954 427.634 192.24 428.687 193.999C429.779 193.299 430.948 192.633 432.158 192.055C434.544 190.913 437.29 190.012 439.996 190.018C442.819 190.024 445.635 191.035 447.684 193.68C449.631 196.192 450.612 199.832 450.733 204.556C450.963 213.528 450.445 219.334 449.63 222.987C449.225 224.799 448.713 226.238 448.075 227.298C447.55 228.171 446.407 229.643 444.489 229.643C442.921 229.643 441.651 228.371 441.651 226.801C441.651 225.659 442.322 224.675 443.291 224.223C443.493 223.836 443.793 223.074 444.089 221.746C444.759 218.747 445.282 213.467 445.058 204.702C444.952 200.557 444.093 198.318 443.199 197.165C442.409 196.146 441.386 195.706 439.984 195.703C438.465 195.7 436.601 196.23 434.605 197.184C433.232 197.841 431.893 198.653 430.692 199.498C433.796 212.111 431.738 223.331 430.125 227.772C429.589 229.247 427.961 230.009 426.487 229.472C425.014 228.936 424.254 227.305 424.79 225.829C426.124 222.155 428.178 211.248 424.728 199.156C423.923 196.334 422.997 195.987 422.81 195.937C422.433 195.837 421.459 195.911 419.699 197.14C416.523 199.357 412.977 203.807 410.481 207.646L411.555 223.769C411.659 225.335 410.476 226.69 408.911 226.794C407.347 226.899 405.994 225.714 405.89 224.147L403.619 190.037C403.515 188.47 404.699 187.116 406.263 187.011ZM443.105 224.519C443.104 224.516 443.12 224.493 443.153 224.457C443.122 224.504 443.105 224.522 443.105 224.519ZM501.38 193.301L501.256 191.37C501.155 189.803 499.805 188.615 498.24 188.716C496.676 188.818 495.489 190.17 495.59 191.736L497.861 226.984C497.962 228.55 499.312 229.738 500.877 229.637C502.441 229.536 503.628 228.184 503.527 226.618L501.936 201.926C504.03 198.568 507.148 194.937 510.227 193.443C511.777 192.691 513.06 192.597 514.191 193.04C515.384 193.508 516.969 194.791 518.61 197.973C525.235 210.828 520.335 224.604 517.031 229.828C516.192 231.154 516.586 232.91 517.91 233.75C519.234 234.59 520.988 234.196 521.827 232.87C525.714 226.724 531.563 210.709 523.654 195.366C521.661 191.499 519.211 188.902 516.259 187.746C513.245 186.565 510.273 187.103 507.751 188.327C505.406 189.465 503.243 191.288 501.38 193.301ZM298.643 266.474C296.073 268.492 293.591 270.882 291.593 273.065C290.533 274.222 288.738 274.3 287.582 273.24C286.427 272.179 286.348 270.381 287.408 269.223C289.573 266.858 292.28 264.246 295.14 262C297.957 259.787 301.112 257.779 304.157 256.832C307.226 255.878 310.859 255.845 313.535 258.715C315.947 261.302 316.867 265.583 316.75 271.203C316.708 273.225 316.66 275.127 316.605 276.916C316.26 288.249 315.686 295.064 315.166 298.823C315.022 299.861 314.878 300.698 314.737 301.35C314.614 301.918 314.446 302.583 314.18 303.115C313.479 304.519 311.774 305.088 310.372 304.386C309.672 304.036 309.18 303.435 308.95 302.747C299.11 305.097 288.533 299.593 286.71 289.86C286.124 286.731 287.628 284.191 289.57 282.388C291.477 280.618 294.111 279.232 296.818 278.143C301.364 276.313 306.748 275.071 310.998 274.368C311.025 273.312 311.051 272.218 311.074 271.085C311.185 265.79 310.208 263.477 309.386 262.595C308.828 261.997 307.891 261.624 305.841 262.261C303.768 262.906 301.254 264.423 298.643 266.474ZM310.814 280.169C307.056 280.848 302.622 281.934 298.935 283.418C296.487 284.404 294.593 285.477 293.43 286.557C292.302 287.603 292.195 288.304 292.29 288.813C293.508 295.316 301.928 299.819 309.732 296.54C310.111 293.254 310.518 288.028 310.814 280.169ZM345.931 262.181C349.371 264.333 351.684 267.555 352.81 269.922C353.484 271.34 352.883 273.036 351.467 273.711C350.052 274.386 348.358 273.784 347.684 272.366C346.917 270.754 345.256 268.462 342.924 267.003C340.72 265.625 337.881 264.946 334.269 266.393C333.606 266.658 332.733 267.37 331.811 268.799C330.911 270.194 330.106 272.055 329.486 274.22C328.239 278.573 327.866 283.703 328.626 287.826C329.416 292.111 331.162 294.246 333.216 294.722C335.525 295.256 339.951 294.225 347.231 287.776C348.405 286.736 350.199 286.846 351.238 288.022C352.276 289.197 352.166 290.994 350.992 292.034C343.511 298.661 337.15 301.467 331.937 300.261C326.468 298.995 323.956 293.811 323.043 288.858C322.1 283.742 322.579 277.715 324.029 272.652C324.757 270.109 325.762 267.698 327.044 265.712C328.303 263.761 329.985 261.986 332.161 261.114C337.632 258.923 342.364 259.95 345.931 262.181ZM364.322 264.09C365.677 262.522 367.648 260.911 370.117 260.911C374.738 260.911 378.666 262.726 381.625 264.857C384.569 266.978 386.721 269.529 387.853 271.343C388.684 272.675 388.28 274.428 386.95 275.26C385.621 276.092 383.87 275.688 383.039 274.356C382.279 273.139 380.627 271.141 378.309 269.472C376.008 267.814 373.217 266.596 370.117 266.596C370.124 266.596 370.122 266.596 370.114 266.599C370.047 266.617 369.526 266.755 368.614 267.81C367.674 268.898 366.678 270.56 365.777 272.646C363.969 276.828 362.788 282.128 362.948 286.533C363.114 291.131 364.603 293.477 366.727 294.136C367.946 294.515 369.853 294.551 372.739 293.592C375.616 292.635 379.27 290.75 383.823 287.573C385.109 286.675 386.878 286.992 387.775 288.28C388.671 289.568 388.355 291.339 387.069 292.237C382.254 295.598 378.102 297.799 374.528 298.987C370.962 300.173 367.774 300.414 365.045 299.566C359.274 297.774 357.463 291.948 357.274 286.739C357.079 281.338 358.488 275.196 360.566 270.388C361.607 267.98 362.878 265.76 364.322 264.09ZM440.501 263.823C445.335 264.286 450.849 266.693 454.384 268.659C455.754 269.422 456.248 271.152 455.486 272.525C454.725 273.897 452.997 274.391 451.626 273.629C448.348 271.805 443.644 269.835 439.961 269.483C438.104 269.305 436.985 269.587 436.403 269.985C436.002 270.259 435.406 270.89 435.406 272.85C435.406 273.996 435.677 274.716 436.011 275.215C436.361 275.736 436.914 276.215 437.768 276.651C439.603 277.587 442.143 278.016 445.152 278.5C446.565 278.727 448.081 278.971 449.462 279.311C450.824 279.647 452.292 280.13 453.533 280.952C454.848 281.823 455.97 283.124 456.369 284.975C456.745 286.722 456.387 288.565 455.632 290.413C454.172 293.987 452.053 296.593 449.492 298.215C446.928 299.838 444.085 300.368 441.387 300.047C436.098 299.419 431.272 295.508 429.824 290.069C429.42 288.552 430.321 286.994 431.836 286.59C433.35 286.185 434.906 287.087 435.31 288.604C436.132 291.693 438.971 294.035 442.056 294.402C443.545 294.579 445.066 294.291 446.458 293.41C447.854 292.526 449.283 290.94 450.378 288.26C450.9 286.981 450.862 286.372 450.819 286.172C450.798 286.076 450.762 285.933 450.401 285.694C449.966 285.405 449.238 285.111 448.105 284.831C446.992 284.557 445.714 284.348 444.252 284.113L443.965 284.067C441.27 283.635 437.889 283.093 435.19 281.716C433.729 280.97 432.326 279.917 431.298 278.384C430.255 276.829 429.728 274.972 429.728 272.85C429.728 269.58 430.835 266.908 433.202 265.29C435.387 263.795 438.101 263.594 440.501 263.823ZM473.819 264.219C478.493 264.845 483.513 266.94 486.697 268.634C488.082 269.37 488.608 271.091 487.872 272.478C487.137 273.864 485.418 274.391 484.034 273.655C481.162 272.127 476.814 270.356 473.067 269.854C471.184 269.602 469.737 269.711 468.763 270.084C467.942 270.399 467.387 270.91 467.083 271.946C466.947 272.409 467.031 272.567 467.121 272.709C467.299 272.989 467.751 273.433 468.75 273.972C470.507 274.921 472.936 275.66 475.747 276.515C476.217 276.658 476.698 276.804 477.188 276.955C480.293 277.912 483.987 279.118 486.376 281.113C487.658 282.184 488.777 283.649 489.102 285.599C489.424 287.531 488.888 289.462 487.83 291.315C483.779 298.414 476.579 300.858 470.384 299.738C464.258 298.63 458.682 293.869 458.682 286.494C458.682 284.924 459.953 283.651 461.521 283.651C463.089 283.651 464.36 284.924 464.36 286.494C464.36 290.489 467.3 293.403 471.393 294.143C475.417 294.871 480.139 293.335 482.901 288.495C483.546 287.364 483.542 286.771 483.502 286.536C483.466 286.319 483.33 285.972 482.74 285.479C481.386 284.348 478.87 283.422 475.518 282.389C475.089 282.257 474.647 282.123 474.195 281.986C471.446 281.155 468.362 280.222 466.055 278.976C464.685 278.236 463.261 277.223 462.332 275.762C461.316 274.163 461.063 272.295 461.636 270.342C462.467 267.513 464.349 265.688 466.734 264.775C468.965 263.92 471.492 263.908 473.819 264.219ZM423.589 271.451C424.857 273.052 425.632 275.132 425.119 277.446C424.441 280.499 422.441 282.524 420.013 283.74C417.675 284.911 414.872 285.386 412.145 285.51C406.754 285.757 400.749 284.671 396.795 283.599C397.111 284.987 397.598 286.539 398.297 288.272C400.605 293.996 402.852 297.054 404.728 298.522C406.425 299.851 407.826 299.907 409.148 299.436C410.688 298.887 412.378 297.505 414.033 295.44C415.652 293.42 417.044 290.986 418.057 288.736C418.702 287.305 420.383 286.668 421.812 287.314C423.241 287.959 423.877 289.643 423.232 291.074C422.069 293.656 420.443 296.524 418.461 298.998C416.514 301.428 414.019 303.735 411.051 304.792C407.864 305.927 404.432 305.506 401.231 303.001C398.209 300.635 395.493 296.502 393.033 290.401C389.886 282.597 389.91 276.41 392.724 271.952C395.509 267.542 400.466 265.721 405.149 265.327C409.867 264.93 414.903 265.907 418.7 267.752C420.595 268.673 422.359 269.897 423.589 271.451ZM396.428 278.127C396.612 276.821 397.016 275.793 397.523 274.991C398.978 272.686 401.863 271.309 405.625 270.992C409.352 270.679 413.364 271.478 416.221 272.867C417.652 273.562 418.615 274.319 419.14 274.982C419.626 275.596 419.631 275.968 419.577 276.213C419.346 277.252 418.716 278.033 417.473 278.656C416.139 279.324 414.23 279.724 411.886 279.831C407.216 280.045 401.74 279.065 398.121 278.068C397.541 277.909 396.955 277.941 396.428 278.127Z" fill="#FCF827"/>
</g>
<g opacity="0.8" filter="url(#filter2_f_10_46)">
<path fill-rule="evenodd" clip-rule="evenodd" d="M560.292 152.809C561.806 153.214 562.705 154.773 562.3 156.289C559.608 166.365 556.793 179.428 555.327 191.631L558.692 191.952C560.252 192.101 561.397 193.488 561.248 195.051C561.1 196.614 559.714 197.76 558.153 197.611L554.743 197.286C554.358 201.812 554.208 206.09 554.364 209.915C554.553 214.559 555.189 218.355 556.284 221.086C557.374 223.801 558.746 225.08 560.24 225.521C561.829 225.989 564.399 225.767 568.409 223.559C569.783 222.802 571.509 223.304 572.264 224.68C573.02 226.055 572.519 227.784 571.145 228.54C566.549 231.071 562.325 232.061 558.637 230.974C555.695 230.107 553.597 228.075 552.128 225.515C552.322 226.536 551.948 227.626 551.07 228.303C546.462 231.852 541.934 233.453 538.062 231.381C536.234 230.403 534.968 228.784 534.087 227.023C533.205 225.26 532.622 223.184 532.237 221.001C530.717 212.385 531.961 200.036 533.486 191.442C533.761 189.896 535.235 188.866 536.778 189.14C538.322 189.415 539.35 190.891 539.076 192.437C537.574 200.897 536.49 212.425 537.828 220.012C538.157 221.879 538.612 223.375 539.163 224.477C539.715 225.58 540.276 226.12 540.738 226.367C541.448 226.747 543.36 227.069 547.608 223.796C548.772 222.9 550.408 223.047 551.396 224.091C551.263 223.8 551.137 223.505 551.017 223.206C549.574 219.61 548.892 215.076 548.691 210.147C548.523 206.009 548.688 201.464 549.091 196.747L546.231 196.474C544.67 196.325 543.526 194.938 543.674 193.375C543.823 191.812 545.209 190.666 546.769 190.815L549.673 191.092C551.176 178.505 554.067 165.11 556.816 154.82C557.221 153.303 558.777 152.403 560.292 152.809ZM541.224 159.563C542.776 159.785 543.855 161.225 543.633 162.779L540.794 182.676C540.573 184.231 539.135 185.31 537.583 185.088C536.031 184.866 534.953 183.427 535.174 181.872L538.013 161.975C538.235 160.421 539.673 159.341 541.224 159.563ZM157.146 161.846C158.692 161.59 160.154 162.638 160.409 164.187C162.388 176.167 165.858 193.696 169.83 207.391C171.829 214.282 173.896 219.992 175.877 223.537C176.861 225.296 177.646 226.192 178.135 226.544C178.722 226.044 179.473 225.12 180.334 223.641C181.236 222.092 182.16 220.11 183.088 217.761C184.943 213.063 186.729 207.12 188.369 200.713C191.646 187.912 194.269 173.541 195.678 164.225C195.913 162.673 197.36 161.605 198.91 161.84C200.46 162.075 201.526 163.524 201.292 165.077C199.863 174.521 197.206 189.087 193.869 202.125C192.201 208.637 190.347 214.839 188.367 219.852C187.377 222.358 186.334 224.623 185.238 226.505C184.165 228.348 182.932 230.015 181.493 231.136C180.58 231.847 179.47 232.32 178.214 232.327C176.984 232.334 175.909 231.893 175.039 231.312C173.397 230.215 172.051 228.331 170.923 226.313C168.608 222.17 166.396 215.934 164.378 208.977C160.317 194.976 156.804 177.201 154.808 165.114C154.552 163.566 155.599 162.102 157.146 161.846ZM210.975 161.808C212.543 161.808 213.814 163.081 213.814 164.651V177.726C213.814 179.296 212.543 180.569 210.975 180.569C209.407 180.569 208.136 179.296 208.136 177.726V164.651C208.136 163.081 209.407 161.808 210.975 161.808ZM230.438 179.685L232.433 205.367C234.541 206.112 237.124 206.323 239.374 205.269C241.983 204.045 245.119 200.641 246.194 191.603C246.721 187.173 246.156 184.321 245.223 182.512C244.325 180.774 242.953 179.738 241.225 179.156C238.111 178.108 233.961 178.602 230.438 179.685ZM232.899 211.371C235.614 211.911 238.753 211.837 241.781 210.418C246.872 208.031 250.635 202.339 251.831 192.275C252.44 187.155 251.892 183.052 250.265 179.901C248.602 176.68 245.964 174.753 243.033 173.767C237.427 171.88 230.692 173.382 226.395 175.083L224.446 175.854L228.583 229.113C228.705 230.678 230.07 231.848 231.633 231.726C233.196 231.604 234.365 230.237 234.243 228.672L232.899 211.371ZM304.237 181.862C307.66 184.3 309.778 188.231 310.738 191.009C311.251 192.493 310.466 194.112 308.984 194.625C307.503 195.139 305.886 194.352 305.373 192.869C304.631 190.72 303.058 187.999 300.946 186.495C299.942 185.78 298.874 185.378 297.709 185.358C296.544 185.339 295.033 185.699 293.139 186.932C292.31 187.471 291.392 188.547 290.542 190.289C289.706 192.001 289.03 194.165 288.571 196.604C287.651 201.502 287.678 207.141 288.751 211.762C289.869 216.58 291.864 219.321 294.04 220.078C296.071 220.784 299.885 220.272 306.095 214.33C307.228 213.245 309.025 213.286 310.108 214.421C311.191 215.556 311.15 217.355 310.017 218.44C303.453 224.721 297.403 227.265 292.178 225.448C287.097 223.682 284.444 218.321 283.221 213.049C281.951 207.578 281.943 201.137 282.992 195.553C283.518 192.751 284.328 190.074 285.441 187.793C286.54 185.542 288.035 183.473 290.045 182.165C292.693 180.442 295.297 179.632 297.805 179.674C300.313 179.716 302.473 180.607 304.237 181.862ZM335.545 183.52C339.143 186.634 342.261 191.285 344.044 194.557L344.217 194.877L344.306 195.229C345.232 198.939 345.86 204.762 344.683 210.323C343.493 215.948 340.338 221.686 333.43 224.176C331.14 225.002 328.895 225.086 326.811 224.377C324.761 223.68 323.131 222.305 321.865 220.662C319.388 217.449 317.977 212.795 317.31 208.117C316.632 203.368 316.668 198.216 317.369 193.721C318.045 189.384 319.431 185.056 321.945 182.538C324.073 180.408 326.634 179.687 329.218 180.154C331.599 180.585 333.757 181.974 335.545 183.52ZM328.21 185.749C327.473 185.615 326.784 185.733 325.959 186.558C324.783 187.736 323.615 190.514 322.978 194.598C322.366 198.524 322.33 203.109 322.93 207.313C323.54 211.589 324.755 215.108 326.359 217.189C327.133 218.193 327.907 218.746 328.638 218.994C329.335 219.232 330.248 219.281 331.507 218.827C335.953 217.224 338.191 213.581 339.129 209.144C340.047 204.807 339.61 200.081 338.882 196.958C337.242 194.017 334.604 190.22 331.833 187.822C330.384 186.569 329.15 185.919 328.21 185.749ZM596.123 189.211C597.627 189.653 598.49 191.232 598.049 192.739C594.805 203.821 589.099 220.202 582.502 233.299C579.217 239.821 575.617 245.72 571.873 249.735C568.276 253.593 563.648 256.62 558.633 254.888C557.15 254.376 556.363 252.758 556.874 251.274C557.385 249.79 559.001 249.002 560.483 249.514C562.053 250.056 564.385 249.435 567.724 245.855C570.915 242.432 574.227 237.103 577.433 230.739C578.668 228.288 579.872 225.712 581.036 223.072C580.957 222.953 580.887 222.826 580.825 222.693L567.2 193.13C566.543 191.705 567.164 190.016 568.587 189.358C570.011 188.7 571.697 189.322 572.354 190.748L583.998 216.011C587.563 207.101 590.569 198.081 592.601 191.14C593.042 189.633 594.619 188.77 596.123 189.211ZM464.319 189.186C465.838 189.577 466.752 191.127 466.362 192.647C464.692 199.147 463.127 208.609 463.689 216.028C463.974 219.78 464.776 222.587 466.001 224.267C466.579 225.059 467.225 225.568 467.958 225.861C468.699 226.157 469.711 226.305 471.122 226.084C476.211 225.287 479.493 221.099 481.416 214.712C483.315 208.403 483.585 200.786 483.182 194.97L482.927 192.2L488.573 191.61C488.679 192.515 488.77 193.487 488.841 194.511L491.987 228.631C492.131 230.194 490.982 231.578 489.421 231.723C487.86 231.867 486.478 230.717 486.333 229.153L485.497 220.082C483.035 225.765 478.865 230.626 471.999 231.701C469.777 232.048 467.709 231.882 465.855 231.142C463.994 230.398 462.531 229.148 461.416 227.619C459.256 224.656 458.34 220.57 458.029 216.458C457.399 208.147 459.126 197.996 460.863 191.231C461.254 189.711 462.801 188.795 464.319 189.186ZM351.907 189.13C353.456 188.891 354.906 189.955 355.144 191.507L356.565 200.754C358.853 198.706 361.443 196.773 364.015 195.531C366.14 194.505 368.633 193.763 371.085 194.223C372.624 194.511 373.947 195.231 375.023 196.321C378.084 194.047 382.033 191.752 385.888 190.922C388.442 190.373 391.311 190.393 393.836 191.911C396.404 193.454 398.043 196.198 398.829 199.871C401.659 213.096 400.034 225.08 398.792 229.64C398.379 231.155 396.819 232.048 395.306 231.634C393.794 231.221 392.902 229.659 393.315 228.144C394.344 224.366 395.898 213.307 393.278 201.062C392.701 198.369 391.712 197.265 390.914 196.785C390.074 196.28 388.84 196.102 387.081 196.48C384.028 197.138 380.491 199.246 377.711 201.415C378.109 202.919 378.351 204.639 378.45 206.575C378.903 215.418 379.006 219.858 378.934 221.792C378.918 222.244 378.887 222.742 378.801 223.159C378.777 223.277 378.735 223.454 378.663 223.653C378.608 223.804 378.449 224.221 378.082 224.632C377.653 225.113 376.691 225.805 375.369 225.536C374.342 225.327 373.796 224.645 373.653 224.459C373.323 224.03 373.177 223.584 373.141 223.472L373.137 223.462C373.075 223.272 373.028 223.085 372.994 222.934C372.923 222.625 372.862 222.273 372.81 221.934C372.695 221.189 372.881 220.467 373.276 219.891C373.258 217.616 373.124 213.585 372.78 206.866C372.652 204.365 372.262 202.684 371.792 201.595C371.185 200.191 370.532 199.903 370.041 199.811C369.32 199.676 368.147 199.848 366.481 200.652C363.532 202.076 360.228 204.898 357.623 207.642L359.686 221.069C359.924 222.621 358.861 224.072 357.312 224.311C355.762 224.55 354.313 223.485 354.075 221.934L349.533 192.371C349.294 190.82 350.357 189.368 351.907 189.13ZM211.302 189.115C212.859 189.296 213.975 190.707 213.795 192.266C212.899 200.003 212.745 205.785 213.054 210.044C213.366 214.341 214.137 216.89 214.93 218.311C215.673 219.645 216.307 219.802 216.564 219.834C216.974 219.885 217.632 219.739 218.418 219.182C219.697 218.274 221.469 218.577 222.375 219.858C223.281 221.14 222.979 222.914 221.699 223.821C220.214 224.875 218.148 225.761 215.86 225.475C213.421 225.17 211.386 223.618 209.972 221.082C208.607 218.633 207.732 215.148 207.392 210.457C207.048 205.727 207.234 199.566 208.155 191.612C208.336 190.052 209.745 188.935 211.302 189.115ZM408.354 189.103C409.919 188.998 411.271 190.184 411.375 191.75L411.987 200.928C414.001 198.481 416.265 196.158 418.544 194.568C420.659 193.091 423.467 191.765 426.358 192.533C428.287 193.046 429.725 194.331 430.779 196.091C431.87 195.39 433.04 194.725 434.249 194.146C436.636 193.004 439.381 192.104 442.088 192.11C444.91 192.116 447.726 193.126 449.776 195.771C451.722 198.283 452.704 201.923 452.825 206.647C453.054 215.619 452.537 221.426 451.721 225.078C451.316 226.89 450.805 228.329 450.167 229.389C449.642 230.262 448.498 231.735 446.581 231.735C445.013 231.735 443.742 230.462 443.742 228.892C443.742 227.751 444.414 226.767 445.383 226.314C445.584 225.928 445.884 225.166 446.181 223.837C446.851 220.838 447.374 215.559 447.149 206.793C447.043 202.649 446.184 200.41 445.291 199.257C444.501 198.237 443.477 197.798 442.075 197.795C440.557 197.791 438.692 198.321 436.696 199.276C435.324 199.933 433.984 200.745 432.784 201.589C435.888 214.203 433.829 225.422 432.217 229.864C431.681 231.339 430.052 232.1 428.579 231.564C427.106 231.027 426.345 229.396 426.881 227.921C428.216 224.246 430.27 213.34 426.82 201.248C426.014 198.425 425.089 198.078 424.902 198.028C424.525 197.928 423.551 198.003 421.791 199.231C418.615 201.448 415.069 205.899 412.573 209.738L413.646 225.86C413.751 227.427 412.567 228.781 411.003 228.886C409.439 228.99 408.086 227.805 407.982 226.239L405.711 192.128C405.607 190.562 406.79 189.207 408.354 189.103ZM445.196 226.61C445.196 226.608 445.212 226.584 445.245 226.548C445.213 226.595 445.197 226.613 445.196 226.61ZM503.472 195.393L503.347 193.462C503.246 191.895 501.896 190.707 500.332 190.808C498.767 190.909 497.581 192.261 497.682 193.828L499.953 229.075C500.054 230.642 501.404 231.83 502.968 231.729C504.533 231.628 505.719 230.276 505.618 228.709L504.027 204.017C506.121 200.66 509.24 197.029 512.319 195.535C513.868 194.783 515.151 194.689 516.282 195.132C517.476 195.599 519.061 196.883 520.701 200.065C527.327 212.92 522.426 226.695 519.122 231.919C518.283 233.246 518.677 235.002 520.002 235.842C521.326 236.682 523.08 236.287 523.919 234.961C527.806 228.815 533.654 212.801 525.746 197.457C523.753 193.59 521.302 190.994 518.35 189.837C515.336 188.656 512.365 189.195 509.843 190.419C507.497 191.557 505.334 193.379 503.472 195.393ZM300.735 268.565C298.165 270.583 295.683 272.973 293.684 275.157C292.625 276.314 290.829 276.392 289.674 275.331C288.518 274.27 288.44 272.472 289.499 271.315C291.664 268.95 294.372 266.337 297.231 264.092C300.049 261.879 303.203 259.871 306.249 258.923C309.318 257.969 312.951 257.937 315.627 260.807C318.039 263.393 318.959 267.675 318.842 273.295C318.8 275.317 318.751 277.219 318.697 279.008C318.351 290.34 317.777 297.155 317.257 300.914C317.114 301.953 316.97 302.79 316.829 303.441C316.706 304.01 316.537 304.675 316.272 305.206C315.571 306.611 313.866 307.18 312.464 306.478C311.764 306.127 311.272 305.527 311.041 304.838C301.201 307.188 290.624 301.685 288.802 291.952C288.216 288.822 289.719 286.282 291.662 284.479C293.568 282.709 296.203 281.324 298.91 280.235C303.455 278.405 308.839 277.162 313.089 276.46C313.117 275.403 313.142 274.309 313.166 273.177C313.276 267.881 312.299 265.568 311.477 264.687C310.92 264.089 309.983 263.715 307.933 264.353C305.859 264.998 303.346 266.514 300.735 268.565ZM312.906 282.261C309.148 282.939 304.713 284.026 301.027 285.509C298.578 286.495 296.685 287.568 295.521 288.648C294.394 289.695 294.287 290.395 294.382 290.904C295.6 297.408 304.02 301.911 311.823 298.632C312.203 295.346 312.61 290.119 312.906 282.261ZM348.023 264.273C351.463 266.424 353.776 269.647 354.901 272.014C355.575 273.431 354.974 275.127 353.559 275.802C352.143 276.477 350.45 275.875 349.776 274.458C349.009 272.845 347.347 270.553 345.015 269.095C342.812 267.716 339.973 267.038 336.361 268.484C335.698 268.75 334.825 269.462 333.903 270.891C333.002 272.285 332.197 274.147 331.577 276.311C330.331 280.664 329.958 285.795 330.718 289.917C331.508 294.202 333.254 296.338 335.307 296.813C337.617 297.347 342.042 296.316 349.322 289.867C350.496 288.827 352.29 288.937 353.329 290.113C354.368 291.289 354.258 293.085 353.084 294.126C345.603 300.752 339.242 303.559 334.029 302.352C328.56 301.086 326.048 295.902 325.135 290.949C324.192 285.833 324.67 279.807 326.12 274.744C326.849 272.2 327.853 269.789 329.135 267.804C330.395 265.853 332.077 264.077 334.252 263.206C339.724 261.014 344.455 262.041 348.023 264.273ZM366.413 266.181C367.768 264.613 369.739 263.003 372.209 263.003C376.83 263.003 380.758 264.817 383.717 266.949C386.66 269.069 388.812 271.62 389.944 273.435C390.775 274.766 390.371 276.52 389.042 277.352C387.712 278.184 385.961 277.779 385.13 276.448C384.37 275.23 382.718 273.233 380.401 271.564C378.099 269.905 375.309 268.688 372.209 268.688C372.215 268.688 372.214 268.688 372.205 268.69C372.138 268.708 371.618 268.846 370.706 269.902C369.766 270.99 368.77 272.651 367.868 274.738C366.061 278.92 364.88 284.219 365.039 288.625C365.206 293.222 366.695 295.569 368.818 296.228C370.037 296.606 371.945 296.643 374.83 295.683C377.708 294.727 381.362 292.842 385.914 289.664C387.2 288.767 388.97 289.083 389.866 290.371C390.763 291.659 390.447 293.431 389.16 294.329C384.345 297.689 380.193 299.89 376.619 301.079C373.054 302.265 369.865 302.505 367.137 301.658C361.365 299.866 359.554 294.04 359.366 288.831C359.17 283.429 360.58 277.288 362.658 272.48C363.699 270.071 364.97 267.851 366.413 266.181ZM442.593 265.915C447.426 266.377 452.941 268.785 456.475 270.751C457.846 271.513 458.339 273.244 457.578 274.616C456.817 275.989 455.088 276.483 453.718 275.721C450.44 273.897 445.735 271.927 442.053 271.574C440.195 271.396 439.077 271.678 438.495 272.076C438.094 272.35 437.497 272.981 437.497 274.941C437.497 276.087 437.768 276.807 438.103 277.306C438.452 277.828 439.005 278.306 439.859 278.742C441.694 279.679 444.234 280.108 447.243 280.591C448.656 280.818 450.172 281.062 451.554 281.403C452.916 281.739 454.384 282.222 455.625 283.043C456.94 283.914 458.062 285.215 458.46 287.066C458.836 288.814 458.479 290.657 457.724 292.504C456.264 296.078 454.145 298.685 451.584 300.306C449.02 301.93 446.176 302.459 443.479 302.139C438.189 301.51 433.364 297.599 431.916 292.16C431.512 290.644 432.412 289.086 433.927 288.681C435.442 288.277 436.997 289.179 437.401 290.696C438.224 293.784 441.063 296.127 444.147 296.493C445.637 296.67 447.158 296.383 448.55 295.501C449.945 294.618 451.375 293.032 452.469 290.352C452.992 289.073 452.953 288.464 452.91 288.264C452.89 288.167 452.854 288.024 452.493 287.785C452.057 287.497 451.33 287.202 450.197 286.923C449.083 286.648 447.805 286.439 446.344 286.204L446.057 286.158C443.362 285.726 439.98 285.185 437.282 283.807C435.82 283.062 434.417 282.008 433.389 280.475C432.347 278.92 431.82 277.064 431.82 274.941C431.82 271.671 432.927 269 435.293 267.381C437.479 265.887 440.192 265.685 442.593 265.915ZM475.911 266.311C480.585 266.937 485.605 269.032 488.789 270.725C490.173 271.462 490.699 273.183 489.964 274.569C489.228 275.956 487.51 276.483 486.125 275.746C483.253 274.218 478.906 272.447 475.158 271.946C473.276 271.694 471.828 271.802 470.854 272.176C470.033 272.49 469.479 273.001 469.174 274.038C469.038 274.501 469.123 274.659 469.213 274.801C469.39 275.08 469.842 275.524 470.841 276.064C472.598 277.013 475.028 277.752 477.838 278.606C478.308 278.749 478.789 278.896 479.279 279.047C482.384 280.003 486.079 281.209 488.468 283.205C489.75 284.275 490.868 285.741 491.194 287.691C491.516 289.623 490.979 291.553 489.921 293.407C485.871 300.506 478.67 302.949 472.476 301.829C466.35 300.722 460.774 295.96 460.774 288.585C460.774 287.016 462.045 285.743 463.612 285.743C465.18 285.743 466.451 287.016 466.451 288.585C466.451 292.581 469.391 295.494 473.484 296.234C477.509 296.962 482.23 295.426 484.992 290.586C485.638 289.455 485.633 288.863 485.594 288.627C485.558 288.41 485.421 288.063 484.831 287.57C483.477 286.439 480.962 285.513 477.609 284.48C477.181 284.348 476.738 284.214 476.287 284.078C473.537 283.246 470.453 282.313 468.146 281.067C466.777 280.328 465.352 279.315 464.423 277.853C463.407 276.254 463.154 274.387 463.728 272.434C464.559 269.605 466.441 267.78 468.825 266.866C471.056 266.011 473.583 265.999 475.911 266.311ZM425.681 273.542C426.948 275.144 427.724 277.224 427.21 279.537C426.533 282.591 424.532 284.615 422.105 285.832C419.767 287.003 416.963 287.477 414.236 287.602C408.845 287.849 402.84 286.762 398.886 285.69C399.202 287.079 399.69 288.631 400.388 290.364C402.697 296.088 404.944 299.146 406.819 300.614C408.517 301.942 409.917 301.998 411.239 301.527C412.78 300.978 414.47 299.597 416.124 297.532C417.743 295.511 419.135 293.078 420.149 290.828C420.793 289.397 422.474 288.76 423.903 289.405C425.332 290.051 425.968 291.734 425.324 293.165C424.161 295.747 422.535 298.615 420.552 301.09C418.605 303.52 416.11 305.826 413.142 306.883C409.956 308.018 406.523 307.598 403.323 305.093C400.301 302.727 397.585 298.593 395.124 292.492C391.977 284.689 392.002 278.501 394.816 274.044C397.601 269.634 402.558 267.813 407.241 267.419C411.959 267.021 416.995 267.998 420.791 269.843C422.686 270.765 424.451 271.988 425.681 273.542ZM398.519 280.218C398.704 278.913 399.108 277.885 399.615 277.082C401.07 274.777 403.954 273.4 407.716 273.084C411.443 272.77 415.456 273.57 418.312 274.958C419.744 275.654 420.707 276.411 421.231 277.073C421.718 277.688 421.723 278.06 421.668 278.304C421.438 279.344 420.808 280.124 419.564 280.747C418.231 281.415 416.322 281.815 413.977 281.923C409.307 282.136 403.832 281.156 400.212 280.16C399.633 280 399.046 280.032 398.519 280.218Z" fill="black"/>
</g>
<path fill-rule="evenodd" clip-rule="evenodd" d="M558.2 150.717C559.714 151.123 560.614 152.681 560.209 154.198C557.517 164.274 554.701 177.336 553.235 189.54L556.6 189.86C558.161 190.009 559.305 191.397 559.157 192.96C559.008 194.522 557.622 195.669 556.062 195.52L552.652 195.195C552.267 199.721 552.116 203.998 552.272 207.823C552.462 212.467 553.097 216.264 554.193 218.995C555.282 221.709 556.654 222.989 558.149 223.429C559.738 223.897 562.308 223.676 566.317 221.467C567.691 220.711 569.417 221.213 570.173 222.588C570.928 223.964 570.427 225.692 569.053 226.449C564.458 228.98 560.234 229.97 556.546 228.883C553.604 228.016 551.505 225.983 550.036 223.424C550.23 224.444 549.857 225.534 548.978 226.211C544.37 229.761 539.842 231.361 535.971 229.29C534.142 228.312 532.876 226.692 531.995 224.931C531.114 223.168 530.53 221.093 530.145 218.909C528.626 210.294 529.869 197.945 531.395 189.35C531.669 187.804 533.143 186.774 534.687 187.049C536.23 187.324 537.259 188.799 536.984 190.345C535.483 198.805 534.398 210.334 535.736 217.921C536.065 219.788 536.52 221.283 537.072 222.385C537.623 223.489 538.184 224.028 538.646 224.276C539.357 224.656 541.268 224.978 545.517 221.705C546.68 220.809 548.317 220.956 549.305 221.999C549.172 221.709 549.045 221.414 548.925 221.115C547.482 217.519 546.801 212.985 546.6 208.055C546.431 203.918 546.597 199.373 547 194.656L544.14 194.383C542.579 194.234 541.434 192.846 541.583 191.284C541.732 189.721 543.117 188.575 544.678 188.723L547.582 189C549.084 176.414 551.975 163.018 554.724 152.728C555.129 151.212 556.685 150.311 558.2 150.717ZM539.133 157.471C540.685 157.693 541.763 159.133 541.542 160.687L538.703 180.585C538.481 182.139 537.043 183.219 535.491 182.997C533.939 182.775 532.861 181.335 533.083 179.781L535.921 159.883C536.143 158.329 537.581 157.249 539.133 157.471ZM155.054 159.755C156.601 159.499 158.062 160.547 158.318 162.095C160.296 174.076 163.766 191.605 167.738 205.3C169.737 212.191 171.805 217.9 173.786 221.445C174.769 223.204 175.554 224.1 176.043 224.453C176.631 223.952 177.381 223.028 178.242 221.55C179.144 220 180.068 218.019 180.996 215.669C182.851 210.972 184.638 205.028 186.278 198.622C189.554 185.82 192.177 171.45 193.587 162.133C193.822 160.581 195.269 159.514 196.819 159.749C198.369 159.984 199.435 161.433 199.2 162.985C197.771 172.429 195.114 186.996 191.777 200.033C190.11 206.546 188.255 212.747 186.275 217.76C185.285 220.266 184.242 222.532 183.146 224.414C182.073 226.256 180.84 227.923 179.401 229.044C178.488 229.755 177.379 230.228 176.123 230.235C174.892 230.242 173.818 229.801 172.948 229.22C171.305 228.123 169.96 226.24 168.832 224.222C166.516 220.079 164.304 213.843 162.287 206.886C158.226 192.885 154.713 175.11 152.717 163.023C152.461 161.474 153.507 160.011 155.054 159.755ZM208.883 159.717C210.451 159.717 211.722 160.989 211.722 162.559V175.635C211.722 177.205 210.451 178.477 208.883 178.477C207.316 178.477 206.045 177.205 206.045 175.635V162.559C206.045 160.989 207.316 159.717 208.883 159.717ZM228.347 177.593L230.341 203.275C232.45 204.021 235.032 204.232 237.282 203.177C239.892 201.954 243.028 198.549 244.102 189.512C244.629 185.081 244.065 182.229 243.131 180.421C242.234 178.683 240.862 177.646 239.133 177.064C236.019 176.017 231.87 176.51 228.347 177.593ZM230.808 209.28C233.522 209.82 236.661 209.745 239.689 208.326C244.78 205.939 248.543 200.248 249.74 190.184C250.348 185.063 249.801 180.96 248.174 177.81C246.511 174.588 243.873 172.662 240.942 171.675C235.335 169.789 228.601 171.29 224.304 172.991L222.355 173.763L226.491 227.021C226.613 228.586 227.979 229.756 229.542 229.635C231.105 229.513 232.273 228.145 232.152 226.58L230.808 209.28ZM302.145 179.771C305.569 182.209 307.686 186.139 308.647 188.918C309.16 190.401 308.374 192.02 306.893 192.534C305.411 193.047 303.795 192.261 303.282 190.777C302.539 188.629 300.967 185.908 298.855 184.404C297.851 183.689 296.782 183.286 295.618 183.267C294.453 183.247 292.941 183.608 291.047 184.84C290.218 185.38 289.301 186.456 288.45 188.198C287.614 189.91 286.938 192.073 286.48 194.513C285.56 199.41 285.587 205.05 286.659 209.67C287.777 214.489 289.772 217.23 291.948 217.986C293.979 218.692 297.793 218.181 304.003 212.238C305.137 211.154 306.934 211.195 308.017 212.33C309.1 213.465 309.059 215.264 307.925 216.349C301.362 222.629 295.311 225.173 290.086 223.357C285.006 221.59 282.353 216.23 281.129 210.957C279.86 205.487 279.851 199.046 280.9 193.461C281.427 190.66 282.236 187.982 283.35 185.701C284.449 183.45 285.944 181.382 287.953 180.074C290.601 178.35 293.206 177.54 295.713 177.582C298.221 177.625 300.381 178.515 302.145 179.771ZM333.453 181.429C337.052 184.543 340.169 189.193 341.952 192.466L342.126 192.785L342.214 193.138C343.14 196.847 343.768 202.671 342.592 208.231C341.402 213.857 338.246 219.594 331.338 222.085C329.048 222.91 326.803 222.994 324.72 222.286C322.67 221.588 321.039 220.213 319.773 218.571C317.296 215.357 315.886 210.704 315.218 206.026C314.541 201.276 314.576 196.125 315.277 191.63C315.953 187.293 317.339 182.965 319.853 180.447C321.981 178.316 324.542 177.595 327.127 178.063C329.508 178.493 331.665 179.882 333.453 181.429ZM326.118 183.657C325.381 183.524 324.692 183.641 323.868 184.467C322.692 185.645 321.523 188.423 320.886 192.507C320.274 196.433 320.239 201.017 320.839 205.222C321.449 209.497 322.664 213.016 324.267 215.097C325.042 216.102 325.815 216.654 326.546 216.903C327.244 217.14 328.157 217.189 329.415 216.736C333.861 215.133 336.099 211.489 337.038 207.053C337.956 202.716 337.519 197.99 336.791 194.866C335.15 191.925 332.512 188.128 329.741 185.731C328.293 184.478 327.058 183.827 326.118 183.657ZM594.031 187.12C595.536 187.561 596.398 189.141 595.957 190.647C592.713 201.73 587.008 218.111 580.411 231.208C577.125 237.73 573.525 243.629 569.781 247.644C566.184 251.501 561.557 254.529 556.541 252.797C555.059 252.285 554.272 250.667 554.783 249.183C555.294 247.699 556.91 246.91 558.392 247.422C559.961 247.964 562.294 247.344 565.632 243.764C568.824 240.341 572.136 235.011 575.342 228.647C576.576 226.197 577.781 223.621 578.945 220.981C578.866 220.862 578.795 220.735 578.733 220.601L565.108 191.039C564.451 189.613 565.072 187.925 566.496 187.267C567.919 186.609 569.606 187.231 570.263 188.656L581.907 213.92C585.471 205.01 588.477 195.99 590.509 189.048C590.95 187.542 592.527 186.678 594.031 187.12ZM462.228 187.095C463.746 187.486 464.661 189.035 464.27 190.556C462.601 197.056 461.036 206.518 461.598 213.936C461.882 217.689 462.684 220.495 463.909 222.175C464.487 222.968 465.133 223.477 465.867 223.77C466.607 224.065 467.619 224.213 469.031 223.992C474.12 223.196 477.401 219.008 479.324 212.62C481.224 206.311 481.493 198.694 481.091 192.879L480.836 190.109L486.482 189.518C486.587 190.424 486.678 191.396 486.75 192.42L489.895 226.539C490.039 228.103 488.891 229.487 487.329 229.631C485.768 229.775 484.386 228.625 484.242 227.062L483.406 217.99C480.944 223.674 476.773 228.535 469.907 229.609C467.686 229.957 465.618 229.791 463.763 229.05C461.902 228.307 460.439 227.057 459.324 225.528C457.164 222.565 456.249 218.478 455.937 214.366C455.307 206.056 457.035 195.904 458.772 189.14C459.162 187.619 460.71 186.704 462.228 187.095ZM349.815 187.038C351.365 186.799 352.814 187.864 353.052 189.415L354.473 198.663C356.761 196.615 359.351 194.682 361.923 193.44C364.048 192.414 366.542 191.672 368.994 192.131C370.533 192.42 371.855 193.14 372.931 194.229C375.993 191.955 379.942 189.661 383.796 188.831C386.35 188.281 389.219 188.302 391.745 189.819C394.312 191.363 395.951 194.106 396.737 197.78C399.567 211.004 397.942 222.988 396.7 227.549C396.288 229.063 394.727 229.956 393.215 229.543C391.702 229.13 390.811 227.567 391.223 226.053C392.252 222.275 393.806 211.216 391.186 198.971C390.61 196.277 389.62 195.173 388.823 194.694C387.983 194.189 386.749 194.01 384.99 194.389C381.937 195.046 378.399 197.154 375.62 199.324C376.018 200.827 376.259 202.548 376.358 204.483C376.811 213.326 376.915 217.766 376.843 219.7C376.826 220.152 376.795 220.651 376.709 221.068C376.685 221.185 376.643 221.362 376.571 221.562C376.516 221.713 376.357 222.129 375.991 222.54C375.561 223.021 374.6 223.714 373.278 223.445C372.25 223.235 371.704 222.553 371.561 222.367C371.231 221.938 371.086 221.493 371.049 221.381L371.046 221.37C370.983 221.181 370.937 220.994 370.902 220.843C370.832 220.533 370.77 220.181 370.718 219.842C370.603 219.097 370.789 218.375 371.184 217.8C371.166 215.524 371.033 211.494 370.689 204.774C370.561 202.274 370.17 200.592 369.7 199.504C369.094 198.1 368.44 197.811 367.95 197.719C367.229 197.584 366.055 197.756 364.389 198.561C361.441 199.984 358.137 202.807 355.531 205.551L357.594 218.978C357.833 220.529 356.77 221.981 355.22 222.22C353.671 222.458 352.221 221.394 351.983 219.842L347.441 190.28C347.203 188.728 348.266 187.277 349.815 187.038ZM209.21 187.024C210.768 187.205 211.884 188.616 211.703 190.175C210.807 197.912 210.653 203.694 210.962 207.953C211.274 212.25 212.046 214.798 212.838 216.22C213.582 217.554 214.216 217.71 214.473 217.742C214.882 217.794 215.541 217.648 216.326 217.09C217.606 216.183 219.377 216.486 220.283 217.767C221.19 219.048 220.887 220.822 219.608 221.73C218.122 222.783 216.056 223.67 213.769 223.384C211.329 223.078 209.295 221.527 207.881 218.99C206.516 216.541 205.641 213.056 205.3 208.365C204.956 203.636 205.143 197.474 206.064 189.52C206.244 187.961 207.653 186.843 209.21 187.024ZM406.263 187.011C407.827 186.907 409.18 188.092 409.284 189.659L409.895 198.837C411.909 196.389 414.174 194.067 416.452 192.476C418.567 190.999 421.375 189.674 424.266 190.442C426.196 190.954 427.634 192.24 428.687 193.999C429.779 193.299 430.948 192.633 432.158 192.055C434.544 190.913 437.29 190.012 439.996 190.018C442.819 190.024 445.635 191.035 447.684 193.68C449.631 196.192 450.612 199.832 450.733 204.556C450.963 213.528 450.445 219.334 449.63 222.987C449.225 224.799 448.713 226.238 448.075 227.298C447.55 228.171 446.407 229.643 444.489 229.643C442.921 229.643 441.651 228.371 441.651 226.801C441.651 225.659 442.322 224.675 443.291 224.223C443.493 223.836 443.793 223.074 444.089 221.746C444.759 218.747 445.282 213.467 445.058 204.702C444.952 200.557 444.093 198.318 443.199 197.165C442.409 196.146 441.386 195.706 439.984 195.703C438.465 195.7 436.601 196.23 434.605 197.184C433.232 197.841 431.893 198.653 430.692 199.498C433.796 212.111 431.738 223.331 430.125 227.772C429.589 229.247 427.961 230.009 426.487 229.472C425.014 228.936 424.254 227.305 424.79 225.829C426.124 222.155 428.178 211.248 424.728 199.156C423.923 196.334 422.997 195.987 422.81 195.937C422.433 195.837 421.459 195.911 419.699 197.14C416.523 199.357 412.977 203.807 410.481 207.646L411.555 223.769C411.659 225.335 410.476 226.69 408.911 226.794C407.347 226.899 405.994 225.714 405.89 224.147L403.619 190.037C403.515 188.47 404.699 187.116 406.263 187.011ZM443.105 224.519C443.104 224.516 443.12 224.493 443.153 224.457C443.122 224.504 443.105 224.522 443.105 224.519ZM501.38 193.301L501.256 191.37C501.155 189.803 499.805 188.615 498.24 188.716C496.676 188.818 495.489 190.17 495.59 191.736L497.861 226.984C497.962 228.55 499.312 229.738 500.877 229.637C502.441 229.536 503.628 228.184 503.527 226.618L501.936 201.926C504.03 198.568 507.148 194.937 510.227 193.443C511.777 192.691 513.06 192.597 514.191 193.04C515.384 193.508 516.969 194.791 518.61 197.973C525.235 210.828 520.335 224.604 517.031 229.828C516.192 231.154 516.586 232.91 517.91 233.75C519.234 234.59 520.988 234.196 521.827 232.87C525.714 226.724 531.563 210.709 523.654 195.366C521.661 191.499 519.211 188.902 516.259 187.746C513.245 186.565 510.273 187.103 507.751 188.327C505.406 189.465 503.243 191.288 501.38 193.301ZM298.643 266.474C296.073 268.492 293.591 270.882 291.593 273.065C290.533 274.222 288.738 274.3 287.582 273.24C286.427 272.179 286.348 270.381 287.408 269.223C289.573 266.858 292.28 264.246 295.14 262C297.957 259.787 301.112 257.779 304.157 256.832C307.226 255.878 310.859 255.845 313.535 258.715C315.947 261.302 316.867 265.583 316.75 271.203C316.708 273.225 316.66 275.127 316.605 276.916C316.26 288.249 315.686 295.064 315.166 298.823C315.022 299.861 314.878 300.698 314.737 301.35C314.614 301.918 314.446 302.583 314.18 303.115C313.479 304.519 311.774 305.088 310.372 304.386C309.672 304.036 309.18 303.435 308.95 302.747C299.11 305.097 288.533 299.593 286.71 289.86C286.124 286.731 287.628 284.191 289.57 282.388C291.477 280.618 294.111 279.232 296.818 278.143C301.364 276.313 306.748 275.071 310.998 274.368C311.025 273.312 311.051 272.218 311.074 271.085C311.185 265.79 310.208 263.477 309.386 262.595C308.828 261.997 307.891 261.624 305.841 262.261C303.768 262.906 301.254 264.423 298.643 266.474ZM310.814 280.169C307.056 280.848 302.622 281.934 298.935 283.418C296.487 284.404 294.593 285.477 293.43 286.557C292.302 287.603 292.195 288.304 292.29 288.813C293.508 295.316 301.928 299.819 309.732 296.54C310.111 293.254 310.518 288.028 310.814 280.169ZM345.931 262.181C349.371 264.333 351.684 267.555 352.81 269.922C353.484 271.34 352.883 273.036 351.467 273.711C350.052 274.386 348.358 273.784 347.684 272.366C346.917 270.754 345.256 268.462 342.924 267.003C340.72 265.625 337.881 264.946 334.269 266.393C333.606 266.658 332.733 267.37 331.811 268.799C330.911 270.194 330.106 272.055 329.486 274.22C328.239 278.573 327.866 283.703 328.626 287.826C329.416 292.111 331.162 294.246 333.216 294.722C335.525 295.256 339.951 294.225 347.231 287.776C348.405 286.736 350.199 286.846 351.238 288.022C352.276 289.197 352.166 290.994 350.992 292.034C343.511 298.661 337.15 301.467 331.937 300.261C326.468 298.995 323.956 293.811 323.043 288.858C322.1 283.742 322.579 277.715 324.029 272.652C324.757 270.109 325.762 267.698 327.044 265.712C328.303 263.761 329.985 261.986 332.161 261.114C337.632 258.923 342.364 259.95 345.931 262.181ZM364.322 264.09C365.677 262.522 367.648 260.911 370.117 260.911C374.738 260.911 378.666 262.726 381.625 264.857C384.569 266.978 386.721 269.529 387.853 271.343C388.684 272.675 388.28 274.428 386.95 275.26C385.621 276.092 383.87 275.688 383.039 274.356C382.279 273.139 380.627 271.141 378.309 269.472C376.008 267.814 373.217 266.596 370.117 266.596C370.124 266.596 370.122 266.596 370.114 266.599C370.047 266.617 369.526 266.755 368.614 267.81C367.674 268.898 366.678 270.56 365.777 272.646C363.969 276.828 362.788 282.128 362.948 286.533C363.114 291.131 364.603 293.477 366.727 294.136C367.946 294.515 369.853 294.551 372.739 293.592C375.616 292.635 379.27 290.75 383.823 287.573C385.109 286.675 386.878 286.992 387.775 288.28C388.671 289.568 388.355 291.339 387.069 292.237C382.254 295.598 378.102 297.799 374.528 298.987C370.962 300.173 367.774 300.414 365.045 299.566C359.274 297.774 357.463 291.948 357.274 286.739C357.079 281.338 358.488 275.196 360.566 270.388C361.607 267.98 362.878 265.76 364.322 264.09ZM440.501 263.823C445.335 264.286 450.849 266.693 454.384 268.659C455.754 269.422 456.248 271.152 455.486 272.525C454.725 273.897 452.997 274.391 451.626 273.629C448.348 271.805 443.644 269.835 439.961 269.483C438.104 269.305 436.985 269.587 436.403 269.985C436.002 270.259 435.406 270.89 435.406 272.85C435.406 273.996 435.677 274.716 436.011 275.215C436.361 275.736 436.914 276.215 437.768 276.651C439.603 277.587 442.143 278.016 445.152 278.5C446.565 278.727 448.081 278.971 449.462 279.311C450.824 279.647 452.292 280.13 453.533 280.952C454.848 281.823 455.97 283.124 456.369 284.975C456.745 286.722 456.387 288.565 455.632 290.413C454.172 293.987 452.053 296.593 449.492 298.215C446.928 299.838 444.085 300.368 441.387 300.047C436.098 299.419 431.272 295.508 429.824 290.069C429.42 288.552 430.321 286.994 431.836 286.59C433.35 286.185 434.906 287.087 435.31 288.604C436.132 291.693 438.971 294.035 442.056 294.402C443.545 294.579 445.066 294.291 446.458 293.41C447.854 292.526 449.283 290.94 450.378 288.26C450.9 286.981 450.862 286.372 450.819 286.172C450.798 286.076 450.762 285.933 450.401 285.694C449.966 285.405 449.238 285.111 448.105 284.831C446.992 284.557 445.714 284.348 444.252 284.113L443.965 284.067C441.27 283.635 437.889 283.093 435.19 281.716C433.729 280.97 432.326 279.917 431.298 278.384C430.255 276.829 429.728 274.972 429.728 272.85C429.728 269.58 430.835 266.908 433.202 265.29C435.387 263.795 438.101 263.594 440.501 263.823ZM473.819 264.219C478.493 264.845 483.513 266.94 486.697 268.634C488.082 269.37 488.608 271.091 487.872 272.478C487.137 273.864 485.418 274.391 484.034 273.655C481.162 272.127 476.814 270.356 473.067 269.854C471.184 269.602 469.737 269.711 468.763 270.084C467.942 270.399 467.387 270.91 467.083 271.946C466.947 272.409 467.031 272.567 467.121 272.709C467.299 272.989 467.751 273.433 468.75 273.972C470.507 274.921 472.936 275.66 475.747 276.515C476.217 276.658 476.698 276.804 477.188 276.955C480.293 277.912 483.987 279.118 486.376 281.113C487.658 282.184 488.777 283.649 489.102 285.599C489.424 287.531 488.888 289.462 487.83 291.315C483.779 298.414 476.579 300.858 470.384 299.738C464.258 298.63 458.682 293.869 458.682 286.494C458.682 284.924 459.953 283.651 461.521 283.651C463.089 283.651 464.36 284.924 464.36 286.494C464.36 290.489 467.3 293.403 471.393 294.143C475.417 294.871 480.139 293.335 482.901 288.495C483.546 287.364 483.542 286.771 483.502 286.536C483.466 286.319 483.33 285.972 482.74 285.479C481.386 284.348 478.87 283.422 475.518 282.389C475.089 282.257 474.647 282.123 474.195 281.986C471.446 281.155 468.362 280.222 466.055 278.976C464.685 278.236 463.261 277.223 462.332 275.762C461.316 274.163 461.063 272.295 461.636 270.342C462.467 267.513 464.349 265.688 466.734 264.775C468.965 263.92 471.492 263.908 473.819 264.219ZM423.589 271.451C424.857 273.052 425.632 275.132 425.119 277.446C424.441 280.499 422.441 282.524 420.013 283.74C417.675 284.911 414.872 285.386 412.145 285.51C406.754 285.757 400.749 284.671 396.795 283.599C397.111 284.987 397.598 286.539 398.297 288.272C400.605 293.996 402.852 297.054 404.728 298.522C406.425 299.851 407.826 299.907 409.148 299.436C410.688 298.887 412.378 297.505 414.033 295.44C415.652 293.42 417.044 290.986 418.057 288.736C418.702 287.305 420.383 286.668 421.812 287.314C423.241 287.959 423.877 289.643 423.232 291.074C422.069 293.656 420.443 296.524 418.461 298.998C416.514 301.428 414.019 303.735 411.051 304.792C407.864 305.927 404.432 305.506 401.231 303.001C398.209 300.635 395.493 296.502 393.033 290.401C389.886 282.597 389.91 276.41 392.724 271.952C395.509 267.542 400.466 265.721 405.149 265.327C409.867 264.93 414.903 265.907 418.7 267.752C420.595 268.673 422.359 269.897 423.589 271.451ZM396.428 278.127C396.612 276.821 397.016 275.793 397.523 274.991C398.978 272.686 401.863 271.309 405.625 270.992C409.352 270.679 413.364 271.478 416.221 272.867C417.652 273.562 418.615 274.319 419.14 274.982C419.626 275.596 419.631 275.968 419.577 276.213C419.346 277.252 418.716 278.033 417.473 278.656C416.139 279.324 414.23 279.724 411.886 279.831C407.216 280.045 401.74 279.065 398.121 278.068C397.541 277.909 396.955 277.941 396.428 278.127Z" fill="#FDF8FD"/>
<path fill-rule="evenodd" clip-rule="evenodd" d="M651.892 75.8084C679.485 77.0757 697.195 77.8892 700.787 77.8892C702.922 77.8892 704.763 79.2954 706.297 81.5815C714.819 88.8429 726.925 104.708 730.412 130.436C731.718 140.064 732.733 162.04 733.201 189.612C733.67 217.271 733.591 250.791 732.668 283.645C731.746 316.482 729.98 348.734 727.064 373.825C725.607 386.36 723.851 397.212 721.741 405.487C720.686 409.626 719.522 413.198 718.23 416.038C716.944 418.862 715.463 421.11 713.734 422.381L713.397 422.629L713.022 422.643C585.251 427.359 413.357 433.327 272.388 428.245C201.912 425.705 139.105 420.402 93.3846 410.781C70.5375 405.973 51.8649 400.07 38.6121 392.836C31.9895 389.221 26.6284 385.226 22.7623 380.773C18.9582 376.392 16.446 371.38 15.7982 365.649C12.9075 353.719 10.5324 334.977 8.57378 312.511C6.59696 289.837 5.02861 263.17 3.80166 235.486C1.34778 180.119 0.254672 120.568 0.000339066 80.5071C-0.0259504 77.7404 1.48145 75.9749 2.80274 74.9019C4.26503 73.7144 6.32096 72.694 8.83206 71.7849C13.8841 69.9559 21.227 68.424 30.4812 67.1402C49.0145 64.5693 75.4985 62.9578 107.315 62.0792C170.961 60.3216 256.097 61.4935 341.986 63.8359C463.197 67.1416 585.851 72.7751 651.892 75.8084ZM24.1516 375.833C24.3764 376.111 24.6091 376.389 24.8499 376.666C28.325 380.669 33.3225 384.448 39.7831 387.974C52.6966 395.022 71.0885 400.867 93.8602 405.659C139.378 415.237 202.025 420.536 272.47 423.075C413.193 428.147 584.789 422.202 712.533 417.487C713.445 416.689 714.41 415.279 715.396 413.114C716.486 410.719 717.536 407.547 718.534 403.634C720.53 395.807 722.239 385.327 723.68 372.933C726.558 348.167 728.316 316.174 729.236 283.427C730.155 250.697 730.234 217.295 729.767 189.744C729.298 162.105 728.281 140.581 727.046 131.47C724.562 113.148 717.326 100.155 710.48 92.0429C711.239 94.9266 711.909 98.1657 712.506 101.677C714.001 110.481 715.102 121.414 715.899 133.717C717.492 158.33 717.885 188.716 717.706 219.11C717.527 249.519 716.774 280.004 716.066 304.833C715.87 311.732 715.677 318.185 715.501 324.074C715.042 339.434 714.698 350.96 714.698 356.577C714.698 384.263 706.335 400.007 701.74 404.618L701.311 405.049L700.795 405.053C682.269 405.185 662.8 405.347 642.625 405.515C526.618 406.481 387.263 407.642 269.566 404.421C200.487 402.531 138.829 399.132 93.7158 393.291C71.1677 390.372 52.6944 386.837 39.4755 382.553C33.1899 380.516 28.0243 378.289 24.1516 375.833ZM700.464 83.0593C701.535 83.6932 702.793 84.5767 704.176 85.722C706.072 88.8571 707.766 94.6527 709.177 102.958C710.612 111.401 711.691 122.044 712.479 134.218C714.055 158.559 714.45 188.73 714.271 219.064C714.092 249.384 713.341 279.8 712.634 304.611C712.44 311.414 712.249 317.806 712.074 323.663C711.613 339.11 711.262 350.836 711.262 356.577C711.262 381.78 703.934 395.728 700.238 399.885C681.869 400.016 662.579 400.177 642.598 400.343C526.588 401.309 387.281 402.469 269.628 399.25C200.566 397.361 139.003 393.963 94.0101 388.138C71.5047 385.225 53.2028 381.711 40.1985 377.497C33.6887 375.387 28.5815 373.125 24.9606 370.727C23.1508 369.528 21.7684 368.332 20.7812 367.162C19.7872 365.984 19.2868 364.945 19.0792 364.096C16.3058 352.764 13.949 334.422 11.9801 311.838C10.0164 289.314 8.45391 262.768 7.22955 235.142C4.78332 179.947 3.69156 120.556 3.43639 80.5668C3.48414 80.4542 3.68791 80.0595 4.43378 79.4538C5.50372 78.585 7.2184 77.6885 9.63536 76.8135C14.4394 75.0742 21.5824 73.5685 30.7964 72.2903C49.1993 69.7375 75.5803 68.1284 107.378 67.2503C170.958 65.4945 256.043 66.6648 341.924 69.007C462.967 72.3081 585.65 77.9404 651.768 80.9758C678.681 82.2114 696.222 83.0167 700.464 83.0593Z" fill="#0F0E0D"/>
<path d="M725.752 348.751C719.568 369.956 717.163 301.557 716.734 264.707L711.151 377.843C710.437 392.325 703.124 399.824 699.556 401.763H672.072L389.501 404.996C413.979 420.512 622.687 406.935 646.306 406.935C665.201 406.935 658.187 416.848 652.318 421.805C665.344 421.158 694.918 419.736 709.004 419.219C723.09 418.701 726.038 372.025 725.752 348.751Z" fill="#0F0E0D"/>
<path d="M716.734 208.463C725.666 149.503 718.165 107.179 713.298 93.3871L709.004 90.1546C716.562 110.842 717.306 177.646 716.734 208.463Z" fill="#0F0E0D"/>
<path opacity="0.6" d="M716.734 211.147L713.299 101.89V94.132C722.574 99.304 728.043 126.026 729.617 138.74L732.194 222.784C731.478 258.125 729.789 331.653 728.758 343.031C727.728 354.409 722.317 358.978 719.74 359.84L716.734 336.566V211.147Z" fill="#0F0E0D"/>
<path opacity="0.6" d="M369.318 404.448H678.514V421.257L584.038 425.136L401.955 427.722L255.946 425.136C235.333 424.618 158.32 417.593 122.39 414.145L52.8212 397.336C29.1162 391.647 22.9036 376.002 22.7605 368.891C23.7912 397.854 254.228 404.663 369.318 404.448Z" fill="#0F0E0D"/>
<path d="M124.537 55.2443C92.2436 55.2443 33.7826 62.1402 8.58887 65.5882C35.6435 37.7894 282.571 46.1931 310.914 46.1931C317.354 46.1931 311.554 47.1945 338.828 48.6209C341.48 48.7596 382.618 46.0473 385.403 46.1935C413.078 47.6466 415.162 53.623 449.746 55.2448C456.892 55.5799 483.268 54.5838 490.42 54.8993C566.979 58.2767 659.164 56.1794 670.352 60.4162C695.958 70.1136 712.785 85.6294 727.041 85.6294C732.194 85.6294 741.212 134.763 741.212 172.906C741.212 211.049 738.636 303.497 738.636 314.487C738.636 323.279 731.765 355.647 727.041 363.621L732.194 328.71C736.059 258.242 732.194 183.896 732.194 145.753C732.194 107.61 718.881 99.2057 709.863 85.6294C700.845 72.0531 646.736 71.4066 622.687 70.1136C603.448 69.0792 491.565 63.2177 438.028 60.4162C346.987 56.9683 156.831 55.2443 124.537 55.2443Z" fill="#FCF827"/>
<path d="M711.151 500.775C715.302 504.438 724.807 507.499 729.617 490.431C729.045 501.206 724.55 518.36 711.151 500.775Z" fill="#FCF827"/>
<path d="M68.2808 442.591C70.428 446.039 78.3296 451.9 92.7588 447.763C86.4604 452.935 72.7469 459.141 68.2808 442.591Z" fill="#FCF827"/>
<defs>
<filter id="filter0_f_10_46" x="2.67822" y="0.619843" width="743.394" height="454.77" filterUnits="userSpaceOnUse" color-interpolation-filters="sRGB">
<feFlood flood-opacity="0" result="BackgroundImageFix"/>
<feBlend mode="normal" in="SourceGraphic" in2="BackgroundImageFix" result="shape"/>
<feGaussianBlur stdDeviation="75" result="effect1_foregroundBlur_10_46"/>
</filter>
<filter id="filter1_f_10_46" x="52.6782" y="50.6198" width="643.394" height="354.77" filterUnits="userSpaceOnUse" color-interpolation-filters="sRGB">
<feFlood flood-opacity="0" result="BackgroundImageFix"/>
<feBlend mode="normal" in="SourceGraphic" in2="BackgroundImageFix" result="shape"/>
<feGaussianBlur stdDeviation="50" result="effect1_foregroundBlur_10_46"/>
</filter>
<filter id="filter2_f_10_46" x="149.77" y="147.711" width="453.394" height="164.77" filterUnits="userSpaceOnUse" color-interpolation-filters="sRGB">
<feFlood flood-opacity="0" result="BackgroundImageFix"/>
<feBlend mode="normal" in="SourceGraphic" in2="BackgroundImageFix" result="shape"/>
<feGaussianBlur stdDeviation="2.5" result="effect1_foregroundBlur_10_46"/>
</filter>
</defs>
</svg>
