<svg width="1240" height="245" viewBox="0 0 1240 245" fill="none" version="1.1" xmlns="http://www.w3.org/2000/svg">
	<defs id="defs846" />
	<rect x="18.761547" y="31.686209" width="1200" height="184" rx="30" fill="#181816" id="rect836" />
	<path fill-rule="evenodd" clip-rule="evenodd" d="m 1165.1815,13.450207 c 10.07,5.655 30.53,21.482 31.78,39.549 1.57,22.584 -6.66,73.987003 -30.34,72.905003 -23.67,-1.081 -49.38,-18.359 -40.04,-40.792003 2.03,-4.883 4.08,-10.565 6.25,-16.569 7.8,-21.577 17.1,-47.314 32.35,-55.093 z m 31.35,124.903003 c 1.49,-20.436 20.66,-7.484 30.06,1.546 6.55,15.884 18.25,66.812 2.37,73.36 -15.89,6.548 -34.29,-49.361 -32.43,-74.906 z m -28.96,27.425 c -12.02,-6.467 -38.25,-14.166 -46.96,6.771 l -0.26,0.617 c -10.87,26.107 -25.41,61.041 6.05,69.782 31.7,8.81 65.1,-49.666 41.17,-77.17 z m -105.99,30.242 c 16.68,-3.834 27.54,-8.433 34.14,3.817 -5.28,28.505 -29.92,23.999 -50.48,15.44 -20.56,-8.559 0,-16.849 16.34,-19.257 z M 952.81655,23.757207 c -18.69,2.749 -29.896,22.648 -33.163,32.254 -2.951,22.898 19.179,54.040003 43.632,53.252003 21.416,-0.691 21.676,-35.433003 21.816,-55.662003 v -0.005 c 0.03,-2.863 0.04,-5.435 0.12,-7.579 0.62,-17.289 -9.04,-25.695 -32.405,-22.26 z m -85.516,-14.8539996 c 10.075,5.6559996 30.537,20.4829996 31.79,38.5499996 1.566,22.584 -6.669,73.986003 -30.344,72.905003 -23.675,-1.081 -49.382,-18.36 -40.045,-40.792003 2.032,-4.883 4.086,-10.565 6.255,-16.569 7.796,-21.577 17.096,-46.314 32.344,-54.0939996 z m 31.355,123.9040026 c 1.487,-20.436 20.66,-7.485 30.061,1.545 6.548,15.885 18.25,66.812 2.365,73.36 -15.884,6.548 -34.284,-49.361 -32.426,-74.905 z m 120.70595,-0.203 c -15.68,-7.989 -48.59995,-20.229 -54.82395,-5.274 -0.775,1.863 -1.589,3.711 -2.4,5.556 l -0.003,0.005 -0.002,0.006 -0.002,0.006 -0.003,0.005 -0.002,0.006 c -7.323,16.647 -14.514,32.993 6.796,57.65 23.69,27.404 52.18995,32.689 59.19995,15.864 7,-16.824 16.02,-43.773 -8.76,-73.824 z m 14.79,-35.518003 c -5.6,13.459003 -18.85,3.122003 -24.77,-3.729 -6.09,-48.593 18.35,-75.704 40.78,-66.367 17.56,7.308 2.11,35.816 -8.79,55.926 v 0.003 c -3.03,5.58 -5.7,10.513 -7.22,14.167 z m 57.13,-79.302 c 16.44,-14.2109996 19.32,16.815 18.7,34.104 -4.72,14.85 -17.15,43.306 -29.11,38.327 -14.95,-6.225 -10.14,-54.667 10.41,-72.431 z m -17.69,163.706003 c -22.44,-9.337 -4.8,-42.935 6.83,-58.567 18.22,-12.156 35.5,-11.539 43.61,0.607 8.1,12.146 -22.4,69.631 -50.44,57.96 z m -24.48,-51.857 c 11.68,-10.492 31.3,-33.032003 16.34,-39.257003 -18.69,-7.78 -42.03,48.301003 -16.34,39.257003 z m -167.33495,74.86 c -8.107,-22.674 12.714,-12.984 24.139,-5.305 4.376,5.089 12.005,9.122 4.376,16.913 -7.629,7.79 -18.381,16.735 -28.515,-11.608 z m -12.08,-44.262 c -12.024,-6.466 -38.251,-14.165 -46.965,6.772 l -0.256,0.616 c -10.869,26.108 -25.412,61.041 6.047,69.783 31.706,8.81 65.1,-49.667 41.174,-77.171 z m -105.992,29.243 c 13.079,-10.347 29.546,11.566 36.145,23.817 -5.286,28.504 -31.92,23.999 -52.484,15.44 -20.563,-8.559 -0.009,-26.322 16.339,-39.257 z M 357.13655,17.079207 c -18.69,2.749 -29.896,22.648 -33.163,32.254 -2.951,22.897 19.179,54.040003 43.632,53.252003 21.42,-0.691 21.673,-35.433003 21.821,-55.663003 v -0.002 c 0.021,-2.864 0.039,-5.437 0.116,-7.581 0.616,-17.289 -9.044,-25.696 -32.406,-22.26 z m -85.516,-15.8539996 c 10.075,5.655 30.537,21.4829996 31.79,39.5499996 1.566,22.584 -6.669,73.986003 -30.344,72.905003 -23.675,-1.081 -49.382,-18.360003 -40.045,-40.792003 2.032,-4.883 4.085,-10.565 6.254,-16.568 l 10e-4,-0.002 c 7.796,-21.577 17.096,-47.3129996 32.344,-55.0929996 z m 31.355,124.9030026 c 1.487,-20.435 20.66,-7.484 30.061,1.546 6.548,15.885 18.25,66.812 2.365,73.36 -15.884,6.548 -34.285,-49.361 -32.426,-74.906 z m 120.71,-0.202 c -15.682,-7.99 -48.603,-20.23 -54.828,-5.275 -0.779,1.873 -1.597,3.731 -2.412,5.585 -7.323,16.646 -14.514,32.992 6.798,57.65 23.685,27.404 52.191,32.688 59.193,15.864 7.002,-16.824 16.026,-43.773 -8.751,-73.824 z m 14.783,-35.518003 c -5.602,13.459003 -18.845,3.122 -24.767,-3.729 -6.093,-48.593 18.35,-75.704 40.783,-66.367 17.559,7.308 2.106,35.816 -8.795,55.926 l -10e-4,10e-4 -0.004,0.008 c -3.023,5.578 -5.696,10.508 -7.216,14.161 z m 57.131,-79.302 c 16.442,-14.2109996 19.32,16.814 18.704,34.103 -4.719,14.851 -17.147,43.307 -29.111,38.328 -14.955,-6.225 -10.145,-54.667 10.407,-72.431 z m -17.692,163.706003 c -22.433,-9.337 -4.793,-42.935 6.83,-58.567 18.219,-12.156 35.508,-11.54 43.612,0.607 8.104,12.146 -22.402,69.63 -50.442,57.96 z m -24.474,-51.857 c 11.678,-10.492 31.294,-33.032003 16.339,-39.257003 -18.694,-7.78 -42.035,48.301003 -16.339,39.257003 z m -99.337,85.86 c -8.107,-22.675 12.714,-12.985 24.139,-5.305 16.358,13.388 12.005,29.122 4.376,36.912 -7.629,7.791 -18.381,-3.264 -28.515,-31.607 z m -80.08,-55.262 c -12.024,-6.466 -38.251,-14.165 -46.965,6.771 l -0.256,0.617 c -10.869,26.108 -25.412,61.041 6.047,69.782 31.706,8.811 65.1,-49.666 41.174,-77.17 z M 24.208546,46.422207 c 3.2671,-9.606 7.4737,-29.505 26.1633,-32.254 23.3617,-3.436 45.0227,4.971 44.4057,22.26 -0.076,2.145 -0.095,4.719 -0.116,7.584 -0.148,20.229 -5.401,44.971 -26.821,45.662 -24.4532,0.788 -46.5826,-20.355 -43.632,-43.252 z m 9.0636,68.341003 c -9.401,-9.03 -28.5745999,-21.981003 -30.0613999,-1.545 -1.8585,25.544 16.5416999,81.453 32.4261999,74.905 15.8845,-6.548 4.183,-57.475 -2.3648,-73.36 z m 35.8214,-7.023 c 6.224,-14.955003 39.145004,-2.714 54.827004,5.275 24.777,30.051 15.754,57 8.751,73.824 -7.002,16.825 -35.507004,11.54 -59.193004,-15.864 -21.3119,-24.657 -14.121,-41.003 -6.798,-57.65 l 10e-4,-0.002 c 0.815,-1.853 1.632,-3.71 2.412,-5.583 z M 113.93755,73.768207 c 5.921,6.851 19.164,17.188 24.766,3.729 1.521,-3.655 4.196,-8.588 7.221,-14.169 10.901,-20.11 18.354,-38.619 0.795,-45.927 -22.433,-9.3369996 -38.876,7.774 -32.782,56.367 z m 100.601,-41.47 c 0.617,-17.289 -13.261,-27.3139996 -29.703,-13.103 -20.553,17.764 -14.363,45.206 0.592,51.431 11.964,4.979 24.393,-23.477 29.111,-38.328 z m -23.294,153.573003 c -13.088,-10.711 -40.234,8.842 -52.171,19.957 -30.331,20.274 15.188,19.895 26.595,13.358 16.339,-6.842 41.935,-19.926 25.576,-33.315 z m -6.271,-82.537 c -11.624,15.632 -29.263,49.23 -6.831,58.567 28.041,11.671 58.546,-45.814 50.442,-57.96 -8.104,-12.146003 -25.393,-12.763003 -43.611,-0.607 z m -31.305,6.71 c 11.678,-10.492004 31.294,-33.032003 16.339,-39.257003 -18.693,-7.78 -42.035,48.301003 -16.339,39.257003 z m -75.198004,80.555 c -11.424,-7.68 -32.246,-17.37 -24.1389,5.305 10.1339,28.343 20.8869,39.398 28.5159,31.608 7.628,-7.791 11.981,-23.525 -4.377,-36.913 z M 655.01355,22.627207 c -18.689,2.748 -29.896,22.648 -33.163,32.254 -2.951,22.897 19.179,54.040003 43.632,53.251003 21.42,-0.69 21.673,-35.433003 21.821,-55.662003 v -0.002 c 0.021,-2.864 0.04,-5.437 0.116,-7.581 0.617,-17.289 -9.044,-25.696 -32.406,-22.26 z m -94.515,-5.854 c 25.263,1.913 39.536,11.482 40.789,29.55 1.566,22.583 -6.669,73.986003 -30.344,72.905003 -23.675,-1.081 -49.381,-18.36 -40.045,-40.793003 2.033,-4.883 4.086,-10.565 6.255,-16.569 7.797,-21.577 8.096,-37.314 23.345,-45.093 z m 40.354,114.903003 c 1.487,-20.436 20.661,-7.484 30.062,1.546 6.548,15.885 18.249,66.812 2.364,73.36 -15.884,6.548 -34.284,-49.361 -32.426,-74.906 z m 120.71,-0.202 c -15.682,-7.99 -48.603,-20.23 -54.827,-5.275 -0.78,1.873 -1.597,3.731 -2.413,5.585 -7.323,16.646 -14.514,32.992 6.798,57.65 23.686,27.404 52.191,32.688 59.193,15.864 7.003,-16.824 16.026,-43.773 -8.751,-73.824 z m 14.783,-35.518003 c -5.602,13.459003 -18.845,3.121999 -24.766,-3.729 -6.093,-48.593 18.35,-75.704 40.782,-66.367 17.559,7.308 2.106,35.816 -8.795,55.926 -3.025,5.581 -5.7,10.515 -7.221,14.17 z m 57.132,-79.302 c 16.442,-14.2109996 19.32,16.814 18.704,34.103 -4.719,14.851 -17.148,43.307 -29.112,38.328 -14.955,-6.225 -10.145,-54.667 10.408,-72.431 z m -17.693,163.706003 c -22.432,-9.337 -4.793,-42.935 6.831,-58.567 18.218,-12.156 35.507,-11.54 43.611,0.606 8.104,12.146 -22.401,69.631 -50.442,57.961 z m -24.474,-51.857 c 11.678,-10.492 31.294,-33.033003 16.339,-39.257003 -18.693,-7.78 -42.035,48.301003 -16.339,39.257003 z m -99.337,85.86 c -8.107,-22.675 12.715,-12.985 24.139,-5.305 1.149,1.628 12.005,8.122 4.376,15.912 -4.376,4.47 -18.381,17.736 -28.515,-10.607 z m -80.08,-55.262 c -12.024,-6.467 -38.25,-14.166 -46.964,6.771 l -0.257,0.617 c -10.868,26.107 -25.411,61.041 6.047,69.782 31.706,8.81 65.1,-49.666 41.174,-77.17 z m -105.992,28.243 c 13.079,-10.348 29.546,11.566 36.145,23.816 -5.286,28.505 -31.92,23.999 -52.484,15.44 -20.563,-8.558 -0.009,-26.322 16.339,-39.256 z" fill="#3d3d3d" id="path838" />
	<path d="m 1196.9615,52.999207 c -1.25,-18.067 -21.71,-33.894 -31.78,-39.549 -15.25,7.779 -24.55,33.516 -32.35,55.093 -2.17,6.004 -4.22,11.686 -6.25,16.569 -9.34,22.433003 16.37,39.711003 40.04,40.792003 23.68,1.082 31.91,-50.321003 30.34,-72.905003 z m 29.63,86.900003 c -9.4,-9.03 -28.57,-21.982 -30.06,-1.546 -1.86,25.545 16.54,81.454 32.43,74.906 15.88,-6.548 4.18,-57.476 -2.37,-73.36 z m -105.98,32.65 c 8.71,-20.937 34.94,-13.238 46.96,-6.771 23.93,27.504 -9.47,85.98 -41.17,77.17 -31.46,-8.741 -16.92,-43.675 -6.05,-69.782 z m -24.89,27.288 c -6.6,-12.25 -17.46,-7.651 -34.14,-3.817 -16.34,2.408 -36.9,10.698 -16.34,19.257 20.56,8.559 45.2,13.065 50.48,-15.44 z M 919.65355,56.011207 c 3.267,-9.606 14.473,-29.505 33.163,-32.254 23.365,-3.435 33.025,4.971 32.405,22.26 -0.08,2.144 -0.09,4.716 -0.12,7.579 v 0.005 c -0.14,20.229 -0.4,54.971003 -21.816,55.662003 -24.453,0.788 -46.583,-30.354003 -43.632,-53.252003 z m -20.563,-8.558 c -1.253,-18.067 -21.715,-32.894 -31.79,-38.5499996 -15.248,7.7799996 -24.548,32.5169996 -32.344,54.0939996 -2.169,6.004 -4.223,11.686 -6.255,16.569 -9.337,22.432003 16.37,39.711003 40.045,40.792003 23.675,1.081 31.91,-50.321003 30.344,-72.905003 z m 29.626,86.899003 c -9.401,-9.03 -28.574,-21.981 -30.061,-1.545 -1.858,25.544 16.542,81.453 32.426,74.905 15.885,-6.548 4.183,-57.475 -2.365,-73.36 z m 35.821,-7.022 c 6.224,-14.955 39.14395,-2.715 54.82395,5.274 24.78,30.051 15.76,57 8.76,73.824 -7.01,16.825 -35.50995,11.54 -59.19995,-15.864 -21.31,-24.657 -14.119,-41.003 -6.796,-57.65 l 0.002,-0.006 0.003,-0.005 0.002,-0.006 0.002,-0.006 0.003,-0.005 c 0.811,-1.845 1.625,-3.693 2.4,-5.556 z m 44.84395,-33.973003 c 5.92,6.851003 19.17,17.188003 24.77,3.729 1.52,-3.654 4.19,-8.587 7.22,-14.167 v -0.003 c 10.9,-20.11 26.35,-48.618 8.79,-55.926 -22.43,-9.337 -46.87,17.774 -40.78,66.367 z m 100.6,-41.469 c 0.62,-17.289 -2.26,-48.3149996 -18.7,-34.104 -20.55,17.764 -25.36,66.206 -10.41,72.431 11.96,4.979 24.39,-23.477 29.11,-38.327 z m -29.56,71.035003 c -11.63,15.632 -29.27,49.23 -6.83,58.567 28.04,11.671 58.54,-45.814 50.44,-57.96 -8.11,-12.146 -25.39,-12.763 -43.61,-0.607 z m -31.31,6.71 c 11.68,-10.492 31.3,-33.032003 16.34,-39.257003 -18.69,-7.78 -42.03,48.301003 -16.34,39.257003 z m -143.19595,69.555 c -11.425,-7.679 -32.246,-17.369 -24.139,5.305 10.134,28.343 20.886,19.398 28.515,11.608 7.629,-7.791 0,-11.824 -4.376,-16.913 z m -83.184,-32.185 c 8.714,-20.937 34.941,-13.238 46.965,-6.772 23.926,27.504 -9.468,85.981 -41.174,77.171 -31.459,-8.742 -16.916,-43.675 -6.047,-69.783 z m -22.882,46.288 c -6.599,-12.251 -23.066,-34.164 -36.145,-23.817 -16.348,12.935 -36.902,30.698 -16.339,39.257 20.564,8.559 47.198,13.064 52.484,-15.44 z M 323.97355,49.333207 c 3.267,-9.606 14.473,-29.505 33.163,-32.254 23.362,-3.436 33.022,4.971 32.406,22.26 -0.077,2.144 -0.095,4.717 -0.116,7.581 v 0.002 c -0.148,20.23 -0.401,54.972003 -21.821,55.663003 -24.453,0.788 -46.583,-30.355003 -43.632,-53.252003 z m -20.563,-8.558 c -1.253,-18.067 -21.715,-33.8949996 -31.79,-39.5499996 -15.248,7.78 -24.548,33.5159996 -32.344,55.0929996 l -10e-4,0.002 c -2.169,6.003 -4.222,11.685 -6.254,16.568 -9.337,22.432 16.37,39.711003 40.045,40.792003 23.675,1.081 31.91,-50.321003 30.344,-72.905003 z m 29.626,86.899003 c -9.401,-9.03 -28.574,-21.981 -30.061,-1.546 -1.859,25.545 16.542,81.454 32.426,74.906 15.885,-6.548 4.183,-57.475 -2.365,-73.36 z m 35.821,-7.023 c 6.225,-14.955 39.146,-2.715 54.828,5.275 24.777,30.051 15.753,57 8.751,73.824 -7.002,16.824 -35.508,11.54 -59.193,-15.864 -21.312,-24.658 -14.121,-41.004 -6.798,-57.65 0.815,-1.854 1.633,-3.712 2.412,-5.585 z m 44.844,-33.972003 c 5.922,6.851 19.165,17.188003 24.767,3.729 1.52,-3.653 4.193,-8.583 7.216,-14.161 l 0.004,-0.008 10e-4,-10e-4 c 10.901,-20.11 26.354,-48.618 8.795,-55.926 -22.433,-9.337 -46.876,17.774 -40.783,66.367 z m 100.602,-41.47 c 0.616,-17.289 -2.262,-48.3139996 -18.704,-34.103 -20.552,17.764 -25.362,66.206 -10.407,72.431 11.964,4.979 24.392,-23.477 29.111,-38.328 z m -29.566,71.036003 c -11.623,15.632 -29.263,49.23 -6.83,58.567 28.04,11.67 58.546,-45.814 50.442,-57.96 -8.104,-12.147 -25.393,-12.763 -43.612,-0.607 z m -31.304,6.71 c 11.678,-10.492 31.294,-33.032003 16.339,-39.257003 -18.694,-7.78 -42.035,48.301003 -16.339,39.257003 z m -75.198,80.555 c -11.425,-7.68 -32.246,-17.37 -24.139,5.305 10.134,28.343 20.886,39.398 28.515,31.607 7.629,-7.79 11.982,-23.524 -4.376,-36.912 z m -151.184,-43.186 c 8.714,-20.936 34.941,-13.237 46.965,-6.771 23.926,27.504 -9.468,85.981 -41.174,77.17 -31.459,-8.741 -16.916,-43.674 -6.047,-69.782 z M 50.371846,14.168207 c -18.6896,2.749 -22.8962,22.648 -26.1633,32.254 -2.9506,22.897 19.1788,44.04 43.632,43.252 21.42,-0.691 26.673,-25.433 26.821,-45.662 0.021,-2.865 0.04,-5.439 0.116,-7.584 0.617,-17.289 -21.044,-25.696 -44.4057,-22.26 z M 3.2107461,113.21821 c 1.4868,-20.436003 20.6603999,-7.485 30.0613999,1.545 6.5478,15.885 18.2493,66.812 2.3648,73.36 -15.8845,6.548 -34.2846999,-49.361 -32.4261999,-74.905 z m 120.7098039,-0.203 c -15.682,-7.989 -48.603004,-20.230003 -54.827004,-5.275 -0.78,1.873 -1.597,3.73 -2.412,5.583 l -10e-4,0.002 c -7.323,16.647 -14.5139,32.993 6.798,57.65 23.686,27.404 52.191004,32.689 59.193004,15.864 7.003,-16.824 16.026,-43.773 -8.751,-73.824 z m 14.783,-35.518003 c -5.602,13.459 -18.845,3.122 -24.766,-3.729 -6.094,-48.593 10.349,-65.7039996 32.782,-56.367 17.559,7.308 10.106,25.817 -0.795,45.927 -3.025,5.581 -5.7,10.514 -7.221,14.169 z m 46.132,-58.302 c 16.442,-14.2109996 30.32,-4.186 29.703,13.103 -4.718,14.851 -17.147,43.307 -29.111,38.328 -14.955,-6.225 -21.145,-33.667 -0.592,-51.431 z m -45.762,186.633003 c 11.937,-11.115 39.083,-30.668 52.171,-19.957 16.359,13.389 -9.237,26.473 -25.576,33.315 -11.407,6.537 -56.926,6.916 -26.595,-13.358 z m 39.069,-43.927 c -22.432,-9.337 -4.793,-42.935 6.831,-58.567 18.218,-12.156003 35.507,-11.539003 43.611,0.607 8.104,12.146 -22.401,69.631 -50.442,57.96 z m -24.474,-51.857 c 11.678,-10.492004 31.294,-33.032003 16.339,-39.257003 -18.693,-7.78 -42.035,48.301003 -16.339,39.257003 z m -99.336904,85.86 c -8.1071,-22.675 12.7149,-12.985 24.1389,-5.305 16.358,13.388 12.005,29.122 4.377,36.913 -7.629,7.79 -18.382,-3.265 -28.5159,-31.608 z M 621.85055,54.881207 c 3.267,-9.606 14.474,-29.506 33.163,-32.254 23.362,-3.436 33.023,4.971 32.406,22.26 -0.076,2.144 -0.095,4.717 -0.116,7.581 v 0.002 c -0.148,20.229 -0.401,54.972003 -21.821,55.662003 -24.453,0.789 -46.583,-30.354003 -43.632,-53.251003 z m -20.563,-8.558 c -1.253,-18.068 -15.526,-27.637 -40.789,-29.55 -15.249,7.779 -15.548,23.516 -23.345,45.093 -2.169,6.004 -4.222,11.686 -6.255,16.569 -9.336,22.433003 16.37,39.712003 40.045,40.793003 23.675,1.081 31.91,-50.322003 30.344,-72.905003 z m 29.627,86.899003 c -9.401,-9.03 -28.575,-21.982 -30.062,-1.546 -1.858,25.545 16.542,81.454 32.426,74.906 15.885,-6.548 4.184,-57.475 -2.364,-73.36 z m 35.821,-7.023 c 6.224,-14.955 39.145,-2.715 54.827,5.275 24.777,30.051 15.754,57 8.751,73.824 -7.002,16.824 -35.507,11.54 -59.193,-15.864 -21.312,-24.658 -14.121,-41.004 -6.798,-57.65 0.816,-1.854 1.633,-3.712 2.413,-5.585 z m 44.844,-33.972003 c 5.921,6.850999 19.164,17.188003 24.766,3.729 1.521,-3.655 4.196,-8.589 7.221,-14.17 10.901,-20.11 26.354,-48.618 8.795,-55.926 -22.432,-9.337 -46.875,17.774 -40.782,66.367 z m 100.602,-41.47 c 0.616,-17.289 -2.262,-48.3139996 -18.704,-34.103 -20.553,17.764 -25.363,66.206 -10.408,72.431 11.964,4.979 24.393,-23.477 29.112,-38.328 z m -29.566,71.036003 c -11.624,15.632 -29.263,49.23 -6.831,58.567 28.041,11.67 58.546,-45.815 50.442,-57.961 -8.104,-12.146 -25.393,-12.762 -43.611,-0.606 z m -31.305,6.71 c 11.678,-10.492 31.294,-33.033003 16.339,-39.257003 -18.693,-7.78 -42.035,48.301003 -16.339,39.257003 z m -75.198,80.555 c -11.424,-7.68 -32.246,-17.37 -24.139,5.305 10.134,28.343 24.139,15.077 28.515,10.607 7.629,-7.79 -3.227,-14.284 -4.376,-15.912 z m -151.183,-43.186 c 8.714,-20.937 34.94,-13.238 46.964,-6.771 23.926,27.504 -9.468,85.98 -41.174,77.17 -31.458,-8.741 -16.915,-43.675 -6.047,-69.782 z m -22.883,45.288 c -6.599,-12.25 -23.066,-34.164 -36.145,-23.816 -16.348,12.934 -36.902,30.698 -16.339,39.256 20.564,8.559 47.198,13.065 52.484,-15.44 z" stroke="#0b0d13" id="path840" />
</svg>
