<svg
   width="892"
   height="650"
   viewBox="0 0 892 650"
   fill="none"
   version="1.1"
   id="svg1020"
   xmlns="http://www.w3.org/2000/svg">
  <path
     d="m 801.0597,401.40923 c 68.36,4.797 61.49,-133.253 49.52,-202.878 l -49.52,7.495 c 29.13,54.468 69.91,167.3 0,182.891 -69.901,15.59 -104.204,-66.46 -112.618,-109.435 l -22.332,-6.496 c -21.36,69.958 49.516,122.427 134.95,128.423 z"
     fill="#2b2b26"
     id="path924" />
  <path
     fill-rule="evenodd"
     clip-rule="evenodd"
     d="m 853.0397,195.12523 0.5,2.898 c 6.01,34.959 10.77,87.202 5.38,130.228 -2.69,21.48 -7.94,40.999 -17.09,54.921 -9.27,14.104 -22.63,22.517 -40.97,21.23 -43.212,-3.033 -82.967,-17.821 -109.302,-40.965 -26.441,-23.238 -39.403,-55.016 -28.316,-91.327 l 0.864,-2.831 26.93,7.833 0.351,1.794 c 4.15,21.195 14.69,51.973 32.688,75.429 17.931,23.37 42.909,39.109 76.335,31.654 16.51,-3.682 26.28,-12.979 31.47,-25.699 5.26,-12.919 5.87,-29.578 3.35,-47.83 -5.03,-36.471 -22.33,-77.94 -36.81,-105.019 l -2,-3.745 z m -47.35,13.236 c 14.22,27.391 30.55,67.49 35.48,103.28 2.59,18.713 2.1,36.589 -3.74,50.914 -5.92,14.523 -17.27,25.176 -35.71,29.29 -36.479,8.135 -63.606,-9.356 -82.405,-33.857 -18.225,-23.752 -28.958,-54.431 -33.454,-76.132 l -17.7,-5.149 c -8.776,32.462 3.05,60.86 27.358,82.223 25.123,22.079 63.525,36.523 105.761,39.487 15.82,1.11 27.25,-5.933 35.54,-18.541 8.4,-12.789 13.5,-31.234 16.15,-52.37 5.13,-41.045 0.87,-90.969 -4.86,-125.567 z"
     fill="#0f0e0d"
     id="path926" />
  <g
     opacity="0.65"
     id="g932"
     transform="translate(-209.7303,-181.46877)">
    <path
       d="m 1065,501 c -8,-3.2 -13,8.333 -14.5,14.5 0,-10 -2.33,-26.833 -3.5,-34 l 18,-29 c 4.4,9.2 1.83,36.167 0,48.5 z"
       fill="#0f0e0d"
       id="path928" />
    <path
       d="m 1056,545 -9,-8 c 0,9.2 -9.33,19.167 -14,23 10.4,0.4 4.33,11.167 0,16.5 9.6,-3.6 19.33,-22.5 23,-31.5 z"
       fill="#0f0e0d"
       id="path930" />
  </g>
  <path
     d="m 138.9447,304.05323 c 0.743,-13.242 11.698,-23.598 24.96,-23.598 h 562.73 c 13.263,0 24.217,10.356 24.961,23.598 l 17.191,306 c 0.805,14.335 -10.602,26.402 -24.961,26.402 h -597.112 c -14.358,0 -25.766,-12.067 -24.96,-26.402 z"
     fill="#181816"
     id="path934" />
  <path
     d="m 138.9447,304.05323 c 0.743,-13.242 11.698,-23.598 24.96,-23.598 h 562.73 c 13.263,0 24.217,10.356 24.961,23.598 l 17.191,306 c 0.805,14.335 -10.602,26.402 -24.961,26.402 h -597.112 c -14.358,0 -25.766,-12.067 -24.96,-26.402 z"
     fill="url(#paint0_linear_246_90)"
     id="path936"
     style="fill:url(#paint0_linear_246_90)" />
  <path
     d="m 855.7997,382.13223 c 26.77,3.023 14.92,-134.545 5.65,-203.706 l -18.65,8.757 c 14.89,53.595 38.18,165.124 12.17,182.485 -26.01,17.36 -44.74,-63.623 -50.86,-106.285 l -9.07,-5.905 c -3.61,70.354 27.31,120.877 60.76,124.654 z"
     fill="#2b2b26"
     id="path938" />
  <path
     fill-rule="evenodd"
     clip-rule="evenodd"
     d="m 865.4997,171.00223 0.91,6.76 c 4.65,34.679 9.95,86.57 10.73,129.496 0.39,21.406 -0.34,40.891 -2.94,54.956 -1.29,6.973 -3.13,13.093 -5.83,17.49 -2.78,4.513 -7.12,8.076 -13.13,7.397 -19.06,-2.152 -36.3,-17.376 -48.15,-40.011 -11.93,-22.805 -18.886,-53.938 -17.044,-89.868 l 0.444,-8.671 18.25,11.879 0.32,2.244 c 3.04,21.171 9.19,51.687 17.71,74.618 4.3,11.576 8.99,20.604 13.77,25.654 2.36,2.487 4.39,3.645 6.06,3.997 1.5,0.316 3.28,0.112 5.59,-1.434 2.08,-1.383 4.04,-3.975 5.66,-8.239 1.6,-4.239 2.71,-9.739 3.3,-16.353 1.2,-13.224 0.31,-30.067 -1.89,-48.305 -4.4,-36.421 -13.88,-77.442 -21.28,-104.09 l -1.13,-4.07 z m -4.05,7.424 -18.65,8.757 c 14.89,53.595 38.18,165.124 12.17,182.485 -26.01,17.36 -44.74,-63.623 -50.86,-106.285 l -9.07,-5.905 c -0.1,1.956 -0.17,3.897 -0.22,5.822 -1.67,67.306 28.46,115.16 60.98,118.833 26.11,2.948 15.48,-127.891 6.34,-198.505 -0.23,-1.773 -0.46,-3.508 -0.69,-5.202 z"
     fill="#0f0e0d"
     id="path940" />
  <g
     opacity="0.65"
     id="g946"
     transform="translate(-209.7303,-181.46877)">
    <path
       d="m 1029.5,503 c -7.2,-6.4 -11.67,9.333 -13,18 l -14,-39 20,-2.5 z"
       fill="#0f0e0d"
       id="path942" />
    <path
       d="m 1076.5,412.5 -11.5,25.5 5,20 c 0,-12 8.33,-12.667 12.5,-11.5 z"
       fill="#0f0e0d"
       id="path944" />
  </g>
  <path
     d="m 113.8557,339.65523 c 44.839,-11.987 41.765,-113.921 29.009,-185.947 l -11.289,-8.63 c 13.071,55.883 28.052,170.546 -16.587,182.136 -44.637998,11.59 -58.406998,-72.054 -59.710998,-115.325 l 2.601,-21.713 c -19.552,68.467 2.787,163.699 55.976998,149.479 z"
     fill="#2b2b26"
     id="path948" />
  <path
     fill-rule="evenodd"
     clip-rule="evenodd"
     d="m 147.4477,150.91923 0.339,1.918 c 6.421,36.254 10.447,80.221 7.151,116.808 -1.646,18.271 -5.145,35.04 -11.315,48.156 -6.187,13.152 -15.346,23.174 -28.476,26.684 -14.991,4.008 -28.047998,0.24 -38.493998,-8.774 -10.225,-8.824 -17.778,-22.49 -22.827,-38.264 -10.103,-31.569 -10.791,-73.503 -0.756,-108.644 l 9.772,1.968 -2.556,21.339 c 0.676,21.347 4.415,52.257 13.287,76.282 4.475,12.118 10.073,21.971 16.798,28.075 6.475,5.877 14.002998,8.337 23.360998,5.908 8.857,-2.3 15.396,-9.805 19.802,-22.312 4.399,-12.488 6.29,-29.013 6.389,-47.334 0.198,-36.572 -6.732,-78.793 -13.216,-106.513 l -3.177,-13.584 z m -96.133998,78.244 c 0.372,-5.772 0.989,-11.53 1.856,-17.211 0.016,-0.103 0.032,-0.206 0.048,-0.31 1.132,-7.335 2.681,-14.537 4.66,-21.466 l -2.601,21.713 c 0.158,5.228 0.497,11.046 1.051,17.214 4.032,44.879 19.416,108.301 58.660998,98.111 42.699,-11.087 30.846,-116.488 18.296,-174.536 -0.57,-2.635 -1.142,-5.173 -1.709,-7.6 l 11.288,8.631 c 12.757,72.025 15.831,173.959 -29.008,185.946 -43.565998,11.647 -66.435998,-50.133 -62.541998,-110.492 z"
     fill="#0f0e0d"
     id="path950" />
  <g
     opacity="0.65"
     id="g956"
     transform="translate(-209.7303,-181.46877)">
    <path
       d="m 275.999,480.5 c -4,1.6 2.334,18.667 6,27 -6.4,-6 -15.999,-33.167 -19.999,-46 l 16.5,6.5 5.5,14 c -1,-1.167 -4.001,-3.1 -8.001,-1.5 z"
       fill="#0f0e0d"
       id="path952" />
    <path
       d="m 347,480.5 -3.5,10.5 c 2.8,-4.4 9.833,-5.833 13,-6 v -3 z"
       fill="#0f0e0d"
       id="path954" />
  </g>
  <path
     d="m 30.606702,263.01423 c -13.25,-35.964 -17.745,-158.133 -18.337,-220.044998 -0.475,-28.985 785.539998,0 813.929998,0 1.92,0 3.65,0.856 5.19,2.461 9.63,5.377 23.41,17.275 27.35,36.579 5.91,28.983998 7.09,211.172998 -18.34,223.594998 -297.548,7.295 -800.356998,18.455 -809.792998,-42.59 z"
     fill="#181816"
     id="path958" />
  <path
     fill-rule="evenodd"
     clip-rule="evenodd"
     d="m 769.2727,39.359232 c 32.127,0.981 52.747,1.61 56.927,1.61 2.49,0 4.63,1.087 6.42,2.855 9.92,5.616 24.01,17.887 28.08,37.785 1.52,7.446 2.7,24.441998 3.24,45.765998 0.55,21.393 0.46,47.317 -0.62,72.727 -1.07,25.396 -3.13,50.339 -6.52,69.745 -1.7,9.695 -3.74,18.087 -6.2,24.488 -1.23,3.201 -2.58,5.964 -4.09,8.16 -1.5,2.184 -3.22,3.923 -5.23,4.906 l -0.4,0.191 -0.43,0.011 c -148.767,3.648 -348.905,8.263 -513.036,4.333 -82.056,-1.965 -155.183,-6.066 -208.415,-13.507 -26.601998,-3.718 -48.341998,-8.284 -63.772998,-13.879 -7.71,-2.795 -13.952,-5.885 -18.454,-9.329 -4.429,-3.389 -7.354,-7.265 -8.108,-11.697 -3.366,-9.227 -6.131,-23.722 -8.411,-41.098 -2.302,-17.536 -4.128,-38.16 -5.557,-59.571 -2.857,-42.821 -4.129,-88.877998 -4.426,-119.861998 -0.03,-2.139 1.725,-3.505 3.263,-4.335 1.703,-0.918 4.097,-1.707 7.02,-2.41 5.882,-1.415 14.432,-2.6 25.206,-3.593 21.579,-1.988 52.415,-3.234 89.457998,-3.914 74.104,-1.359 173.229,-0.453 273.23,1.359 141.128,2.556 283.935,6.913 360.826,9.259 z M 38.389702,271.40023 c 0.262,0.215 0.533,0.43 0.813,0.644 4.046,3.096 9.865,6.019 17.387,8.746 15.035,5.451 36.449,9.972 62.961998,13.678 52.997,7.407 125.938,11.505 207.957,13.469 163.845,3.923 363.636,-0.675 512.371,-4.321 1.06,-0.618 2.18,-1.708 3.33,-3.383 1.27,-1.852 2.49,-4.305 3.66,-7.331 2.32,-6.054 4.31,-14.159 5.99,-23.744 3.35,-19.155 5.4,-43.899 6.47,-69.225 1.07,-25.314 1.16,-51.147 0.61,-72.455 -0.54,-21.377 -1.73,-38.022998 -3.16,-45.068998 -2.9,-14.171 -11.32,-24.22 -19.29,-30.494 0.88,2.23 1.66,4.736 2.36,7.451 1.74,6.809 3.02,15.265 3.95,24.78 1.85,19.035998 2.31,42.536998 2.1,66.043998 -0.21,23.518 -1.08,47.095 -1.91,66.298 -0.23,5.336 -0.45,10.327 -0.66,14.882 -0.53,11.879 -0.93,20.793 -0.93,25.138 0,21.412 -9.74,33.588 -15.09,37.155 l -0.5,0.333 -0.6,0.003 c -21.57,0.102 -44.236,0.227 -67.726,0.357 -135.068,0.748 -297.32,1.645 -434.356,-0.846 -80.429,-1.461 -152.218,-4.091 -204.744,-8.608 -26.252998,-2.257 -47.760998,-4.992 -63.151998,-8.305 -7.319,-1.575 -13.333,-3.297 -17.842,-5.197 z M 825.8297,44.967232 c 1.24,0.491 2.71,1.174 4.32,2.06 2.21,2.424 4.18,6.907 5.82,13.33 1.67,6.53 2.93,14.761 3.85,24.177 1.83,18.824998 2.29,42.159998 2.08,65.619998 -0.21,23.45 -1.08,46.974 -1.9,66.163 -0.23,5.261 -0.45,10.205 -0.66,14.735 -0.53,11.946 -0.94,21.015 -0.94,25.456 0,19.491 -8.53,30.279 -12.84,33.494 -21.38,0.102 -43.843,0.226 -67.107,0.354 -135.071,0.748 -297.268,1.645 -434.252,-0.845 -80.41,-1.461 -152.088,-4.089 -204.474,-8.594 -26.202998,-2.253 -47.512998,-4.971 -62.653998,-8.23 -7.579,-1.632 -13.525,-3.381 -17.741,-5.236 -2.107,-0.927 -3.717,-1.853 -4.866,-2.757 -1.158,-0.911 -1.74,-1.715 -1.982,-2.371 -3.229,-8.765 -5.973,-22.951 -8.265,-40.417 -2.287,-17.42 -4.106,-37.951 -5.532,-59.317 -2.848,-42.688 -4.119,-88.620998 -4.416,-119.548998 0.056,-0.088 0.293,-0.393 1.161,-0.861 1.246,-0.672 3.242,-1.366 6.057,-2.042 5.593,-1.345 13.91,-2.51 24.638,-3.498 21.426,-1.975 52.142,-3.219 89.163998,-3.899 74.027,-1.357 173.092,-0.452 273.084,1.359 140.932,2.553 283.773,6.909 360.754,9.257 31.331,0.956 51.761,1.578 56.701,1.611 z"
     fill="#0f0e0d"
     id="path960" />
  <path
     d="m 855.2697,250.45523 c -7.2,16.4 -10,-36.5 -10.5,-65 l -6.5,87.5 c -0.83,11.2 -9.35,17 -13.5,18.5 h -32 l -329,2.5 c 28.5,12 271.5,1.5 299,1.5 22,0 13.833,7.666 7,11.5 15.167,-0.5 49.6,-1.6 66,-2 16.4,-0.4 19.83,-36.5 19.5,-54.5 z"
     fill="#0f0e0d"
     id="path962" />
  <path
     d="m 844.7697,141.95523 c 10.4,-45.599998 1.67,-78.333998 -4,-88.999998 l -5,-2.5 c 8.8,16 9.67,67.665998 9,91.499998 z"
     fill="#0f0e0d"
     id="path964" />
  <path
     opacity="0.6"
     d="m 844.7697,144.03123 -4,-84.499998 v -6 c 10.8,4 17.17,24.667 19,34.5 l 3,64.999998 c -0.83,27.333 -2.8,84.2 -4,93 -1.2,8.8 -7.5,12.333 -10.5,13 l -3.5,-18 z"
     fill="#0f0e0d"
     id="path966" />
  <path
     opacity="0.6"
     d="m 440.2697,293.53123 h 360 v 13 l -110,3 -212,2 -170,-2 c -24,-0.4 -113.667,-5.833 -155.5,-8.5 l -80.999998,-13 c -27.6,-4.4 -34.833,-16.5 -35,-22 1.2,22.4 269.499998,27.667 403.499998,27.5 z"
     fill="#0f0e0d"
     id="path968" />
  <g
     filter="url(#filter0_f_246_90)"
     id="g972"
     transform="translate(-209.7303,-181.46877)">
    <path
       fill-rule="evenodd"
       clip-rule="evenodd"
       d="m 453.284,299.1 h 34.9 V 250.596 H 376.978 l 5.915,48.504 h 29.576 v 134.867 h 40.815 z m -8,126.867 V 291.1 h 34.9 v -32.504 h -94.171 l 3.964,32.504 h 30.492 V 425.967 Z M 636.064,250.596 H 591.7 v 183.371 h 83.404 c 1.167,-7.003 3.328,-26.765 4.756,-39.83 0.092,-0.846 0.182,-1.664 0.267,-2.449 0.381,-3.474 0.692,-6.293 0.892,-8 h -52.053 z m 36.015,141.092 h -51.552 l 7.099,-133.092 H 599.7 v 167.371 h 68.46 c 1.138,-8.841 2.611,-22.315 3.698,-32.26 0.075,-0.691 0.149,-1.365 0.221,-2.019 z M 938.331,259.469 h -46.73 l 39.04,105.29 v 62.11 h 56.194 l -4.14,-57.378 40.815,-118.895 h -52.054 l -17.154,55.011 z m 39.01,-0.873 -22.643,72.613 -22.064,-63.74 h -29.535 l 35.542,95.855 v 55.545 h 39.596 l -3.639,-50.431 37.712,-109.842 z m -165.877,31.913 v 128.36 h 31.322 v -128.36 h 26.027 v -31.913 h -90.474 v 31.913 z m -41.125,-39.913 h 106.474 v 47.913 h -26.027 v 128.36 h -47.322 v -128.36 h -33.125 z m -507.66,8 c -3.74,28.617 -5.991,68.354 -1.688,102.334 2.335,18.437 6.524,34.521 12.977,46.141 6.356,11.446 14.403,17.789 24.645,18.947 15.172,1.715 26.09,-1.831 34.241,-8.812 8.404,-7.196 14.766,-18.815 19.016,-34.831 8.147,-30.704 7.739,-74.447 2.554,-123.779 h -21.245 c 0.677,24.496 0.763,56.597 -0.969,81.953 -0.954,13.974 -2.502,26.666 -5.097,34.888 -0.667,2.112 -1.48,4.19 -2.512,6.026 -0.984,1.749 -2.493,3.872 -4.821,5.364 -2.666,1.708 -5.93,2.263 -9.175,1.257 -2.833,-0.878 -4.945,-2.725 -6.431,-4.385 -5.528,-6.179 -8.801,-16.051 -10.956,-26.304 -2.235,-10.631 -3.557,-23.195 -4.275,-36.051 -1.224,-21.901 -0.732,-45.298 0.243,-62.748 z m -6.962,-8 c -8.676,58.56 -12.422,177.219 41.997,183.371 68.025,7.69 75.715,-78.672 63.884,-183.371 h -36.674 c 0.09,2.555 0.175,5.228 0.252,8 1.434,51.548 0.228,136.833 -15.04,119.768 -14.952,-16.711 -15.055,-82.398 -12.938,-119.768 0.161,-2.842 0.335,-5.52 0.516,-8 z m 253.17,183.371 V 250.596 h 49.688 l -9.465,183.371 z m 32.625,-8 8.639,-167.371 h -33.264 v 167.371 z m 169.646,-8.366 -8.7,-156.044 32.671,-2.362 v 164.489 z m 31.971,-167.005 -49.096,3.549 9.464,169.766 39.632,10.056 z"
       fill="#ec57e2"
       id="path970" />
  </g>
  <g
     filter="url(#filter1_f_246_90)"
     id="g976"
     transform="translate(-209.7303,-181.46877)">
    <path
       fill-rule="evenodd"
       clip-rule="evenodd"
       d="m 453.284,299.1 h 34.9 V 250.596 H 376.978 l 5.915,48.504 h 29.576 v 134.867 h 40.815 z m -8,126.867 V 291.1 h 34.9 v -32.504 h -94.171 l 3.964,32.504 h 30.492 V 425.967 Z M 636.064,250.596 H 591.7 v 183.371 h 83.404 c 1.167,-7.003 3.328,-26.765 4.756,-39.83 0.092,-0.846 0.182,-1.664 0.267,-2.449 0.381,-3.474 0.692,-6.293 0.892,-8 h -52.053 z m 36.015,141.092 h -51.552 l 7.099,-133.092 H 599.7 v 167.371 h 68.46 c 1.138,-8.841 2.611,-22.315 3.698,-32.26 0.075,-0.691 0.149,-1.365 0.221,-2.019 z M 938.331,259.469 h -46.73 l 39.04,105.29 v 62.11 h 56.194 l -4.14,-57.378 40.815,-118.895 h -52.054 l -17.154,55.011 z m 39.01,-0.873 -22.643,72.613 -22.064,-63.74 h -29.535 l 35.542,95.855 v 55.545 h 39.596 l -3.639,-50.431 37.712,-109.842 z m -165.877,31.913 v 128.36 h 31.322 v -128.36 h 26.027 v -31.913 h -90.474 v 31.913 z m -41.125,-39.913 h 106.474 v 47.913 h -26.027 v 128.36 h -47.322 v -128.36 h -33.125 z m -507.66,8 c -3.74,28.617 -5.991,68.354 -1.688,102.334 2.335,18.437 6.524,34.521 12.977,46.141 6.356,11.446 14.403,17.789 24.645,18.947 15.172,1.715 26.09,-1.831 34.241,-8.812 8.404,-7.196 14.766,-18.815 19.016,-34.831 8.147,-30.704 7.739,-74.447 2.554,-123.779 h -21.245 c 0.677,24.496 0.763,56.597 -0.969,81.953 -0.954,13.974 -2.502,26.666 -5.097,34.888 -0.667,2.112 -1.48,4.19 -2.512,6.026 -0.984,1.749 -2.493,3.872 -4.821,5.364 -2.666,1.708 -5.93,2.263 -9.175,1.257 -2.833,-0.878 -4.945,-2.725 -6.431,-4.385 -5.528,-6.179 -8.801,-16.051 -10.956,-26.304 -2.235,-10.631 -3.557,-23.195 -4.275,-36.051 -1.224,-21.901 -0.732,-45.298 0.243,-62.748 z m -6.962,-8 c -8.676,58.56 -12.422,177.219 41.997,183.371 68.025,7.69 75.715,-78.672 63.884,-183.371 h -36.674 c 0.09,2.555 0.175,5.228 0.252,8 1.434,51.548 0.228,136.833 -15.04,119.768 -14.952,-16.711 -15.055,-82.398 -12.938,-119.768 0.161,-2.842 0.335,-5.52 0.516,-8 z m 253.17,183.371 V 250.596 h 49.688 l -9.465,183.371 z m 32.625,-8 8.639,-167.371 h -33.264 v 167.371 z m 169.646,-8.366 -8.7,-156.044 32.671,-2.362 v 164.489 z m 31.971,-167.005 -49.096,3.549 9.464,169.766 39.632,10.056 z"
       fill="#ec57e2"
       id="path974" />
  </g>
  <g
     filter="url(#filter2_f_246_90)"
     id="g980"
     transform="translate(-209.7303,-181.46877)">
    <path
       fill-rule="evenodd"
       clip-rule="evenodd"
       d="m 457.284,304.1 h 34.9 V 255.596 H 380.978 l 5.915,48.504 h 29.576 v 134.867 h 40.815 z m -8,126.867 V 296.1 h 34.9 v -32.504 h -94.171 l 3.964,32.504 h 30.492 V 430.967 Z M 640.064,255.596 H 595.7 v 183.371 h 83.404 c 1.167,-7.003 3.328,-26.765 4.756,-39.83 0.092,-0.846 0.182,-1.664 0.267,-2.449 0.381,-3.474 0.692,-6.293 0.892,-8 h -52.053 z m 36.015,141.092 h -51.552 l 7.099,-133.092 H 603.7 v 167.371 h 68.46 c 1.138,-8.841 2.611,-22.315 3.698,-32.26 0.075,-0.691 0.149,-1.365 0.221,-2.019 z M 942.331,264.469 h -46.73 l 39.04,105.29 v 62.11 h 56.194 l -4.14,-57.378 40.815,-118.895 h -52.054 l -17.154,55.011 z m 39.01,-0.873 -22.643,72.613 -22.064,-63.74 h -29.535 l 35.542,95.855 v 55.545 h 39.596 l -3.639,-50.431 37.712,-109.842 z m -165.877,31.913 v 128.36 h 31.322 v -128.36 h 26.027 v -31.913 h -90.474 v 31.913 z m -41.125,-39.913 h 106.474 v 47.913 h -26.027 v 128.36 h -47.322 v -128.36 h -33.125 z m -507.66,8 c -3.74,28.617 -5.991,68.354 -1.688,102.334 2.335,18.437 6.524,34.521 12.977,46.141 6.356,11.446 14.403,17.789 24.645,18.947 15.172,1.715 26.09,-1.831 34.241,-8.812 8.404,-7.196 14.766,-18.815 19.016,-34.831 8.147,-30.704 7.739,-74.447 2.554,-123.779 h -21.245 c 0.677,24.496 0.763,56.597 -0.969,81.953 -0.954,13.974 -2.502,26.666 -5.097,34.888 -0.667,2.112 -1.48,4.19 -2.512,6.026 -0.984,1.749 -2.493,3.872 -4.821,5.364 -2.666,1.708 -5.93,2.263 -9.175,1.257 -2.833,-0.878 -4.945,-2.725 -6.431,-4.385 -5.528,-6.179 -8.801,-16.051 -10.956,-26.304 -2.235,-10.631 -3.557,-23.195 -4.275,-36.051 -1.224,-21.901 -0.732,-45.298 0.243,-62.748 z m -6.962,-8 c -8.676,58.56 -12.422,177.219 41.997,183.371 68.025,7.69 75.715,-78.672 63.884,-183.371 h -36.674 c 0.09,2.555 0.175,5.228 0.252,8 1.434,51.548 0.228,136.833 -15.04,119.768 -14.952,-16.711 -15.055,-82.398 -12.938,-119.768 0.161,-2.842 0.335,-5.52 0.516,-8 z m 253.17,183.371 V 255.596 h 49.688 l -9.465,183.371 z m 32.625,-8 8.639,-167.371 h -33.264 v 167.371 z m 169.646,-8.366 -8.7,-156.044 32.671,-2.362 v 164.489 z m 31.971,-167.005 -49.096,3.549 9.464,169.766 39.632,10.056 z"
       fill="#1e1e1e"
       fill-opacity="0.3"
       id="path978" />
  </g>
  <path
     fill-rule="evenodd"
     clip-rule="evenodd"
     d="m 243.5537,121.63123 c 0,-2.209 1.791,-4 4,-4 h 26.818 c 2.241,0 4.044,-1.84 3.999,-4.08 l -0.838,-41.468998 c -0.044,-2.192 -1.843,-3.939 -4.035,-3.919 l -101.774,0.923 c -2.387,0.022 -4.223,2.115 -3.934,4.484 l 4.944,40.545998 c 0.245,2.007 1.949,3.515 3.971,3.515 h 22.034 c 2.209,0 4,1.791 4,4 v 126.867 c 0,2.209 1.791,4 4,4 h 32.815 c 2.209,0 4,-1.791 4,-4 z m -12.03,122.867 c 2.221,0 4.016,-1.809 4,-4.03 l -0.941,-125.912 c -0.016,-2.179 1.716,-3.971 3.895,-4.028 l 29.959,-0.791 c 2.216,-0.058 3.961,-1.906 3.893,-4.121 l -0.757,-24.611998 c -0.067,-2.161 -1.837,-3.877 -3.998,-3.877 h -86.775 c -2.401,0 -4.261,2.1 -3.971,4.484 l 2.974,24.386998 c 0.251,2.057 2.031,3.581 4.102,3.513 l 22.642,-0.742 c 2.282,-0.075 4.164,1.773 4.13,4.057 l -1.878,127.613 c -0.033,2.232 1.767,4.059 3.999,4.059 z M 426.1087,73.340232 c 0.122,-2.29 -1.701,-4.213 -3.994,-4.213 h -36.101 c -2.227,0 -4.024,1.817 -4,4.043 l 1.913,175.371998 c 0.023,2.192 1.807,3.956 3.999,3.956 h 74.06 c 1.955,0 3.621,-1.41 3.891,-3.346 1.215,-8.696 3.011,-25.123 4.253,-36.484 0.092,-0.846 0.182,-1.664 0.267,-2.449 0.14,-1.272 0.27,-2.457 0.388,-3.531 0.263,-2.38 -1.6,-4.469 -3.994,-4.469 h -43.336 c -2.293,0 -4.117,-1.924 -3.995,-4.213 z m 36.019,138.897998 c 0.117,-1.071 -0.733,-2.001 -1.81,-1.981 l -46.14,0.878 c -2.352,0.045 -4.235,-1.94 -4.066,-4.286 l 8.845,-122.885998 c 0.155,-2.158 -1.434,-4.049 -3.587,-4.267 l -20.998,-2.124 c -2.356,-0.238 -4.402,1.611 -4.402,3.98 V 239.55723 c 0,2.186 1.755,3.967 3.94,4 l 59.949,0.888 c 2.034,0.03 3.766,-1.471 4.058,-3.484 1.251,-8.636 3.26,-20.028 4.211,-28.723 z M 729.5327,80.691232 c -0.558,-1.611 -2.076,-2.691 -3.78,-2.691 h -38.133 c -2.787,0 -4.719,2.777 -3.751,5.39 l 36.792,99.226998 c 0.166,0.445 0.25,0.916 0.25,1.391 v 57.392 c 0,2.209 1.791,4 4,4 h 47.82 c 2.35,0 4.194,-2.016 3.984,-4.357 l -4.672,-52.145 c -0.051,-0.577 0.023,-1.158 0.218,-1.704 l 39.679,-110.931998 c 0.91,-2.545 -0.91,-5.241 -3.61,-5.345 l -43.544,-1.673 c -1.806,-0.069 -3.434,1.081 -3.972,2.807 l -12.622,40.476998 c -1.149,3.685 -6.336,3.765 -7.598,0.118 z m 40.352,-6.291 c -1.903,-0.159 -3.652,1.049 -4.178,2.885 l -17.255,60.282998 c -1.075,3.757 -6.347,3.901 -7.625,0.208 l -16.955,-48.979998 c -0.575,-1.662 -2.168,-2.753 -3.925,-2.689 l -19.295,0.701 c -2.651,0.096 -4.476,2.698 -3.663,5.223 l 28.763,89.330998 c 0.106,0.327 0.168,0.667 0.187,1.01 l 2.768,51.244 c 0.114,2.122 1.868,3.784 3.994,3.784 h 31.507 c 2.323,0 4.157,-1.972 3.99,-4.288 l -3.271,-45.328 c -0.039,-0.538 0.031,-1.077 0.206,-1.587 l 35.777,-104.211998 c 0.84,-2.466 -0.86,-5.069 -3.45,-5.285 z m -176.162,33.777998 c 2.213,-0.076 4.067,1.66 4.135,3.874 l 3.756,121.471 c 0.067,2.16 1.837,3.877 3.998,3.877 h 23.444 c 2.209,0 4,-1.791 4,-4 v -120.36 c 0,-2.209 1.791,-4 4,-4 h 18.027 c 2.209,0 4,-1.791 4,-4 V 81.127232 c 0,-2.209 -1.791,-4 -4,-4 h -82.474 c -2.209,0 -4,1.791 -4,4 v 23.772998 c 0,2.263 1.876,4.075 4.137,3.998 z m -33.026,-34.926998 c -0.048,-2.257 1.779,-4.107 4.036,-4.086 l 98.387,0.924 c 2.195,0.021 3.963,1.806 3.963,4 v 38.950998 c 0,2.209 -1.791,4 -4,4 h -18.027 c -2.209,0 -4,1.791 -4,4 v 120.443 c 0,2.177 -1.74,3.954 -3.916,4 l -39.321,0.831 c -2.242,0.047 -4.085,-1.757 -4.085,-4 v -121.397 c 0,-2.16 -1.716,-3.931 -3.875,-3.998 l -24.456,-0.761 c -2.127,-0.066 -3.83,-1.786 -3.875,-3.913 z m -504.235998,3.876 c -2.009,0 -3.706,1.483 -3.961,3.476 -3.617,28.301998 -7.371,66.232998 -3.239,98.857998 2.335,18.437 7.524,34.521 13.977,46.141 6.356,11.446 15.403,20.789 25.645,21.947 15.171998,1.715 26.089998,-4.831 34.240998,-11.812 8.404,-7.196 14.766,-18.815 19.016,-34.831 7.959,-29.994 6.799,-71.476 1.907,-119.366998 -0.2,-1.962 -1.806,-3.484 -3.776,-3.581 l -12.507,-0.618 c -2.327,-0.115 -4.259,1.773 -4.204,4.103 0.569,23.863998 0.552,53.744998 -1.08,77.636998 -0.954,13.974 -2.502,26.666 -5.097,34.888 -0.667,2.112 -1.48,4.19 -2.512,6.026 -0.984,1.749 -2.493,3.872 -4.821,5.364 -2.666,1.708 -5.93,2.263 -9.175,1.257 -2.832998,-0.878 -4.944998,-2.725 -6.430998,-4.385 -5.528,-6.179 -8.801,-16.051 -10.956,-26.304 -2.235,-10.631 -3.557,-23.195 -4.275,-36.051 -1.128,-20.18 -0.799,-41.630998 0.023,-58.527998 0.111,-2.294 -1.713,-4.22 -4.01,-4.22 z m -7.023,-8 c -1.983,0 -3.663,1.413 -3.937,3.377 -8.311,59.619998 -10.91,173.957998 42.483,179.993998 67.230998,7.6 76.503998,-77.644 65.289998,-180.709998 -0.224,-2.063 -1.999,-3.619 -4.075,-3.564 l -29.971,0.796 c -2.222,0.059 -3.969,1.918 -3.899,4.14 0.041,1.298 0.08,2.621 0.117,3.967 1.434,51.547998 0.228,136.832998 -15.04,119.767998 -14.951998,-16.711 -15.054998,-82.398 -12.937998,-119.767998 0.072,-1.27 0.147,-2.507 0.223,-3.708 0.148,-2.319 -1.685,-4.292 -4.009,-4.292 z M 303.1567,252.49823 c -2.209,0 -4,-1.791 -4,-4 V 73.045232 c 0,-2.177 1.741,-3.954 3.918,-3.999 l 40.496,-0.832 c 2.313,-0.047 4.184,1.872 4.078,4.183 l -8.094,176.284998 c -0.098,2.135 -1.858,3.816 -3.995,3.816 z m 24.652,-8.184 c 2.198,0.102 4.066,-1.591 4.18,-3.788 l 8.22,-158.316998 c 0.116,-2.24 -1.632,-4.138 -3.874,-4.205 l -24.983,-0.751 c -2.284,-0.069 -4.161,1.786 -4.12,4.07 l 2.857,158.424998 c 0.038,2.109 1.708,3.826 3.815,3.923 z m 180.399,-12.142 c -1.117,-0.652 -1.85,-1.804 -1.966,-3.092 L 493.0957,84.145232 c -0.202,-2.229 1.464,-4.19 3.696,-4.351 l 24.319,-1.758 c 2.316,-0.168 4.288,1.667 4.288,3.989 V 235.24623 c 0,3.088 -3.351,5.011 -6.018,3.453 z m 25.191,-158.745998 c 0,-2.322 -1.972,-4.157 -4.288,-3.989 l -40.884,2.955 c -2.178,0.158 -3.827,2.032 -3.705,4.212 l 9.082,162.905998 c 0.097,1.745 1.316,3.225 3.01,3.655 l 31.801,8.069 c 2.528,0.641 4.984,-1.27 4.984,-3.878 z"
     fill="#fdf8fd"
     id="path982" />
  <path
     d="m 155.2697,23.455232 c -37.6,0 -105.666998,5.333 -134.999998,8 31.5,-21.5000001 318.999998,-15.001 351.999998,-15.001 7.498,0 0.745,0.775 32.5,1.878 3.088,0.107 36.257,-9.7820001 39.5,-9.6690001 32.222,1.124 81.733,4.5140001 122,5.7680001 8.32,0.259 6.673,8.513 15,8.757 89.139,2.612 175.372,4.152 188,0.267 26,-8 75.5,16 87.5,23.5 12,7.5 16.5,38 16.5,67.499998 0,29.5 -3,100.999 -3,109.499 0,6.8 -8,31.834 -13.5,38.001 l 6,-27 c 4.5,-54.501 0,-112.001 0,-141.500998 0,-29.5 -15.5,-35.999 -26,-46.499 -10.5,-10.5 -73.5,-11 -101.5,-12 -22.4,-0.8 -152.667,-5.334 -215,-7.5 -106,-2.667 -327.4,-4 -365,-4 z"
     fill="#ec57e2"
     id="path984" />
  <path
     d="m 838.2697,368.03123 c 4.83,2.833 15.9,5.2 21.5,-8 -0.67,8.333 -5.9,21.6 -21.5,8 z"
     fill="#ec57e2"
     id="path986" />
  <path
     d="m 780.7697,393.53123 c 10.67,-0.333 34.3,-3.2 43.5,-12 -5.33,5.667 -21.5,16 -43.5,12 z"
     fill="#ec57e2"
     id="path988" />
  <path
     d="m 89.769702,323.03123 c 2.5,2.667 11.699998,7.2 28.499998,4 -7.333,4 -23.299998,8.8 -28.499998,-4 z"
     fill="#ec57e2"
     id="path990" />
  <defs
     id="defs1018">
    <filter
       id="filter0_f_246_90"
       x="200.646"
       y="200.59599"
       width="872.86298"
       height="283.849"
       filterUnits="userSpaceOnUse"
       color-interpolation-filters="sRGB">
      <feFlood
         flood-opacity="0"
         result="BackgroundImageFix"
         id="feFlood992" />
      <feBlend
         mode="normal"
         in="SourceGraphic"
         in2="BackgroundImageFix"
         result="shape"
         id="feBlend994" />
      <feGaussianBlur
         stdDeviation="25"
         result="effect1_foregroundBlur_246_90"
         id="feGaussianBlur996" />
    </filter>
    <filter
       id="filter1_f_246_90"
       x="0.64648402"
       y="0.59570301"
       width="1272.86"
       height="683.849"
       filterUnits="userSpaceOnUse"
       color-interpolation-filters="sRGB">
      <feFlood
         flood-opacity="0"
         result="BackgroundImageFix"
         id="feFlood999" />
      <feBlend
         mode="normal"
         in="SourceGraphic"
         in2="BackgroundImageFix"
         result="shape"
         id="feBlend1001" />
      <feGaussianBlur
         stdDeviation="125"
         result="effect1_foregroundBlur_246_90"
         id="feGaussianBlur1003" />
    </filter>
    <filter
       id="filter2_f_246_90"
       x="244.646"
       y="245.59599"
       width="792.86298"
       height="203.849"
       filterUnits="userSpaceOnUse"
       color-interpolation-filters="sRGB">
      <feFlood
         flood-opacity="0"
         result="BackgroundImageFix"
         id="feFlood1006" />
      <feBlend
         mode="normal"
         in="SourceGraphic"
         in2="BackgroundImageFix"
         result="shape"
         id="feBlend1008" />
      <feGaussianBlur
         stdDeviation="5"
         result="effect1_foregroundBlur_246_90"
         id="feGaussianBlur1010" />
    </filter>
    <linearGradient
       id="paint0_linear_246_90"
       x1="655"
       y1="461.92401"
       x2="655"
       y2="817.92401"
       gradientUnits="userSpaceOnUse"
       gradientTransform="translate(-209.7303,-181.46877)">
      <stop
         stop-color="#0F0E0D"
         id="stop1013" />
      <stop
         offset="1"
         stop-color="#0F0E0D"
         stop-opacity="0"
         id="stop1015" />
    </linearGradient>
  </defs>
</svg>
