<svg
   width="370"
   height="490"
   viewBox="0 0 370 490"
   fill="none"
   version="1.1"
   id="svg1016"
   xmlns="http://www.w3.org/2000/svg">
  <path
     d="m 332.8869,165.90038 c 28.186,1.978 25.356,-54.95 20.419,-83.661998 l -20.419,3.091 c 12.011,22.460998 28.827,68.989998 0,75.418998 -28.828,6.43 -42.974,-27.406 -46.443,-45.127 l -9.209,-2.679 c -8.808,28.849 20.419,50.485 55.652,52.958 z"
     fill="#2b2b26"
     id="path922" />
  <path
     fill-rule="evenodd"
     clip-rule="evenodd"
     d="m 354.3189,80.834382 0.206,1.195 c 2.479,14.416 4.44,35.959998 2.22,53.701998 -1.108,8.858 -3.274,16.907 -7.049,22.649 -3.824,5.815 -9.33,9.285 -16.896,8.754 -17.818,-1.251 -34.212,-7.349 -45.071,-16.893 -10.904,-9.583 -16.249,-22.687 -11.677,-37.661 l 0.356,-1.167 11.105,3.23 0.145,0.74 c 1.711,8.74 6.058,21.432 13.48,31.105 7.394,9.637 17.694,16.127 31.479,13.053 6.807,-1.518 10.836,-5.352 12.975,-10.598 2.171,-5.327 2.421,-12.197 1.384,-19.723 -2.074,-15.04 -9.209,-32.140998 -15.18,-43.306998 l -0.826,-1.545 z m -19.527,5.458 c 5.864,11.295 12.599,27.830998 14.635,42.589998 1.064,7.716 0.864,15.088 -1.544,20.995 -2.441,5.989 -7.121,10.382 -14.727,12.079 -15.042,3.355 -26.229,-3.858 -33.981,-13.962 -7.516,-9.795 -11.942,-22.446 -13.796,-31.395 l -7.299,-2.123 c -3.619,13.386 1.258,25.097 11.282,33.907 10.36,9.104 26.196,15.061 43.611,16.283 6.527,0.458 11.237,-2.447 14.656,-7.646 3.467,-5.274 5.571,-12.88 6.661,-21.596 2.118,-16.926 0.358,-37.512998 -2.002,-51.780998 z"
     fill="#0f0e0d"
     id="path924" />
  <g
     opacity="0.65"
     id="g930"
     transform="translate(-27.216098,-222.05862)">
    <path
       d="m 382.456,354.195 c -3.299,-1.32 -5.361,3.436 -5.98,5.979 0,-4.124 -0.962,-11.065 -1.443,-14.021 l 7.423,-11.959 c 1.814,3.794 0.756,14.915 0,20.001 z"
       fill="#0f0e0d"
       id="path926" />
    <path
       d="m 378.744,372.339 -3.711,-3.299 c 0,3.794 -3.849,7.904 -5.773,9.485 4.288,0.164 1.787,4.604 0,6.804 3.959,-1.485 7.972,-9.279 9.484,-12.99 z"
       fill="#0f0e0d"
       id="path928" />
  </g>
  <path
     d="m 32.437902,140.88138 c 0.3736,-13.688 5.8753,-24.394 12.536,-24.394 H 327.5939 c 6.661,0 12.162,10.706 12.536,24.394 l 8.634,316.314 c 0.404,14.819 -5.325,27.292 -12.536,27.292 H 36.340002 c -7.2111,0 -12.9404,-12.473 -12.5359,-27.292 z"
     fill="#181816"
     id="path932" />
  <path
     d="m 32.437902,140.88138 c 0.3736,-13.688 5.8753,-24.394 12.536,-24.394 H 327.5939 c 6.661,0 12.162,10.706 12.536,24.394 l 8.634,316.314 c 0.404,14.819 -5.325,27.292 -12.536,27.292 H 36.340002 c -7.2111,0 -12.9404,-12.473 -12.5359,-27.292 z"
     fill="url(#paint0_linear_160_1881)"
     id="path934"
     style="fill:url(#paint0_linear_160_1881)" />
  <path
     d="m 355.4599,157.95038 c 11.037,1.247 6.153,-55.482 2.331,-84.002998 l -7.694,3.611 c 6.142,22.101 15.746,68.092998 5.02,75.251998 -10.725,7.159 -18.45,-26.236 -20.972,-43.829 l -3.742,-2.435 c -1.487,29.012 11.261,49.847 25.057,51.404 z"
     fill="#2b2b26"
     id="path936" />
  <path
     fill-rule="evenodd"
     clip-rule="evenodd"
     d="m 359.4599,70.886382 0.374,2.787 c 1.916,14.301 4.103,35.699998 4.424,53.400998 0.161,8.827 -0.14,16.862 -1.213,22.663 -0.532,2.875 -1.288,5.398 -2.404,7.212 -1.145,1.861 -2.934,3.33 -5.413,3.05 -7.858,-0.887 -14.97,-7.165 -19.855,-16.499 -4.922,-9.405 -7.789,-22.243 -7.029,-37.059 l 0.183,-3.576 7.525,4.898 0.133,0.926 c 1.252,8.73 3.788,21.314 7.302,30.77 1.774,4.774 3.707,8.497 5.68,10.579 0.971,1.026 1.811,1.503 2.499,1.649 0.616,0.13 1.351,0.046 2.306,-0.592 0.854,-0.57 1.666,-1.639 2.332,-3.397 0.662,-1.748 1.117,-4.017 1.363,-6.744 0.493,-5.453 0.125,-12.399 -0.782,-19.92 -1.812,-15.019 -5.722,-31.934998 -8.776,-42.923998 l -0.466,-1.678 z m -1.67,3.061 -7.694,3.611 c 6.142,22.101 15.746,68.092998 5.021,75.251998 -10.726,7.159 -18.451,-26.236 -20.973,-43.829 l -3.741,-2.435 c -0.042,0.807 -0.072,1.607 -0.092,2.401 -0.686,27.755 11.736,47.489 25.149,49.003 10.766,1.216 6.382,-52.738 2.613,-81.857998 -0.095,-0.731 -0.189,-1.446 -0.283,-2.145 z"
     fill="#0f0e0d"
     id="path938" />
  <g
     opacity="0.65"
     id="g944"
     transform="translate(-27.216098,-222.05862)">
    <path
       d="m 367.816,355.019 c -2.969,-2.639 -4.811,3.849 -5.361,7.423 l -5.773,-16.083 8.247,-1.031 z"
       fill="#0f0e0d"
       id="path940" />
    <path
       d="m 387.197,317.699 -4.742,10.516 2.062,8.247 c 0,-4.948 3.436,-5.223 5.155,-4.742 z"
       fill="#0f0e0d"
       id="path942" />
  </g>
  <path
     d="m 49.500402,140.43438 c 18.4905,-4.943 17.2228,-46.977998 11.9623,-76.679998 l -4.6549,-3.559 c 5.3898,23.045 11.5675,70.328998 -6.8401,75.108998 -18.4077,4.779 -24.0856,-29.714 -24.6236,-47.557998 l 1.0725,-8.953 c -8.0627,28.233998 1.1496,67.504998 23.0838,61.640998 z"
     fill="#2b2b26"
     id="path946" />
  <path
     fill-rule="evenodd"
     clip-rule="evenodd"
     d="m 63.352702,62.605382 0.14,0.79 c 2.648,14.951 4.308,33.082 2.9488,48.168998 -0.6787,7.534 -2.1216,14.45 -4.666,19.858 -2.5514,5.424 -6.3285,9.557 -11.7427,11.004 -6.1818,1.653 -11.5663,0.099 -15.8738,-3.618 -4.2168,-3.639 -7.3315,-9.274 -9.4133,-15.779 -4.1664,-13.018 -4.45,-30.310998 -0.3119,-44.801998 l 4.0299,0.811 -1.0541,8.8 c 0.2787,8.803 1.8203,21.549998 5.4791,31.456998 1.8454,4.997 4.154,9.06 6.927,11.577 2.67,2.424 5.7745,3.438 9.6336,2.436 3.6524,-0.948 6.349,-4.043 8.1659,-9.2 1.8141,-5.15 2.5936,-11.964 2.6345,-19.52 0.0817,-15.080998 -2.7763,-32.491998 -5.4498,-43.922998 l -1.3102,-5.602 z m -39.6431,32.265 c 0.1535,-2.38 0.408,-4.755 0.7655,-7.097 0.0065,-0.043 0.0131,-0.085 0.0197,-0.128 0.4668,-3.025 1.1058,-5.995 1.9217,-8.852 l -1.0726,8.954 c 0.065,2.156 0.2051,4.555 0.4335,7.099 1.6624,18.506998 8.0065,44.659998 24.1901,40.457998 17.6082,-4.572 12.7201,-48.036998 7.5447,-71.973998 -0.235,-1.087 -0.4705,-2.133 -0.7046,-3.134 l 4.6549,3.559 c 5.2605,29.701 6.5282,71.735998 -11.9623,76.678998 -17.9655,4.803 -27.3963,-20.673 -25.7906,-45.563998 z"
     fill="#0f0e0d"
     id="path948" />
  <g
     opacity="0.65"
     id="g954"
     transform="translate(-27.216098,-222.05862)">
    <path
       d="m 57.0933,345.741 c -1.6495,0.66 0.9622,7.698 2.4742,11.134 -2.6393,-2.474 -6.5979,-13.677 -8.2472,-18.969 l 6.8042,2.68 2.268,5.773 c -0.4124,-0.481 -1.6497,-1.278 -3.2992,-0.618 z"
       fill="#0f0e0d"
       id="path950" />
    <path
       d="m 86.3721,345.741 -1.4433,4.33 c 1.1546,-1.815 4.055,-2.406 5.3608,-2.474 v -1.238 z"
       fill="#0f0e0d"
       id="path952" />
  </g>
  <path
     d="m 15.170002,108.82938 c -5.464,-14.830998 -7.3179,-65.209998 -7.5618,-90.740998 -0.1958,-11.9519997 323.935698,0 335.644698,0 0.791,0 1.502,0.353 2.14,1.015 3.969,2.218 9.651,7.124 11.276,15.084 2.439,11.953 2.927,87.081998 -7.562,92.204998 -122.701,3.008 -330.045998,7.611 -333.936898,-17.563 z"
     fill="#181816"
     id="path956" />
  <path
     fill-rule="evenodd"
     clip-rule="evenodd"
     d="m 319.7769,16.600382 c 13.249,0.404 21.752,0.663 23.476,0.663 1.026,0 1.909,0.449 2.646,1.178 4.091,2.316 9.904,7.376 11.578,15.581 0.627,3.071 1.115,10.08 1.339,18.873 0.226,8.822 0.187,19.512 -0.256,29.991 -0.442,10.472 -1.29,20.758998 -2.69,28.760998 -0.7,3.998 -1.543,7.459 -2.556,10.098 -0.507,1.32 -1.065,2.459 -1.686,3.365 -0.617,0.901 -1.329,1.618 -2.159,2.023 l -0.161,0.079 -0.18,0.004 c -61.347,1.505 -143.879,3.408 -211.562,1.787 -33.838,-0.81 -63.993998,-2.501 -85.945198,-5.57 -10.9696,-1.533 -19.9349,-3.416 -26.298,-5.723 -3.1797,-1.153 -5.7537,-2.427 -7.6099,-3.847 -1.8265,-1.397 -3.0327,-2.996 -3.3437,-4.824 -1.3879,-3.805 -2.5283,-9.781998 -3.4687,-16.946998 -0.9491,-7.232 -1.7021,-15.736 -2.2912,-24.566 -1.1782,-17.658 -1.703,-36.651 -1.8251,-49.428 -0.0127,-0.882 0.7111,-1.445 1.3455,-1.787 0.7021,-0.379 1.6892,-0.704 2.8948,-0.994 2.4257,-0.584 5.9512,-1.072 10.3944,-1.482 8.8985,-0.82 21.6142,-1.334 36.8901,-1.614 30.558,-0.56 71.434998,-0.187 112.672998,0.56 58.197,1.055 117.087,2.851 148.795,3.819 z M 18.379802,112.28738 c 0.108,0.089 0.2197,0.178 0.3353,0.266 1.6685,1.277 4.0679,2.482 7.1699,3.606 6.2001,2.248 15.0307,4.113 25.9641,5.641 21.8548,3.055 51.932798,4.744 85.755798,5.554 67.566,1.618 149.954,-0.278 211.288,-1.782 0.438,-0.254 0.901,-0.704 1.374,-1.395 0.524,-0.763 1.028,-1.775 1.507,-3.023 0.958,-2.496 1.779,-5.839 2.471,-9.791 1.382,-7.899 2.226,-18.102998 2.667,-28.546998 0.442,-10.439 0.48,-21.092 0.255,-29.879 -0.225,-8.815 -0.713,-15.679 -1.306,-18.585 -1.192,-5.843 -4.667,-9.987 -7.954,-12.574 0.365,0.919 0.686,1.952 0.973,3.072 0.718,2.808 1.246,6.295 1.629,10.219 0.765,7.85 0.954,17.541 0.868,27.234 -0.086,9.699 -0.448,19.421 -0.788,27.34 -0.094,2.201 -0.187,4.259 -0.271,6.137 -0.22,4.898998 -0.386,8.574998 -0.386,10.365998 0,8.83 -4.015,13.851 -6.221,15.322 l -0.206,0.137 -0.248,0.001 c -8.895,0.043 -18.242,0.094 -27.929,0.148 -55.698,0.308 -122.607,0.678 -179.117,-0.349 -33.167,-0.603 -62.770998,-1.687 -84.431198,-3.55 -10.826,-0.931 -19.6956,-2.058 -26.0424,-3.424 -3.0179,-0.65 -5.4981,-1.36 -7.3575,-2.144 z M 343.0979,18.912382 c 0.514,0.203 1.119,0.484 1.782,0.85 0.911,0.999 1.724,2.848 2.402,5.497 0.688,2.693 1.207,6.087 1.585,9.97 0.757,7.763 0.946,17.385 0.86,27.06 -0.086,9.67 -0.446,19.37 -0.786,27.283 -0.093,2.17 -0.184,4.209 -0.268,6.077 -0.222,4.925998 -0.39,8.665998 -0.39,10.496998 0,8.038 -3.519,12.486 -5.293,13.812 -8.82,0.042 -18.082,0.093 -27.675,0.146 -55.7,0.309 -122.585,0.679 -179.074,-0.348 -33.159,-0.603 -62.716998,-1.686 -84.319898,-3.544 -10.8055,-0.929 -19.5928,-2.05 -25.8366,-3.394 -3.1255,-0.673 -5.5777,-1.394 -7.3162,-2.159 -0.8689,-0.382 -1.5326,-0.764 -2.0066,-1.137 -0.4773,-0.376 -0.7175,-0.707 -0.8172,-0.978 -1.3316,-3.614 -2.4631,-9.463998 -3.4085,-16.666998 -0.9428,-7.183 -1.693,-15.65 -2.2809,-24.461 -1.1745,-17.603 -1.6987,-36.545 -1.8212,-49.299 0.0229,-0.035 0.1208,-0.161 0.4789,-0.355 0.5137,-0.277 1.337,-0.563 2.4974,-0.842 2.3066,-0.554 5.7362,-1.035 10.1601,-1.442 8.8358,-0.814 21.5021,-1.328 36.769,-1.608 30.5267,-0.56 71.378698,-0.186 112.612698,0.561 58.117,1.052 117.021,2.849 148.766,3.817 12.921,0.394 21.343,0.651 23.38,0.664 z"
     fill="#0f0e0d"
     id="path958" />
  <path
     d="m 355.2399,103.65038 c -2.969,6.763 -4.124,-15.050998 -4.33,-26.803998 l -2.68,36.082998 c -0.343,4.618 -3.855,7.01 -5.567,7.628 h -13.196 l -135.671,1.031 c 11.752,4.949 111.959,0.619 123.3,0.619 9.072,0 5.704,3.162 2.886,4.742 6.254,-0.206 20.454,-0.66 27.217,-0.824 6.763,-0.165 8.179,-15.052 8.041,-22.475 z"
     fill="#0f0e0d"
     id="path960" />
  <path
     d="m 350.9099,58.908382 c 4.289,-18.805 0.687,-32.303 -1.649,-36.702 l -2.062,-1.031 c 3.629,6.598 3.986,27.904 3.711,37.733 z"
     fill="#0f0e0d"
     id="path962" />
  <path
     opacity="0.6"
     d="m 350.9099,59.764382 -1.649,-34.846 v -2.474 c 4.453,1.649 7.079,10.172 7.835,14.227 l 1.237,26.804 c -0.344,11.272 -1.155,34.722 -1.65,38.350998 -0.495,3.629 -3.093,5.086 -4.33,5.361 l -1.443,-7.422998 z"
     fill="#0f0e0d"
     id="path964" />
  <path
     opacity="0.6"
     d="m 184.1049,121.41438 h 148.454 v 5.361 l -45.361,1.237 -87.423,0.825 -70.104,-0.825 c -9.897,-0.165 -46.872998,-2.405 -64.123898,-3.505 l -33.4023,-5.361 c -11.3815,-1.814 -14.3643,-6.804 -14.4331,-9.072 0.4949,9.237 111.135298,11.409 166.393298,11.34 z"
     fill="#0f0e0d"
     id="path966" />
  <g
     filter="url(#filter0_f_160_1881)"
     id="g970"
     transform="translate(-27.216098,-222.05862)">
    <path
       fill-rule="evenodd"
       clip-rule="evenodd"
       d="m 130.201,270.937 h 14.392 V 250.935 H 98.7344 l 2.4396,20.002 h 12.196 v 55.615 h 16.831 z m -3.299,52.316 v -55.615 h 14.392 V 254.234 H 102.46 l 1.635,13.404 h 12.574 v 55.615 z m 78.673,-72.318 H 187.28 v 75.617 h 34.394 c 0.481,-2.888 1.372,-11.037 1.961,-16.425 0.038,-0.349 0.075,-0.686 0.11,-1.01 0.157,-1.432 0.285,-2.595 0.368,-3.299 h -21.465 z m 14.851,58.182 h -21.258 l 2.927,-54.883 h -11.516 v 69.019 h 28.231 c 0.47,-3.646 1.077,-9.202 1.525,-13.303 0.031,-0.285 0.062,-0.563 0.091,-0.833 z m 109.796,-54.524 h -19.271 l 16.1,43.42 v 25.612 h 23.173 l -1.708,-23.661 16.831,-49.029 h -21.465 l -7.074,22.685 z m 16.087,-0.359 -9.338,29.943 -9.098,-26.285 h -12.18 l 14.657,39.529 v 22.905 h 16.328 l -1.501,-20.796 15.55,-45.296 z m -68.404,13.16 v 52.932 h 12.916 v -52.932 h 10.733 v -13.16 h -37.309 v 13.16 z m -16.959,-16.459 h 43.907 v 19.758 H 294.12 v 52.932 h -19.514 v -52.932 h -13.66 z m -209.3452,3.299 c -1.5426,11.801 -2.4708,28.187 -0.6962,42.199 0.9629,7.603 2.6902,14.236 5.3512,19.028 2.6211,4.72 5.9394,7.336 10.163,7.813 6.2567,0.707 10.7589,-0.755 14.1202,-3.634 3.4656,-2.967 6.089,-7.759 7.8415,-14.363 3.3598,-12.662 3.1914,-30.7 1.0531,-51.043 H 80.673 c 0.2789,10.101 0.3146,23.339 -0.3995,33.795 -0.3937,5.763 -1.0321,10.996 -2.1021,14.387 -0.2749,0.871 -0.6103,1.728 -1.0359,2.485 -0.4057,0.721 -1.0279,1.596 -1.988,2.212 -1.0992,0.704 -2.4454,0.933 -3.7837,0.518 -1.1682,-0.362 -2.039,-1.123 -2.6518,-1.808 -2.2798,-2.548 -3.6291,-6.619 -4.5179,-10.847 -0.9218,-4.384 -1.4667,-9.565 -1.763,-14.867 -0.5049,-9.031 -0.3017,-18.68 0.1002,-25.875 z m -2.8714,-3.299 c -3.5776,24.148 -5.1225,73.08 17.3189,75.617 28.0517,3.171 31.2225,-32.442 26.344,-75.617 H 77.2687 c 0.0374,1.053 0.0723,2.156 0.1041,3.299 0.5911,21.257 0.0941,56.426 -6.2022,49.389 -6.166,-6.891 -6.2084,-33.979 -5.3351,-49.389 0.0664,-1.172 0.1381,-2.277 0.2128,-3.299 z M 153.13,326.552 v -75.617 h 20.49 l -3.903,75.617 z m 13.454,-3.299 3.563,-69.019 h -13.718 v 69.019 z m 69.957,-3.45 -3.587,-64.348 13.473,-0.974 v 67.831 z m 13.185,-68.868 -20.246,1.463 3.902,70.007 16.344,4.147 z"
       fill="#ec57e2"
       id="path968" />
  </g>
  <g
     filter="url(#filter1_f_160_1881)"
     id="g974"
     transform="translate(-27.216098,-222.05862)">
    <path
       fill-rule="evenodd"
       clip-rule="evenodd"
       d="m 130.201,270.937 h 14.392 V 250.935 H 98.7344 l 2.4396,20.002 h 12.196 v 55.615 h 16.831 z m -3.299,52.316 v -55.615 h 14.392 V 254.234 H 102.46 l 1.635,13.404 h 12.574 v 55.615 z m 78.673,-72.318 H 187.28 v 75.617 h 34.394 c 0.481,-2.888 1.372,-11.037 1.961,-16.425 0.038,-0.349 0.075,-0.686 0.11,-1.01 0.157,-1.432 0.285,-2.595 0.368,-3.299 h -21.465 z m 14.851,58.182 h -21.258 l 2.927,-54.883 h -11.516 v 69.019 h 28.231 c 0.47,-3.646 1.077,-9.202 1.525,-13.303 0.031,-0.285 0.062,-0.563 0.091,-0.833 z m 109.796,-54.524 h -19.271 l 16.1,43.42 v 25.612 h 23.173 l -1.708,-23.661 16.831,-49.029 h -21.465 l -7.074,22.685 z m 16.087,-0.359 -9.338,29.943 -9.098,-26.285 h -12.18 l 14.657,39.529 v 22.905 h 16.328 l -1.501,-20.796 15.55,-45.296 z m -68.404,13.16 v 52.932 h 12.916 v -52.932 h 10.733 v -13.16 h -37.309 v 13.16 z m -16.959,-16.459 h 43.907 v 19.758 H 294.12 v 52.932 h -19.514 v -52.932 h -13.66 z m -209.3452,3.299 c -1.5426,11.801 -2.4708,28.187 -0.6962,42.199 0.9629,7.603 2.6902,14.236 5.3512,19.028 2.6211,4.72 5.9394,7.336 10.163,7.813 6.2567,0.707 10.7589,-0.755 14.1202,-3.634 3.4656,-2.967 6.089,-7.759 7.8415,-14.363 3.3598,-12.662 3.1914,-30.7 1.0531,-51.043 H 80.673 c 0.2789,10.101 0.3146,23.339 -0.3995,33.795 -0.3937,5.763 -1.0321,10.996 -2.1021,14.387 -0.2749,0.871 -0.6103,1.728 -1.0359,2.485 -0.4057,0.721 -1.0279,1.596 -1.988,2.212 -1.0992,0.704 -2.4454,0.933 -3.7837,0.518 -1.1682,-0.362 -2.039,-1.123 -2.6518,-1.808 -2.2798,-2.548 -3.6291,-6.619 -4.5179,-10.847 -0.9218,-4.384 -1.4667,-9.565 -1.763,-14.867 -0.5049,-9.031 -0.3017,-18.68 0.1002,-25.875 z m -2.8714,-3.299 c -3.5776,24.148 -5.1225,73.08 17.3189,75.617 28.0517,3.171 31.2225,-32.442 26.344,-75.617 H 77.2687 c 0.0374,1.053 0.0723,2.156 0.1041,3.299 0.5911,21.257 0.0941,56.426 -6.2022,49.389 -6.166,-6.891 -6.2084,-33.979 -5.3351,-49.389 0.0664,-1.172 0.1381,-2.277 0.2128,-3.299 z M 153.13,326.552 v -75.617 h 20.49 l -3.903,75.617 z m 13.454,-3.299 3.563,-69.019 h -13.718 v 69.019 z m 69.957,-3.45 -3.587,-64.348 13.473,-0.974 v 67.831 z m 13.185,-68.868 -20.246,1.463 3.902,70.007 16.344,4.147 z"
       fill="#ec57e2"
       id="path972" />
  </g>
  <g
     filter="url(#filter2_f_160_1881)"
     id="g978"
     transform="translate(-27.216098,-222.05862)">
    <path
       fill-rule="evenodd"
       clip-rule="evenodd"
       d="m 131.849,272.998 h 14.392 v -20.002 h -45.858 l 2.439,20.002 h 12.196 v 55.616 h 16.831 z m -3.299,52.317 v -55.616 h 14.392 v -13.404 h -38.833 l 1.634,13.404 h 12.574 v 55.616 z m 78.673,-72.319 h -18.294 v 75.618 h 34.393 c 0.482,-2.888 1.372,-11.038 1.961,-16.425 0.039,-0.349 0.075,-0.687 0.111,-1.01 0.157,-1.433 0.285,-2.595 0.368,-3.299 h -21.466 z m 14.852,58.183 h -21.259 l 2.927,-54.884 h -11.515 v 69.02 h 28.231 c 0.469,-3.646 1.076,-9.203 1.525,-13.304 0.031,-0.285 0.061,-0.562 0.091,-0.832 z M 331.87,256.655 H 312.6 l 16.099,43.419 v 25.613 h 23.173 l -1.707,-23.661 16.831,-49.03 H 345.53 l -7.074,22.685 z m 16.087,-0.36 -9.337,29.944 -9.099,-26.285 h -12.179 l 14.656,39.528 v 22.906 h 16.329 l -1.501,-20.797 15.549,-45.296 z m -68.403,13.16 v 52.933 h 12.916 v -52.933 h 10.733 v -13.16 h -37.309 v 13.16 z m -16.959,-16.459 h 43.907 v 19.758 h -10.733 v 52.933 h -19.514 v -52.933 h -13.66 z m -209.3458,3.299 c -1.5426,11.801 -2.4708,28.188 -0.6962,42.2 0.9629,7.603 2.6902,14.236 5.3512,19.028 2.6211,4.72 5.9394,7.335 10.1631,7.813 6.2566,0.707 10.7588,-0.755 14.1202,-3.634 3.4655,-2.968 6.089,-7.759 7.8414,-14.363 3.3598,-12.662 3.1914,-30.7 1.0532,-51.044 h -8.7606 c 0.2789,10.102 0.3146,23.34 -0.3996,33.796 -0.3936,5.762 -1.0321,10.996 -2.102,14.386 -0.2749,0.871 -0.6104,1.728 -1.036,2.485 -0.4056,0.722 -1.0279,1.597 -1.988,2.212 -1.0991,0.705 -2.4454,0.934 -3.7836,0.519 -1.1683,-0.362 -2.039,-1.124 -2.6519,-1.809 -2.2797,-2.548 -3.6291,-6.618 -4.5179,-10.846 -0.9217,-4.385 -1.4666,-9.566 -1.763,-14.867 -0.5048,-9.032 -0.3017,-18.68 0.1002,-25.876 z m -2.8713,-3.299 c -3.5777,24.149 -5.1225,73.081 17.3188,75.618 28.0517,3.171 31.2225,-32.443 26.344,-75.618 H 78.9172 c 0.0373,1.054 0.0722,2.156 0.104,3.299 0.5911,21.257 0.0941,56.427 -6.2022,49.389 -6.166,-6.891 -6.2083,-33.978 -5.3351,-49.389 0.0664,-1.172 0.1381,-2.276 0.2128,-3.299 z m 104.4011,75.618 v -75.618 h 20.49 l -3.903,75.618 z m 13.454,-3.299 3.562,-69.02 h -13.717 v 69.02 z m 69.957,-3.45 -3.587,-64.349 13.472,-0.974 v 67.831 z m 13.184,-68.869 -20.246,1.464 3.903,70.007 16.343,4.147 z"
       fill="#1e1e1e"
       fill-opacity="0.3"
       id="path976" />
  </g>
  <path
     fill-rule="evenodd"
     clip-rule="evenodd"
     d="m 102.9849,52.877382 c 0,-2.209 1.791,-4 4,-4 h 6.31 c 2.241,0 4.045,-1.84 3.999,-4.08 l -0.25,-12.379 c -0.044,-2.191 -1.843,-3.939 -4.035,-3.919 l -37.013998,0.336 c -2.387,0.021 -4.2237,2.115 -3.9347,4.484 l 1.4687,12.043 c 0.245,2.007 1.949,3.515 3.97,3.515 h 4.655 c 2.209,0 4,1.791 4,4 v 47.615998 c 0,2.209 1.791,4 4,4 h 8.831 c 2.208998,0 3.999998,-1.791 3.999998,-4 z m -7.328998,48.316998 c 2.221,0 4.017,-1.808998 4,-4.029998 l -0.353,-47.248 c -0.016,-2.18 1.714998,-3.971 3.893998,-4.029 l 7.689,-0.203 c 2.216,-0.058 3.961,-1.906 3.893,-4.121 l -0.17,-5.512 c -0.066,-2.16 -1.836,-3.877 -3.998,-3.877 H 79.761902 c -2.402,0 -4.262,2.101 -3.971,4.485 l 0.645,5.286 c 0.25,2.057 2.03,3.581 4.101,3.513 l 4.724,-0.154 c 2.282,-0.075 4.164,1.773 4.13,4.056 l -0.703,47.775 c -0.033,2.232 1.767,4.058998 4,4.058998 z M 178.1339,33.088382 c 0.122,-2.289 -1.701,-4.213 -3.994,-4.213 h -10.032 c -2.226,0 -4.024,1.818 -4,4.044 l 0.738,67.617998 c 0.024,2.192 1.807,3.956 3.999,3.956 h 26.224 c 1.956,0 3.612,-1.414 3.857,-3.354 0.475,-3.753998 1.064,-9.145998 1.493,-13.070998 0.038,-0.349 0.075,-0.686 0.11,-1.01 v 0 c 0.193,-1.756 -1.184,-3.299 -2.951,-3.299 h -13.927 c -2.293,0 -4.117,-1.923 -3.995,-4.213 z m 14.985,54.803 c 0.049,-0.442 -0.302,-0.825 -0.746,-0.817 l -16.453,0.313 c -2.352,0.045 -4.235,-1.94 -4.066,-4.286 l 3.299,-45.83 c 0.155,-2.158 -1.434,-4.049 -3.587,-4.267 l -3.8,-0.384 c -2.357,-0.239 -4.403,1.611 -4.403,3.979 v 60.241 c 0,2.186 1.755,3.967998 3.941,3.999998 l 20.307,0.301 c 2.034,0.03 3.773,-1.469998 4.085,-3.480998 0.494,-3.183 1.104,-6.846 1.423,-9.769 z m 110.818,-52.665 c -0.557,-1.611 -2.075,-2.692 -3.78,-2.692 h -10.672 c -2.787,0 -4.72,2.778 -3.751,5.391 l 13.851,37.355 c 0.165,0.446 0.25,0.916 0.25,1.391 v 20.895 c 0,2.209 1.791,3.999998 4,3.999998 h 14.798 c 2.35,0 4.194,-2.015998 3.984,-4.356998 l -1.651,-18.428 c -0.051,-0.577 0.023,-1.159 0.218,-1.704 l 15.11,-42.242 c 0.911,-2.544 -0.912,-5.241 -3.612,-5.344 l -12.956,-0.498 c -1.806,-0.069 -3.434,1.081 -3.972,2.806 l -2.542,8.151 c -1.149,3.686 -6.336,3.766 -7.598,0.118 z m 18.017,-4.016 c -1.903,-0.158 -3.652,1.05 -4.178,2.886 l -4.537,15.85 c -1.075,3.757 -6.347,3.901 -7.625,0.208 l -3.989,-11.524 c -0.576,-1.662 -2.168,-2.753 -3.926,-2.689 l -3.115,0.113 c -2.65,0.096 -4.475,2.698 -3.662,5.223 l 10.816,33.591 c 0.105,0.328 0.168,0.667 0.186,1.011 l 1.005,18.604 c 0.115,2.122 1.869,3.784 3.994,3.784 h 8.24 c 2.323,0 4.157,-1.972 3.99,-4.288 l -1.133,-15.694 c -0.039,-0.537 0.032,-1.077 0.206,-1.587 l 13.617,-39.666 c 0.846,-2.465 -0.853,-5.068 -3.451,-5.285 z m -76.926,13.85 c 2.214,-0.076 4.067,1.66 4.136,3.874 l 1.405,45.456 c 0.067,2.16 1.837,3.877 3.998,3.877 h 5.038 c 2.21,0 4,-1.791 4,-4 v -44.933 c 0,-2.209 1.791,-4 4,-4 h 2.733 c 2.209,0 4,-1.79 4,-4 v -5.16 c 0,-2.209 -1.791,-4 -4,-4 h -29.309 c -2.209,0 -4,1.791 -4,4 v 5.021 c 0,2.263 1.876,4.075 4.138,3.997 z m -11.21,-12.061 c -0.048,-2.257 1.78,-4.106 4.037,-4.085 l 35.82,0.337 c 2.194,0.02 3.962,1.805 3.962,3.999 v 11.383 c 0,2.21 -1.791,4 -4,4 h -2.733 c -2.209,0 -4,1.791 -4,4 v 45.016 c 0,2.177 -1.739,3.953998 -3.915,3.999998 l -11.514,0.243 c -2.242,0.047 -4.085,-1.757 -4.085,-3.998998 v -45.382 c 0,-2.161 -1.716,-3.931 -3.875,-3.998 l -5.579,-0.174 c -2.126,-0.066 -3.829,-1.785 -3.874,-3.913 z m -205.922098,-0.825 c -2.0087,0 -3.7085,1.489 -3.9534,3.483 -1.4017,11.412 -2.6846,26.037 -1.0787,38.717 0.963,7.603 3.1026,14.236 5.7636,19.028 2.6211,4.72 6.3518,8.571998 10.5754,9.049998 6.2567,0.707 10.7589,-1.992 14.1202,-4.870998 3.4656,-2.968 6.089,-7.759 7.8415,-14.363 3.1706,-11.949 2.8319,-28.318 0.9867,-47.221 -0.1916,-1.962 -1.7988,-3.482 -3.7685,-3.579 l -0.6106,-0.031 c -2.3275,-0.114 -4.2589,1.775 -4.2154,4.105 0.1749,9.362 0.117,20.456 -0.4992,29.478 -0.3937,5.762 -1.0321,10.996 -2.1021,14.387 -0.2749,0.871 -0.6103,1.727 -1.0359,2.484 -0.4057,0.722 -1.0279,1.597 -1.988,2.212 -1.0992,0.705 -2.4454,0.934 -3.7837,0.519 -1.1682,-0.362 -2.039,-1.124 -2.6518,-1.809 -2.2798,-2.548 -3.6291,-6.618 -4.5179,-10.846 -0.9218,-4.385 -1.4667,-9.565 -1.763,-14.867 -0.4115,-7.361 -0.3527,-15.132 -0.0992,-21.651 0.0892,-2.295 -1.7335,-4.225 -4.0303,-4.225 z m -2.9314,-3.299 c -1.9828,0 -3.6685,1.437 -3.9197,3.404 -3.1995,25.055 -3.6441,69.790998 17.7875,72.213998 27.2571,3.081 31.4123,-30.844998 27.1502,-72.378998 -0.2119,-2.065 -1.9874,-3.609 -4.0626,-3.554 l -8.5677,0.228 c -1.8175,0.048 -3.246,1.569 -3.1954,3.386 v 0 c 0.5911,21.257 0.0941,56.427 -6.2022,49.39 -6.166,-6.892 -6.2084,-33.979 -5.3351,-49.39 v 0 c 0.101,-1.782 -1.3076,-3.299 -3.0931,-3.299 z M 129.9139,104.49338 c -2.209,0 -4,-1.791 -4,-4 V 32.794382 c 0,-2.177 1.741,-3.954 3.918,-3.999 l 11.886,-0.244 c 2.313,-0.048 4.184,1.871 4.078,4.182 l -3.119,67.942998 c -0.099,2.136 -1.858,3.817 -3.996,3.817 z m 5.481,-3.483 c 2.198,0.102 4.065,-1.590998 4.179,-3.787998 l 3.145,-60.553 c 0.116,-2.24 -1.633,-4.138 -3.875,-4.205 l -5.436,-0.164 c -2.283,-0.068 -4.16,1.787 -4.119,4.071 l 1.094,60.66 c 0.038,2.109 1.707,3.825998 3.814,3.923998 z m 77.778,-4.284998 c -1.117,-0.652 -1.855,-1.807 -1.972,-3.096 l -5.095,-56.176 c -0.202,-2.229 1.463,-4.19 3.695,-4.351 l 5.121,-0.371 c 2.317,-0.167 4.289,1.667 4.289,3.99 v 56.562 c 0,3.088 -3.371,5 -6.038,3.442 z m 9.337,-63.55 c 0,-2.323 -1.972,-4.157 -4.289,-3.99 l -12.033,0.87 c -2.178,0.158 -3.827,2.032 -3.705,4.212 l 3.52,63.147 c 0.097,1.745 1.316,3.224998 3.01,3.653998 l 8.513,2.16 c 2.528,0.642 4.984,-1.269 4.984,-3.876998 z"
     fill="#fdf8fd"
     id="path980" />
  <path
     d="m 66.577402,10.041382 c -15.5052,0 -43.5742,2.199 -55.6705,3.299 C 23.896702,4.4743823 142.4539,7.1543823 156.0629,7.1543823 c 3.092,0 0.307,0.32 13.402,0.775 1.273,0.044 14.951,-4.034 16.289,-3.988 13.287,0.464 33.704,1.862 50.309,2.379 3.431,0.107 2.752,3.51 6.186,3.611 36.758,1.0769997 72.318,1.7119997 77.526,0.1099997 10.722,-3.2989997 31.134,6.598 36.083,9.691 4.948,3.093 6.804,15.67 6.804,27.835 0,12.165 -1.237,41.65 -1.237,45.155 0,2.804 -3.299,13.126998 -5.567,15.669998 l 2.474,-11.133998 c 1.856,-22.474 0,-46.186 0,-58.351 0,-12.165 -6.392,-14.845 -10.722,-19.175 -4.33,-4.33 -30.309,-4.536 -41.856,-4.949 -9.237,-0.329 -62.955,-2.199 -88.66,-3.092 -43.712,-1.1 -135.010998,-1.65 -150.516498,-1.65 z"
     fill="#ec57e2"
     id="path982" />
  <path
     d="m 348.2289,152.13638 c 1.993,1.168 6.557,2.144 8.866,-3.299 -0.275,3.436 -2.433,8.907 -8.866,3.299 z"
     fill="#ec57e2"
     id="path984" />
  <path
     d="m 39.567102,133.57938 c 1.0309,1.099 4.8248,2.969 11.7527,1.649 -3.0241,1.65 -9.6084,3.629 -11.7527,-1.649 z"
     fill="#ec57e2"
     id="path986" />
  <defs
     id="defs1014">
    <filter
       id="filter0_f_160_1881"
       x="-3.36133"
       y="200.935"
       width="418.70801"
       height="175.814"
       filterUnits="userSpaceOnUse"
       color-interpolation-filters="sRGB">
      <feFlood
         flood-opacity="0"
         result="BackgroundImageFix"
         id="feFlood988" />
      <feBlend
         mode="normal"
         in="SourceGraphic"
         in2="BackgroundImageFix"
         result="shape"
         id="feBlend990" />
      <feGaussianBlur
         stdDeviation="25"
         result="effect1_foregroundBlur_160_1881"
         id="feGaussianBlur992" />
    </filter>
    <filter
       id="filter1_f_160_1881"
       x="-203.36099"
       y="0.93457001"
       width="818.70801"
       height="575.81403"
       filterUnits="userSpaceOnUse"
       color-interpolation-filters="sRGB">
      <feFlood
         flood-opacity="0"
         result="BackgroundImageFix"
         id="feFlood995" />
      <feBlend
         mode="normal"
         in="SourceGraphic"
         in2="BackgroundImageFix"
         result="shape"
         id="feBlend997" />
      <feGaussianBlur
         stdDeviation="125"
         result="effect1_foregroundBlur_160_1881"
         id="feGaussianBlur999" />
    </filter>
    <filter
       id="filter2_f_160_1881"
       x="38.287102"
       y="242.996"
       width="338.70801"
       height="95.814003"
       filterUnits="userSpaceOnUse"
       color-interpolation-filters="sRGB">
      <feFlood
         flood-opacity="0"
         result="BackgroundImageFix"
         id="feFlood1002" />
      <feBlend
         mode="normal"
         in="SourceGraphic"
         in2="BackgroundImageFix"
         result="shape"
         id="feBlend1004" />
      <feGaussianBlur
         stdDeviation="5"
         result="effect1_foregroundBlur_160_1881"
         id="feGaussianBlur1006" />
    </filter>
    <linearGradient
       id="paint0_linear_160_1881"
       x1="213.5"
       y1="338.54599"
       x2="213.5"
       y2="706.54602"
       gradientUnits="userSpaceOnUse"
       gradientTransform="translate(-27.216098,-222.05862)">
      <stop
         stop-color="#0F0E0D"
         id="stop1009" />
      <stop
         offset="1"
         stop-color="#0F0E0D"
         stop-opacity="0"
         id="stop1011" />
    </linearGradient>
  </defs>
</svg>
