<svg width="1274" height="818" viewBox="0 0 1274 818" fill="none" xmlns="http://www.w3.org/2000/svg">
<path d="M1010.79 582.878C1079.15 587.675 1072.28 449.625 1060.31 380L1010.79 387.495C1039.92 441.963 1080.7 554.795 1010.79 570.386C940.889 585.976 906.586 503.926 898.172 460.951L875.84 454.455C854.48 524.413 925.356 576.882 1010.79 582.878Z" fill="#2B2B26"/>
<path fill-rule="evenodd" clip-rule="evenodd" d="M1062.77 376.594L1063.27 379.492C1069.28 414.451 1074.04 466.694 1068.65 509.72C1065.96 531.2 1060.71 550.719 1051.56 564.641C1042.29 578.745 1028.93 587.158 1010.59 585.871C967.378 582.838 927.623 568.05 901.288 544.906C874.847 521.668 861.885 489.89 872.972 453.579L873.836 450.748L900.766 458.581L901.117 460.375C905.267 481.57 915.807 512.348 933.805 535.804C951.736 559.174 976.714 574.913 1010.14 567.458C1026.65 563.776 1036.42 554.479 1041.61 541.759C1046.87 528.84 1047.48 512.181 1044.96 493.929C1039.93 457.458 1022.63 415.989 1008.15 388.91L1006.15 385.165L1062.77 376.594ZM1015.42 389.83C1029.64 417.221 1045.97 457.32 1050.9 493.11C1053.49 511.823 1053 529.699 1047.16 544.024C1041.24 558.547 1029.89 569.2 1011.45 573.314C974.971 581.449 947.844 563.958 929.045 539.457C910.82 515.705 900.087 485.026 895.591 463.325L877.891 458.176C869.115 490.638 880.941 519.036 905.249 540.399C930.372 562.478 968.774 576.922 1011.01 579.886C1026.83 580.996 1038.26 573.953 1046.55 561.345C1054.95 548.556 1060.05 530.111 1062.7 508.975C1067.83 467.93 1063.57 418.006 1057.84 383.408L1015.42 389.83Z" fill="#0F0E0D"/>
<g opacity="0.65">
<path d="M1065 501C1057 497.8 1052 509.333 1050.5 515.5C1050.5 505.5 1048.17 488.667 1047 481.5L1065 452.5C1069.4 461.7 1066.83 488.667 1065 501Z" fill="#0F0E0D"/>
<path d="M1056 545L1047 537C1047 546.2 1037.67 556.167 1033 560C1043.4 560.4 1037.33 571.167 1033 576.5C1042.6 572.9 1052.33 554 1056 545Z" fill="#0F0E0D"/>
</g>
<path d="M348.675 485.522C349.418 472.28 360.373 461.924 373.635 461.924H936.365C949.628 461.924 960.582 472.28 961.326 485.522L978.517 791.522C979.322 805.857 967.915 817.924 953.556 817.924H356.444C342.086 817.924 330.678 805.857 331.484 791.522L348.675 485.522Z" fill="#181816"/>
<path d="M348.675 485.522C349.418 472.28 360.373 461.924 373.635 461.924H936.365C949.628 461.924 960.582 472.28 961.326 485.522L978.517 791.522C979.322 805.857 967.915 817.924 953.556 817.924H356.444C342.086 817.924 330.678 805.857 331.484 791.522L348.675 485.522Z" fill="url(#paint0_linear_159_839)"/>
<path d="M1065.53 563.601C1092.3 566.624 1080.45 429.056 1071.18 359.895L1052.53 368.652C1067.42 422.247 1090.71 533.776 1064.7 551.137C1038.69 568.497 1019.96 487.514 1013.84 444.852L1004.77 438.947C1001.16 509.301 1032.08 559.824 1065.53 563.601Z" fill="#2B2B26"/>
<path fill-rule="evenodd" clip-rule="evenodd" d="M1075.23 352.471L1076.14 359.231C1080.79 393.91 1086.09 445.801 1086.87 488.727C1087.26 510.133 1086.53 529.618 1083.93 543.683C1082.64 550.656 1080.8 556.776 1078.1 561.173C1075.32 565.686 1070.98 569.249 1064.97 568.57C1045.91 566.418 1028.67 551.194 1016.82 528.559C1004.89 505.754 997.934 474.621 999.776 438.691L1000.22 430.02L1018.47 441.899L1018.79 444.143C1021.83 465.314 1027.98 495.83 1036.5 518.761C1040.8 530.337 1045.49 539.365 1050.27 544.415C1052.63 546.902 1054.66 548.06 1056.33 548.412C1057.83 548.728 1059.61 548.524 1061.92 546.978C1064 545.595 1065.96 543.003 1067.58 538.739C1069.18 534.5 1070.29 529 1070.88 522.386C1072.08 509.162 1071.19 492.319 1068.99 474.081C1064.59 437.66 1055.11 396.639 1047.71 369.991L1046.58 365.921L1075.23 352.471ZM1071.18 359.895L1052.53 368.652C1067.42 422.247 1090.71 533.776 1064.7 551.137C1038.69 568.497 1019.96 487.514 1013.84 444.852L1004.77 438.947C1004.67 440.903 1004.6 442.844 1004.55 444.769C1002.88 512.074 1033.01 559.929 1065.53 563.602C1091.64 566.55 1081.01 435.711 1071.87 365.097C1071.64 363.324 1071.41 361.589 1071.18 359.895Z" fill="#0F0E0D"/>
<g opacity="0.65">
<path d="M1029.5 503C1022.3 496.6 1017.83 512.333 1016.5 521L1002.5 482L1022.5 479.5L1029.5 503Z" fill="#0F0E0D"/>
<path d="M1076.5 412.5L1065 438L1070 458C1070 446 1078.33 445.333 1082.5 446.5L1076.5 412.5Z" fill="#0F0E0D"/>
</g>
<path d="M323.586 521.124C368.425 509.137 365.351 407.203 352.595 335.177L341.306 326.547C354.377 382.43 369.358 497.093 324.719 508.683C280.081 520.273 266.312 436.629 265.008 393.358L267.609 371.645C248.057 440.112 270.396 535.344 323.586 521.124Z" fill="#2B2B26"/>
<path fill-rule="evenodd" clip-rule="evenodd" d="M357.178 332.388L357.517 334.306C363.938 370.56 367.964 414.527 364.668 451.114C363.022 469.385 359.523 486.154 353.353 499.27C347.166 512.422 338.007 522.444 324.877 525.954C309.886 529.962 296.829 526.194 286.383 517.18C276.158 508.356 268.605 494.69 263.556 478.916C253.453 447.347 252.765 405.413 262.8 370.272L272.572 372.24L270.016 393.579C270.692 414.926 274.431 445.836 283.303 469.861C287.778 481.979 293.376 491.832 300.101 497.936C306.576 503.813 314.104 506.273 323.462 503.844C332.319 501.544 338.858 494.039 343.264 481.532C347.663 469.044 349.554 452.519 349.653 434.198C349.851 397.626 342.921 355.405 336.437 327.685L333.26 314.101L357.178 332.388ZM261.044 410.632C261.416 404.86 262.033 399.102 262.9 393.421C262.916 393.318 262.932 393.215 262.948 393.111C264.08 385.776 265.629 378.574 267.608 371.645L265.007 393.358C265.165 398.586 265.504 404.404 266.058 410.572C270.09 455.451 285.474 518.873 324.719 508.683C367.418 497.596 355.565 392.195 343.015 334.147C342.445 331.512 341.873 328.974 341.306 326.547L352.594 335.178C365.351 407.203 368.425 509.137 323.586 521.124C280.02 532.771 257.15 470.991 261.044 410.632Z" fill="#0F0E0D"/>
<g opacity="0.65">
<path d="M275.999 480.5C271.999 482.1 278.333 499.167 281.999 507.5C275.599 501.5 266 474.333 262 461.5L278.5 468L284 482C283 480.833 279.999 478.9 275.999 480.5Z" fill="#0F0E0D"/>
<path d="M347 480.5L343.5 491C346.3 486.6 353.333 485.167 356.5 485V482L347 480.5Z" fill="#0F0E0D"/>
</g>
<path d="M240.337 444.483C227.087 408.519 222.592 286.35 222 224.438C221.525 195.453 1007.54 224.438 1035.93 224.438C1037.85 224.438 1039.58 225.294 1041.12 226.899C1050.75 232.276 1064.53 244.174 1068.47 263.478C1074.38 292.462 1075.56 474.651 1050.13 487.073C752.582 494.368 249.773 505.528 240.337 444.483Z" fill="#181816"/>
<path fill-rule="evenodd" clip-rule="evenodd" d="M979.003 220.828C1011.13 221.809 1031.75 222.438 1035.93 222.438C1038.42 222.438 1040.56 223.525 1042.35 225.293C1052.27 230.909 1066.36 243.18 1070.43 263.078C1071.95 270.524 1073.13 287.52 1073.67 308.844C1074.22 330.237 1074.13 356.161 1073.05 381.571C1071.98 406.967 1069.92 431.91 1066.53 451.316C1064.83 461.011 1062.79 469.403 1060.33 475.804C1059.1 479.005 1057.75 481.768 1056.24 483.964C1054.74 486.148 1053.02 487.887 1051.01 488.87L1050.61 489.061L1050.18 489.072C901.413 492.72 701.275 497.335 537.144 493.405C455.088 491.44 381.961 487.339 328.729 479.898C302.127 476.18 280.387 471.614 264.956 466.019C257.246 463.224 251.004 460.134 246.502 456.69C242.073 453.301 239.148 449.425 238.394 444.993C235.028 435.766 232.263 421.271 229.983 403.895C227.681 386.359 225.855 365.735 224.426 344.324C221.569 301.503 220.297 255.446 220 224.462C219.97 222.323 221.725 220.957 223.263 220.127C224.966 219.209 227.36 218.42 230.283 217.717C236.165 216.302 244.715 215.117 255.489 214.124C277.068 212.136 307.904 210.89 344.947 210.21C419.051 208.851 518.176 209.757 618.177 211.569C759.305 214.125 902.112 218.482 979.003 220.828ZM248.12 452.869C248.382 453.084 248.653 453.299 248.933 453.513C252.979 456.609 258.798 459.532 266.32 462.259C281.355 467.71 302.769 472.231 329.282 475.937C382.279 483.344 455.22 487.442 537.239 489.406C701.084 493.329 900.875 488.731 1049.61 485.085C1050.67 484.467 1051.79 483.377 1052.94 481.702C1054.21 479.85 1055.43 477.397 1056.6 474.371C1058.92 468.317 1060.91 460.212 1062.59 450.627C1065.94 431.472 1067.99 406.728 1069.06 381.402C1070.13 356.088 1070.22 330.255 1069.67 308.947C1069.13 287.57 1067.94 270.924 1066.51 263.878C1063.61 249.707 1055.19 239.658 1047.22 233.384C1048.1 235.614 1048.88 238.12 1049.58 240.835C1051.32 247.644 1052.6 256.1 1053.53 265.615C1055.38 284.651 1055.84 308.152 1055.63 331.659C1055.42 355.177 1054.55 378.754 1053.72 397.957C1053.49 403.293 1053.27 408.284 1053.06 412.839C1052.53 424.718 1052.13 433.632 1052.13 437.977C1052.13 459.389 1042.39 471.565 1037.04 475.132L1036.54 475.465L1035.94 475.468C1014.37 475.57 991.704 475.695 968.214 475.825C833.146 476.573 670.894 477.47 533.858 474.979C453.429 473.518 381.64 470.888 329.114 466.371C302.861 464.114 281.353 461.379 265.962 458.066C258.643 456.491 252.629 454.769 248.12 452.869ZM1035.56 226.436C1036.8 226.927 1038.27 227.61 1039.88 228.496C1042.09 230.92 1044.06 235.403 1045.7 241.826C1047.37 248.356 1048.63 256.587 1049.55 266.003C1051.38 284.828 1051.84 308.163 1051.63 331.623C1051.42 355.073 1050.55 378.597 1049.73 397.786C1049.5 403.047 1049.28 407.991 1049.07 412.521C1048.54 424.467 1048.13 433.536 1048.13 437.977C1048.13 457.468 1039.6 468.256 1035.29 471.471C1013.91 471.573 991.447 471.697 968.183 471.825C833.112 472.573 670.915 473.47 533.931 470.98C453.521 469.519 381.843 466.891 329.457 462.386C303.254 460.133 281.944 457.415 266.803 454.156C259.224 452.524 253.278 450.775 249.062 448.92C246.955 447.993 245.345 447.067 244.196 446.163C243.038 445.252 242.456 444.448 242.214 443.792C238.985 435.027 236.241 420.841 233.949 403.375C231.662 385.955 229.843 365.424 228.417 344.058C225.569 301.37 224.298 255.437 224.001 224.509C224.057 224.421 224.294 224.116 225.162 223.648C226.408 222.976 228.404 222.282 231.219 221.606C236.812 220.261 245.129 219.096 255.857 218.108C277.283 216.133 307.999 214.889 345.021 214.209C419.048 212.852 518.113 213.757 618.105 215.568C759.037 218.121 901.878 222.477 978.859 224.825C1010.19 225.781 1030.62 226.403 1035.56 226.436Z" fill="#0F0E0D"/>
<path d="M1065 431.924C1057.8 448.324 1055 395.424 1054.5 366.924L1048 454.424C1047.17 465.624 1038.65 471.424 1034.5 472.924H1002.5L673.5 475.424C702 487.424 945 476.924 972.5 476.924C994.5 476.924 986.333 484.59 979.5 488.424C994.667 487.924 1029.1 486.824 1045.5 486.424C1061.9 486.024 1065.33 449.924 1065 431.924Z" fill="#0F0E0D"/>
<path d="M1054.5 323.424C1064.9 277.824 1056.17 245.09 1050.5 234.424L1045.5 231.924C1054.3 247.924 1055.17 299.59 1054.5 323.424Z" fill="#0F0E0D"/>
<path opacity="0.6" d="M1054.5 325.5L1050.5 241V235C1061.3 239 1067.67 259.667 1069.5 269.5L1072.5 334.5C1071.67 361.833 1069.7 418.7 1068.5 427.5C1067.3 436.3 1061 439.833 1058 440.5L1054.5 422.5V325.5Z" fill="#0F0E0D"/>
<path opacity="0.6" d="M650 475H1010V488L900 491L688 493L518 491C494 490.6 404.333 485.167 362.5 482.5L281.5 469.5C253.9 465.1 246.667 453 246.5 447.5C247.7 469.9 516 475.167 650 475Z" fill="#0F0E0D"/>
<g filter="url(#filter0_f_159_839)">
<path fill-rule="evenodd" clip-rule="evenodd" d="M453.284 299.1H488.184V250.596H376.978L382.893 299.1H412.469V433.967H453.284V299.1ZM445.284 425.967V291.1H480.184V258.596H386.013L389.977 291.1H420.469V425.967H445.284ZM636.064 250.596H591.7V433.967H675.104C676.271 426.964 678.432 407.202 679.86 394.137C679.952 393.291 680.042 392.473 680.127 391.688C680.508 388.214 680.819 385.395 681.019 383.688H628.966L636.064 250.596ZM672.079 391.688H620.527L627.626 258.596H599.7V425.967H668.16C669.298 417.126 670.771 403.652 671.858 393.707C671.933 393.016 672.007 392.342 672.079 391.688ZM938.331 259.469H891.601L930.641 364.759V426.869H986.835L982.695 369.491L1023.51 250.596H971.456L954.302 305.607L938.331 259.469ZM977.341 258.596L954.698 331.209L932.634 267.469H903.099L938.641 363.324V418.869H978.237L974.598 368.438L1012.31 258.596H977.341ZM811.464 290.509V418.869H842.786V290.509H868.813V258.596H778.339V290.509H811.464ZM770.339 250.596H876.813V298.509H850.786V426.869H803.464V298.509H770.339V250.596ZM262.679 258.596C258.939 287.213 256.688 326.95 260.991 360.93C263.326 379.367 267.515 395.451 273.968 407.071C280.324 418.517 288.371 424.86 298.613 426.018C313.785 427.733 324.703 424.187 332.854 417.206C341.258 410.01 347.62 398.391 351.87 382.375C360.017 351.671 359.609 307.928 354.424 258.596H333.179C333.856 283.092 333.942 315.193 332.21 340.549C331.256 354.523 329.708 367.215 327.113 375.437C326.446 377.549 325.633 379.627 324.601 381.463C323.617 383.212 322.108 385.335 319.78 386.827C317.114 388.535 313.85 389.09 310.605 388.084C307.772 387.206 305.66 385.359 304.174 383.699C298.646 377.52 295.373 367.648 293.218 357.395C290.983 346.764 289.661 334.2 288.943 321.344C287.719 299.443 288.211 276.046 289.186 258.596H262.679ZM255.717 250.596C247.041 309.156 243.295 427.815 297.714 433.967C365.739 441.657 373.429 355.295 361.598 250.596H324.924C325.014 253.151 325.099 255.824 325.176 258.596C326.61 310.144 325.404 395.429 310.136 378.364C295.184 361.653 295.081 295.966 297.198 258.596C297.359 255.754 297.533 253.076 297.714 250.596H255.717ZM508.887 433.967V250.596H558.575L549.11 433.967H508.887ZM541.512 425.967L550.151 258.596H516.887V425.967H541.512ZM711.158 417.601L702.458 261.557L735.129 259.195V423.684L711.158 417.601ZM743.129 250.596L694.033 254.145L703.497 423.911L743.129 433.967V250.596Z" fill="#EC57E2"/>
</g>
<g filter="url(#filter1_f_159_839)">
<path fill-rule="evenodd" clip-rule="evenodd" d="M453.284 299.1H488.184V250.596H376.978L382.893 299.1H412.469V433.967H453.284V299.1ZM445.284 425.967V291.1H480.184V258.596H386.013L389.977 291.1H420.469V425.967H445.284ZM636.064 250.596H591.7V433.967H675.104C676.271 426.964 678.432 407.202 679.86 394.137C679.952 393.291 680.042 392.473 680.127 391.688C680.508 388.214 680.819 385.395 681.019 383.688H628.966L636.064 250.596ZM672.079 391.688H620.527L627.626 258.596H599.7V425.967H668.16C669.298 417.126 670.771 403.652 671.858 393.707C671.933 393.016 672.007 392.342 672.079 391.688ZM938.331 259.469H891.601L930.641 364.759V426.869H986.835L982.695 369.491L1023.51 250.596H971.456L954.302 305.607L938.331 259.469ZM977.341 258.596L954.698 331.209L932.634 267.469H903.099L938.641 363.324V418.869H978.237L974.598 368.438L1012.31 258.596H977.341ZM811.464 290.509V418.869H842.786V290.509H868.813V258.596H778.339V290.509H811.464ZM770.339 250.596H876.813V298.509H850.786V426.869H803.464V298.509H770.339V250.596ZM262.679 258.596C258.939 287.213 256.688 326.95 260.991 360.93C263.326 379.367 267.515 395.451 273.968 407.071C280.324 418.517 288.371 424.86 298.613 426.018C313.785 427.733 324.703 424.187 332.854 417.206C341.258 410.01 347.62 398.391 351.87 382.375C360.017 351.671 359.609 307.928 354.424 258.596H333.179C333.856 283.092 333.942 315.193 332.21 340.549C331.256 354.523 329.708 367.215 327.113 375.437C326.446 377.549 325.633 379.627 324.601 381.463C323.617 383.212 322.108 385.335 319.78 386.827C317.114 388.535 313.85 389.09 310.605 388.084C307.772 387.206 305.66 385.359 304.174 383.699C298.646 377.52 295.373 367.648 293.218 357.395C290.983 346.764 289.661 334.2 288.943 321.344C287.719 299.443 288.211 276.046 289.186 258.596H262.679ZM255.717 250.596C247.041 309.156 243.295 427.815 297.714 433.967C365.739 441.657 373.429 355.295 361.598 250.596H324.924C325.014 253.151 325.099 255.824 325.176 258.596C326.61 310.144 325.404 395.429 310.136 378.364C295.184 361.653 295.081 295.966 297.198 258.596C297.359 255.754 297.533 253.076 297.714 250.596H255.717ZM508.887 433.967V250.596H558.575L549.11 433.967H508.887ZM541.512 425.967L550.151 258.596H516.887V425.967H541.512ZM711.158 417.601L702.458 261.557L735.129 259.195V423.684L711.158 417.601ZM743.129 250.596L694.033 254.145L703.497 423.911L743.129 433.967V250.596Z" fill="#EC57E2"/>
</g>
<g filter="url(#filter2_f_159_839)">
<path fill-rule="evenodd" clip-rule="evenodd" d="M457.284 304.1H492.184V255.596H380.978L386.893 304.1H416.469V438.967H457.284V304.1ZM449.284 430.967V296.1H484.184V263.596H390.013L393.977 296.1H424.469V430.967H449.284ZM640.064 255.596H595.7V438.967H679.104C680.271 431.964 682.432 412.202 683.86 399.137C683.952 398.291 684.042 397.473 684.127 396.688C684.508 393.214 684.819 390.395 685.019 388.688H632.966L640.064 255.596ZM676.079 396.688H624.527L631.626 263.596H603.7V430.967H672.16C673.298 422.126 674.771 408.652 675.858 398.707C675.933 398.016 676.007 397.342 676.079 396.688ZM942.331 264.469H895.601L934.641 369.759V431.869H990.835L986.695 374.491L1027.51 255.596H975.456L958.302 310.607L942.331 264.469ZM981.341 263.596L958.698 336.209L936.634 272.469H907.099L942.641 368.324V423.869H982.237L978.598 373.438L1016.31 263.596H981.341ZM815.464 295.509V423.869H846.786V295.509H872.813V263.596H782.339V295.509H815.464ZM774.339 255.596H880.813V303.509H854.786V431.869H807.464V303.509H774.339V255.596ZM266.679 263.596C262.939 292.213 260.688 331.95 264.991 365.93C267.326 384.367 271.515 400.451 277.968 412.071C284.324 423.517 292.371 429.86 302.613 431.018C317.785 432.733 328.703 429.187 336.854 422.206C345.258 415.01 351.62 403.391 355.87 387.375C364.017 356.671 363.609 312.928 358.424 263.596H337.179C337.856 288.092 337.942 320.193 336.21 345.549C335.256 359.523 333.708 372.215 331.113 380.437C330.446 382.549 329.633 384.627 328.601 386.463C327.617 388.212 326.108 390.335 323.78 391.827C321.114 393.535 317.85 394.09 314.605 393.084C311.772 392.206 309.66 390.359 308.174 388.699C302.646 382.52 299.373 372.648 297.218 362.395C294.983 351.764 293.661 339.2 292.943 326.344C291.719 304.443 292.211 281.046 293.186 263.596H266.679ZM259.717 255.596C251.041 314.156 247.295 432.815 301.714 438.967C369.739 446.657 377.429 360.295 365.598 255.596H328.924C329.014 258.151 329.099 260.824 329.176 263.596C330.61 315.144 329.404 400.429 314.136 383.364C299.184 366.653 299.081 300.966 301.198 263.596C301.359 260.754 301.533 258.076 301.714 255.596H259.717ZM512.887 438.967V255.596H562.575L553.11 438.967H512.887ZM545.512 430.967L554.151 263.596H520.887V430.967H545.512ZM715.158 422.601L706.458 266.557L739.129 264.195V428.684L715.158 422.601ZM747.129 255.596L698.033 259.145L707.497 428.911L747.129 438.967V255.596Z" fill="#1E1E1E" fill-opacity="0.3"/>
</g>
<path fill-rule="evenodd" clip-rule="evenodd" d="M453.284 303.1C453.284 300.891 455.075 299.1 457.284 299.1H484.102C486.343 299.1 488.146 297.26 488.101 295.02L487.263 253.551C487.219 251.359 485.42 249.612 483.228 249.632L381.454 250.555C379.067 250.577 377.231 252.67 377.52 255.039L382.464 295.585C382.709 297.592 384.413 299.1 386.435 299.1H408.469C410.678 299.1 412.469 300.891 412.469 303.1V429.967C412.469 432.176 414.26 433.967 416.469 433.967H449.284C451.493 433.967 453.284 432.176 453.284 429.967V303.1ZM441.254 425.967C443.475 425.967 445.27 424.158 445.254 421.937L444.313 296.025C444.297 293.846 446.029 292.054 448.208 291.997L478.167 291.206C480.383 291.148 482.128 289.3 482.06 287.085L481.303 262.473C481.236 260.312 479.466 258.596 477.305 258.596H390.53C388.129 258.596 386.269 260.696 386.559 263.08L389.533 287.467C389.784 289.524 391.564 291.048 393.635 290.98L416.277 290.238C418.559 290.163 420.441 292.011 420.407 294.295L418.529 421.908C418.496 424.14 420.296 425.967 422.528 425.967H441.254ZM635.839 254.809C635.961 252.519 634.138 250.596 631.845 250.596H595.744C593.517 250.596 591.72 252.413 591.744 254.639L593.657 430.011C593.68 432.203 595.464 433.967 597.656 433.967H671.716C673.671 433.967 675.337 432.557 675.607 430.62C676.822 421.925 678.618 405.498 679.86 394.137C679.952 393.291 680.042 392.473 680.127 391.688C680.267 390.416 680.397 389.231 680.515 388.157C680.778 385.777 678.915 383.688 676.521 383.688H633.185C630.892 383.688 629.068 381.764 629.19 379.475L635.839 254.809ZM671.858 393.707C671.975 392.636 671.125 391.706 670.048 391.726L623.908 392.604C621.556 392.649 619.673 390.664 619.842 388.318L628.687 265.432C628.842 263.274 627.253 261.383 625.1 261.165L604.102 259.041C601.746 258.803 599.7 260.652 599.7 263.021V421.026C599.7 423.212 601.455 424.993 603.64 425.025L663.589 425.914C665.623 425.944 667.355 424.443 667.647 422.43C668.898 413.794 670.907 402.402 671.858 393.707ZM939.263 262.16C938.705 260.549 937.187 259.469 935.483 259.469H897.35C894.563 259.469 892.631 262.246 893.599 264.859L930.391 364.086C930.557 364.531 930.641 365.002 930.641 365.477V422.869C930.641 425.078 932.432 426.869 934.641 426.869H982.461C984.811 426.869 986.655 424.853 986.445 422.512L981.773 370.367C981.722 369.79 981.796 369.209 981.991 368.663L1021.67 257.731C1022.58 255.186 1020.76 252.49 1018.06 252.386L974.516 250.713C972.71 250.644 971.082 251.794 970.544 253.52L957.922 293.997C956.773 297.682 951.586 297.762 950.324 294.115L939.263 262.16ZM979.615 255.869C977.712 255.71 975.963 256.918 975.437 258.754L958.182 319.037C957.107 322.794 951.835 322.938 950.557 319.245L933.602 270.265C933.027 268.603 931.434 267.512 929.677 267.576L910.382 268.277C907.731 268.373 905.906 270.975 906.719 273.5L935.482 362.831C935.588 363.158 935.65 363.498 935.669 363.841L938.437 415.085C938.551 417.207 940.305 418.869 942.431 418.869H973.938C976.261 418.869 978.095 416.897 977.928 414.581L974.657 369.253C974.618 368.715 974.688 368.176 974.863 367.666L1010.64 263.454C1011.48 260.988 1009.78 258.385 1007.19 258.169L979.615 255.869ZM803.453 289.647C805.666 289.571 807.52 291.307 807.588 293.521L811.344 414.992C811.411 417.152 813.181 418.869 815.342 418.869H838.786C840.995 418.869 842.786 417.078 842.786 414.869V294.509C842.786 292.3 844.577 290.509 846.786 290.509H864.813C867.022 290.509 868.813 288.718 868.813 286.509V262.596C868.813 260.387 867.022 258.596 864.813 258.596H782.339C780.13 258.596 778.339 260.387 778.339 262.596V286.369C778.339 288.632 780.215 290.444 782.476 290.367L803.453 289.647ZM770.427 254.72C770.379 252.463 772.206 250.613 774.464 250.634L872.85 251.558C875.045 251.579 876.813 253.364 876.813 255.558V294.509C876.813 296.718 875.022 298.509 872.813 298.509H854.786C852.577 298.509 850.786 300.3 850.786 302.509V422.952C850.786 425.129 849.046 426.906 846.87 426.952L807.549 427.783C805.307 427.83 803.464 426.026 803.464 423.783V302.386C803.464 300.226 801.748 298.455 799.589 298.388L775.133 297.627C773.006 297.561 771.303 295.841 771.258 293.714L770.427 254.72ZM266.191 258.596C264.182 258.596 262.485 260.079 262.23 262.072C258.613 290.374 254.859 328.305 258.991 360.93C261.326 379.367 266.515 395.451 272.968 407.071C279.324 418.517 288.371 427.86 298.613 429.018C313.785 430.733 324.703 424.187 332.854 417.206C341.258 410.01 347.62 398.391 351.87 382.375C359.829 352.381 358.669 310.899 353.777 263.008C353.577 261.046 351.971 259.524 350.001 259.427L337.494 258.809C335.167 258.694 333.235 260.582 333.29 262.912C333.859 286.776 333.842 316.657 332.21 340.549C331.256 354.523 329.708 367.215 327.113 375.437C326.446 377.549 325.633 379.627 324.601 381.463C323.617 383.212 322.108 385.335 319.78 386.827C317.114 388.535 313.85 389.09 310.605 388.084C307.772 387.206 305.66 385.359 304.174 383.699C298.646 377.52 295.373 367.648 293.218 357.395C290.983 346.764 289.661 334.2 288.943 321.344C287.815 301.164 288.144 279.713 288.966 262.816C289.077 260.522 287.253 258.596 284.956 258.596H266.191ZM259.168 250.596C257.185 250.596 255.505 252.009 255.231 253.973C246.92 313.593 244.321 427.931 297.714 433.967C364.945 441.567 374.218 356.323 363.004 253.257C362.78 251.194 361.005 249.638 358.929 249.693L328.958 250.489C326.736 250.548 324.989 252.407 325.059 254.629C325.1 255.927 325.139 257.25 325.176 258.596C326.61 310.144 325.404 395.429 310.136 378.364C295.184 361.653 295.081 295.966 297.198 258.596C297.27 257.326 297.345 256.089 297.421 254.888C297.569 252.569 295.736 250.596 293.412 250.596H259.168ZM512.887 433.967C510.678 433.967 508.887 432.176 508.887 429.967V254.514C508.887 252.337 510.628 250.56 512.805 250.515L553.301 249.683C555.614 249.636 557.485 251.555 557.379 253.866L549.285 430.151C549.187 432.286 547.427 433.967 545.29 433.967H512.887ZM537.539 425.783C539.737 425.885 541.605 424.192 541.719 421.995L549.939 263.678C550.055 261.438 548.307 259.54 546.065 259.473L521.082 258.722C518.798 258.653 516.921 260.508 516.962 262.792L519.819 421.217C519.857 423.326 521.527 425.043 523.634 425.14L537.539 425.783ZM717.938 413.641C716.821 412.989 716.088 411.837 715.972 410.549L702.826 265.614C702.624 263.385 704.29 261.424 706.522 261.263L730.841 259.505C733.157 259.337 735.129 261.172 735.129 263.494V416.715C735.129 419.803 731.778 421.726 729.111 420.168L717.938 413.641ZM743.129 254.895C743.129 252.573 741.157 250.738 738.841 250.906L697.957 253.861C695.779 254.019 694.13 255.893 694.252 258.073L703.334 420.979C703.431 422.724 704.65 424.204 706.344 424.633L738.145 432.703C740.673 433.344 743.129 431.433 743.129 428.825V254.895Z" fill="#FDF8FD"/>
<path d="M365 204.924C327.4 204.924 259.333 210.257 230 212.924C261.5 191.424 549 197.923 582 197.923C589.498 197.923 582.745 198.698 614.5 199.801C617.588 199.908 650.757 190.019 654 190.132C686.222 191.256 735.733 194.646 776 195.9C784.32 196.159 782.673 204.413 791 204.657C880.139 207.269 966.372 208.809 979 204.924C1005 196.924 1054.5 220.924 1066.5 228.424C1078.5 235.924 1083 266.424 1083 295.924C1083 325.424 1080 396.923 1080 405.423C1080 412.223 1072 437.257 1066.5 443.424L1072.5 416.424C1077 361.923 1072.5 304.423 1072.5 274.923C1072.5 245.423 1057 238.924 1046.5 228.424C1036 217.924 973 217.424 945 216.424C922.6 215.624 792.333 211.09 730 208.924C624 206.257 402.6 204.924 365 204.924Z" fill="#EC57E2"/>
<path d="M1048 549.5C1052.83 552.333 1063.9 554.7 1069.5 541.5C1068.83 549.833 1063.6 563.1 1048 549.5Z" fill="#EC57E2"/>
<path d="M990.5 575C1001.17 574.667 1024.8 571.8 1034 563C1028.67 568.667 1012.5 579 990.5 575Z" fill="#EC57E2"/>
<path d="M299.5 504.5C302 507.167 311.2 511.7 328 508.5C320.667 512.5 304.7 517.3 299.5 504.5Z" fill="#EC57E2"/>
<defs>
<filter id="filter0_f_159_839" x="200.646" y="200.596" width="872.863" height="283.849" filterUnits="userSpaceOnUse" color-interpolation-filters="sRGB">
<feFlood flood-opacity="0" result="BackgroundImageFix"/>
<feBlend mode="normal" in="SourceGraphic" in2="BackgroundImageFix" result="shape"/>
<feGaussianBlur stdDeviation="25" result="effect1_foregroundBlur_159_839"/>
</filter>
<filter id="filter1_f_159_839" x="0.646484" y="0.595703" width="1272.86" height="683.849" filterUnits="userSpaceOnUse" color-interpolation-filters="sRGB">
<feFlood flood-opacity="0" result="BackgroundImageFix"/>
<feBlend mode="normal" in="SourceGraphic" in2="BackgroundImageFix" result="shape"/>
<feGaussianBlur stdDeviation="125" result="effect1_foregroundBlur_159_839"/>
</filter>
<filter id="filter2_f_159_839" x="244.646" y="245.596" width="792.863" height="203.849" filterUnits="userSpaceOnUse" color-interpolation-filters="sRGB">
<feFlood flood-opacity="0" result="BackgroundImageFix"/>
<feBlend mode="normal" in="SourceGraphic" in2="BackgroundImageFix" result="shape"/>
<feGaussianBlur stdDeviation="5" result="effect1_foregroundBlur_159_839"/>
</filter>
<linearGradient id="paint0_linear_159_839" x1="655" y1="461.924" x2="655" y2="817.924" gradientUnits="userSpaceOnUse">
<stop stop-color="#0F0E0D"/>
<stop offset="1" stop-color="#0F0E0D" stop-opacity="0"/>
</linearGradient>
</defs>
</svg>
