<svg width="1008" height="448" viewBox="0 0 1008 448" fill="none" xmlns="http://www.w3.org/2000/svg">
<path d="M913.888 444.54C988.817 449.799 981.295 298.465 968.169 222.14L913.888 230.357C945.819 290.065 990.521 413.755 913.888 430.846C837.256 447.937 799.652 357.991 790.429 310.881L765.948 303.76C742.532 380.45 820.228 437.967 913.888 444.54Z" fill="#2B2B26"/>
<path fill-rule="evenodd" clip-rule="evenodd" d="M970.864 218.406L971.41 221.582C978.001 259.906 983.214 317.176 977.312 364.342C974.366 387.889 968.609 409.287 958.574 424.549C948.409 440.009 933.771 449.232 913.658 447.821C866.293 444.497 822.712 428.285 793.844 402.914C764.858 377.44 750.649 342.604 762.802 302.799L763.75 299.695L793.271 308.283L793.656 310.249C798.205 333.484 809.76 367.223 829.489 392.936C849.146 418.555 876.527 435.809 913.173 427.636C931.268 423.6 941.979 413.408 947.663 399.464C953.435 385.303 954.101 367.041 951.342 347.032C945.829 307.051 926.863 261.592 910.988 231.907L908.793 227.802L970.864 218.406ZM918.954 232.916C934.542 262.942 952.447 306.9 957.857 346.133C960.686 366.647 960.154 386.244 953.753 401.947C947.264 417.867 934.825 429.546 914.604 434.055C874.617 442.973 844.88 423.799 824.271 396.94C804.292 370.903 792.526 337.272 787.598 313.483L768.195 307.838C758.574 343.424 771.538 374.554 798.186 397.973C825.726 422.177 867.824 438.01 914.119 441.26C931.47 442.477 943.99 434.756 953.078 420.935C962.296 406.915 967.887 386.695 970.786 363.525C976.415 318.53 971.736 263.803 965.464 225.875L918.954 232.916Z" fill="#0F0E0D"/>
<g opacity="0.65">
<path d="M973.311 354.783C964.541 351.275 959.06 363.918 957.416 370.679C957.416 359.716 954.858 341.263 953.579 333.407L973.311 301.616C978.135 311.701 975.321 341.263 973.311 354.783Z" fill="#0F0E0D"/>
<path d="M963.445 403.017L953.579 394.247C953.579 404.333 943.348 415.258 938.232 419.461C949.633 419.899 942.982 431.702 938.232 437.548C948.756 433.602 959.426 412.883 963.445 403.017Z" fill="#0F0E0D"/>
</g>
<path d="M973.897 423.408C1003.24 426.721 990.252 275.916 980.092 200.1L959.639 209.699C975.967 268.451 1001.5 390.713 972.985 409.744C944.474 428.775 923.937 339.999 917.233 293.232L907.287 286.758C903.333 363.882 937.222 419.267 973.897 423.408Z" fill="#2B2B26"/>
<path fill-rule="evenodd" clip-rule="evenodd" d="M984.53 191.962L985.523 199.372C990.617 237.389 996.431 294.273 997.285 341.329C997.711 364.795 996.913 386.155 994.059 401.574C992.644 409.217 990.636 415.926 987.67 420.746C984.626 425.693 979.869 429.599 973.28 428.855C952.389 426.496 933.484 409.807 920.498 384.994C907.415 359.994 899.792 325.865 901.812 286.478L902.299 276.973L922.304 289.995L922.657 292.455C925.984 315.663 932.726 349.115 942.068 374.253C946.783 386.943 951.923 396.839 957.166 402.376C959.748 405.102 961.982 406.371 963.809 406.757C965.448 407.103 967.402 406.88 969.94 405.185C972.212 403.669 974.37 400.827 976.139 396.154C977.898 391.507 979.108 385.477 979.763 378.227C981.074 363.731 980.095 345.266 977.683 325.274C972.867 285.348 962.475 240.38 954.356 211.168L953.116 206.706L984.53 191.962ZM980.091 200.1L959.637 209.7C975.965 268.452 1001.49 390.713 972.983 409.744C944.472 428.775 923.936 339.999 917.231 293.233L907.286 286.759C907.176 288.903 907.095 291.031 907.043 293.141C905.218 366.923 938.24 419.382 973.895 423.409C1002.52 426.64 990.861 283.212 980.842 205.803C980.59 203.859 980.34 201.957 980.091 200.1Z" fill="#0F0E0D"/>
<g opacity="0.65">
<path d="M934.393 356.976C926.5 349.96 921.603 367.207 920.142 376.708L904.794 333.955L926.719 331.214L934.393 356.976Z" fill="#0F0E0D"/>
<path d="M985.915 257.767L973.309 285.721L978.79 307.646C978.79 294.491 987.925 293.76 992.493 295.039L985.915 257.767Z" fill="#0F0E0D"/>
</g>
<path d="M160.555 376.843C209.708 363.703 206.338 251.96 192.354 173.004L179.98 163.542C194.308 224.803 210.73 350.5 161.797 363.205C112.863 375.91 97.7692 284.217 96.339 236.783L99.1902 212.981C77.7568 288.036 102.246 392.431 160.555 376.843Z" fill="#2B2B26"/>
<path fill-rule="evenodd" clip-rule="evenodd" d="M197.378 169.947L197.751 172.049C204.79 211.791 209.203 259.99 205.59 300.097C203.785 320.126 199.95 338.509 193.186 352.887C186.403 367.304 176.363 378.291 161.97 382.139C145.536 386.532 131.223 382.402 119.772 372.521C108.562 362.848 100.282 347.866 94.7483 330.575C83.6725 295.967 82.9185 249.998 93.9192 211.476L104.632 213.633L101.83 237.026C102.571 260.427 106.669 294.311 116.395 320.648C121.301 333.932 127.438 344.733 134.809 351.424C141.907 357.867 150.16 360.564 160.419 357.901C170.128 355.38 177.296 347.153 182.126 333.442C186.949 319.752 189.021 301.638 189.13 281.553C189.347 241.463 181.749 195.179 174.642 164.791L171.159 149.899L197.378 169.947ZM91.9939 255.72C92.4021 249.393 93.0785 243.08 94.029 236.853C94.0463 236.74 94.0637 236.626 94.0811 236.513C95.3221 228.472 97.0207 220.576 99.1896 212.981L96.3385 236.783C96.5113 242.515 96.8835 248.892 97.4909 255.654C101.91 304.852 118.775 374.376 161.796 363.206C208.604 351.052 195.61 235.509 181.852 171.875C181.228 168.986 180.602 166.204 179.979 163.543L192.354 173.005C206.338 251.961 209.708 363.703 160.554 376.844C112.796 389.611 87.7255 321.887 91.9939 255.72Z" fill="#0F0E0D"/>
<g opacity="0.65">
<path d="M108.39 332.311C104.005 334.065 110.948 352.774 114.967 361.909C107.951 355.331 97.4277 325.551 93.0432 311.482L111.131 318.608L117.16 333.955C116.064 332.676 112.775 330.557 108.39 332.311Z" fill="#0F0E0D"/>
<path d="M186.222 332.311L182.386 343.821C185.455 338.998 193.165 337.426 196.637 337.244V333.955L186.222 332.311Z" fill="#0F0E0D"/>
</g>
<path d="M69.293 292.828C54.768 253.403 49.8398 119.478 49.1914 51.6079C48.6708 19.8343 910.32 51.6079 941.445 51.6079C943.549 51.6079 945.439 52.5466 947.135 54.3058C957.685 60.2009 972.791 73.2428 977.109 94.4047C983.594 126.178 984.891 325.898 957.008 339.515C630.829 347.513 79.6365 359.747 69.293 292.828Z" fill="#181816"/>
<path fill-rule="evenodd" clip-rule="evenodd" d="M879.039 47.6514C914.258 48.7259 936.862 49.4155 941.447 49.4155C944.172 49.4155 946.522 50.6078 948.479 52.546C959.356 58.7024 974.807 72.1534 979.259 93.9664C980.925 102.129 982.221 120.761 982.818 144.137C983.417 167.588 983.316 196.007 982.138 223.861C980.961 251.701 978.707 279.045 974.985 300.318C973.125 310.946 970.885 320.146 968.191 327.162C966.844 330.672 965.36 333.7 963.71 336.107C962.069 338.501 960.178 340.408 957.971 341.485L957.541 341.695L957.063 341.707C793.983 345.706 574.587 350.765 394.661 346.457C304.71 344.303 224.546 339.807 166.191 331.65C137.03 327.574 113.198 322.569 96.2824 316.436C87.8297 313.372 80.987 309.985 76.0526 306.209C71.1973 302.494 67.9908 298.245 67.1639 293.386C63.4744 283.272 60.443 267.381 57.9431 248.334C55.42 229.11 53.4182 206.502 51.8522 183.031C48.7202 136.089 47.325 85.6001 47.0004 51.6351C46.9669 49.2894 48.8908 47.7926 50.5773 46.8829C52.4436 45.8761 55.0677 45.011 58.2728 44.2402C64.7209 42.6895 74.093 41.3907 85.9045 40.3023C109.559 38.1226 143.362 36.7563 183.971 36.0114C265.205 34.5213 373.868 35.5149 483.492 37.5008C638.2 40.3035 794.749 45.0797 879.039 47.6514ZM77.8258 302.021C78.1127 302.256 78.4098 302.492 78.7171 302.727C83.1525 306.12 89.531 309.324 97.777 312.314C114.259 318.29 137.734 323.245 166.798 327.308C224.894 335.428 304.854 339.921 394.766 342.074C574.377 346.374 793.393 341.333 956.438 337.336C957.603 336.659 958.834 335.464 960.093 333.628C961.484 331.598 962.824 328.908 964.098 325.591C966.645 318.955 968.827 310.07 970.665 299.562C974.34 278.565 976.584 251.44 977.757 223.676C978.93 195.927 979.031 167.607 978.435 144.249C977.836 120.816 976.539 102.567 974.962 94.8432C971.792 79.3091 962.556 68.2933 953.819 61.4155C954.788 63.8603 955.642 66.6065 956.404 69.5835C958.313 77.0474 959.718 86.3173 960.734 96.7475C962.768 117.616 963.27 143.377 963.041 169.147C962.812 194.928 961.851 220.774 960.948 241.825C960.697 247.674 960.451 253.145 960.227 258.138C959.641 271.161 959.202 280.933 959.202 285.695C959.202 309.168 948.528 322.516 942.663 326.426L942.115 326.791L941.457 326.794C917.811 326.906 892.962 327.043 867.211 327.186C719.147 328.005 541.282 328.989 391.059 326.258C302.89 324.656 224.194 321.774 166.614 316.822C137.835 314.347 114.256 311.35 97.3844 307.718C89.3618 305.991 82.7687 304.103 77.8258 302.021ZM941.035 53.7989C942.401 54.3363 944.007 55.0854 945.772 56.0565C948.192 58.7144 950.355 63.6281 952.156 70.67C953.986 77.8281 955.364 86.8509 956.37 97.1729C958.381 117.809 958.885 143.389 958.657 169.108C958.428 194.814 957.47 220.601 956.567 241.637C956.32 247.405 956.076 252.824 955.853 257.789C955.264 270.885 954.817 280.827 954.817 285.695C954.817 307.062 945.463 318.888 940.746 322.412C917.301 322.524 892.68 322.66 867.178 322.801C719.109 323.62 541.305 324.603 391.139 321.874C302.991 320.272 224.416 317.392 166.989 312.453C138.265 309.983 114.905 307.004 98.3071 303.431C89.9984 301.643 83.4798 299.725 78.8583 297.692C76.5485 296.675 74.784 295.661 73.524 294.669C72.2553 293.671 71.6167 292.789 71.3516 292.07C67.8118 282.462 64.8038 266.911 62.2907 247.764C59.7844 228.667 57.7901 206.161 56.2274 182.739C53.1052 135.943 51.7117 85.5898 51.386 51.6857C51.447 51.5902 51.7071 51.2556 52.659 50.7421C54.0247 50.0054 56.2132 49.2454 59.2981 48.5035C65.4297 47.0289 74.5467 45.7523 86.3068 44.6687C109.795 42.5043 143.467 41.1401 184.051 40.3956C265.202 38.907 373.799 39.8992 483.413 41.885C637.906 44.6838 794.493 49.459 878.881 52.0325C913.232 53.08 935.62 53.7628 941.035 53.7989Z" fill="#0F0E0D"/>
<path d="M973.311 279.059C965.419 297.037 962.349 239.047 961.801 207.804L954.676 303.724C953.764 316.002 944.43 322.36 939.877 324.004H904.797L544.139 326.745C575.381 339.9 841.764 328.389 871.911 328.389C896.028 328.389 887.075 336.794 879.584 340.996C896.21 340.448 933.957 339.242 951.935 338.804C969.913 338.365 973.677 298.791 973.311 279.059Z" fill="#0F0E0D"/>
<path d="M961.801 160.119C973.202 110.131 963.628 74.2476 957.416 62.5545L951.935 59.814C961.582 77.3536 962.532 133.992 961.801 160.119Z" fill="#0F0E0D"/>
<path opacity="0.6" d="M961.801 162.396L957.416 69.7649V63.1875C969.255 67.5724 976.235 90.2277 978.244 101.007L981.533 172.262C980.619 202.226 978.464 264.564 977.148 274.211C975.833 283.858 968.926 287.731 965.638 288.462L961.801 268.73V162.396Z" fill="#0F0E0D"/>
<path opacity="0.6" d="M518.377 326.282H913.018V340.533L792.433 343.821L560.033 346.014L373.675 343.821C347.366 343.383 249.071 337.427 203.212 334.503L114.417 320.252C84.1616 315.429 76.2323 302.165 76.0496 296.135C77.365 320.691 371.483 326.464 518.377 326.282Z" fill="#0F0E0D"/>
<g filter="url(#filter0_f_18_46)">
<path fill-rule="evenodd" clip-rule="evenodd" d="M302.734 133.456H340.992V80.2837H219.085L225.57 133.456H257.992V281.3H302.734V133.456ZM293.964 272.53V124.686H332.222V89.0535H228.99L233.335 124.686H266.762V272.53H293.964ZM503.102 80.2837H454.469V281.3H545.899C547.179 273.623 549.547 251.959 551.113 237.637C551.214 236.71 551.312 235.813 551.406 234.953C551.823 231.145 552.164 228.054 552.384 226.183H495.321L503.102 80.2837ZM542.583 234.953H486.071L493.852 89.0535H463.239V272.53H538.287C539.534 262.838 541.149 248.068 542.341 237.166C542.424 236.408 542.504 235.67 542.583 234.953ZM834.455 90.0103H783.229L826.026 205.433V273.519H887.627L883.088 210.62L927.831 80.2837H870.768L851.963 140.589L834.455 90.0103ZM877.22 89.0535L852.398 168.654L828.211 98.7801H795.833L834.795 203.859V264.749H878.202L874.212 209.466L915.548 89.0535H877.22ZM695.381 124.038V264.749H729.716V124.038H758.248V89.0535H659.068V124.038H695.381ZM650.298 80.2837H767.017V132.807H738.486V273.519H686.611V132.807H650.298V80.2837ZM93.7888 89.0535C89.688 120.425 87.2206 163.985 91.9381 201.235C94.4979 221.446 99.0896 239.078 106.163 251.816C113.131 264.364 121.952 271.317 133.18 272.586C149.812 274.466 161.781 270.579 170.716 262.927C179.929 255.037 186.903 242.3 191.561 224.744C200.493 191.085 200.045 143.133 194.361 89.0535H171.072C171.814 115.907 171.909 151.097 170.01 178.893C168.964 194.212 167.267 208.125 164.422 217.138C163.692 219.454 162.8 221.731 161.669 223.743C160.59 225.662 158.936 227.988 156.384 229.624C153.462 231.496 149.883 232.105 146.325 231.002C143.22 230.04 140.905 228.015 139.276 226.194C133.216 219.421 129.629 208.6 127.266 197.36C124.816 185.705 123.367 171.933 122.579 157.84C121.237 133.831 121.777 108.183 122.846 89.0535H93.7888ZM86.1558 80.2837C76.6453 144.479 72.5385 274.556 132.195 281.3C206.766 289.73 215.195 195.058 202.226 80.2837H162.023C162.122 83.0846 162.215 86.0156 162.299 89.0535C163.871 145.562 162.549 239.054 145.812 220.347C129.421 202.027 129.308 130.02 131.629 89.0535C131.806 85.9383 131.996 83.0026 132.195 80.2837H86.1558ZM363.688 281.3V80.2837H418.157L407.782 281.3H363.688ZM399.453 272.53L408.923 89.0535H372.457V272.53H399.453ZM585.422 263.36L575.886 92.2993L611.7 89.7103V270.027L585.422 263.36ZM620.47 80.2837L566.649 84.1743L577.025 270.277L620.47 281.3V80.2837Z" fill="#EC57E2"/>
</g>
<g filter="url(#filter1_f_18_46)">
<path fill-rule="evenodd" clip-rule="evenodd" d="M302.734 133.456H340.992V80.2837H219.085L225.57 133.456H257.992V281.3H302.734V133.456ZM293.964 272.53V124.686H332.222V89.0535H228.99L233.335 124.686H266.762V272.53H293.964ZM503.102 80.2837H454.469V281.3H545.899C547.179 273.623 549.547 251.959 551.113 237.637C551.214 236.71 551.312 235.813 551.406 234.953C551.823 231.145 552.164 228.054 552.384 226.183H495.321L503.102 80.2837ZM542.583 234.953H486.071L493.852 89.0535H463.239V272.53H538.287C539.534 262.838 541.149 248.068 542.341 237.166C542.424 236.408 542.504 235.67 542.583 234.953ZM834.455 90.0103H783.229L826.026 205.433V273.519H887.627L883.088 210.62L927.831 80.2837H870.768L851.963 140.589L834.455 90.0103ZM877.22 89.0535L852.398 168.654L828.211 98.7801H795.833L834.795 203.859V264.749H878.202L874.212 209.466L915.548 89.0535H877.22ZM695.381 124.038V264.749H729.716V124.038H758.248V89.0535H659.068V124.038H695.381ZM650.298 80.2837H767.017V132.807H738.486V273.519H686.611V132.807H650.298V80.2837ZM93.7888 89.0535C89.688 120.425 87.2206 163.985 91.9381 201.235C94.4979 221.446 99.0896 239.078 106.163 251.816C113.131 264.364 121.952 271.317 133.18 272.586C149.812 274.466 161.781 270.579 170.716 262.927C179.929 255.037 186.903 242.3 191.561 224.744C200.493 191.085 200.045 143.133 194.361 89.0535H171.072C171.814 115.907 171.909 151.097 170.01 178.893C168.964 194.212 167.267 208.125 164.422 217.138C163.692 219.454 162.8 221.731 161.669 223.743C160.59 225.662 158.936 227.988 156.384 229.624C153.462 231.496 149.883 232.105 146.325 231.002C143.22 230.04 140.905 228.015 139.276 226.194C133.216 219.421 129.629 208.6 127.266 197.36C124.816 185.705 123.367 171.933 122.579 157.84C121.237 133.831 121.777 108.183 122.846 89.0535H93.7888ZM86.1558 80.2837C76.6453 144.479 72.5385 274.556 132.195 281.3C206.766 289.73 215.195 195.058 202.226 80.2837H162.023C162.122 83.0846 162.215 86.0156 162.299 89.0535C163.871 145.562 162.549 239.054 145.812 220.347C129.421 202.027 129.308 130.02 131.629 89.0535C131.806 85.9383 131.996 83.0026 132.195 80.2837H86.1558ZM363.688 281.3V80.2837H418.157L407.782 281.3H363.688ZM399.453 272.53L408.923 89.0535H372.457V272.53H399.453ZM585.422 263.36L575.886 92.2993L611.7 89.7103V270.027L585.422 263.36ZM620.47 80.2837L566.649 84.1743L577.025 270.277L620.47 281.3V80.2837Z" fill="#EC57E2" fill-opacity="0.5"/>
</g>
<g filter="url(#filter2_f_18_46)">
<path fill-rule="evenodd" clip-rule="evenodd" d="M307.116 138.937H345.374V85.7651H223.467L229.952 138.937H262.374V286.782H307.116V138.937ZM298.346 278.012V130.167H336.604V94.5349H233.372L237.717 130.167H271.144V278.012H298.346ZM507.484 85.7651H458.851V286.782H550.281C551.561 279.105 553.929 257.441 555.494 243.119C555.596 242.191 555.694 241.294 555.788 240.434C556.205 236.626 556.545 233.535 556.766 231.664H499.703L507.484 85.7651ZM546.965 240.434H490.453L498.234 94.5349H467.621V278.012H542.669C543.916 268.32 545.531 253.549 546.723 242.647C546.805 241.89 546.886 241.151 546.965 240.434ZM838.837 95.4917H787.61L830.407 210.914V279H892.009L887.47 216.102L932.213 85.7651H875.15L856.345 146.07L838.837 95.4917ZM881.601 94.5349L856.78 174.136L832.593 104.262H800.215L839.177 209.341V270.231H882.584L878.594 214.947L919.93 94.5349H881.601ZM699.763 129.519V270.231H734.098V129.519H762.63V94.5349H663.45V129.519H699.763ZM654.68 85.7651H771.399V138.289H742.868V279H690.993V138.289H654.68V85.7651ZM98.1706 94.5349C94.0699 125.906 91.6024 169.467 96.3199 206.716C98.8797 226.927 103.471 244.559 110.545 257.298C117.513 269.845 126.334 276.798 137.562 278.067C154.194 279.948 166.163 276.06 175.098 268.408C184.311 260.519 191.285 247.782 195.943 230.226C204.875 196.566 204.427 148.614 198.743 94.5349H175.454C176.196 121.388 176.291 156.579 174.392 184.375C173.346 199.694 171.648 213.606 168.804 222.619C168.073 224.935 167.182 227.213 166.05 229.225C164.972 231.143 163.318 233.47 160.766 235.105C157.844 236.978 154.265 237.586 150.707 236.484C147.602 235.521 145.287 233.497 143.658 231.676C137.598 224.902 134.011 214.081 131.648 202.842C129.198 191.187 127.749 177.415 126.961 163.322C125.619 139.312 126.159 113.664 127.228 94.5349H98.1706ZM90.5376 85.7651C81.0272 149.961 76.9204 280.038 136.577 286.782C211.148 295.211 219.577 200.539 206.608 85.7651H166.405C166.504 88.5661 166.597 91.4971 166.681 94.5349C168.252 151.043 166.931 244.535 150.194 225.828C133.802 207.509 133.69 135.501 136.011 94.5349C136.188 91.4198 136.378 88.4841 136.577 85.7651H90.5376ZM368.069 286.782V85.7651H422.538L412.163 286.782H368.069ZM403.835 278.012L413.304 94.5349H376.839V278.012H403.835ZM589.804 268.841L580.268 97.7808L616.082 95.1918V275.509L589.804 268.841ZM624.852 85.7651L571.031 89.6558L581.406 275.758L624.852 286.782V85.7651Z" fill="#1E1E1E" fill-opacity="0.3"/>
</g>
<path fill-rule="evenodd" clip-rule="evenodd" d="M302.734 137.456C302.734 135.247 304.525 133.456 306.734 133.456H336.911C339.151 133.456 340.955 131.615 340.91 129.375L339.976 83.1424C339.932 80.9511 338.132 79.2035 335.94 79.2234L223.562 80.2431C221.175 80.2648 219.338 82.3581 219.627 84.7272L225.141 129.94C225.386 131.947 227.09 133.456 229.112 133.456H253.992C256.201 133.456 257.992 135.247 257.992 137.456V277.3C257.992 279.509 259.783 281.3 261.992 281.3H298.734C300.943 281.3 302.734 279.509 302.734 277.3V137.456ZM289.934 272.53C292.155 272.53 293.951 270.721 293.934 268.501L292.898 129.707C292.881 127.528 294.613 125.736 296.792 125.679L330.399 124.792C332.614 124.734 334.359 122.885 334.291 120.67L333.438 92.9305C333.371 90.7703 331.601 89.0535 329.44 89.0535H233.507C231.106 89.0535 229.246 91.1542 229.537 93.5378L232.892 121.052C233.143 123.109 234.923 124.634 236.994 124.566L262.569 123.727C264.852 123.652 266.734 125.501 266.7 127.784L264.629 268.472C264.596 270.703 266.396 272.53 268.629 272.53H289.934ZM502.878 84.4968C503 82.2072 501.176 80.2837 498.883 80.2837H458.513C456.287 80.2837 454.489 82.1013 454.513 84.3274L456.619 277.344C456.643 279.536 458.426 281.3 460.618 281.3H542.511C544.466 281.3 546.133 279.89 546.406 277.954C547.738 268.51 549.736 250.234 551.113 237.637C551.214 236.71 551.312 235.813 551.406 234.953C551.578 233.386 551.736 231.941 551.879 230.652C552.142 228.272 550.28 226.183 547.886 226.183H499.54C497.247 226.183 495.424 224.259 495.546 221.97L502.878 84.4968ZM542.341 237.166C542.469 235.992 541.537 234.972 540.357 234.995L489.355 235.965C487.003 236.01 485.12 234.025 485.289 231.679L495.042 96.1751C495.197 94.0167 493.608 92.1261 491.455 91.9082L467.642 89.499C465.285 89.2606 463.239 91.1103 463.239 93.4786V267.493C463.239 269.679 464.994 271.46 467.18 271.493L533.62 272.477C535.654 272.508 537.386 271.009 537.675 268.995C539.042 259.489 541.286 246.813 542.341 237.166V237.166ZM835.387 92.7019C834.829 91.0909 833.312 90.0103 831.607 90.0103H788.978C786.191 90.0103 784.259 92.7882 785.227 95.401L825.776 204.76C825.941 205.205 826.026 205.676 826.026 206.15V269.519C826.026 271.728 827.816 273.519 830.026 273.519H883.253C885.603 273.519 887.447 271.503 887.237 269.162L882.071 211.496C882.019 210.919 882.093 210.338 882.288 209.792L925.994 87.6111C926.904 85.0667 925.081 82.3705 922.381 82.2668L873.828 80.4013C872.022 80.3319 870.394 81.4822 869.856 83.2076L855.584 128.978C854.434 132.664 849.248 132.744 847.985 129.096L835.387 92.7019ZM879.397 86.038C877.494 85.8792 875.745 87.0876 875.219 88.9234L855.882 156.482C854.806 160.24 849.535 160.383 848.256 156.69L829.179 101.576C828.603 99.9149 827.011 98.8237 825.254 98.8875L803.308 99.6845C800.658 99.7808 798.833 102.383 799.646 104.908L831.348 203.366C831.453 203.693 831.516 204.033 831.535 204.376L834.591 260.965C834.706 263.087 836.46 264.749 838.585 264.749H873.903C876.225 264.749 878.06 262.778 877.892 260.461L874.271 210.28C874.232 209.743 874.303 209.203 874.477 208.694L913.88 93.9115C914.727 91.4463 913.027 88.8432 910.43 88.6266L879.397 86.038ZM686.985 123.079C689.198 123.003 691.051 124.74 691.12 126.953L695.261 260.873C695.328 263.033 697.098 264.749 699.259 264.749H725.716C727.925 264.749 729.716 262.958 729.716 260.749V128.038C729.716 125.828 731.507 124.038 733.716 124.038H754.248C756.457 124.038 758.248 122.247 758.248 120.038V93.0535C758.248 90.8444 756.457 89.0535 754.248 89.0535H663.068C660.859 89.0535 659.068 90.8444 659.068 93.0535V119.898C659.068 122.161 660.944 123.973 663.205 123.896L686.985 123.079ZM650.386 84.4075C650.338 82.1508 652.166 80.3013 654.423 80.3225L763.055 81.3427C765.249 81.3633 767.017 83.1481 767.017 85.3426V128.807C767.017 131.017 765.227 132.807 763.017 132.807H742.486C740.277 132.807 738.486 134.598 738.486 136.807V269.603C738.486 271.779 736.746 273.556 734.571 273.602L690.695 274.529C688.454 274.576 686.611 272.772 686.611 270.53V136.685C686.611 134.524 684.895 132.754 682.735 132.687L655.188 131.829C653.062 131.763 651.359 130.044 651.314 127.916L650.386 84.4075ZM97.2999 89.0535C95.2912 89.0535 93.5939 90.5387 93.3387 92.5311C89.3608 123.591 85.2001 165.343 89.7457 201.235C92.3054 221.446 97.9934 239.078 105.067 251.816C112.035 264.364 121.952 274.605 133.18 275.875C149.812 277.755 161.781 270.579 170.716 262.927C179.929 255.037 186.903 242.3 191.561 224.744C200.304 191.795 199.009 146.201 193.619 93.5631C193.418 91.6013 191.812 90.078 189.842 89.9807L175.388 89.2667C173.06 89.1517 171.128 91.038 171.184 93.3677C171.818 119.596 171.809 152.563 170.01 178.893C168.964 194.212 167.267 208.125 164.422 217.138C163.692 219.454 162.8 221.731 161.669 223.743C160.59 225.662 158.936 227.988 156.384 229.624C153.462 231.496 149.883 232.105 146.325 231.002C143.22 230.04 140.905 228.015 139.276 226.195C133.216 219.421 129.629 208.6 127.266 197.36C124.816 185.705 123.367 171.933 122.579 157.84C121.334 135.556 121.709 111.859 122.624 93.2738C122.737 90.9797 120.913 89.0535 118.616 89.0535H97.2999ZM89.6068 80.2837C87.6241 80.2837 85.9451 81.692 85.6699 83.6555C76.5229 148.92 73.5652 274.673 132.195 281.3C205.971 289.64 216.081 195.991 203.729 82.8499C203.504 80.7862 201.729 79.2298 199.654 79.2849L166.057 80.1766C163.835 80.2356 162.088 82.0952 162.158 84.3171C162.207 85.8636 162.255 87.4436 162.299 89.0535C163.871 145.562 162.549 239.054 145.812 220.347C129.421 202.027 129.308 130.02 131.629 89.0535C131.716 87.5159 131.807 86.022 131.9 84.5763C132.05 82.2572 130.216 80.2837 127.892 80.2837H89.6068ZM367.688 281.3C365.479 281.3 363.688 279.509 363.688 277.3V84.2024C363.688 82.0253 365.429 80.248 367.606 80.2033L412.786 79.2753C415.1 79.2278 416.97 81.1467 416.864 83.4579L407.957 277.484C407.859 279.619 406.099 281.3 403.961 281.3H367.688ZM395.48 272.347C397.678 272.448 399.545 270.756 399.659 268.558L408.711 94.2325C408.827 91.9922 407.078 90.0943 404.836 90.0269L376.653 89.1797C374.369 89.111 372.492 90.9657 372.533 93.25L375.679 267.684C375.717 269.793 377.386 271.51 379.493 271.607L395.48 272.347ZM592.683 258.918C591.567 258.266 590.834 257.114 590.717 255.826L576.254 96.3565C576.052 94.1279 577.717 92.167 579.949 92.0056L607.412 90.0204C609.728 89.8529 611.7 91.6872 611.7 94.01V263.058C611.7 266.146 608.349 268.07 605.683 266.512L592.683 258.918ZM620.47 84.5833C620.47 82.2606 618.498 80.4263 616.182 80.5937L570.574 83.8907C568.396 84.0481 566.747 85.9229 566.868 88.1029L576.861 267.345C576.958 269.089 578.177 270.569 579.871 270.999L615.486 280.036C618.014 280.677 620.47 278.767 620.47 276.159V84.5833Z" fill="#FDF8FD"/>
<path d="M205.951 30.2162C164.733 30.2162 90.1164 36.0628 57.9604 38.986C92.4916 15.4174 407.657 22.5424 443.832 22.5424C452.052 22.5424 444.648 23.3914 479.459 24.6007C482.845 24.7183 519.206 13.8771 522.76 14.0011C558.083 15.233 612.358 18.9495 656.5 20.3245C665.621 20.6086 663.815 29.6562 672.943 29.9237C770.66 32.7872 865.19 34.4758 879.034 30.2162C907.536 21.4464 961.799 47.7558 974.954 55.9775C988.108 64.1992 993.041 97.6341 993.041 129.973C993.041 162.311 989.753 240.691 989.753 250.009C989.753 257.464 980.983 284.906 974.954 291.666L981.531 262.068C986.464 202.324 981.531 139.291 981.531 106.952C981.531 74.6132 964.539 67.4879 953.029 55.9775C941.519 44.4672 872.456 43.919 841.762 42.8228C817.207 41.9458 674.405 36.9763 606.073 34.6011C489.874 31.6779 247.169 30.2162 205.951 30.2162Z" fill="#EC57E2"/>
<path d="M954.674 407.951C959.972 411.057 972.104 413.651 978.243 399.181C977.512 408.316 971.775 422.859 954.674 407.951Z" fill="#EC57E2"/>
<path d="M134.149 358.621C136.889 361.544 146.975 366.513 165.391 363.006C157.352 367.39 139.849 372.652 134.149 358.621Z" fill="#EC57E2"/>
<defs>
<filter id="filter0_f_18_46" x="30.5979" y="30.2837" width="947.233" height="301.539" filterUnits="userSpaceOnUse" color-interpolation-filters="sRGB">
<feFlood flood-opacity="0" result="BackgroundImageFix"/>
<feBlend mode="normal" in="SourceGraphic" in2="BackgroundImageFix" result="shape"/>
<feGaussianBlur stdDeviation="25" result="effect1_foregroundBlur_18_46"/>
</filter>
<filter id="filter1_f_18_46" x="0.5979" y="0.283691" width="1007.23" height="361.539" filterUnits="userSpaceOnUse" color-interpolation-filters="sRGB">
<feFlood flood-opacity="0" result="BackgroundImageFix"/>
<feBlend mode="normal" in="SourceGraphic" in2="BackgroundImageFix" result="shape"/>
<feGaussianBlur stdDeviation="40" result="effect1_foregroundBlur_18_46"/>
</filter>
<filter id="filter2_f_18_46" x="74.9797" y="75.7651" width="867.233" height="221.539" filterUnits="userSpaceOnUse" color-interpolation-filters="sRGB">
<feFlood flood-opacity="0" result="BackgroundImageFix"/>
<feBlend mode="normal" in="SourceGraphic" in2="BackgroundImageFix" result="shape"/>
<feGaussianBlur stdDeviation="5" result="effect1_foregroundBlur_18_46"/>
</filter>
</defs>
</svg>
